<?xml version="1.0" encoding="UTF-8"?>
<svg width="1092" height="713" viewBox="0 0 1092 713" xmlns="http://www.w3.org/2000/svg" style="left: 0px; top: 0px; width: 100%; height: 100%; display: block; min-width: 1080px; min-height: 701px;"><rect x="0" y="0" width="1092" height="713" fill="#ffffff"></rect><g><g></g><g><g transform="translate(0.5,0.5)" style="visibility: visible;"><path d="M 40 200 C 40 168 40 152 70 152 C 50 152 50 120 70 120 C 90 120 90 152 70 152 C 100 152 100 168 100 200 Z" fill="#c3d9ff" stroke="#6482b9" stroke-miterlimit="10" pointer-events="all"></path></g><g style=""><g fill="#774400" font-family="Arial,Helvetica" text-anchor="middle" font-size="11px"><text x="70" y="212">移行元ユーザー</text><text x="70" y="225">(@google.com)</text></g></g><g transform="translate(0.5,0.5)" style="visibility: visible;"><rect x="180" y="60" width="360" height="300" rx="45" ry="45" fill="#fff8e1" stroke="#b09500" pointer-events="all"></rect></g><g style=""><g fill="#774400" font-family="Arial,Helvetica" font-weight="bold" text-anchor="middle" font-size="11px"><text x="360" y="72">Google スプレッドシート（唯一の操作画面）</text></g></g><g transform="translate(0.5,0.5)" style="visibility: visible;"><rect x="210" y="110" width="300" height="60" rx="9" ry="9" fill="#e8f0fe" stroke="#6c8ebf" pointer-events="all"></rect></g><g style=""><g fill="#774400" font-family="Arial,Helvetica" text-anchor="middle" font-size="11px"><text x="360" y="138">メニュー「📁 ドライブ移行」</text><text x="360" y="151">開始 / 再開 / 中止 / 進捗</text></g></g><g transform="translate(0.5,0.5)" style="visibility: visible;"><rect x="210" y="190" width="300" height="60" rx="9" ry="9" fill="#fffde7" stroke="#b09500" pointer-events="all"></rect></g><g style=""><g fill="#774400" font-family="Arial,Helvetica" text-anchor="middle" font-size="11px"><text x="360" y="218">「設定」シート</text><text x="360" y="231">移行元/移行先ID・各種設定</text></g></g><g transform="translate(0.5,0.5)" style="visibility: visible;"><rect x="210" y="270" width="300" height="60" rx="9" ry="9" fill="#e6f4ea" stroke="#188038" pointer-events="all"></rect></g><g style=""><g fill="#774400" font-family="Arial,Helvetica" text-anchor="middle" font-size="11px"><text x="360" y="298">「進捗」/「失敗一覧」シート</text><text x="360" y="311">実行状況・失敗明細</text></g></g><g transform="translate(0.5,0.5)" style="visibility: visible;"><rect x="620" y="60" width="420" height="300" rx="45" ry="45" fill="#f5f5f5" stroke="#666666" pointer-events="all"></rect></g><g style=""><g fill="#774400" font-family="Arial,Helvetica" font-weight="bold" text-anchor="middle" font-size="11px"><text x="830" y="72">Google Apps Script（スプレッドシートに紐づく / 移行元権限で実行）</text></g></g><g transform="translate(0.5,0.5)" style="visibility: visible;"><rect x="740" y="110" width="180" height="60" rx="9" ry="9" fill="#dae8fc" stroke="#6c8ebf" pointer-events="all"></rect></g><g style=""><g fill="#774400" font-family="Arial,Helvetica" text-anchor="middle" font-size="11px"><text x="830" y="138">main.js</text><text x="830" y="151">(移行スクリプト)</text></g></g><g transform="translate(0.5,0.5)" style="visibility: visible;"><path d="M 650 248 C 650 224 800 224 800 248 L 800 302 C 800 326 650 326 650 302 Z" fill="#fff2cc" stroke="#d6b656" stroke-miterlimit="10" pointer-events="all"></path><path d="M 650 248 C 650 266 800 266 800 248" fill="none" stroke="#d6b656" stroke-miterlimit="10" pointer-events="all"></path></g><g style=""><g fill="#774400" font-family="Arial,Helvetica" text-anchor="middle" font-size="11px"><text x="725" y="273">スクリプトプロパティ</text><text x="725" y="286">(進捗状態の保存先)</text></g></g><g transform="translate(0.5,0.5)" style="visibility: visible;"><rect x="860" y="250" width="140" height="50" rx="7.5" ry="7.5" fill="#ffe6cc" stroke="#d79b00" pointer-events="all"></rect></g><g style=""><g fill="#774400" font-family="Arial,Helvetica" text-anchor="middle" font-size="11px"><text x="930" y="279.5">時間主導トリガー</text></g></g><g transform="translate(0.5,0.5)" style="visibility: visible;"><path d="M 750 447.5 C 710 447.5 700 475 732 480.5 C 700 492.6 736 519 762 508 C 780 530 840 530 860 508 C 900 508 900 486 875 475 C 900 453 860 431 825 442 C 800 425.5 760 425.5 750 447.5 Z" fill="#e1d5e7" stroke="#9673a6" stroke-miterlimit="10" pointer-events="all"></path></g><g style=""><g fill="#774400" font-family="Arial,Helvetica" text-anchor="middle" font-size="11px"><text x="800" y="473">Drive API v3</text><text x="800" y="486">(高度なサービス)</text></g></g><g transform="translate(0.5,0.5)" style="visibility: visible;"><rect x="620" y="600" width="170" height="80" rx="12" ry="12" fill="#fff8e1" stroke="#b09500" pointer-events="all"></rect></g><g style=""><g fill="#774400" font-family="Arial,Helvetica" text-anchor="middle" font-size="11px"><text x="705" y="638">マイドライブ</text><text x="705" y="651">移行元フォルダ</text></g></g><g transform="translate(0.5,0.5)" style="visibility: visible;"><path d="M 860 604 C 860 572 1050 572 1050 604 L 1050 676 C 1050 708 860 708 860 676 Z" fill="#d5e8d4" stroke="#82b366" stroke-miterlimit="10" pointer-events="all"></path><path d="M 860 604 C 860 628 1050 628 1050 604" fill="none" stroke="#82b366" stroke-miterlimit="10" pointer-events="all"></path></g><g style=""><g fill="#774400" font-family="Arial,Helvetica" text-anchor="middle" font-size="11px"><text x="955" y="631.5">共有ドライブ</text><text x="955" y="644.5">(@misugi-corp.co.jp)</text><text x="955" y="657.5">※移行元ユーザーを「コンテンツ管理者」で追加</text></g></g><g transform="translate(0.5,0.5)" style="visibility: visible;"><path d="M 100 160 L 155 160 L 155 220 L 203.63 220" fill="none" stroke="white" stroke-miterlimit="10" pointer-events="stroke" visibility="hidden" stroke-width="9"></path><path d="M 100 160 L 155 160 L 155 220 L 203.63 220" fill="none" stroke="#6482b9" stroke-miterlimit="10" pointer-events="stroke"></path><path d="M 208.88 220 L 201.88 223.5 L 203.63 220 L 201.88 216.5 Z" fill="#6482b9" stroke="#6482b9" stroke-miterlimit="10" pointer-events="all"></path></g><g style=""><g fill="#446299" font-family="Arial,Helvetica" text-anchor="middle" font-size="11px"><text x="155" y="194.5">① ID・設定を入力</text></g></g><g transform="translate(0.5,0.5)" style="visibility: visible;"><path d="M 100 144 L 155 144 L 155 140 L 203.63 140" fill="none" stroke="white" stroke-miterlimit="10" pointer-events="stroke" visibility="hidden" stroke-width="9"></path><path d="M 100 144 L 155 144 L 155 140 L 203.63 140" fill="none" stroke="#6482b9" stroke-miterlimit="10" pointer-events="stroke"></path><path d="M 208.88 140 L 201.88 143.5 L 203.63 140 L 201.88 136.5 Z" fill="#6482b9" stroke="#6482b9" stroke-miterlimit="10" pointer-events="all"></path></g><g style=""><g fill="#446299" font-family="Arial,Helvetica" text-anchor="middle" font-size="11px"><text x="155" y="146.5">② メニューから操作</text></g></g><g transform="translate(0.5,0.5)" style="visibility: visible;"><path d="M 510 140 L 733.63 140" fill="none" stroke="white" stroke-miterlimit="10" pointer-events="stroke" visibility="hidden" stroke-width="9"></path><path d="M 510 140 L 733.63 140" fill="none" stroke="#6482b9" stroke-miterlimit="10" pointer-events="stroke"></path><path d="M 738.88 140 L 731.88 143.5 L 733.63 140 L 731.88 136.5 Z" fill="#6482b9" stroke="#6482b9" stroke-miterlimit="10" pointer-events="all"></path></g><g style=""><g fill="#446299" font-family="Arial,Helvetica" text-anchor="middle" font-size="11px"><text x="625" y="144.5">関数を実行</text></g></g><g transform="translate(0.5,0.5)" style="visibility: visible;"><path d="M 510 220 L 776 220 L 776 176.37" fill="none" stroke="white" stroke-miterlimit="10" pointer-events="stroke" visibility="hidden" stroke-width="9"></path><path d="M 510 220 L 776 220 L 776 176.37" fill="none" stroke="#6482b9" stroke-miterlimit="10" stroke-dasharray="3 3" pointer-events="stroke"></path><path d="M 776 171.12 L 779.5 178.12 L 776 176.37 L 772.5 178.12 Z" fill="#6482b9" stroke="#6482b9" stroke-miterlimit="10" pointer-events="all"></path></g><g style=""><g fill="#446299" font-family="Arial,Helvetica" text-anchor="middle" font-size="11px"><text x="668" y="224.5">設定を読み込む</text></g></g><g transform="translate(0.5,0.5)" style="visibility: visible;"><path d="M 830 110 L 830 100 L 625 100 L 625 340 L 360 340 L 360 336.37" fill="none" stroke="white" stroke-miterlimit="10" pointer-events="stroke" visibility="hidden" stroke-width="9"></path><path d="M 830 110 L 830 100 L 625 100 L 625 340 L 360 340 L 360 336.37" fill="none" stroke="#6482b9" stroke-miterlimit="10" stroke-dasharray="3 3" pointer-events="stroke"></path><path d="M 360 331.12 L 363.5 338.12 L 360 336.37 L 356.5 338.12 Z" fill="#6482b9" stroke="#6482b9" stroke-miterlimit="10" pointer-events="all"></path></g><g style=""><g fill="#446299" font-family="Arial,Helvetica" text-anchor="middle" font-size="11px"><text x="625" y="254.5">進捗・失敗を書き出す</text></g></g><g transform="translate(0.5,0.5)" style="visibility: visible;"><path d="M 785 170 L 785 200 L 725 200 L 725 223.63" fill="none" stroke="white" stroke-miterlimit="10" pointer-events="stroke" visibility="hidden" stroke-width="9"></path><path d="M 785 170 L 785 200 L 725 200 L 725 223.63" fill="none" stroke="#6482b9" stroke-miterlimit="10" pointer-events="stroke"></path><path d="M 725 228.88 L 721.5 221.88 L 725 223.63 L 728.5 221.88 Z" fill="#6482b9" stroke="#6482b9" stroke-miterlimit="10" pointer-events="all"></path></g><g style=""><g fill="#446299" font-family="Arial,Helvetica" text-anchor="middle" font-size="11px"><text x="755" y="204.5">進捗を保存</text></g></g><g transform="translate(0.5,0.5)" style="visibility: visible;"><path d="M 875 170 L 875 210 L 930 210 L 930 243.63" fill="none" stroke="white" stroke-miterlimit="10" pointer-events="stroke" visibility="hidden" stroke-width="9"></path><path d="M 875 170 L 875 210 L 930 210 L 930 243.63" fill="none" stroke="#6482b9" stroke-miterlimit="10" pointer-events="stroke"></path><path d="M 930 248.88 L 926.5 241.88 L 930 243.63 L 933.5 241.88 Z" fill="#6482b9" stroke="#6482b9" stroke-miterlimit="10" pointer-events="all"></path></g><g style=""><g fill="#446299" font-family="Arial,Helvetica" text-anchor="middle" font-size="11px"><text x="903" y="214.5">再開を予約</text></g></g><g transform="translate(0.5,0.5)" style="visibility: visible;"><path d="M 1000 275 L 1010 275 L 1010 155 L 926.37 155" fill="none" stroke="white" stroke-miterlimit="10" pointer-events="stroke" visibility="hidden" stroke-width="9"></path><path d="M 1000 275 L 1010 275 L 1010 155 L 926.37 155" fill="none" stroke="#6482b9" stroke-miterlimit="10" stroke-dasharray="3 3" pointer-events="stroke"></path><path d="M 921.12 155 L 928.12 151.5 L 926.37 155 L 928.12 158.5 Z" fill="#6482b9" stroke="#6482b9" stroke-miterlimit="10" pointer-events="all"></path></g><g style=""><g fill="#446299" font-family="Arial,Helvetica" text-anchor="middle" font-size="11px"><text x="1010" y="179.5">resumeMigration で自動再開</text></g></g><g transform="translate(0.5,0.5)" style="visibility: visible;"><path d="M 830 170 L 830 295 L 800 295 L 800 413.63" fill="none" stroke="white" stroke-miterlimit="10" pointer-events="stroke" visibility="hidden" stroke-width="9"></path><path d="M 830 170 L 830 295 L 800 295 L 800 413.63" fill="none" stroke="#6482b9" stroke-miterlimit="10" pointer-events="stroke"></path><path d="M 800 418.88 L 796.5 411.88 L 800 413.63 L 803.5 411.88 Z" fill="#6482b9" stroke="#6482b9" stroke-miterlimit="10" pointer-events="all"></path></g><g style=""><g fill="#446299" font-family="Arial,Helvetica" text-anchor="middle" font-size="11px"><text x="815" y="299.5">files.list / create / update</text></g></g><g transform="translate(0.5,0.5)" style="visibility: visible;"><path d="M 780 530 L 780 565 L 705 565 L 705 593.63" fill="none" stroke="white" stroke-miterlimit="10" pointer-events="stroke" visibility="hidden" stroke-width="9"></path><path d="M 780 530 L 780 565 L 705 565 L 705 593.63" fill="none" stroke="#6482b9" stroke-miterlimit="10" pointer-events="stroke"></path><path d="M 705 598.88 L 701.5 591.88 L 705 593.63 L 708.5 591.88 Z" fill="#6482b9" stroke="#6482b9" stroke-miterlimit="10" pointer-events="all"></path></g><g style=""><g fill="#446299" font-family="Arial,Helvetica" text-anchor="middle" font-size="11px"><text x="742" y="569.5">一覧取得 / removeParents</text></g></g><g transform="translate(0.5,0.5)" style="visibility: visible;"><path d="M 840 530 L 840 555 L 955 555 L 955 573.63" fill="none" stroke="white" stroke-miterlimit="10" pointer-events="stroke" visibility="hidden" stroke-width="9"></path><path d="M 840 530 L 840 555 L 955 555 L 955 573.63" fill="none" stroke="#6482b9" stroke-miterlimit="10" pointer-events="stroke"></path><path d="M 955 578.88 L 951.5 571.88 L 955 573.63 L 958.5 571.88 Z" fill="#6482b9" stroke="#6482b9" stroke-miterlimit="10" pointer-events="all"></path></g><g style=""><g fill="#446299" font-family="Arial,Helvetica" text-anchor="middle" font-size="11px"><text x="898" y="559.5">フォルダ作成 / addParents</text></g></g></g><g></g><g></g></g></svg>
