<svg xmlns="http://www.w3.org/2000/svg" xmlns:xlink="http://www.w3.org/1999/xlink" contentStyleType="text/css" data-diagram-type="DESCRIPTION" height="1184px" preserveAspectRatio="none" style="width:1041px;height:1184px;background:#FFFFFF;" version="1.1" viewBox="0 0 1041 1184" width="1041px" zoomAndPan="magnify"><?plantuml 1.2026.6?><defs/><g><g class="title" data-source-line="1"><text fill="#000000" font-family="'Noto Sans CJK JP'" font-size="14" font-weight="700" lengthAdjust="spacing" textLength="125.9995" x="454.4645" y="26.2399">&#20840;&#20307;&#12450;&#12540;&#12461;&#12486;&#12463;&#12481;&#12515;</text></g><!--cluster ????????--><g class="cluster" data-qualified-name="........" data-source-line="8" id="ent0002"><path d="M8.5,213.7719 L121.4995,213.7719 A3.75,3.75 0 0 1 123.9995,216.2719 L130.9995,240.0438 L375.5,240.0438 A2.5,2.5 0 0 1 378,242.5438 L378,773.7719 A2.5,2.5 0 0 1 375.5,776.2719 L8.5,776.2719 A2.5,2.5 0 0 1 6,773.7719 L6,216.2719 A2.5,2.5 0 0 1 8.5,213.7719" fill="none" style="stroke:#000000;stroke-width:1.5;"/><line style="stroke:#000000;stroke-width:1.5;" x1="6" x2="130.9995" y1="240.0438" y2="240.0438"/><text fill="#000000" font-family="'Noto Sans CJK JP'" font-size="14" font-weight="700" lengthAdjust="spacing" textLength="111.9995" x="10" y="232.0118">&#12525;&#12540;&#12459;&#12523;&#38283;&#30330;&#29872;&#22659;</text></g><!--cluster Google--><g class="cluster" data-qualified-name="Google" data-source-line="22" id="ent0013"><path d="M420.4955,636.087 C431.2827,619.2181 445.4346,616.0609 458.9785,632.9439 C468.191,613.3819 486.9811,609.9072 499.2088,629.8753 C515.2359,611.8485 531.6032,610.5789 544.3932,633.4515 C557.198,616.2858 573.2561,613.2472 586.1753,633.3231 C596.8461,618.1412 607.8766,615.4627 620.7845,630.7849 C634.1665,607.8048 655.6589,609.6982 667.3542,632.5006 C673.7095,615.9886 691.0934,610.7525 703.4808,625.5376 C716.841,609.0662 736.8024,605.2779 746.1091,629.757 C758.1686,606.192 775.2364,605.5729 788.7616,628.4098 C804.6684,613.3495 817.4931,611.4635 827.5229,634.4043 C839.9574,616.2991 855.3044,613.8267 867.6909,634.454 C882.5575,612.3841 896.0297,616.0192 911.5812,633.6977 C923.3551,615.2222 938.336,617.2543 948.2176,635.5815 C961.154,617.7169 983.1212,613.7179 993,638.7719 C994.0545,638.0632 994.9323,638.602 995.0181,639.7982 C1014.8891,648.9358 1019.2942,665.4911 1001.9776,680.9221 C1019.4271,694.8585 1018.2981,713.2375 998.9833,724.6568 C1020.6178,735.8594 1023.0292,752.4006 1003.8194,768.1452 C1020.432,782.0822 1023.0532,793.5261 1002.1579,805.8084 C1025.5002,820.8325 1026.5933,834.7199 1003.5321,851.1503 C1021.7107,859.3493 1026.9285,876.2986 1007.6877,888.6449 C1026.4455,901.7371 1023.1576,917.4824 1006.1682,929.2364 C1026.8737,941.1286 1021.6354,956.7323 1005.6992,968.1832 C1023.3873,982.0465 1023.0303,1002.7039 1002.707,1014.0897 C1018.0825,1029.3049 1019.9335,1044.2703 996.6005,1053.4856 C1014.3484,1064.3186 1020.1479,1078.6418 999.8876,1092.6637 C1016.798,1113.9486 1013.8655,1131.3286 986,1139.2719 C990.2153,1139.89 991.104,1142.1001 989.1702,1145.7346 C978.7358,1162.3625 961.2385,1167.2327 949.774,1146.8305 C933.047,1167.947 918.2576,1162.9433 905.7163,1142.4036 C895.9755,1166.2511 882.0501,1168.4348 865.2667,1148.9826 C855.4255,1166.3984 837.6445,1167.4032 828.3208,1148.4569 C812.9568,1169.1203 800.2122,1165.2164 787.215,1146.0164 C775.7966,1168.2931 755.0424,1163.4394 743.7925,1145.833 C734.1648,1161.263 717.5478,1164.5758 707.9804,1145.77 C697.4459,1169.7152 678.8814,1166.9489 664.6819,1149.6143 C653.0484,1165.6706 634.9625,1169.9479 624.0283,1148.8491 C612.1471,1167.0693 597.455,1167.128 585.3526,1149.0851 C572.8734,1166.2901 552.0973,1168.998 543.4328,1145.1864 C528.3574,1166.3419 515.3701,1161.4814 503.1016,1142.3747 C491.9799,1162.8876 475.0463,1160.5519 463.1271,1143.2171 C442.1971,1167.3146 420.4986,1158.808 410,1132.2719 C412.9767,1130.9508 415.0147,1132.1219 414.6894,1135.5395 C394.6437,1121.3014 396.2484,1107.7338 414.1351,1093.0014 C394.1596,1083.496 394.5829,1065.7129 410.9949,1053.3275 C393.4771,1040.3398 395.4322,1022.4759 414.2887,1012.4169 C390.7129,1003.2376 390.1582,985.9113 408.8522,971.1618 C389.317,958.6854 391.6929,944.9543 409.2975,932.9102 C386.879,921.7894 384.5224,901.6683 404.4493,886.1564 C383.6715,871.9733 386.5671,857.3255 407.3093,846.1074 C390.6664,835.1727 390.8437,821.1079 407.8376,810.6748 C385.4212,794.3042 392.2753,773.8432 413.764,762.9216 C394.3881,751.826 392.3504,735.1125 412.0762,722.3887 C393.8652,711.3518 394.7895,694.6661 413.7516,685.3088 C393.1885,668.3252 386.81,645.6761 417,631.7719 C420.1436,631.1545 421.5999,633.2633 420.4955,636.087" fill="none" style="stroke:#181818;stroke-width:1;"/><text fill="#000000" font-family="'Noto Sans CJK JP'" font-size="14" font-weight="700" lengthAdjust="spacing" textLength="48.4678" x="677.2661" y="653.0118">Google</text></g><!--cluster Apps Script ??????--><g class="cluster" data-qualified-name="Google.Apps Script ......" data-source-line="23" id="ent0014"><path d="M428.5,670.7719 L595.1753,670.7719 A3.75,3.75 0 0 1 597.6753,673.2719 L604.6753,697.0438 L649.5,697.0438 A2.5,2.5 0 0 1 652,699.5438 L652,1120.7719 A2.5,2.5 0 0 1 649.5,1123.2719 L428.5,1123.2719 A2.5,2.5 0 0 1 426,1120.7719 L426,673.2719 A2.5,2.5 0 0 1 428.5,670.7719" fill="none" style="stroke:#000000;stroke-width:1.5;"/><line style="stroke:#000000;stroke-width:1.5;" x1="426" x2="604.6753" y1="697.0438" y2="697.0438"/><text fill="#000000" font-family="'Noto Sans CJK JP'" font-size="14" font-weight="700" lengthAdjust="spacing" textLength="165.6753" x="430" y="689.0118">Apps Script &#12503;&#12525;&#12472;&#12455;&#12463;&#12488;</text></g><!--cluster Google Drive--><g class="cluster" data-qualified-name="Google.Google Drive" data-source-line="29" id="ent0019"><path d="M803.5,1007.2719 L892.6997,1007.2719 A3.75,3.75 0 0 1 895.1997,1009.7719 L902.1997,1033.5438 L974.5,1033.5438 A2.5,2.5 0 0 1 977,1036.0438 L977,1120.7719 A2.5,2.5 0 0 1 974.5,1123.2719 L803.5,1123.2719 A2.5,2.5 0 0 1 801,1120.7719 L801,1009.7719 A2.5,2.5 0 0 1 803.5,1007.2719" fill="none" style="stroke:#000000;stroke-width:1.5;"/><line style="stroke:#000000;stroke-width:1.5;" x1="801" x2="902.1997" y1="1033.5438" y2="1033.5438"/><text fill="#000000" font-family="'Noto Sans CJK JP'" font-size="14" font-weight="700" lengthAdjust="spacing" textLength="88.1997" x="805" y="1025.5118">Google Drive</text></g><!--entity mise--><g class="entity" data-qualified-name=".........mise" data-source-line="9" id="ent0003"><rect fill="#F1F1F1" height="60.5438" rx="2.5" ry="2.5" style="stroke:#181818;stroke-width:0.5;" width="169.4633" x="193.5" y="252.7719"/><text fill="#000000" font-family="'Noto Sans CJK JP'" font-size="14" lengthAdjust="spacing" textLength="31.1219" x="203.5" y="279.0118">mise</text><text fill="#000000" font-family="'Noto Sans CJK JP'" font-size="14" lengthAdjust="spacing" textLength="149.4633" x="203.5" y="299.2838">(&#12484;&#12540;&#12523;&#12496;&#12540;&#12472;&#12519;&#12531;&#31649;&#29702;)</text></g><!--entity node--><g class="entity" data-qualified-name=".........node" data-source-line="10" id="ent0004"><rect fill="#F1F1F1" height="40.2719" rx="2.5" ry="2.5" style="stroke:#181818;stroke-width:0.5;" width="111.2796" x="222.5" y="404.2719"/><text fill="#000000" font-family="'Noto Sans CJK JP'" font-size="14" lengthAdjust="spacing" textLength="91.2796" x="232.5" y="430.5118">Node.js / npm</text></g><!--entity src--><g class="entity" data-qualified-name=".........src" data-source-line="11" id="ent0005"><rect fill="#F1F1F1" height="60.5438" rx="2.5" ry="2.5" style="stroke:#181818;stroke-width:0.5;" width="135.9755" x="22" y="252.7719"/><text fill="#000000" font-family="'Noto Sans CJK JP'" font-size="14" lengthAdjust="spacing" textLength="115.9755" x="32" y="279.0118">TypeScript &#12477;&#12540;&#12473;</text><text fill="#000000" font-family="'Noto Sans CJK JP'" font-size="14" lengthAdjust="spacing" textLength="46.8718" x="32" y="299.2838">src/*.ts</text></g><!--entity tsc--><g class="entity" data-qualified-name=".........tsc" data-source-line="12" id="ent0006"><rect fill="#F1F1F1" height="60.5438" rx="2.5" ry="2.5" style="stroke:#181818;stroke-width:0.5;" width="99.4637" x="64.5" y="393.7719"/><text fill="#000000" font-family="'Noto Sans CJK JP'" font-size="14" lengthAdjust="spacing" textLength="18.9699" x="74.5" y="420.0118">tsc</text><text fill="#000000" font-family="'Noto Sans CJK JP'" font-size="14" lengthAdjust="spacing" textLength="79.4637" x="74.5" y="440.2838">(&#12467;&#12531;&#12497;&#12452;&#12521;)</text></g><!--entity dist--><g class="entity" data-qualified-name=".........dist" data-source-line="13" id="ent0007"><rect fill="#F1F1F1" height="60.5438" rx="2.5" ry="2.5" style="stroke:#181818;stroke-width:0.5;" width="190.1133" x="97" y="515.7719"/><text fill="#000000" font-family="'Noto Sans CJK JP'" font-size="14" lengthAdjust="spacing" textLength="29.8479" x="107" y="542.0118">dist/</text><text fill="#000000" font-family="'Noto Sans CJK JP'" font-size="14" lengthAdjust="spacing" textLength="170.1133" x="107" y="562.2838">(GAS &#29992; JS + &#12510;&#12491;&#12501;&#12455;&#12473;&#12488;)</text></g><!--entity clasp--><g class="entity" data-qualified-name=".........clasp" data-source-line="14" id="ent0008"><rect fill="#F1F1F1" height="60.5438" rx="2.5" ry="2.5" style="stroke:#181818;stroke-width:0.5;" width="123.2356" x="238.5" y="699.2719"/><text fill="#000000" font-family="'Noto Sans CJK JP'" font-size="14" lengthAdjust="spacing" textLength="34.2299" x="248.5" y="725.5118">clasp</text><text fill="#000000" font-family="'Noto Sans CJK JP'" font-size="14" lengthAdjust="spacing" textLength="103.2356" x="248.5" y="745.7838">(&#12487;&#12503;&#12525;&#12452;&#29992; CLI)</text></g><!--entity logging--><g class="entity" data-qualified-name="Google.logging" data-source-line="28" id="ent0018"><rect fill="#F1F1F1" height="60.5438" rx="2.5" ry="2.5" style="stroke:#181818;stroke-width:0.5;" width="113.8696" x="668" y="1046.2719"/><text fill="#000000" font-family="'Noto Sans CJK JP'" font-size="14" lengthAdjust="spacing" textLength="93.8696" x="678" y="1072.5118">Cloud Logging</text><text fill="#000000" font-family="'Noto Sans CJK JP'" font-size="14" lengthAdjust="spacing" textLength="65.4637" x="678" y="1092.7838">(&#23455;&#34892;&#12525;&#12464;)</text></g><!--entity gas--><g class="entity" data-qualified-name="Google.Apps Script .......gas" data-source-line="24" id="ent0015"><rect fill="#F1F1F1" height="60.5438" rx="2.5" ry="2.5" style="stroke:#181818;stroke-width:0.5;" width="193.8233" x="442" y="861.2719"/><text fill="#000000" font-family="'Noto Sans CJK JP'" font-size="14" lengthAdjust="spacing" textLength="97.9996" x="452" y="887.5118">&#12473;&#12463;&#12522;&#12503;&#12488;&#26412;&#20307;</text><text fill="#000000" font-family="'Noto Sans CJK JP'" font-size="14" lengthAdjust="spacing" textLength="173.8233" x="452" y="907.7838">(main / transfer / state / ...)</text></g><!--entity trigger--><g class="entity" data-qualified-name="Google.Apps Script .......trigger" data-source-line="25" id="ent0016"><rect fill="#F1F1F1" height="40.2719" rx="2.5" ry="2.5" style="stroke:#181818;stroke-width:0.5;" width="131.9995" x="448" y="709.7719"/><text fill="#000000" font-family="'Noto Sans CJK JP'" font-size="14" lengthAdjust="spacing" textLength="111.9995" x="458" y="736.0118">&#26178;&#38291;&#20027;&#23566;&#12488;&#12522;&#12460;&#12540;</text></g><!--entity props--><g class="entity" data-qualified-name="Google.Apps Script .......props" data-source-line="26" id="ent0017"><rect fill="#F1F1F1" height="60.5438" rx="2.5" ry="2.5" style="stroke:#181818;stroke-width:0.5;" width="169.4633" x="448.5" y="1046.2719"/><text fill="#000000" font-family="'Noto Sans CJK JP'" font-size="14" lengthAdjust="spacing" textLength="139.9994" x="458.5" y="1072.5118">&#12473;&#12463;&#12522;&#12503;&#12488;&#12503;&#12525;&#12497;&#12486;&#12451;</text><text fill="#000000" font-family="'Noto Sans CJK JP'" font-size="14" lengthAdjust="spacing" textLength="149.4633" x="458.5" y="1092.7838">(&#36914;&#25431;&#12481;&#12455;&#12483;&#12463;&#12509;&#12452;&#12531;&#12488;)</text></g><!--entity drive--><g class="entity" data-qualified-name="Google.Google Drive.drive" data-source-line="30" id="ent0020"><rect fill="#F1F1F1" height="60.5438" rx="2.5" ry="2.5" style="stroke:#181818;stroke-width:0.5;" width="143.7595" x="817" y="1046.2719"/><text fill="#000000" font-family="'Noto Sans CJK JP'" font-size="14" lengthAdjust="spacing" textLength="97.9996" x="827" y="1072.5118">&#12510;&#12452;&#12489;&#12521;&#12452;&#12502;&#12398;</text><text fill="#000000" font-family="'Noto Sans CJK JP'" font-size="14" lengthAdjust="spacing" textLength="123.7595" x="827" y="1092.7838">&#12501;&#12449;&#12452;&#12523; / &#12501;&#12457;&#12523;&#12480;</text></g><!--entity dev--><g class="entity" data-qualified-name="dev" data-source-line="6" id="ent0001"><ellipse cx="253.2319" cy="55.2719" fill="#F1F1F1" rx="8" ry="8" style="stroke:#181818;stroke-width:0.5;"/><path d="M253.2319,63.2719 L253.2319,90.2719 M240.2319,71.2719 L266.2319,71.2719 M253.2319,90.2719 L240.2319,105.2719 M253.2319,90.2719 L266.2319,105.2719" fill="none" style="stroke:#181818;stroke-width:0.5;"/><text fill="#000000" font-family="'Noto Sans CJK JP'" font-size="14" lengthAdjust="spacing" textLength="41.9998" x="227.5" y="123.0118">&#38283;&#30330;&#32773;</text><text fill="#000000" font-family="'Noto Sans CJK JP'" font-size="14" lengthAdjust="spacing" textLength="51.4638" x="227.5" y="143.2838">(&#12354;&#12394;&#12383;)</text></g><!--link mise to node--><g class="link" data-entity-1="ent0003" data-entity-2="ent0004" data-link-type="dependency" data-source-line="16" id="lnk9"><path d="M278,314.0919 C278,341.3719 278,375.9219 278,399.1819" fill="none" id="mise-to-node" style="stroke:#181818;stroke-width:1;stroke-dasharray:7,7;"/><polygon fill="#181818" points="278,404.1819,282,395.1819,278,399.1819,274,395.1819,278,404.1819" style="stroke:#181818;stroke-width:1;stroke-linejoin:miter;stroke-miterlimit:10;"/><text fill="#000000" font-family="'Noto Sans CJK JP'" font-size="13" lengthAdjust="spacing" textLength="78.0001" x="279" y="359.8519">&#12452;&#12531;&#12473;&#12488;&#12540;&#12523;</text></g><!--link src to tsc--><g class="link" data-entity-1="ent0005" data-entity-2="ent0006" data-link-type="dependency" data-source-line="17" id="lnk10"><path d="M95.15,314.0919 C99.2,337.5419 103.9587,365.1349 108.0087,388.5749" fill="none" id="src-to-tsc" style="stroke:#181818;stroke-width:1;"/><polygon fill="#181818" points="108.86,393.5019,111.2693,383.9523,108.0087,388.5749,103.3861,385.3144,108.86,393.5019" style="stroke:#181818;stroke-width:1;stroke-linejoin:miter;stroke-miterlimit:10;"/></g><!--link tsc to dist--><g class="link" data-entity-1="ent0006" data-entity-2="ent0007" data-link-type="dependency" data-source-line="18" id="lnk11"><path d="M133.28,454.9319 C145.28,473.3919 157.9343,492.8702 169.9443,511.3402" fill="none" id="tsc-to-dist" style="stroke:#181818;stroke-width:1;"/><polygon fill="#181818" points="172.67,515.5319,171.1172,505.8062,169.9443,511.3402,164.4104,510.1673,172.67,515.5319" style="stroke:#181818;stroke-width:1;stroke-linejoin:miter;stroke-miterlimit:10;"/></g><!--link dist to clasp--><g class="link" data-entity-1="ent0007" data-entity-2="ent0008" data-link-type="dependency" data-source-line="19" id="lnk12"><path d="M209.59,576.8419 C229.68,610.5919 259.7725,661.1755 279.8625,694.9255" fill="none" id="dist-to-clasp" style="stroke:#181818;stroke-width:1;"/><polygon fill="#181818" points="282.42,699.2219,281.2537,689.4424,279.8625,694.9255,274.3794,693.5343,282.42,699.2219" style="stroke:#181818;stroke-width:1;stroke-linejoin:miter;stroke-miterlimit:10;"/></g><!--link dev to src--><g class="link" data-entity-1="ent0001" data-entity-2="ent0005" data-link-type="dependency" data-source-line="34" id="lnk21"><path d="M227.17,127.4319 C196.83,161.6819 150.0856,214.4494 119.5656,248.8994" fill="none" id="dev-to-src" style="stroke:#181818;stroke-width:1;"/><polygon fill="#181818" points="116.25,252.6419,125.2121,248.5578,119.5656,248.8994,119.2241,243.2528,116.25,252.6419" style="stroke:#181818;stroke-width:1;stroke-linejoin:miter;stroke-miterlimit:10;"/><text fill="#000000" font-family="'Noto Sans CJK JP'" font-size="13" lengthAdjust="spacing" textLength="26" x="182" y="193.8519">&#32232;&#38598;</text></g><!--link dev to clasp--><g class="link" data-entity-1="ent0001" data-entity-2="ent0008" data-link-type="dependency" data-source-line="35" id="lnk22"><path d="M278.83,111.8619 C324.79,138.1319 416,200.5519 416,282.2719 C416,282.2719 416,282.2719 416,547.2719 C416,608.6019 371.9771,662.3587 337.7671,695.5787" fill="none" id="dev-to-clasp" style="stroke:#181818;stroke-width:1;"/><polygon fill="#181818" points="334.18,699.0619,343.4233,695.6617,337.7671,695.5787,337.8501,689.9224,334.18,699.0619" style="stroke:#181818;stroke-width:1;stroke-linejoin:miter;stroke-miterlimit:10;"/><text fill="#000000" font-family="'Noto Sans CJK JP'" font-size="13" lengthAdjust="spacing" textLength="85.5141" x="417" y="430.3519">mise run push</text></g><!--link clasp to gas--><g class="link" data-entity-1="ent0008" data-entity-2="ent0015" data-link-type="dependency" data-source-line="36" id="lnk23"><path d="M344.3,760.4619 C374.16,780.4819 414.44,807.4719 450,831.2719 C464.52,840.9919 476.2238,848.8124 490.4738,858.3424" fill="none" id="clasp-to-gas" style="stroke:#181818;stroke-width:1;"/><polygon fill="#181818" points="494.63,861.1219,489.3725,852.7937,490.4738,858.3424,484.9252,859.4437,494.63,861.1219" style="stroke:#181818;stroke-width:1;stroke-linejoin:miter;stroke-miterlimit:10;"/><text fill="#000000" font-family="'Noto Sans CJK JP'" font-size="13" lengthAdjust="spacing" textLength="64.623" x="451" y="808.3519">clasp push</text><text fill="#000000" font-family="'Noto Sans CJK JP'" font-size="13" lengthAdjust="spacing" textLength="49.803" x="458.41" y="827.1759">(HTTPS)</text></g><!--link gas to drive--><g class="link" data-entity-1="ent0015" data-entity-2="ent0020" data-link-type="dependency" data-source-line="37" id="lnk24"><path d="M636.09,897.6619 C689.16,904.3019 753.88,919.2319 803,952.2719 C837.58,975.5319 860.2671,1013.2536 874.1071,1041.7736" fill="none" id="gas-to-drive" style="stroke:#181818;stroke-width:1;"/><polygon fill="#181818" points="876.29,1046.2719,875.9594,1036.4286,874.1071,1041.7736,868.7621,1039.9213,876.29,1046.2719" style="stroke:#181818;stroke-width:1;stroke-linejoin:miter;stroke-miterlimit:10;"/><text fill="#000000" font-family="'Noto Sans CJK JP'" font-size="13" lengthAdjust="spacing" textLength="110.4741" x="842" y="968.3519">DriveApp &#12391;&#36208;&#26619;&#12375;</text><text fill="#000000" font-family="'Noto Sans CJK JP'" font-size="13" lengthAdjust="spacing" textLength="78.0001" x="858.237" y="987.1759">&#25152;&#26377;&#27177;&#12434;&#35698;&#28193;</text></g><!--link gas to props--><g class="link" data-entity-1="ent0015" data-entity-2="ent0017" data-link-type="dependency" data-source-line="38" id="lnk25"><path d="M464.5013,925.2156 C453.0513,933.2156 446.81,940.2319 440,952.2719 C420.64,986.4919 449.8971,1018.9825 481.8871,1043.0925" fill="none" id="gas-props" style="stroke:#181818;stroke-width:1;"/><polygon fill="#181818" points="468.6,922.3519,458.9314,924.2276,464.5013,925.2156,463.5133,930.7855,468.6,922.3519" style="stroke:#181818;stroke-width:1;stroke-linejoin:miter;stroke-miterlimit:10;"/><polygon fill="#181818" points="485.88,1046.1019,481.1002,1037.4907,481.8871,1043.0925,476.2852,1043.8794,485.88,1046.1019" style="stroke:#181818;stroke-width:1;stroke-linejoin:miter;stroke-miterlimit:10;"/><text fill="#000000" font-family="'Noto Sans CJK JP'" font-size="13" lengthAdjust="spacing" textLength="101.9201" x="441" y="977.8519">&#36914;&#25431;&#12398;&#20445;&#23384; / &#24489;&#20803;</text></g><!--link trigger to gas--><g class="link" data-entity-1="ent0016" data-entity-2="ent0015" data-link-type="dependency" data-source-line="39" id="lnk26"><path d="M517.02,750.0719 C521.33,777.6619 528.5177,823.6919 533.5877,856.1219" fill="none" id="trigger-to-gas" style="stroke:#181818;stroke-width:1;"/><polygon fill="#181818" points="534.36,861.0619,536.9219,851.5521,533.5877,856.1219,529.0179,852.7878,534.36,861.0619" style="stroke:#181818;stroke-width:1;stroke-linejoin:miter;stroke-miterlimit:10;"/><text fill="#000000" font-family="'Noto Sans CJK JP'" font-size="13" lengthAdjust="spacing" textLength="120.7961" x="530" y="808.3519">resumeTransfer() &#12434;</text><text fill="#000000" font-family="'Noto Sans CJK JP'" font-size="13" lengthAdjust="spacing" textLength="52.0001" x="564.398" y="827.1759">&#33258;&#21205;&#36215;&#21205;</text></g><!--link gas to logging--><g class="link" data-entity-1="ent0015" data-entity-2="ent0018" data-link-type="dependency" data-source-line="40" id="lnk27"><path d="M571.58,922.6219 C594.39,943.7319 625.42,972.8619 652,999.2719 C667.23,1014.4119 680.359,1028.0549 693.849,1042.3549" fill="none" id="gas-to-logging" style="stroke:#181818;stroke-width:1;"/><polygon fill="#181818" points="697.28,1045.9919,694.0138,1036.7004,693.849,1042.3549,688.1945,1042.1901,697.28,1045.9919" style="stroke:#181818;stroke-width:1;stroke-linejoin:miter;stroke-miterlimit:10;"/><text fill="#000000" font-family="'Noto Sans CJK JP'" font-size="13" lengthAdjust="spacing" textLength="69.81" x="644" y="977.8519">console.log</text></g><?plantuml-src XLFHJXD157tVhvZq2JGixyIG48me4aBIFlPbinsMbUtiPcUB8OQakoC8GGs2W4IG54WeXTO6GgWY-Z53j-rVU6TcmTQO-DBjp3tttdFElHFOWODHSx5yUxF1emFEVl2eojaIZxvo5d9sgD5PctY6R-HH3ayR1ITuuf9WqiXZb9fq0nUb3KBHwFXpD3wLwWBJ6IFdlhI9XQODX-AkYEdcFPTW4gI3UUZjOpCmYELWJJFCmFLHghErsjhvtYukPaaV3oCULdYutvz21WKASvhc6UQiOK5_pggIy2bdfogfjLvl7h0KUgMXFtrGAczJB8gnrmBF0Byc4nkS7NDsqQgLMcjBgeE0zYPFkZcilw1e414lBp44RdencNaFfqtVzWB4enjP-rkMKDySVA07L2R1eJSdeARW55q00yu-yEY8inD50aAzs9nDWq50ZusaKUjZ6OsdqKF4sHVELZdRvD4nzEDiEJ49mBtffcDGJnhmXhDjOLjq9CgCJZnJAHAWGPAGZtHzM6f4GqYokb3LbNS00YbeO60ueGc_yfIq5HzvLZKNDCrqt48EfSPS5wQiPdC_mX7Fe-ZEkOHQG-g1_LjMu1ufWeg8LIHwETuzWyq5QNd39Z2Ym8TrdCO-_AM14M3uwhgkH5e6_RjQl1DrjZPk6zVD-dkfiCAZCz2ffk3RbeNz_p18MCC0nQiv12gTuddyRbiy7z31c0Jl9KRUpSZpNK-mMUWTrAYqQiArB7WvKAfPss-NtafNwYhHKR5k3vMnwB5lp-5_EGPh8fglm7h9Friyh6M9t9kIl3W5b-JnHBwDejeYKKuoX172kvCp5PCVGgshSkVpqlsb73HSoztn2mHv1JgZgLiH1zyXgiuY1BgUPZ9JwNvDHEJgY5w0aH9W9H0FZzkNzNZ_ceVRMHAl5EFTbRWCzDVRrVEuKPAPZqIgD19I4zF3sksllMRr4oXg_ZnfBZ8jcM8N4n_JGXvdaatfwuSbNy-IzfjAStMpVNa5l_V44hS5VPTGry4wtFm6?></g></svg>