<svg xmlns="http://www.w3.org/2000/svg" xmlns:xlink="http://www.w3.org/1999/xlink" contentStyleType="text/css" data-diagram-type="DESCRIPTION" height="1196px" preserveAspectRatio="none" style="width:1042px;height:1196px;background:#FFFFFF;" version="1.1" viewBox="0 0 1042 1196" width="1042px" zoomAndPan="magnify"><?plantuml 1.2026.6?><defs/><g><g class="title" data-source-line="1"><text fill="#000000" font-family="'Noto Sans CJK JP'" font-size="14" font-weight="700" lengthAdjust="spacing" textLength="125.9995" x="454.9258" y="26.2399">&#20840;&#20307;&#12450;&#12540;&#12461;&#12486;&#12463;&#12481;&#12515;</text></g><!--cluster ????????--><g class="cluster" data-qualified-name="........" data-source-line="8" id="ent0002"><path d="M8.5,213.7719 L121.4995,213.7719 A3.75,3.75 0 0 1 123.9995,216.2719 L130.9995,240.0438 L375.5,240.0438 A2.5,2.5 0 0 1 378,242.5438 L378,773.7719 A2.5,2.5 0 0 1 375.5,776.2719 L8.5,776.2719 A2.5,2.5 0 0 1 6,773.7719 L6,216.2719 A2.5,2.5 0 0 1 8.5,213.7719" fill="none" style="stroke:#000000;stroke-width:1.5;"/><line style="stroke:#000000;stroke-width:1.5;" x1="6" x2="130.9995" y1="240.0438" y2="240.0438"/><text fill="#000000" font-family="'Noto Sans CJK JP'" font-size="14" font-weight="700" lengthAdjust="spacing" textLength="111.9995" x="10" y="232.0118">&#12525;&#12540;&#12459;&#12523;&#38283;&#30330;&#29872;&#22659;</text></g><!--cluster Google--><g class="cluster" data-qualified-name="Google" data-source-line="22" id="ent0013"><path d="M421.4595,635.8363 C434.5613,615.5416 447.6921,612.4915 462.6756,633.9802 C473.6552,618.0729 492.8349,619.1852 502.4757,635.6274 C516.9187,614.7343 533.6775,617.6782 545.7058,638.1509 C554.3738,617.8032 572.4899,619.7328 583.4627,635.7584 C597.1064,616.2357 612.2782,618.1409 626.1738,635.4664 C636.7536,616.7527 650.2529,616.9305 662.4254,633.846 C676.7589,613.6297 690.4401,614.869 706.3551,631.985 C717.6085,615.2801 731.7964,614.6133 742.2301,632.8271 C756.4398,612.8742 778.9078,615.1901 788.9777,637.4154 C796.2916,618.4506 815.1468,617.6315 826.4001,633.139 C839.7126,618.0763 851.4884,614.8626 864.2427,633.7609 C877.7212,616.3515 895.7836,614.3713 906.9939,636.2303 C922.2997,613.5442 936.9281,614.8293 952.6738,635.7697 C965.4047,617.0821 983.1296,619.0372 993,638.7719 C995.7654,638.0781 997.543,638.9893 997.3265,642.1334 C1016.5489,650.3426 1019.9949,668.3816 1001.5921,680.7473 C1021.3665,695.7968 1022.8402,713.3797 1000.6733,727.6068 C1021.3571,741.9504 1019.6897,760.2282 997.4062,771.3637 C1020.4497,779.0982 1022.8213,795.3203 1005.747,811.4104 C1021.5691,827.5014 1023.6101,839.8663 1000.5417,850.8206 C1026.5169,860.8936 1027.851,880.732 1007.9375,897.9986 C1023.2991,909.5083 1023.6545,925.852 1003.5531,932.9079 C1023.8125,944.4871 1022.4399,962.7363 1005.5019,975.9978 C1023.684,991.3114 1023.6882,1012.133 999.5299,1021.9432 C1018.8918,1036.6335 1015.0397,1049.3953 996.4351,1061.0836 C1016.9044,1070.9812 1019.5076,1093.1218 1001.5245,1107.2576 C1018.8245,1127.9613 1010.196,1143.9012 986,1149.2719 C989.8343,1149.5726 991.5587,1152.8047 989.2404,1156.0478 C975.8058,1173.2725 959.3341,1176.177 948.2869,1153.5917 C939.2801,1175.7378 921.1826,1175.9484 907.0313,1159.0238 C896.0294,1176.0996 879.8245,1177.3655 869.1381,1158.6894 C856.552,1174.8721 841.8217,1175.5428 829.7855,1158.0467 C816.8091,1177.9662 799.3607,1177.486 787.6228,1156.7619 C777.0331,1177.2736 760.1036,1174.8464 747.5638,1158.9049 C731.7006,1178.2323 716.8284,1176.8844 701.9846,1157.6984 C689.9608,1178.3979 678.3872,1175.7515 664.1936,1159.9445 C649.4918,1179.9868 632.3486,1181.1321 620.3568,1157.2406 C608.0085,1179.0695 593.904,1178.7195 580.5229,1158.2123 C571.9384,1174.6334 555.3593,1174.0129 546.2564,1158.7734 C532.1446,1178.8547 511.9779,1176.9755 502.8036,1153.8121 C492.1953,1174.3756 474.7317,1174.2818 462.2472,1155.7589 C440.6108,1173.989 418.4772,1175.0192 410,1142.2719 C411.3537,1140.5406 412.6309,1140.9694 413.5143,1142.7434 C396.3685,1130.4003 391.8659,1114.5161 412.3851,1101.1506 C390.3558,1087.3519 392.6433,1073.9746 411.8972,1059.6901 C394.2552,1050.1002 393.7686,1032.4405 412.7074,1023.6735 C387.9755,1013.3537 386.9692,993.5949 407.3944,978.0199 C387.2127,964.1721 392.0715,949.1942 410.9813,938.9339 C393.6785,927.4339 391.3901,908.9017 410.6776,897.1358 C387.5647,884.5894 384.386,868.918 407.1933,852.7656 C383.0603,840.0703 387.5198,819.4753 407.5904,807.1649 C388.6802,795.6004 386.9452,776.3209 407.9822,765.1288 C392.1869,752.2153 391.3997,736.3246 409.5652,724.7422 C389.5421,711.7945 392.0478,691.1784 413.2891,681.8099 C392.2887,666.1719 393.0211,644.0742 417,631.7719 C420.3896,630.8199 422.0091,632.4661 421.4595,635.8363" fill="none" style="stroke:#181818;stroke-width:1;"/><text fill="#000000" font-family="'Noto Sans CJK JP'" font-size="14" font-weight="700" lengthAdjust="spacing" textLength="48.4678" x="677.2661" y="653.0118">Google</text></g><!--cluster Apps Script ??????--><g class="cluster" data-qualified-name="Google.Apps Script ......" data-source-line="23" id="ent0014"><path d="M428.5,670.7719 L595.1753,670.7719 A3.75,3.75 0 0 1 597.6753,673.2719 L604.6753,697.0438 L649.5,697.0438 A2.5,2.5 0 0 1 652,699.5438 L652,1130.7719 A2.5,2.5 0 0 1 649.5,1133.2719 L428.5,1133.2719 A2.5,2.5 0 0 1 426,1130.7719 L426,673.2719 A2.5,2.5 0 0 1 428.5,670.7719" fill="none" style="stroke:#000000;stroke-width:1.5;"/><line style="stroke:#000000;stroke-width:1.5;" x1="426" x2="604.6753" y1="697.0438" y2="697.0438"/><text fill="#000000" font-family="'Noto Sans CJK JP'" font-size="14" font-weight="700" lengthAdjust="spacing" textLength="165.6753" x="430" y="689.0118">Apps Script &#12503;&#12525;&#12472;&#12455;&#12463;&#12488;</text></g><!--cluster Google Drive--><g class="cluster" data-qualified-name="Google.Google Drive" data-source-line="29" id="ent0019"><path d="M803.5,1007.2719 L892.6997,1007.2719 A3.75,3.75 0 0 1 895.1997,1009.7719 L902.1997,1033.5438 L974.5,1033.5438 A2.5,2.5 0 0 1 977,1036.0438 L977,1120.7719 A2.5,2.5 0 0 1 974.5,1123.2719 L803.5,1123.2719 A2.5,2.5 0 0 1 801,1120.7719 L801,1009.7719 A2.5,2.5 0 0 1 803.5,1007.2719" fill="none" style="stroke:#000000;stroke-width:1.5;"/><line style="stroke:#000000;stroke-width:1.5;" x1="801" x2="902.1997" y1="1033.5438" y2="1033.5438"/><text fill="#000000" font-family="'Noto Sans CJK JP'" font-size="14" font-weight="700" lengthAdjust="spacing" textLength="88.1997" x="805" y="1025.5118">Google Drive</text></g><!--entity mise--><g class="entity" data-qualified-name=".........mise" data-source-line="9" id="ent0003"><rect fill="#F1F1F1" height="60.5438" rx="2.5" ry="2.5" style="stroke:#181818;stroke-width:0.5;" width="169.4633" x="193.5" y="252.7719"/><text fill="#000000" font-family="'Noto Sans CJK JP'" font-size="14" lengthAdjust="spacing" textLength="31.1219" x="203.5" y="279.0118">mise</text><text fill="#000000" font-family="'Noto Sans CJK JP'" font-size="14" lengthAdjust="spacing" textLength="149.4633" x="203.5" y="299.2838">(&#12484;&#12540;&#12523;&#12496;&#12540;&#12472;&#12519;&#12531;&#31649;&#29702;)</text></g><!--entity node--><g class="entity" data-qualified-name=".........node" data-source-line="10" id="ent0004"><rect fill="#F1F1F1" height="40.2719" rx="2.5" ry="2.5" style="stroke:#181818;stroke-width:0.5;" width="119.9596" x="218" y="404.2719"/><text fill="#000000" font-family="'Noto Sans CJK JP'" font-size="14" lengthAdjust="spacing" textLength="99.9596" x="228" y="430.5118">Node.js / pnpm</text></g><!--entity src--><g class="entity" data-qualified-name=".........src" data-source-line="11" id="ent0005"><rect fill="#F1F1F1" height="60.5438" rx="2.5" ry="2.5" style="stroke:#181818;stroke-width:0.5;" width="135.9755" x="22" y="252.7719"/><text fill="#000000" font-family="'Noto Sans CJK JP'" font-size="14" lengthAdjust="spacing" textLength="115.9755" x="32" y="279.0118">TypeScript &#12477;&#12540;&#12473;</text><text fill="#000000" font-family="'Noto Sans CJK JP'" font-size="14" lengthAdjust="spacing" textLength="46.8718" x="32" y="299.2838">src/*.ts</text></g><!--entity tsc--><g class="entity" data-qualified-name=".........tsc" data-source-line="12" id="ent0006"><rect fill="#F1F1F1" height="60.5438" rx="2.5" ry="2.5" style="stroke:#181818;stroke-width:0.5;" width="99.4637" x="62.5" y="393.7719"/><text fill="#000000" font-family="'Noto Sans CJK JP'" font-size="14" lengthAdjust="spacing" textLength="18.9699" x="72.5" y="420.0118">tsc</text><text fill="#000000" font-family="'Noto Sans CJK JP'" font-size="14" lengthAdjust="spacing" textLength="79.4637" x="72.5" y="440.2838">(&#12467;&#12531;&#12497;&#12452;&#12521;)</text></g><!--entity dist--><g class="entity" data-qualified-name=".........dist" data-source-line="13" id="ent0007"><rect fill="#F1F1F1" height="60.5438" rx="2.5" ry="2.5" style="stroke:#181818;stroke-width:0.5;" width="190.1133" x="97" y="515.7719"/><text fill="#000000" font-family="'Noto Sans CJK JP'" font-size="14" lengthAdjust="spacing" textLength="29.8479" x="107" y="542.0118">dist/</text><text fill="#000000" font-family="'Noto Sans CJK JP'" font-size="14" lengthAdjust="spacing" textLength="170.1133" x="107" y="562.2838">(GAS &#29992; JS + &#12510;&#12491;&#12501;&#12455;&#12473;&#12488;)</text></g><!--entity clasp--><g class="entity" data-qualified-name=".........clasp" data-source-line="14" id="ent0008"><rect fill="#F1F1F1" height="60.5438" rx="2.5" ry="2.5" style="stroke:#181818;stroke-width:0.5;" width="123.2356" x="238.5" y="699.2719"/><text fill="#000000" font-family="'Noto Sans CJK JP'" font-size="14" lengthAdjust="spacing" textLength="34.2299" x="248.5" y="725.5118">clasp</text><text fill="#000000" font-family="'Noto Sans CJK JP'" font-size="14" lengthAdjust="spacing" textLength="103.2356" x="248.5" y="745.7838">(&#12487;&#12503;&#12525;&#12452;&#29992; CLI)</text></g><!--entity logging--><g class="entity" data-qualified-name="Google.logging" data-source-line="28" id="ent0018"><rect fill="#F1F1F1" height="60.5438" rx="2.5" ry="2.5" style="stroke:#181818;stroke-width:0.5;" width="113.8696" x="668" y="1046.2719"/><text fill="#000000" font-family="'Noto Sans CJK JP'" font-size="14" lengthAdjust="spacing" textLength="93.8696" x="678" y="1072.5118">Cloud Logging</text><text fill="#000000" font-family="'Noto Sans CJK JP'" font-size="14" lengthAdjust="spacing" textLength="65.4637" x="678" y="1092.7838">(&#23455;&#34892;&#12525;&#12464;)</text></g><!--entity gas--><g class="entity" data-qualified-name="Google.Apps Script .......gas" data-source-line="24" id="ent0015"><rect fill="#F1F1F1" height="60.5438" rx="2.5" ry="2.5" style="stroke:#181818;stroke-width:0.5;" width="193.8233" x="442" y="861.2719"/><text fill="#000000" font-family="'Noto Sans CJK JP'" font-size="14" lengthAdjust="spacing" textLength="97.9996" x="452" y="887.5118">&#12473;&#12463;&#12522;&#12503;&#12488;&#26412;&#20307;</text><text fill="#000000" font-family="'Noto Sans CJK JP'" font-size="14" lengthAdjust="spacing" textLength="173.8233" x="452" y="907.7838">(main / transfer / state / ...)</text></g><!--entity trigger--><g class="entity" data-qualified-name="Google.Apps Script .......trigger" data-source-line="25" id="ent0016"><rect fill="#F1F1F1" height="40.2719" rx="2.5" ry="2.5" style="stroke:#181818;stroke-width:0.5;" width="131.9995" x="448" y="709.7719"/><text fill="#000000" font-family="'Noto Sans CJK JP'" font-size="14" lengthAdjust="spacing" textLength="111.9995" x="458" y="736.0118">&#26178;&#38291;&#20027;&#23566;&#12488;&#12522;&#12460;&#12540;</text></g><!--entity props--><g class="entity" data-qualified-name="Google.Apps Script .......props" data-source-line="26" id="ent0017"><rect fill="#F1F1F1" height="80.8157" rx="2.5" ry="2.5" style="stroke:#181818;stroke-width:0.5;" width="164.7314" x="450.5" y="1036.2719"/><text fill="#000000" font-family="'Noto Sans CJK JP'" font-size="14" lengthAdjust="spacing" textLength="125.9995" x="460.5" y="1062.5118">&#12518;&#12540;&#12470;&#12540;&#12503;&#12525;&#12497;&#12486;&#12451;</text><text fill="#000000" font-family="'Noto Sans CJK JP'" font-size="14" lengthAdjust="spacing" textLength="144.7314" x="460.5" y="1082.7838">(&#36914;&#25431;&#12481;&#12455;&#12483;&#12463;&#12509;&#12452;&#12531;&#12488;</text><text fill="#000000" font-family="'Noto Sans CJK JP'" font-size="14" lengthAdjust="spacing" textLength="116.7315" x="460.5" y="1103.0557">&#21033;&#29992;&#32773;&#12372;&#12392;&#12395;&#29420;&#31435;)</text></g><!--entity drive--><g class="entity" data-qualified-name="Google.Google Drive.drive" data-source-line="30" id="ent0020"><rect fill="#F1F1F1" height="60.5438" rx="2.5" ry="2.5" style="stroke:#181818;stroke-width:0.5;" width="143.7595" x="817" y="1046.2719"/><text fill="#000000" font-family="'Noto Sans CJK JP'" font-size="14" lengthAdjust="spacing" textLength="97.9996" x="827" y="1072.5118">&#12510;&#12452;&#12489;&#12521;&#12452;&#12502;&#12398;</text><text fill="#000000" font-family="'Noto Sans CJK JP'" font-size="14" lengthAdjust="spacing" textLength="123.7595" x="827" y="1092.7838">&#12501;&#12449;&#12452;&#12523; / &#12501;&#12457;&#12523;&#12480;</text></g><!--entity dev--><g class="entity" data-qualified-name="dev" data-source-line="6" id="ent0001"><ellipse cx="253.2319" cy="55.2719" fill="#F1F1F1" rx="8" ry="8" style="stroke:#181818;stroke-width:0.5;"/><path d="M253.2319,63.2719 L253.2319,90.2719 M240.2319,71.2719 L266.2319,71.2719 M253.2319,90.2719 L240.2319,105.2719 M253.2319,90.2719 L266.2319,105.2719" fill="none" style="stroke:#181818;stroke-width:0.5;"/><text fill="#000000" font-family="'Noto Sans CJK JP'" font-size="14" lengthAdjust="spacing" textLength="41.9998" x="227.5" y="123.0118">&#38283;&#30330;&#32773;</text><text fill="#000000" font-family="'Noto Sans CJK JP'" font-size="14" lengthAdjust="spacing" textLength="51.4638" x="227.5" y="143.2838">(&#12354;&#12394;&#12383;)</text></g><!--link mise to node--><g class="link" data-entity-1="ent0003" data-entity-2="ent0004" data-link-type="dependency" data-source-line="16" id="lnk9"><path d="M278,314.0919 C278,341.3719 278,375.9219 278,399.1819" fill="none" id="mise-to-node" style="stroke:#181818;stroke-width:1;stroke-dasharray:7,7;"/><polygon fill="#181818" points="278,404.1819,282,395.1819,278,399.1819,274,395.1819,278,404.1819" style="stroke:#181818;stroke-width:1;stroke-linejoin:miter;stroke-miterlimit:10;"/><text fill="#000000" font-family="'Noto Sans CJK JP'" font-size="13" lengthAdjust="spacing" textLength="78.0001" x="279" y="359.8519">&#12452;&#12531;&#12473;&#12488;&#12540;&#12523;</text></g><!--link src to tsc--><g class="link" data-entity-1="ent0005" data-entity-2="ent0006" data-link-type="dependency" data-source-line="17" id="lnk10"><path d="M94.72,314.0919 C98.43,337.5419 102.7983,365.1234 106.5083,388.5634" fill="none" id="src-to-tsc" style="stroke:#181818;stroke-width:1;"/><polygon fill="#181818" points="107.29,393.5019,109.8338,383.9872,106.5083,388.5634,101.9322,385.2379,107.29,393.5019" style="stroke:#181818;stroke-width:1;stroke-linejoin:miter;stroke-miterlimit:10;"/></g><!--link tsc to dist--><g class="link" data-entity-1="ent0006" data-entity-2="ent0007" data-link-type="dependency" data-source-line="18" id="lnk11"><path d="M131.78,454.9319 C144.08,473.3919 157.087,492.9013 169.397,511.3713" fill="none" id="tsc-to-dist" style="stroke:#181818;stroke-width:1;"/><polygon fill="#181818" points="172.17,515.5319,170.5071,505.8245,169.397,511.3713,163.8502,510.2612,172.17,515.5319" style="stroke:#181818;stroke-width:1;stroke-linejoin:miter;stroke-miterlimit:10;"/></g><!--link dist to clasp--><g class="link" data-entity-1="ent0007" data-entity-2="ent0008" data-link-type="dependency" data-source-line="19" id="lnk12"><path d="M209.59,576.8419 C229.68,610.5919 259.7725,661.1755 279.8625,694.9255" fill="none" id="dist-to-clasp" style="stroke:#181818;stroke-width:1;"/><polygon fill="#181818" points="282.42,699.2219,281.2537,689.4424,279.8625,694.9255,274.3794,693.5343,282.42,699.2219" style="stroke:#181818;stroke-width:1;stroke-linejoin:miter;stroke-miterlimit:10;"/></g><!--link dev to src--><g class="link" data-entity-1="ent0001" data-entity-2="ent0005" data-link-type="dependency" data-source-line="34" id="lnk21"><path d="M227.17,127.4319 C196.83,161.6819 150.0856,214.4494 119.5656,248.8994" fill="none" id="dev-to-src" style="stroke:#181818;stroke-width:1;"/><polygon fill="#181818" points="116.25,252.6419,125.2121,248.5578,119.5656,248.8994,119.2241,243.2528,116.25,252.6419" style="stroke:#181818;stroke-width:1;stroke-linejoin:miter;stroke-miterlimit:10;"/><text fill="#000000" font-family="'Noto Sans CJK JP'" font-size="13" lengthAdjust="spacing" textLength="26" x="182" y="193.8519">&#32232;&#38598;</text></g><!--link dev to clasp--><g class="link" data-entity-1="ent0001" data-entity-2="ent0008" data-link-type="dependency" data-source-line="35" id="lnk22"><path d="M278.83,111.8619 C324.79,138.1319 416,200.5519 416,282.2719 C416,282.2719 416,282.2719 416,547.2719 C416,608.6019 371.9771,662.3587 337.7671,695.5787" fill="none" id="dev-to-clasp" style="stroke:#181818;stroke-width:1;"/><polygon fill="#181818" points="334.18,699.0619,343.4233,695.6617,337.7671,695.5787,337.8501,689.9224,334.18,699.0619" style="stroke:#181818;stroke-width:1;stroke-linejoin:miter;stroke-miterlimit:10;"/><text fill="#000000" font-family="'Noto Sans CJK JP'" font-size="13" lengthAdjust="spacing" textLength="85.5141" x="417" y="430.3519">mise run push</text></g><!--link clasp to gas--><g class="link" data-entity-1="ent0008" data-entity-2="ent0015" data-link-type="dependency" data-source-line="36" id="lnk23"><path d="M344.3,760.4619 C374.16,780.4819 414.44,807.4719 450,831.2719 C464.52,840.9919 476.2238,848.8124 490.4738,858.3424" fill="none" id="clasp-to-gas" style="stroke:#181818;stroke-width:1;"/><polygon fill="#181818" points="494.63,861.1219,489.3725,852.7937,490.4738,858.3424,484.9252,859.4437,494.63,861.1219" style="stroke:#181818;stroke-width:1;stroke-linejoin:miter;stroke-miterlimit:10;"/><text fill="#000000" font-family="'Noto Sans CJK JP'" font-size="13" lengthAdjust="spacing" textLength="64.623" x="451" y="808.3519">clasp push</text><text fill="#000000" font-family="'Noto Sans CJK JP'" font-size="13" lengthAdjust="spacing" textLength="49.803" x="458.41" y="827.1759">(HTTPS)</text></g><!--link gas to drive--><g class="link" data-entity-1="ent0015" data-entity-2="ent0020" data-link-type="dependency" data-source-line="37" id="lnk24"><path d="M636.09,897.6619 C689.16,904.3019 753.88,919.2319 803,952.2719 C837.58,975.5319 860.2671,1013.2536 874.1071,1041.7736" fill="none" id="gas-to-drive" style="stroke:#181818;stroke-width:1;"/><polygon fill="#181818" points="876.29,1046.2719,875.9594,1036.4286,874.1071,1041.7736,868.7621,1039.9213,876.29,1046.2719" style="stroke:#181818;stroke-width:1;stroke-linejoin:miter;stroke-miterlimit:10;"/><text fill="#000000" font-family="'Noto Sans CJK JP'" font-size="13" lengthAdjust="spacing" textLength="110.4741" x="842" y="968.3519">DriveApp &#12391;&#36208;&#26619;&#12375;</text><text fill="#000000" font-family="'Noto Sans CJK JP'" font-size="13" lengthAdjust="spacing" textLength="78.0001" x="858.237" y="987.1759">&#25152;&#26377;&#27177;&#12434;&#35698;&#28193;</text></g><!--link gas to props--><g class="link" data-entity-1="ent0015" data-entity-2="ent0017" data-link-type="dependency" data-source-line="38" id="lnk25"><path d="M464.5013,925.2156 C453.0513,933.2156 446.81,940.2319 440,952.2719 C423.15,982.0619 442.3486,1009.5639 469.6886,1032.9239" fill="none" id="gas-props" style="stroke:#181818;stroke-width:1;"/><polygon fill="#181818" points="468.6,922.3519,458.9314,924.2276,464.5013,925.2156,463.5133,930.7855,468.6,922.3519" style="stroke:#181818;stroke-width:1;stroke-linejoin:miter;stroke-miterlimit:10;"/><polygon fill="#181818" points="473.49,1036.1719,469.2459,1027.2844,469.6886,1032.9239,464.0491,1033.3666,473.49,1036.1719" style="stroke:#181818;stroke-width:1;stroke-linejoin:miter;stroke-miterlimit:10;"/><text fill="#000000" font-family="'Noto Sans CJK JP'" font-size="13" lengthAdjust="spacing" textLength="101.9201" x="441" y="977.8519">&#36914;&#25431;&#12398;&#20445;&#23384; / &#24489;&#20803;</text></g><!--link trigger to gas--><g class="link" data-entity-1="ent0016" data-entity-2="ent0015" data-link-type="dependency" data-source-line="39" id="lnk26"><path d="M517.02,750.0719 C521.33,777.6619 528.5177,823.6919 533.5877,856.1219" fill="none" id="trigger-to-gas" style="stroke:#181818;stroke-width:1;"/><polygon fill="#181818" points="534.36,861.0619,536.9219,851.5521,533.5877,856.1219,529.0179,852.7878,534.36,861.0619" style="stroke:#181818;stroke-width:1;stroke-linejoin:miter;stroke-miterlimit:10;"/><text fill="#000000" font-family="'Noto Sans CJK JP'" font-size="13" lengthAdjust="spacing" textLength="120.7961" x="530" y="808.3519">resumeTransfer() &#12434;</text><text fill="#000000" font-family="'Noto Sans CJK JP'" font-size="13" lengthAdjust="spacing" textLength="52.0001" x="564.398" y="827.1759">&#33258;&#21205;&#36215;&#21205;</text></g><!--link gas to logging--><g class="link" data-entity-1="ent0015" data-entity-2="ent0018" data-link-type="dependency" data-source-line="40" id="lnk27"><path d="M571.58,922.6219 C594.39,943.7319 625.42,972.8619 652,999.2719 C667.23,1014.4119 680.359,1028.0549 693.849,1042.3549" fill="none" id="gas-to-logging" style="stroke:#181818;stroke-width:1;"/><polygon fill="#181818" points="697.28,1045.9919,694.0138,1036.7004,693.849,1042.3549,688.1945,1042.1901,697.28,1045.9919" style="stroke:#181818;stroke-width:1;stroke-linejoin:miter;stroke-miterlimit:10;"/><text fill="#000000" font-family="'Noto Sans CJK JP'" font-size="13" lengthAdjust="spacing" textLength="69.81" x="644" y="977.8519">console.log</text></g><?plantuml-src RLDTJnD157tVNp7f4sWexyIG48me4aBIFlPbintAIZkxsTbYY27fxWYML0toAH4aV4GA1MmWI1NH7pDiM_w5T-wiIDMNRcVkrxdddF5jFqz9D5kzlbgIuOuKtsLuBCMS33zB4KYnQ_19cxccPnP8bewRnRp_o67-g5cW937g-0v9cOoJmU6dP7WiSIUPJvXPvxdDScJSp7Dw9s8v1TTXbFafVnfcUzJoJPRBKyCmBT_nIE9cjT9Q_zOkpMPObmn26HpAOAixGKmE4AOCmpMjIJC7ywKuHi0rAMgwgBLOZtP4Whmmo9yv956mELNDn4kLBo1_0GiRKknBSTOwsMujpEa9AhMpUDJ9qkGpJdg9ozm29Z6uwanAJxiqPNcswnCPNc7phnd6FQltNjBdM0I7pXgVMmfKU0OGf7Wdmpqf3ZGA27NcPctkzqBsq42Aj9QhP3X5xXCfFafHaM95XlimJufop18aTvPRUPExoC0hATOKR-6UQZCuyaINO881HMf_aapsuuwaZo2gCzrTamT9i0hfwUcFOS8ldkAnweDdtNF6CAoyKyoIn93ZWCnQd5iD1roNaz_CnT0Qk0yOiAoJErPHK5Ji4BFBpOqZi2wiLZ1j1Xhv7lXnd7hmb_kcJ-6RJ2RraZcJ_zsjkHxUh2vTDowZ-blSy526Hx2dLi6pSpdg_OD0V4A1lo0V21dKKszc5t3Sb4wRRzRKuu4bX42icp6BefnXKVa0c0Ttos1P1bKPr5gLerQjeY6wdkCga3ET-WqYWoDEBWSl2eP49rljxTT8LbqNvdNiBhMQR_BGiwVe_uW4zoXOy-0w_BCgWvCCGpjjuqKDoCFZ0RwPaZQNQeS8GLbuZoYrCaGVQLrKRpxCtLwY_d2DblAAZBX5Fc7eMnK7EI2gpoe4UprEfyTItOQAeAFKBCZ15S0fH0RxxVDwS-jI1ciPrfmlDJVccrM0lzW-Fcqsjh7oWIf58g4qbYCukVwv6Hs_XusY7mVHh31YSUyWyIWl5cWwDb1NDtX_CSFQhmwZoahx_09-Ru75R2lu3kDEdYRXvXS0?></g></svg>