<svg xmlns="http://www.w3.org/2000/svg" xmlns:xlink="http://www.w3.org/1999/xlink" contentStyleType="text/css" data-diagram-type="ACTIVITY" height="1047px" preserveAspectRatio="none" style="width:548px;height:1047px;background:#FFFFFF;" version="1.1" viewBox="0 0 548 1047" width="548px" zoomAndPan="magnify"><?plantuml 1.2026.6?><defs/><g><g class="title" data-source-line="1"><text fill="#000000" font-family="'Noto Sans CJK JP'" font-size="14" font-weight="700" lengthAdjust="spacing" textLength="218.0211" x="164.3607" y="36.2399">1 &#12496;&#12483;&#12481;&#12398;&#20966;&#29702;&#12501;&#12525;&#12540;(&#12484;&#12522;&#12540;&#36208;&#26619;)</text></g><ellipse cx="335.9641" cy="66.2719" fill="#222222" rx="10" ry="10" style="stroke:#222222;stroke-width:1;"/><rect fill="#F1F1F1" height="54.7522" rx="12.5" ry="12.5" style="stroke:#181818;stroke-width:0.5;" width="272.0019" x="199.9631" y="96.2719"/><text fill="#000000" font-family="'Noto Sans CJK JP'" font-size="12" lengthAdjust="spacing" textLength="252.0019" x="209.9631" y="120.192">&#12300;&#35373;&#23450;&#12301;&#12471;&#12540;&#12488;&#12398;&#20869;&#23481;&#12434;&#26908;&#35388;&#12375;&#12289;&#29366;&#24907;&#12434;&#21021;&#26399;&#21270;</text><text fill="#000000" font-family="'Noto Sans CJK JP'" font-size="12" lengthAdjust="spacing" textLength="196.2615" x="209.9631" y="137.5681">(&#12461;&#12517;&#12540; = [&#25351;&#23450;&#12373;&#12428;&#12383;&#36215;&#28857;&#12501;&#12457;&#12523;&#12480;])</text><rect fill="#F1F1F1" height="37.3761" rx="12.5" ry="12.5" style="stroke:#181818;stroke-width:0.5;" width="248.0377" x="211.9452" y="229.2841"/><text fill="#000000" font-family="'Noto Sans CJK JP'" font-size="12" lengthAdjust="spacing" textLength="228.0377" x="221.9452" y="253.2042">&#12461;&#12517;&#12540;&#12398;&#20808;&#38957;&#12363;&#12425;&#12501;&#12457;&#12523;&#12480;&#12434; 1 &#12388;&#21462;&#12426;&#20986;&#12377;</text><rect fill="#F1F1F1" height="54.7522" rx="12.5" ry="12.5" style="stroke:#181818;stroke-width:0.5;" width="164.0011" x="253.9635" y="394.884"/><text fill="#000000" font-family="'Noto Sans CJK JP'" font-size="12" lengthAdjust="spacing" textLength="120.0009" x="263.9635" y="418.8041">&#32153;&#32154;&#12488;&#12540;&#12463;&#12531;&#12392;&#29366;&#24907;&#12434;</text><text fill="#000000" font-family="'Noto Sans CJK JP'" font-size="12" lengthAdjust="spacing" textLength="144.0011" x="263.9635" y="436.1802">&#12518;&#12540;&#12470;&#12540;&#12503;&#12525;&#12497;&#12486;&#12451;&#12408;&#20445;&#23384;</text><rect fill="#F1F1F1" height="37.3761" rx="12.5" ry="12.5" style="stroke:#181818;stroke-width:0.5;" width="194.6973" x="238.6154" y="470.3243"/><text fill="#000000" font-family="'Noto Sans CJK JP'" font-size="12" lengthAdjust="spacing" textLength="174.6973" x="248.6154" y="494.2444">&#32004; 60 &#31186;&#24460;&#12398;&#20877;&#38283;&#12488;&#12522;&#12460;&#12540;&#12434;&#20104;&#32004;</text><ellipse cx="335.9641" cy="538.7005" fill="none" rx="11" ry="11" style="stroke:#222222;stroke-width:1;"/><ellipse cx="335.9641" cy="538.7005" fill="#222222" rx="6" ry="6" style="stroke:#222222;stroke-width:1;"/><polygon fill="#F1F1F1" points="268.8095,344.9201,403.1186,344.9201,415.1186,356.9201,403.1186,368.9201,268.8095,368.9201,256.8095,356.9201,268.8095,344.9201" style="stroke:#181818;stroke-width:0.5;stroke-linejoin:miter;stroke-miterlimit:10;"/><text fill="#000000" font-family="'Noto Sans CJK JP'" font-size="11" lengthAdjust="spacing" textLength="21.9998" x="339.9641" y="381.68">&#12399;&#12356;</text><text fill="#000000" font-family="'Noto Sans CJK JP'" font-size="11" lengthAdjust="spacing" textLength="134.3091" x="268.8095" y="361.7161">&#21046;&#38480;&#26178;&#38291; (4.5 &#20998;) &#12434;&#36229;&#12360;&#12383;?</text><polygon fill="#F1F1F1" points="283.8574,591.7005,388.0707,591.7005,400.0707,603.7005,388.0707,615.7005,283.8574,615.7005,271.8574,603.7005,283.8574,591.7005" style="stroke:#181818;stroke-width:0.5;stroke-linejoin:miter;stroke-miterlimit:10;"/><text fill="#000000" font-family="'Noto Sans CJK JP'" font-size="11" lengthAdjust="spacing" textLength="104.2133" x="283.8574" y="608.4964">&#33258;&#20998;&#12364;&#25152;&#26377;&#12375;&#12390;&#12356;&#12427;?</text><text fill="#000000" font-family="'Noto Sans CJK JP'" font-size="11" lengthAdjust="spacing" textLength="21.9998" x="249.8576" y="600.5325">&#12399;&#12356;</text><text fill="#000000" font-family="'Noto Sans CJK JP'" font-size="11" lengthAdjust="spacing" textLength="32.9998" x="400.0707" y="600.5325">&#12356;&#12356;&#12360;</text><polygon fill="#F1F1F1" points="192.7156,625.7005,243.6563,625.7005,255.6563,637.7005,243.6563,649.7005,192.7156,649.7005,180.7156,637.7005,192.7156,625.7005" style="stroke:#181818;stroke-width:0.5;stroke-linejoin:miter;stroke-miterlimit:10;"/><text fill="#000000" font-family="'Noto Sans CJK JP'" font-size="11" lengthAdjust="spacing" textLength="50.9406" x="192.7156" y="642.4964">DRY RUN?</text><text fill="#000000" font-family="'Noto Sans CJK JP'" font-size="11" lengthAdjust="spacing" textLength="21.9998" x="158.7158" y="634.5325">&#12399;&#12356;</text><text fill="#000000" font-family="'Noto Sans CJK JP'" font-size="11" lengthAdjust="spacing" textLength="32.9998" x="255.6563" y="634.5325">&#12356;&#12356;&#12360;</text><rect fill="#F1F1F1" height="54.7522" rx="12.5" ry="12.5" style="stroke:#181818;stroke-width:0.5;" width="140.0009" x="61" y="659.7005"/><text fill="#000000" font-family="'Noto Sans CJK JP'" font-size="12" lengthAdjust="spacing" textLength="120.0009" x="71" y="683.6205">&#12525;&#12464;&#12395;&#12300;&#35698;&#28193;&#23550;&#35937;&#12301;&#12392;</text><text fill="#000000" font-family="'Noto Sans CJK JP'" font-size="12" lengthAdjust="spacing" textLength="72.0005" x="71" y="700.9967">&#35352;&#37682;&#12377;&#12427;&#12384;&#12369;</text><rect fill="#F1F1F1" height="37.3761" rx="12.5" ry="12.5" style="stroke:#181818;stroke-width:0.5;" width="168.7411" x="221.0009" y="659.7005"/><text fill="#000000" font-family="'Noto Sans CJK JP'" font-size="12" lengthAdjust="spacing" textLength="148.7411" x="231.0009" y="683.6205">setOwner() &#12391;&#25152;&#26377;&#27177;&#12434;&#35698;&#28193;</text><polygon fill="#F1F1F1" points="218.186,720.4527,230.186,732.4527,218.186,744.4527,206.186,732.4527,218.186,720.4527" style="stroke:#181818;stroke-width:0.5;stroke-linejoin:miter;stroke-miterlimit:10;"/><rect fill="#F1F1F1" height="37.3761" rx="12.5" ry="12.5" style="stroke:#181818;stroke-width:0.5;" width="68.0004" x="419.742" y="625.7005"/><text fill="#000000" font-family="'Noto Sans CJK JP'" font-size="12" lengthAdjust="spacing" textLength="48.0004" x="429.742" y="649.6205">&#12473;&#12461;&#12483;&#12503;</text><polygon fill="#F1F1F1" points="335.9641,750.4527,347.9641,762.4527,335.9641,774.4527,323.9641,762.4527,335.9641,750.4527" style="stroke:#181818;stroke-width:0.5;stroke-linejoin:miter;stroke-miterlimit:10;"/><polygon fill="#F1F1F1" points="234.3578,286.6602,437.5704,286.6602,449.5704,298.6602,437.5704,310.6602,234.3578,310.6602,222.3578,298.6602,234.3578,286.6602" style="stroke:#181818;stroke-width:0.5;stroke-linejoin:miter;stroke-miterlimit:10;"/><text fill="#000000" font-family="'Noto Sans CJK JP'" font-size="11" lengthAdjust="spacing" textLength="21.9998" x="339.9641" y="323.4201">&#12399;&#12356;</text><text fill="#000000" font-family="'Noto Sans CJK JP'" font-size="11" lengthAdjust="spacing" textLength="203.2126" x="234.3578" y="303.4561">&#12501;&#12457;&#12523;&#12480;&#30452;&#19979;&#12395;&#26410;&#20966;&#29702;&#12398;&#12501;&#12449;&#12452;&#12523;&#12364;&#12354;&#12427;?</text><text fill="#000000" font-family="'Noto Sans CJK JP'" font-size="11" lengthAdjust="spacing" textLength="32.9998" x="189.358" y="295.4922">&#12356;&#12356;&#12360;</text><rect fill="#F1F1F1" height="72.1284" rx="12.5" ry="12.5" style="stroke:#181818;stroke-width:0.5;" width="196.1133" x="237.9074" y="816.4527"/><text fill="#000000" font-family="'Noto Sans CJK JP'" font-size="12" lengthAdjust="spacing" textLength="132.001" x="247.9074" y="840.3728">&#12469;&#12502;&#12501;&#12457;&#12523;&#12480;&#12434;&#21015;&#25369;&#12375;&#12289;</text><text fill="#000000" font-family="'Noto Sans CJK JP'" font-size="12" lengthAdjust="spacing" textLength="176.1133" x="247.9074" y="857.7489">(&#35373;&#23450;&#12395;&#24540;&#12376;&#12390;&#25152;&#26377;&#27177;&#12434;&#35698;&#28193;&#12375;&#12390;)</text><text fill="#000000" font-family="'Noto Sans CJK JP'" font-size="12" lengthAdjust="spacing" textLength="108.0008" x="247.9074" y="875.125">&#12461;&#12517;&#12540;&#12398;&#26411;&#23614;&#12408;&#36861;&#21152;</text><polygon fill="#F1F1F1" points="256.3576,171.0242,415.5705,171.0242,427.5705,183.0242,415.5705,195.0242,256.3576,195.0242,244.3576,183.0242,256.3576,171.0242" style="stroke:#181818;stroke-width:0.5;stroke-linejoin:miter;stroke-miterlimit:10;"/><text fill="#000000" font-family="'Noto Sans CJK JP'" font-size="11" lengthAdjust="spacing" textLength="21.9998" x="339.9641" y="207.7841">&#12399;&#12356;</text><text fill="#000000" font-family="'Noto Sans CJK JP'" font-size="11" lengthAdjust="spacing" textLength="159.2129" x="256.3576" y="187.8201">&#12461;&#12517;&#12540;&#12395;&#12501;&#12457;&#12523;&#12480;&#12364;&#27531;&#12387;&#12390;&#12356;&#12427;?</text><text fill="#000000" font-family="'Noto Sans CJK JP'" font-size="11" lengthAdjust="spacing" textLength="32.9998" x="211.3579" y="179.8562">&#12356;&#12356;&#12360;</text><rect fill="#F1F1F1" height="54.7522" rx="12.5" ry="12.5" style="stroke:#181818;stroke-width:0.5;" width="244.1137" x="213.9072" y="930.5811"/><text fill="#000000" font-family="'Noto Sans CJK JP'" font-size="12" lengthAdjust="spacing" textLength="48.0004" x="223.9072" y="954.5012">&#23436;&#20102;&#20966;&#29702;</text><text fill="#000000" font-family="'Noto Sans CJK JP'" font-size="12" lengthAdjust="spacing" textLength="224.1137" x="223.9072" y="971.8773">(&#29366;&#24907;&#12463;&#12522;&#12450;&#12539;&#12488;&#12522;&#12460;&#12540;&#21066;&#38500;&#12539;&#12469;&#12510;&#12522;&#20986;&#21147;)</text><ellipse cx="335.9641" cy="1016.3333" fill="none" rx="11" ry="11" style="stroke:#222222;stroke-width:1;"/><ellipse cx="335.9641" cy="1016.3333" fill="#222222" rx="6" ry="6" style="stroke:#222222;stroke-width:1;"/><line style="stroke:#181818;stroke-width:1;" x1="335.9641" x2="335.9641" y1="76.2719" y2="96.2719"/><polygon fill="#181818" points="331.9641,86.2719,335.9641,96.2719,339.9641,86.2719,335.9641,90.2719" style="stroke:#181818;stroke-width:1;stroke-linejoin:miter;stroke-miterlimit:10;"/><line style="stroke:#181818;stroke-width:1;" x1="335.9641" x2="335.9641" y1="449.6363" y2="470.3243"/><polygon fill="#181818" points="331.9641,460.3243,335.9641,470.3243,339.9641,460.3243,335.9641,464.3243" style="stroke:#181818;stroke-width:1;stroke-linejoin:miter;stroke-miterlimit:10;"/><line style="stroke:#181818;stroke-width:1;" x1="335.9641" x2="335.9641" y1="507.7005" y2="527.7005"/><polygon fill="#181818" points="331.9641,517.7005,335.9641,527.7005,339.9641,517.7005,335.9641,521.7005" style="stroke:#181818;stroke-width:1;stroke-linejoin:miter;stroke-miterlimit:10;"/><line style="stroke:#181818;stroke-width:1;" x1="335.9641" x2="335.9641" y1="368.9201" y2="394.884"/><polygon fill="#181818" points="331.9641,384.884,335.9641,394.884,339.9641,384.884,335.9641,388.884" style="stroke:#181818;stroke-width:1;stroke-linejoin:miter;stroke-miterlimit:10;"/><line style="stroke:#181818;stroke-width:1;" x1="415.1186" x2="443.3127" y1="356.9201" y2="356.9201"/><polygon fill="#181818" points="439.3127,459.6363,443.3127,469.6363,447.3127,459.6363,443.3127,463.6363" style="stroke:#181818;stroke-width:1;stroke-linejoin:miter;stroke-miterlimit:10;"/><line style="stroke:#181818;stroke-width:1;" x1="443.3127" x2="443.3127" y1="356.9201" y2="571.7005"/><line style="stroke:#181818;stroke-width:1;" x1="443.3127" x2="335.9641" y1="571.7005" y2="571.7005"/><line style="stroke:#181818;stroke-width:1;" x1="335.9641" x2="335.9641" y1="571.7005" y2="591.7005"/><polygon fill="#181818" points="331.9641,581.7005,335.9641,591.7005,339.9641,581.7005,335.9641,585.7005" style="stroke:#181818;stroke-width:1;stroke-linejoin:miter;stroke-miterlimit:10;"/><line style="stroke:#181818;stroke-width:1;" x1="180.7156" x2="131.0005" y1="637.7005" y2="637.7005"/><line style="stroke:#181818;stroke-width:1;" x1="131.0005" x2="131.0005" y1="637.7005" y2="659.7005"/><polygon fill="#181818" points="127.0005,649.7005,131.0005,659.7005,135.0005,649.7005,131.0005,653.7005" style="stroke:#181818;stroke-width:1;stroke-linejoin:miter;stroke-miterlimit:10;"/><line style="stroke:#181818;stroke-width:1;" x1="255.6563" x2="305.3715" y1="637.7005" y2="637.7005"/><line style="stroke:#181818;stroke-width:1;" x1="305.3715" x2="305.3715" y1="637.7005" y2="659.7005"/><polygon fill="#181818" points="301.3715,649.7005,305.3715,659.7005,309.3715,649.7005,305.3715,653.7005" style="stroke:#181818;stroke-width:1;stroke-linejoin:miter;stroke-miterlimit:10;"/><line style="stroke:#181818;stroke-width:1;" x1="131.0005" x2="131.0005" y1="714.4527" y2="732.4527"/><line style="stroke:#181818;stroke-width:1;" x1="131.0005" x2="206.186" y1="732.4527" y2="732.4527"/><polygon fill="#181818" points="196.186,728.4527,206.186,732.4527,196.186,736.4527,200.186,732.4527" style="stroke:#181818;stroke-width:1;stroke-linejoin:miter;stroke-miterlimit:10;"/><line style="stroke:#181818;stroke-width:1;" x1="305.3715" x2="305.3715" y1="697.0766" y2="732.4527"/><line style="stroke:#181818;stroke-width:1;" x1="305.3715" x2="230.186" y1="732.4527" y2="732.4527"/><polygon fill="#181818" points="240.186,728.4527,230.186,732.4527,240.186,736.4527,236.186,732.4527" style="stroke:#181818;stroke-width:1;stroke-linejoin:miter;stroke-miterlimit:10;"/><line style="stroke:#181818;stroke-width:1;" x1="271.8574" x2="218.186" y1="603.7005" y2="603.7005"/><line style="stroke:#181818;stroke-width:1;" x1="218.186" x2="218.186" y1="603.7005" y2="625.7005"/><polygon fill="#181818" points="214.186,615.7005,218.186,625.7005,222.186,615.7005,218.186,619.7005" style="stroke:#181818;stroke-width:1;stroke-linejoin:miter;stroke-miterlimit:10;"/><line style="stroke:#181818;stroke-width:1;" x1="400.0707" x2="453.7422" y1="603.7005" y2="603.7005"/><line style="stroke:#181818;stroke-width:1;" x1="453.7422" x2="453.7422" y1="603.7005" y2="625.7005"/><polygon fill="#181818" points="449.7422,615.7005,453.7422,625.7005,457.7422,615.7005,453.7422,619.7005" style="stroke:#181818;stroke-width:1;stroke-linejoin:miter;stroke-miterlimit:10;"/><line style="stroke:#181818;stroke-width:1;" x1="218.186" x2="218.186" y1="744.4527" y2="762.4527"/><line style="stroke:#181818;stroke-width:1;" x1="218.186" x2="323.9641" y1="762.4527" y2="762.4527"/><polygon fill="#181818" points="313.9641,758.4527,323.9641,762.4527,313.9641,766.4527,317.9641,762.4527" style="stroke:#181818;stroke-width:1;stroke-linejoin:miter;stroke-miterlimit:10;"/><line style="stroke:#181818;stroke-width:1;" x1="453.7422" x2="453.7422" y1="663.0766" y2="762.4527"/><line style="stroke:#181818;stroke-width:1;" x1="453.7422" x2="347.9641" y1="762.4527" y2="762.4527"/><polygon fill="#181818" points="357.9641,758.4527,347.9641,762.4527,357.9641,766.4527,353.9641,762.4527" style="stroke:#181818;stroke-width:1;stroke-linejoin:miter;stroke-miterlimit:10;"/><line style="stroke:#181818;stroke-width:1;" x1="335.9641" x2="335.9641" y1="310.6602" y2="344.9201"/><polygon fill="#181818" points="331.9641,334.9201,335.9641,344.9201,339.9641,334.9201,335.9641,338.9201" style="stroke:#181818;stroke-width:1;stroke-linejoin:miter;stroke-miterlimit:10;"/><line style="stroke:#181818;stroke-width:1;" x1="335.9641" x2="335.9641" y1="774.4527" y2="784.4527"/><line style="stroke:#181818;stroke-width:1;" x1="335.9641" x2="501.7424" y1="784.4527" y2="784.4527"/><polygon fill="#181818" points="497.7424,547.5485,501.7424,537.5485,505.7424,547.5485,501.7424,543.5485" style="stroke:#181818;stroke-width:1;stroke-linejoin:miter;stroke-miterlimit:10;"/><line style="stroke:#181818;stroke-width:1;" x1="501.7424" x2="501.7424" y1="298.6602" y2="784.4527"/><line style="stroke:#181818;stroke-width:1;" x1="501.7424" x2="449.5704" y1="298.6602" y2="298.6602"/><polygon fill="#181818" points="459.5704,294.6602,449.5704,298.6602,459.5704,302.6602,455.5704,298.6602" style="stroke:#181818;stroke-width:1;stroke-linejoin:miter;stroke-miterlimit:10;"/><line style="stroke:#181818;stroke-width:1;" x1="222.3578" x2="47" y1="298.6602" y2="298.6602"/><polygon fill="#181818" points="43,533.5485,47,543.5485,51,533.5485,47,537.5485" style="stroke:#181818;stroke-width:1;stroke-linejoin:miter;stroke-miterlimit:10;"/><line style="stroke:#181818;stroke-width:1;" x1="47" x2="47" y1="298.6602" y2="796.4527"/><line style="stroke:#181818;stroke-width:1;" x1="47" x2="335.9641" y1="796.4527" y2="796.4527"/><line style="stroke:#181818;stroke-width:1;" x1="335.9641" x2="335.9641" y1="796.4527" y2="816.4527"/><polygon fill="#181818" points="331.9641,806.4527,335.9641,816.4527,339.9641,806.4527,335.9641,810.4527" style="stroke:#181818;stroke-width:1;stroke-linejoin:miter;stroke-miterlimit:10;"/><line style="stroke:#181818;stroke-width:1;" x1="335.9641" x2="335.9641" y1="266.6602" y2="286.6602"/><polygon fill="#181818" points="331.9641,276.6602,335.9641,286.6602,339.9641,276.6602,335.9641,280.6602" style="stroke:#181818;stroke-width:1;stroke-linejoin:miter;stroke-miterlimit:10;"/><line style="stroke:#181818;stroke-width:1;" x1="335.9641" x2="335.9641" y1="195.0242" y2="229.2841"/><polygon fill="#181818" points="331.9641,219.2841,335.9641,229.2841,339.9641,219.2841,335.9641,223.2841" style="stroke:#181818;stroke-width:1;stroke-linejoin:miter;stroke-miterlimit:10;"/><line style="stroke:#181818;stroke-width:1;" x1="335.9641" x2="335.9641" y1="888.5811" y2="898.5811"/><line style="stroke:#181818;stroke-width:1;" x1="335.9641" x2="513.7424" y1="898.5811" y2="898.5811"/><polygon fill="#181818" points="509.7424,544.9606,513.7424,534.9606,517.7424,544.9606,513.7424,540.9606" style="stroke:#181818;stroke-width:1;stroke-linejoin:miter;stroke-miterlimit:10;"/><line style="stroke:#181818;stroke-width:1;" x1="513.7424" x2="513.7424" y1="183.0242" y2="898.5811"/><line style="stroke:#181818;stroke-width:1;" x1="513.7424" x2="427.5705" y1="183.0242" y2="183.0242"/><polygon fill="#181818" points="437.5705,179.0242,427.5705,183.0242,437.5705,187.0242,433.5705,183.0242" style="stroke:#181818;stroke-width:1;stroke-linejoin:miter;stroke-miterlimit:10;"/><line style="stroke:#181818;stroke-width:1;" x1="244.3576" x2="29" y1="183.0242" y2="183.0242"/><polygon fill="#181818" points="25,530.9606,29,540.9606,33,530.9606,29,534.9606" style="stroke:#181818;stroke-width:1;stroke-linejoin:miter;stroke-miterlimit:10;"/><line style="stroke:#181818;stroke-width:1;" x1="29" x2="29" y1="183.0242" y2="910.5811"/><line style="stroke:#181818;stroke-width:1;" x1="29" x2="335.9641" y1="910.5811" y2="910.5811"/><line style="stroke:#181818;stroke-width:1;" x1="335.9641" x2="335.9641" y1="910.5811" y2="930.5811"/><polygon fill="#181818" points="331.9641,920.5811,335.9641,930.5811,339.9641,920.5811,335.9641,924.5811" style="stroke:#181818;stroke-width:1;stroke-linejoin:miter;stroke-miterlimit:10;"/><line style="stroke:#181818;stroke-width:1;" x1="335.9641" x2="335.9641" y1="151.0242" y2="171.0242"/><polygon fill="#181818" points="331.9641,161.0242,335.9641,171.0242,339.9641,161.0242,335.9641,165.0242" style="stroke:#181818;stroke-width:1;stroke-linejoin:miter;stroke-miterlimit:10;"/><line style="stroke:#181818;stroke-width:1;" x1="335.9641" x2="335.9641" y1="985.3333" y2="1005.3333"/><polygon fill="#181818" points="331.9641,995.3333,335.9641,1005.3333,339.9641,995.3333,335.9641,999.3333" style="stroke:#181818;stroke-width:1;stroke-linejoin:miter;stroke-miterlimit:10;"/><?plantuml-src TLDDJnDH5DttLxomQZT64tL1OrneN6221kF2Y8j9cCf4c19c3Dk-z_enROS8DRGKYWMjK5hR8aBv57xCxPjE_uNtJMaT598cdKxlkVVSSyurDND69VS8y2NW73W5sXIfxUvI4lWAy0Rmyo3mEF0QFhc7UqxvB1GmFcZwd3Alp98fDQ9yd36VHNLpN9bLoSXur8oILufka2TZpydOon5ViJ6jJ4KNDFqzYIWpXXe86AOoRmP68MQxrOPeha5i4TWH3W9kIHx9X6YU0CivbP9RFGTQW1ZjPjfE8eilXRNXbCh2pa_gGM18z3i2oIForh5JiXTT0MO3BRk7Hrrs8hTXky3hm6FlGk70mhI6U_y50gtxIu3QJZCBz1lGRQ1nODd78Q8P2A0j_1qA43BgmpP5mkfjDe0YiVIrFYmdnQKLyIaFB2DIfq2BOKGFvljgk-i7dMESMNTAjIiBQDChs09MaJKKzs4tSI54Yv2WiDgzuf9JPBtyPnAyV-S14LOoH923squ0HKdBY3IdLVqw5dVfjelTzfgK7TTXBU2_W5Q7Ka_gmBUzVzgUEGKl6Cl0ay1GeUFEvOPeh8Q7pGxYvE5Tqjt9YGlRyt6nbyzwpMl0VdYDSfrJ2-i66CECpdcFgZwbHOORkQaQhY3DICUSKbecmEV7JPj8rDE9DsJYzVWj5T8vfC_sfEMOlCQ-SxmbMXVkposPFrgTrDtgQi_UHwTm3j1DeCi3dYhcLZQCUn_BrzDGpHSBkZeVHC7fJf-lKzsLudiJXXs62zxI2tDruaKBhx4GlYOAVWzouqSXuX1u_f_S2QlWsCN-qU29N5qOhOlB4j1LrF5_ZdrzGsYtBzfEgIxsBj1bz_Ato6o60pUo61LDktEQxESMnmsoq_8y_mhypE-_I6TwnOfyAPb_mVTu6IApZeSfa_07?></g></svg>