<svg xmlns="http://www.w3.org/2000/svg" xmlns:xlink="http://www.w3.org/1999/xlink" contentStyleType="text/css" data-diagram-type="STATE" height="490px" preserveAspectRatio="none" style="width:632px;height:490px;background:#FFFFFF;" version="1.1" viewBox="0 0 632 490" width="632px" zoomAndPan="magnify"><?plantuml 1.2026.6?><defs/><g><g class="title" data-source-line="1"><text fill="#000000" font-family="'Noto Sans CJK JP'" font-size="14" font-weight="700" lengthAdjust="spacing" textLength="97.9996" x="263.8693" y="26.2399">&#23455;&#34892;&#29366;&#24907;&#12398;&#36983;&#31227;</text></g><g class="entity" data-qualified-name="Idle" data-source-line="5" id="ent0001"><rect fill="#F1F1F1" height="50" rx="12.5" ry="12.5" style="stroke:#181818;stroke-width:0.5;" width="99.1137" x="290.45" y="128.2719"/><line style="stroke:#181818;stroke-width:0.5;" x1="290.45" x2="389.5637" y1="158.5438" y2="158.5438"/><text fill="#000000" font-family="'Noto Sans CJK JP'" font-size="14" lengthAdjust="spacing" textLength="79.1137" x="300.45" y="149.5118">&#26410;&#23455;&#34892; (Idle)</text></g><g class="entity" data-qualified-name="Running" data-source-line="6" id="ent0002"><rect fill="#F1F1F1" height="50" rx="12.5" ry="12.5" style="stroke:#181818;stroke-width:0.5;" width="129.3535" x="172.45" y="277.2719"/><line style="stroke:#181818;stroke-width:0.5;" x1="172.45" x2="301.8035" y1="307.5438" y2="307.5438"/><text fill="#000000" font-family="'Noto Sans CJK JP'" font-size="14" lengthAdjust="spacing" textLength="109.3535" x="182.45" y="298.5118">&#23455;&#34892;&#20013; (Running)</text></g><g class="entity" data-qualified-name="Waiting" data-source-line="7" id="ent0003"><rect fill="#F1F1F1" height="50" rx="12.5" ry="12.5" style="stroke:#181818;stroke-width:0.5;" width="138.1875" x="287.95" y="426.2719"/><line style="stroke:#181818;stroke-width:0.5;" x1="287.95" x2="426.1375" y1="456.5438" y2="456.5438"/><text fill="#000000" font-family="'Noto Sans CJK JP'" font-size="14" lengthAdjust="spacing" textLength="118.1875" x="297.95" y="447.5118">&#20877;&#38283;&#24453;&#12385; (Waiting)</text></g><g class="start_entity" data-qualified-name=".start." data-source-line="9" id="ent0004"><ellipse cx="339.95" cy="57.2719" fill="#222222" rx="10" ry="10" style="stroke:#222222;stroke-width:1;"/></g><!--link *start* to Idle--><g class="link" data-entity-1="ent0004" data-entity-2="ent0001" data-link-type="dependency" data-source-line="9" id="lnk5"><path d="M339.95,67.2819 C339.95,81.1619 339.95,103.2419 339.95,123.1119" fill="none" id="*start*-to-Idle" style="stroke:#181818;stroke-width:1;"/><polygon fill="#181818" points="339.95,128.1119,343.95,119.1119,339.95,123.1119,335.95,119.1119,339.95,128.1119" style="stroke:#181818;stroke-width:1;stroke-linejoin:miter;stroke-miterlimit:10;"/></g><!--link Idle to Running--><g class="link" data-entity-1="ent0001" data-entity-2="ent0002" data-link-type="dependency" data-source-line="10" id="lnk6"><path d="M290.21,155.9919 C214.65,159.7719 76.47,171.6419 45.95,208.2719 C6,256.2319 97.4271,280.6054 167.3271,292.1754" fill="none" id="Idle-to-Running" style="stroke:#181818;stroke-width:1;"/><polygon fill="#181818" points="172.26,292.9919,164.034,287.5759,167.3271,292.1754,162.7276,295.4685,172.26,292.9919" style="stroke:#181818;stroke-width:1;stroke-linejoin:miter;stroke-miterlimit:10;"/><text fill="#000000" font-family="'Noto Sans CJK JP'" font-size="13" lengthAdjust="spacing" textLength="95.6801" x="72.222" y="224.3519">startTransfer() /</text><text fill="#000000" font-family="'Noto Sans CJK JP'" font-size="13" lengthAdjust="spacing" textLength="146.2241" x="46.95" y="243.1759">startTransferAllOwned()</text></g><!--link Running to Idle--><g class="link" data-entity-1="ent0002" data-entity-2="ent0001" data-link-type="dependency" data-source-line="13" id="lnk9"><path d="M229.32,277.2719 C224.5,257.3119 221.29,228.9319 233.95,208.2719 C246.36,188.0219 264.3418,176.863 285.5318,168.733" fill="none" id="Running-to-Idle" style="stroke:#181818;stroke-width:1;"/><polygon fill="#181818" points="290.2,166.9419,280.3644,166.4313,285.5318,168.733,283.2301,173.9004,290.2,166.9419" style="stroke:#181818;stroke-width:1;stroke-linejoin:miter;stroke-miterlimit:10;"/><text fill="#000000" font-family="'Noto Sans CJK JP'" font-size="13" lengthAdjust="spacing" textLength="78.0001" x="278.3635" y="224.3519">&#20840;&#20214;&#20966;&#29702;&#23436;&#20102;</text><text fill="#000000" font-family="'Noto Sans CJK JP'" font-size="13" lengthAdjust="spacing" textLength="164.8272" x="234.95" y="243.1759">(&#29366;&#24907;&#12463;&#12522;&#12450; + &#12488;&#12522;&#12460;&#12540;&#21066;&#38500;)</text></g><!--link Running to Idle--><g class="link" data-entity-1="ent0002" data-entity-2="ent0001" data-link-type="dependency" data-source-line="14" id="lnk10"><path d="M301.56,298.1819 C337.95,292.7319 380.65,279.3019 403.95,247.2719 C414.15,233.2519 411.26,223.9919 403.95,208.2719 C398.56,196.6719 393.1694,189.8528 383.3494,181.7128" fill="none" id="Running-to-Idle-1" style="stroke:#181818;stroke-width:1;"/><polygon fill="#181818" points="379.5,178.5219,383.8763,187.3451,383.3494,181.7128,388.9817,181.1859,379.5,178.5219" style="stroke:#181818;stroke-width:1;stroke-linejoin:miter;stroke-miterlimit:10;"/><text fill="#000000" font-family="'Noto Sans CJK JP'" font-size="13" lengthAdjust="spacing" textLength="86.3461" x="412.171" y="224.3519">stopTransfer()</text><text fill="#000000" font-family="'Noto Sans CJK JP'" font-size="13" lengthAdjust="spacing" textLength="86.7881" x="411.95" y="243.1759">(&#25163;&#21205;&#12522;&#12475;&#12483;&#12488;)</text></g><!--link Running to Waiting--><g class="link" data-entity-1="ent0002" data-entity-2="ent0003" data-link-type="dependency" data-source-line="11" id="lnk7"><path d="M188.58,327.2819 C177.52,335.2219 167.19,345.1919 160.95,357.2719 C153,372.6719 150.45,382.4819 160.95,396.2719 C176.54,416.7319 232.9864,430.5309 282.9564,439.3709" fill="none" id="Running-to-Waiting" style="stroke:#181818;stroke-width:1;"/><polygon fill="#181818" points="287.88,440.2419,279.7144,434.7353,282.9564,439.3709,278.3208,442.6129,287.88,440.2419" style="stroke:#181818;stroke-width:1;stroke-linejoin:miter;stroke-miterlimit:10;"/><text fill="#000000" font-family="'Noto Sans CJK JP'" font-size="13" lengthAdjust="spacing" textLength="117.0001" x="179.3635" y="373.3519">&#21046;&#38480;&#26178;&#38291;&#12364;&#36817;&#12389;&#12356;&#12383;</text><text fill="#000000" font-family="'Noto Sans CJK JP'" font-size="13" lengthAdjust="spacing" textLength="151.8272" x="161.95" y="392.1759">(&#29366;&#24907;&#20445;&#23384; + &#12488;&#12522;&#12460;&#12540;&#20104;&#32004;)</text></g><!--link Waiting to Running--><g class="link" data-entity-1="ent0003" data-entity-2="ent0002" data-link-type="dependency" data-source-line="12" id="lnk8"><path d="M351.03,426.0619 C345.19,405.9719 334.67,377.5319 317.95,357.2719 C308.38,345.6719 299.8523,338.3521 287.3523,330.1621" fill="none" id="Waiting-to-Running" style="stroke:#181818;stroke-width:1;"/><polygon fill="#181818" points="283.17,327.4219,288.5059,335.7001,287.3523,330.1621,292.8902,329.0085,283.17,327.4219" style="stroke:#181818;stroke-width:1;stroke-linejoin:miter;stroke-miterlimit:10;"/><text fill="#000000" font-family="'Noto Sans CJK JP'" font-size="13" lengthAdjust="spacing" textLength="72.2541" x="392.221" y="373.3519">&#32004; 60 &#31186;&#24460;&#12395;</text><text fill="#000000" font-family="'Noto Sans CJK JP'" font-size="13" lengthAdjust="spacing" textLength="172.7962" x="341.95" y="392.1759">resumeTransfer() &#12364;&#33258;&#21205;&#36215;&#21205;</text></g><!--link Waiting to Idle--><g class="link" data-entity-1="ent0003" data-entity-2="ent0001" data-link-type="dependency" data-source-line="15" id="lnk11"><path d="M426.23,446.2619 C461.23,440.3019 500.87,426.6819 522.95,396.2719 C533.14,382.2519 523.88,374.5819 522.95,357.2719 C519.39,290.7619 548.96,259.9519 506.95,208.2719 C478.7,173.5119 432.7961,161.453 394.5961,156.983" fill="none" id="Waiting-to-Idle" style="stroke:#181818;stroke-width:1;"/><polygon fill="#181818" points="389.63,156.4019,398.1041,161.4208,394.5961,156.983,399.0339,153.475,389.63,156.4019" style="stroke:#181818;stroke-width:1;stroke-linejoin:miter;stroke-miterlimit:10;"/><text fill="#000000" font-family="'Noto Sans CJK JP'" font-size="13" lengthAdjust="spacing" textLength="86.3461" x="530.171" y="298.8519">stopTransfer()</text><text fill="#000000" font-family="'Noto Sans CJK JP'" font-size="13" lengthAdjust="spacing" textLength="86.7881" x="529.95" y="317.6759">(&#25163;&#21205;&#12522;&#12475;&#12483;&#12488;)</text></g><?plantuml-src bP1FIm916CRl-obUFEqMKQSE7O88WWegAkYG7GOSIrfdPNV4yxh-ry2A8g4GetzOsQKqClB3p8xhVej6LqsZIvTXtdcVz_Syxz0GLJ7mMhbJAJYvUZkPPsRDDHlEVLCo3aCaWdGKXW0EegXAbpH2rr0OWszDenfi8MB0uiegh6puHiJ60GfeiH3PXo1I3In91aLKpBGlgvuFoCi15Ii-G0PqRmE1rxNVdq7UZ18Y29wcNmnbgIFtFC-_aioiWBo3GdIex1UIj3kn1rDJynw-U_IgFWZcGA1qkgsB1O9ObnMOzfEnfmLLNOyH790LQJ3K1VJv0i0pTRTKR9VYxlafCmkTrZ4pRvcPO6RPJsJl9-tM5N--W4bWLePPLHP_OjQd_P5nNXEAD42Dvn8jc9q1v_w4VnMO-UWdEZQYOJmIjUkMhlByMUUj8SwnVBrDHRZaWzsiy_ITKqpnMi7-I0qpiVXBByhrhrWyctDBDyfVD8DgaHz_GMfdyyAuDzfabYKmu-lyO-uR?></g></svg>