<svg xmlns="http://www.w3.org/2000/svg" xmlns:xlink="http://www.w3.org/1999/xlink" contentStyleType="text/css" data-diagram-type="STATE" height="490px" preserveAspectRatio="none" style="width:801px;height:490px;background:#FFFFFF;" version="1.1" viewBox="0 0 801 490" width="801px" zoomAndPan="magnify"><?plantuml 1.2026.6?><defs/><g><g class="title" data-source-line="1"><text fill="#000000" font-family="'Noto Sans CJK JP'" font-size="14" font-weight="700" lengthAdjust="spacing" textLength="97.9996" x="348.3693" y="26.2399">&#23455;&#34892;&#29366;&#24907;&#12398;&#36983;&#31227;</text></g><g class="entity" data-qualified-name="Idle" data-source-line="5" id="ent0001"><rect fill="#F1F1F1" height="50" rx="12.5" ry="12.5" style="stroke:#181818;stroke-width:0.5;" width="99.1137" x="278.45" y="128.2719"/><line style="stroke:#181818;stroke-width:0.5;" x1="278.45" x2="377.5637" y1="158.5438" y2="158.5438"/><text fill="#000000" font-family="'Noto Sans CJK JP'" font-size="14" lengthAdjust="spacing" textLength="79.1137" x="288.45" y="149.5118">&#26410;&#23455;&#34892; (Idle)</text></g><g class="entity" data-qualified-name="Running" data-source-line="6" id="ent0002"><rect fill="#F1F1F1" height="50" rx="12.5" ry="12.5" style="stroke:#181818;stroke-width:0.5;" width="129.3535" x="162.45" y="277.2719"/><line style="stroke:#181818;stroke-width:0.5;" x1="162.45" x2="291.8035" y1="307.5438" y2="307.5438"/><text fill="#000000" font-family="'Noto Sans CJK JP'" font-size="14" lengthAdjust="spacing" textLength="109.3535" x="172.45" y="298.5118">&#23455;&#34892;&#20013; (Running)</text></g><g class="entity" data-qualified-name="Waiting" data-source-line="7" id="ent0003"><rect fill="#F1F1F1" height="50" rx="12.5" ry="12.5" style="stroke:#181818;stroke-width:0.5;" width="138.1875" x="350.95" y="426.2719"/><line style="stroke:#181818;stroke-width:0.5;" x1="350.95" x2="489.1375" y1="456.5438" y2="456.5438"/><text fill="#000000" font-family="'Noto Sans CJK JP'" font-size="14" lengthAdjust="spacing" textLength="118.1875" x="360.95" y="447.5118">&#20877;&#38283;&#24453;&#12385; (Waiting)</text></g><g class="start_entity" data-qualified-name=".start." data-source-line="9" id="ent0004"><ellipse cx="327.95" cy="57.2719" fill="#222222" rx="10" ry="10" style="stroke:#222222;stroke-width:1;"/></g><!--link *start* to Idle--><g class="link" data-entity-1="ent0004" data-entity-2="ent0001" data-link-type="dependency" data-source-line="9" id="lnk5"><path d="M327.95,67.2819 C327.95,81.1619 327.95,103.2419 327.95,123.1119" fill="none" id="*start*-to-Idle" style="stroke:#181818;stroke-width:1;"/><polygon fill="#181818" points="327.95,128.1119,331.95,119.1119,327.95,123.1119,323.95,119.1119,327.95,128.1119" style="stroke:#181818;stroke-width:1;stroke-linejoin:miter;stroke-miterlimit:10;"/></g><!--link Idle to Running--><g class="link" data-entity-1="ent0001" data-entity-2="ent0002" data-link-type="dependency" data-source-line="10" id="lnk6"><path d="M278.38,156.3419 C205.05,160.5719 73.15,172.9919 43.95,208.2719 C6,254.1219 90.5223,278.8182 157.2923,291.0882" fill="none" id="Idle-to-Running" style="stroke:#181818;stroke-width:1;"/><polygon fill="#181818" points="162.21,291.9919,154.0812,286.4311,157.2923,291.0882,152.6353,294.2994,162.21,291.9919" style="stroke:#181818;stroke-width:1;stroke-linejoin:miter;stroke-miterlimit:10;"/><text fill="#000000" font-family="'Noto Sans CJK JP'" font-size="13" lengthAdjust="spacing" textLength="104.0001" x="61.304" y="224.3519">&#12513;&#12491;&#12517;&#12540;&#12300;&#38283;&#22987;&#12301;</text><text fill="#000000" font-family="'Noto Sans CJK JP'" font-size="13" lengthAdjust="spacing" textLength="136.7081" x="44.95" y="243.1759">(&#12484;&#12522;&#12540;&#36208;&#26619; / &#26908;&#32034;&#36208;&#26619;)</text></g><!--link Running to Idle--><g class="link" data-entity-1="ent0002" data-entity-2="ent0001" data-link-type="dependency" data-source-line="13" id="lnk9"><path d="M218.46,276.8819 C213.12,256.9519 209.36,228.8119 221.95,208.2719 C234.36,188.0219 252.3418,176.863 273.5318,168.733" fill="none" id="Running-to-Idle" style="stroke:#181818;stroke-width:1;"/><polygon fill="#181818" points="278.2,166.9419,268.3644,166.4313,273.5318,168.733,271.2301,173.9004,278.2,166.9419" style="stroke:#181818;stroke-width:1;stroke-linejoin:miter;stroke-miterlimit:10;"/><text fill="#000000" font-family="'Noto Sans CJK JP'" font-size="13" lengthAdjust="spacing" textLength="78.0001" x="266.3635" y="224.3519">&#20840;&#20214;&#20966;&#29702;&#23436;&#20102;</text><text fill="#000000" font-family="'Noto Sans CJK JP'" font-size="13" lengthAdjust="spacing" textLength="164.8272" x="222.95" y="243.1759">(&#29366;&#24907;&#12463;&#12522;&#12450; + &#12488;&#12522;&#12460;&#12540;&#21066;&#38500;)</text></g><!--link Running to Idle--><g class="link" data-entity-1="ent0002" data-entity-2="ent0001" data-link-type="dependency" data-source-line="14" id="lnk10"><path d="M291.63,297.8319 C327.41,292.2219 369.13,278.7519 391.95,247.2719 C402.12,233.2419 399.25,223.9919 391.95,208.2719 C386.56,196.6719 381.1578,189.8547 371.3478,181.7147" fill="none" id="Running-to-Idle-1" style="stroke:#181818;stroke-width:1;"/><polygon fill="#181818" points="367.5,178.5219,371.8719,187.3473,371.3478,181.7147,376.9804,181.1907,367.5,178.5219" style="stroke:#181818;stroke-width:1;stroke-linejoin:miter;stroke-miterlimit:10;"/><text fill="#000000" font-family="'Noto Sans CJK JP'" font-size="13" lengthAdjust="spacing" textLength="164.7882" x="399.95" y="233.8519">&#12513;&#12491;&#12517;&#12540;&#12300;&#20572;&#27490;(&#12522;&#12475;&#12483;&#12488;)&#12301;</text></g><!--link Running to Waiting--><g class="link" data-entity-1="ent0002" data-entity-2="ent0003" data-link-type="dependency" data-source-line="11" id="lnk7"><path d="M218.39,327.5819 C212.87,348.0019 209.17,376.8719 223.95,396.2719 C239.54,416.7319 295.9864,430.5309 345.9564,439.3709" fill="none" id="Running-to-Waiting" style="stroke:#181818;stroke-width:1;"/><polygon fill="#181818" points="350.88,440.2419,342.7144,434.7353,345.9564,439.3709,341.3208,442.6129,350.88,440.2419" style="stroke:#181818;stroke-width:1;stroke-linejoin:miter;stroke-miterlimit:10;"/><text fill="#000000" font-family="'Noto Sans CJK JP'" font-size="13" lengthAdjust="spacing" textLength="117.0001" x="242.3635" y="373.3519">&#21046;&#38480;&#26178;&#38291;&#12364;&#36817;&#12389;&#12356;&#12383;</text><text fill="#000000" font-family="'Noto Sans CJK JP'" font-size="13" lengthAdjust="spacing" textLength="151.8272" x="224.95" y="392.1759">(&#29366;&#24907;&#20445;&#23384; + &#12488;&#12522;&#12460;&#12540;&#20104;&#32004;)</text></g><!--link Waiting to Running--><g class="link" data-entity-1="ent0003" data-entity-2="ent0002" data-link-type="dependency" data-source-line="12" id="lnk8"><path d="M415.56,426.1419 C410.57,405.2719 400.45,375.6419 380.95,357.2719 C356.61,334.3519 326.8378,322.3063 296.5878,314.6663" fill="none" id="Waiting-to-Running" style="stroke:#181818;stroke-width:1;"/><polygon fill="#181818" points="291.74,313.4419,299.4865,319.524,296.5878,314.6663,301.4455,311.7675,291.74,313.4419" style="stroke:#181818;stroke-width:1;stroke-linejoin:miter;stroke-miterlimit:10;"/><text fill="#000000" font-family="'Noto Sans CJK JP'" font-size="13" lengthAdjust="spacing" textLength="72.2541" x="457.221" y="373.3519">&#32004; 60 &#31186;&#24460;&#12395;</text><text fill="#000000" font-family="'Noto Sans CJK JP'" font-size="13" lengthAdjust="spacing" textLength="172.7962" x="406.95" y="392.1759">resumeTransfer() &#12364;&#33258;&#21205;&#36215;&#21205;</text></g><!--link Waiting to Idle--><g class="link" data-entity-1="ent0003" data-entity-2="ent0001" data-link-type="dependency" data-source-line="15" id="lnk11"><path d="M489.18,446.6319 C524.81,440.8219 565.39,427.2219 587.95,396.2719 C637.32,328.5419 628.67,270.8919 572.95,208.2719 C547.51,179.6719 446.5047,165.3944 382.5547,158.9344" fill="none" id="Waiting-to-Idle" style="stroke:#181818;stroke-width:1;"/><polygon fill="#181818" points="377.58,158.4319,386.1324,163.3162,382.5547,158.9344,386.9364,155.3567,377.58,158.4319" style="stroke:#181818;stroke-width:1;stroke-linejoin:miter;stroke-miterlimit:10;"/><text fill="#000000" font-family="'Noto Sans CJK JP'" font-size="13" lengthAdjust="spacing" textLength="164.7882" x="620.95" y="308.3519">&#12513;&#12491;&#12517;&#12540;&#12300;&#20572;&#27490;(&#12522;&#12475;&#12483;&#12488;)&#12301;</text></g><?plantuml-src bP3FIW9H5CRtynG7LpE5rAf5YpP1a4541IsgnGN7adGCPwHjrr6pPeB-a2GOebI6fRKeYmnzc3DtndcBxZWg6MtQ7Ewvzpk_xxj7Ysen6LYptAkOpadBpXf8covzTsfjGTsBAliaIU8GbYCa5TCM4egsJE8o19OJMWBMYAB2V6W9GYk17s9rbuGJ1r5b1o8afig2e6f4upDsgUxxWBWOZibI08WAtcaey5-jZmQ8gob5uGHVCsX6ijofMp1O9ukq0k86YMeZvQ0HXCs9RGW6vtoyL_hT00IpW7e5TGFrEzI_yD3qU3K33q-t517r3EfrVjzxUx7BRPW2-xRal5RzLXA640yuyED0bc-vnJExc7OBbqZDNlSSwHtI3D8oP_gRjReth74DazmzxrcadxYBzPbtNZEIC4IDv-HFC3CDJks2TKoaZrjAKbPJSNazoNSVaPEY19xRKPqPLxstTrx7ylL_piDb7wnsYntTEsSvrZIjpzme4wQV-r6glsAnunEtU2lzHVkrEqPBTgCgzYVRgEkS8l5DZdteNvFV?></g></svg>