<svg xmlns="http://www.w3.org/2000/svg" xmlns:xlink="http://www.w3.org/1999/xlink" contentStyleType="text/css" data-diagram-type="CLASS" height="1160px" preserveAspectRatio="none" style="width:693px;height:1160px;background:#FFFFFF;" version="1.1" viewBox="0 0 693 1160" width="693px" zoomAndPan="magnify"><?plantuml 1.2026.6?><defs/><g><g class="title" data-source-line="1"><text fill="#000000" font-family="'Noto Sans CJK JP'" font-size="14" font-weight="700" lengthAdjust="spacing" textLength="195.9991" x="245.0004" y="26.2399">&#12477;&#12540;&#12473;&#12467;&#12540;&#12489;&#12398;&#27083;&#25104;&#12392;&#20381;&#23384;&#38306;&#20418;</text></g><!--cluster src/--><g class="cluster" data-qualified-name="src." data-source-line="5" id="ent0001"><path d="M8.5,47.8039 L35.3299,47.8039 A3.75,3.75 0 0 1 37.8299,50.3039 L44.8299,74.0758 L675.5,74.0758 A2.5,2.5 0 0 1 678,76.5758 L678,1143.3039 A2.5,2.5 0 0 1 675.5,1145.8039 L8.5,1145.8039 A2.5,2.5 0 0 1 6,1143.3039 L6,50.3039 A2.5,2.5 0 0 1 8.5,47.8039" fill="none" style="stroke:#000000;stroke-width:1.5;"/><line style="stroke:#000000;stroke-width:1.5;" x1="6" x2="44.8299" y1="74.0758" y2="74.0758"/><text fill="#000000" font-family="'Noto Sans CJK JP'" font-size="14" font-weight="700" lengthAdjust="spacing" textLength="25.8299" x="10" y="66.0438">src/</text></g><!--class main--><g class="entity" data-qualified-name="src..main" data-source-line="6" id="ent0002"><rect fill="#F1F1F1" height="185.2795" rx="2.5" ry="2.5" style="stroke:#181818;stroke-width:0.5;" width="183.4714" x="420.5" y="270.8039"/><ellipse cx="451.6885" cy="294.6279" fill="#ADD1B2" rx="11" ry="11" style="stroke:#181818;stroke-width:1;"/><path d="M454.6572,300.2685 Q454.0791,300.5654 453.4385,300.706 Q452.7979,300.8623 452.0947,300.8623 Q449.5947,300.8623 448.2666,299.2217 Q446.9541,297.5654 446.9541,294.4404 Q446.9541,291.3154 448.2666,289.6592 Q449.5947,288.0029 452.0947,288.0029 Q452.7979,288.0029 453.4385,288.1592 Q454.0947,288.3154 454.6572,288.6123 L454.6572,291.331 Q454.0322,290.7529 453.4385,290.4873 Q452.8447,290.206 452.2197,290.206 Q450.876,290.206 450.1885,291.2842 Q449.501,292.3467 449.501,294.4404 Q449.501,296.5342 450.1885,297.6123 Q450.876,298.6748 452.2197,298.6748 Q452.8447,298.6748 453.4385,298.4092 Q454.0322,298.1279 454.6572,297.5498 L454.6572,300.2685 Z " fill="#000000"/><text fill="#000000" font-family="Noto Sans CJK JP" font-size="12" font-style="italic" lengthAdjust="spacing" textLength="119.4969" x="467.2859" y="289.724">&#171;&#12456;&#12531;&#12488;&#12522;&#12540;&#12509;&#12452;&#12531;&#12488;&#187;</text><text fill="#000000" font-family="'Noto Sans CJK JP'" font-size="14" lengthAdjust="spacing" textLength="48.9578" x="502.5555" y="309.4199">main.ts</text><line style="stroke:#181818;stroke-width:0.5;" x1="421.5" x2="602.9714" y1="318.4519" y2="318.4519"/><line style="stroke:#181818;stroke-width:0.5;" x1="421.5" x2="602.9714" y1="326.4519" y2="326.4519"/><g data-visibility-modifier="PUBLIC_METHOD"><ellipse cx="431.5" cy="342.0879" fill="#84BE84" rx="3" ry="3" style="stroke:#038048;stroke-width:1;"/></g><text fill="#000000" font-family="'Noto Sans CJK JP'" font-size="14" lengthAdjust="spacing" textLength="94.4156" x="440.5" y="346.6919">startTransfer()</text><g data-visibility-modifier="PUBLIC_METHOD"><ellipse cx="431.5" cy="362.3598" fill="#84BE84" rx="3" ry="3" style="stroke:#038048;stroke-width:1;"/></g><text fill="#000000" font-family="'Noto Sans CJK JP'" font-size="14" lengthAdjust="spacing" textLength="157.4714" x="440.5" y="366.9638">startTransferAllOwned()</text><g data-visibility-modifier="PUBLIC_METHOD"><ellipse cx="431.5" cy="382.6317" fill="#84BE84" rx="3" ry="3" style="stroke:#038048;stroke-width:1;"/></g><text fill="#000000" font-family="'Noto Sans CJK JP'" font-size="14" lengthAdjust="spacing" textLength="112.9515" x="440.5" y="387.2357">resumeTransfer()</text><g data-visibility-modifier="PUBLIC_METHOD"><ellipse cx="431.5" cy="402.9036" fill="#84BE84" rx="3" ry="3" style="stroke:#038048;stroke-width:1;"/></g><text fill="#000000" font-family="'Noto Sans CJK JP'" font-size="14" lengthAdjust="spacing" textLength="92.9876" x="440.5" y="407.5076">stopTransfer()</text><g data-visibility-modifier="PUBLIC_METHOD"><ellipse cx="431.5" cy="423.1755" fill="#84BE84" rx="3" ry="3" style="stroke:#038048;stroke-width:1;"/></g><text fill="#000000" font-family="'Noto Sans CJK JP'" font-size="14" lengthAdjust="spacing" textLength="86.0577" x="440.5" y="427.7795">showStatus()</text><g data-visibility-modifier="PUBLIC_METHOD"><ellipse cx="431.5" cy="443.4474" fill="#84BE84" rx="3" ry="3" style="stroke:#038048;stroke-width:1;"/></g><text fill="#000000" font-family="'Noto Sans CJK JP'" font-size="14" lengthAdjust="spacing" textLength="123.8575" x="440.5" y="448.0514">countOwnedFiles()</text></g><!--class transfer--><g class="entity" data-qualified-name="src..transfer" data-source-line="14" id="ent0003"><rect fill="#F1F1F1" height="205.5514" rx="2.5" ry="2.5" style="stroke:#181818;stroke-width:0.5;" width="199.0532" x="277.5" y="535.8039"/><ellipse cx="333.0283" cy="559.6279" fill="#ADD1B2" rx="11" ry="11" style="stroke:#181818;stroke-width:1;"/><path d="M335.997,565.2685 Q335.4189,565.5654 334.7783,565.706 Q334.1377,565.8623 333.4345,565.8623 Q330.9345,565.8623 329.6064,564.2217 Q328.2939,562.5654 328.2939,559.4404 Q328.2939,556.3154 329.6064,554.6592 Q330.9345,553.0029 333.4345,553.0029 Q334.1377,553.0029 334.7783,553.1592 Q335.4345,553.3154 335.997,553.6123 L335.997,556.331 Q335.372,555.7529 334.7783,555.4873 Q334.1845,555.206 333.5595,555.206 Q332.2158,555.206 331.5283,556.2842 Q330.8408,557.3467 330.8408,559.4404 Q330.8408,561.5342 331.5283,562.6123 Q332.2158,563.6748 333.5595,563.6748 Q334.1845,563.6748 334.7783,563.4092 Q335.372,563.1279 335.997,562.5498 L335.997,565.2685 Z " fill="#000000"/><text fill="#000000" font-family="Noto Sans CJK JP" font-size="12" font-style="italic" lengthAdjust="spacing" textLength="83.4966" x="351.5283" y="554.724">&#171;&#20013;&#26680;&#12525;&#12472;&#12483;&#12463;&#187;</text><text fill="#000000" font-family="'Noto Sans CJK JP'" font-size="14" lengthAdjust="spacing" textLength="67.1437" x="359.7048" y="574.4199">transfer.ts</text><line style="stroke:#181818;stroke-width:0.5;" x1="278.5" x2="475.5532" y1="583.4519" y2="583.4519"/><line style="stroke:#181818;stroke-width:0.5;" x1="278.5" x2="475.5532" y1="591.4519" y2="591.4519"/><text fill="#000000" font-family="'Noto Sans CJK JP'" font-size="14" lengthAdjust="spacing" textLength="179.4933" x="283.5" y="611.6919">startTransferWithStrategy()</text><text fill="#000000" font-family="'Noto Sans CJK JP'" font-size="14" lengthAdjust="spacing" textLength="69.9297" x="283.5" y="631.9638">runBatch()</text><text fill="#000000" font-family="'Noto Sans CJK JP'" font-size="14" lengthAdjust="spacing" textLength="99.2596" x="283.5" y="652.2357">runTreeBatch()</text><text fill="#000000" font-family="'Noto Sans CJK JP'" font-size="14" lengthAdjust="spacing" textLength="114.9816" x="283.5" y="672.5076">runSearchBatch()</text><text fill="#000000" font-family="'Noto Sans CJK JP'" font-size="14" lengthAdjust="spacing" textLength="187.0532" x="283.5" y="692.7795">transferOwnershipIfOwned()</text><text fill="#000000" font-family="'Noto Sans CJK JP'" font-size="14" lengthAdjust="spacing" textLength="99.8336" x="283.5" y="713.0514">finishTransfer()</text><text fill="#000000" font-family="'Noto Sans CJK JP'" font-size="14" lengthAdjust="spacing" textLength="86.7856" x="283.5" y="733.3233">logProgress()</text></g><!--class state--><g class="entity" data-qualified-name="src..state" data-source-line="23" id="ent0004"><rect fill="#F1F1F1" height="124.4638" rx="2.5" ry="2.5" style="stroke:#181818;stroke-width:0.5;" width="111.4966" x="146.5" y="821.8039"/><ellipse cx="161.5" cy="845.6279" fill="#ADD1B2" rx="11" ry="11" style="stroke:#181818;stroke-width:1;"/><path d="M164.4688,851.2685 Q163.8906,851.5654 163.25,851.706 Q162.6094,851.8623 161.9063,851.8623 Q159.4063,851.8623 158.0781,850.2217 Q156.7656,848.5654 156.7656,845.4404 Q156.7656,842.3154 158.0781,840.6592 Q159.4063,839.0029 161.9063,839.0029 Q162.6094,839.0029 163.25,839.1592 Q163.9063,839.3154 164.4688,839.6123 L164.4688,842.331 Q163.8438,841.7529 163.25,841.4873 Q162.6563,841.206 162.0313,841.206 Q160.6875,841.206 160,842.2842 Q159.3125,843.3467 159.3125,845.4404 Q159.3125,847.5342 160,848.6123 Q160.6875,849.6748 162.0313,849.6748 Q162.6563,849.6748 163.25,849.4092 Q163.8438,849.1279 164.4688,848.5498 L164.4688,851.2685 Z " fill="#000000"/><text fill="#000000" font-family="Noto Sans CJK JP" font-size="12" font-style="italic" lengthAdjust="spacing" textLength="83.4966" x="173.5" y="840.724">&#171;&#29366;&#24907;&#12398;&#27704;&#32154;&#21270;&#187;</text><text fill="#000000" font-family="'Noto Sans CJK JP'" font-size="14" lengthAdjust="spacing" textLength="48.4678" x="191.0144" y="860.4199">state.ts</text><line style="stroke:#181818;stroke-width:0.5;" x1="147.5" x2="256.9966" y1="869.4519" y2="869.4519"/><line style="stroke:#181818;stroke-width:0.5;" x1="147.5" x2="256.9966" y1="877.4519" y2="877.4519"/><text fill="#000000" font-family="'Noto Sans CJK JP'" font-size="14" lengthAdjust="spacing" textLength="73.4857" x="152.5" y="897.6919">saveState()</text><text fill="#000000" font-family="'Noto Sans CJK JP'" font-size="14" lengthAdjust="spacing" textLength="73.0237" x="152.5" y="917.9638">loadState()</text><text fill="#000000" font-family="'Noto Sans CJK JP'" font-size="14" lengthAdjust="spacing" textLength="76.1877" x="152.5" y="938.2357">clearState()</text></g><!--class triggers--><g class="entity" data-qualified-name="src..triggers" data-source-line="28" id="ent0005"><rect fill="#F1F1F1" height="104.1919" rx="2.5" ry="2.5" style="stroke:#181818;stroke-width:0.5;" width="168.2814" x="293" y="831.8039"/><ellipse cx="333.5531" cy="855.6279" fill="#ADD1B2" rx="11" ry="11" style="stroke:#181818;stroke-width:1;"/><path d="M336.5219,861.2685 Q335.9437,861.5654 335.3031,861.706 Q334.6625,861.8623 333.9594,861.8623 Q331.4594,861.8623 330.1312,860.2217 Q328.8187,858.5654 328.8187,855.4404 Q328.8187,852.3154 330.1312,850.6592 Q331.4594,849.0029 333.9594,849.0029 Q334.6625,849.0029 335.3031,849.1592 Q335.9594,849.3154 336.5219,849.6123 L336.5219,852.331 Q335.8969,851.7529 335.3031,851.4873 Q334.7094,851.206 334.0844,851.206 Q332.7406,851.206 332.0531,852.2842 Q331.3656,853.3467 331.3656,855.4404 Q331.3656,857.5342 332.0531,858.6123 Q332.7406,859.6748 334.0844,859.6748 Q334.7094,859.6748 335.3031,859.4092 Q335.8969,859.1279 336.5219,858.5498 L336.5219,861.2685 Z " fill="#000000"/><text fill="#000000" font-family="Noto Sans CJK JP" font-size="12" font-style="italic" lengthAdjust="spacing" textLength="83.4966" x="351.2316" y="850.724">&#171;&#12488;&#12522;&#12460;&#12540;&#31649;&#29702;&#187;</text><text fill="#000000" font-family="'Noto Sans CJK JP'" font-size="14" lengthAdjust="spacing" textLength="65.8137" x="360.073" y="870.4199">triggers.ts</text><line style="stroke:#181818;stroke-width:0.5;" x1="294" x2="460.2814" y1="879.4519" y2="879.4519"/><line style="stroke:#181818;stroke-width:0.5;" x1="294" x2="460.2814" y1="887.4519" y2="887.4519"/><text fill="#000000" font-family="'Noto Sans CJK JP'" font-size="14" lengthAdjust="spacing" textLength="120.7355" x="299" y="907.6919">scheduleResume()</text><text fill="#000000" font-family="'Noto Sans CJK JP'" font-size="14" lengthAdjust="spacing" textLength="156.2814" x="299" y="927.9638">deleteResumeTriggers()</text></g><!--class config--><g class="entity" data-qualified-name="src..config" data-source-line="32" id="ent0006"><rect fill="#F1F1F1" height="104.1919" rx="2.5" ry="2.5" style="stroke:#181818;stroke-width:0.5;" width="166.7274" x="495.5" y="831.8039"/><ellipse cx="546.5228" cy="855.6279" fill="#ADD1B2" rx="11" ry="11" style="stroke:#181818;stroke-width:1;"/><path d="M549.4916,861.2685 Q548.9134,861.5654 548.2728,861.706 Q547.6322,861.8623 546.9291,861.8623 Q544.4291,861.8623 543.1009,860.2217 Q541.7884,858.5654 541.7884,855.4404 Q541.7884,852.3154 543.1009,850.6592 Q544.4291,849.0029 546.9291,849.0029 Q547.6322,849.0029 548.2728,849.1592 Q548.9291,849.3154 549.4916,849.6123 L549.4916,852.331 Q548.8666,851.7529 548.2728,851.4873 Q547.6791,851.206 547.0541,851.206 Q545.7103,851.206 545.0228,852.2842 Q544.3353,853.3467 544.3353,855.4404 Q544.3353,857.5342 545.0228,858.6123 Q545.7103,859.6748 547.0541,859.6748 Q547.6791,859.6748 548.2728,859.4092 Q548.8666,859.1279 549.4916,858.5498 L549.4916,861.2685 Z " fill="#000000"/><text fill="#000000" font-family="Noto Sans CJK JP" font-size="12" font-style="italic" lengthAdjust="spacing" textLength="35.4963" x="577.3656" y="850.724">&#171;&#35373;&#23450;&#187;</text><text fill="#000000" font-family="'Noto Sans CJK JP'" font-size="14" lengthAdjust="spacing" textLength="56.1818" x="567.0228" y="870.4199">config.ts</text><line style="stroke:#181818;stroke-width:0.5;" x1="496.5" x2="661.2274" y1="879.4519" y2="879.4519"/><text fill="#000000" font-family="'Noto Sans CJK JP'" font-size="14" lengthAdjust="spacing" textLength="154.7274" x="501.5" y="899.6919">CONFIG: TransferConfig</text><text fill="#000000" font-family="'Noto Sans CJK JP'" font-size="14" lengthAdjust="spacing" textLength="151.8294" x="501.5" y="919.9638">OWNED_ITEMS_QUERY</text><line style="stroke:#181818;stroke-width:0.5;" x1="496.5" x2="661.2274" y1="927.9958" y2="927.9958"/></g><!--class types--><g class="entity" data-qualified-name="src..types" data-source-line="36" id="ent0007"><rect fill="#F1F1F1" height="104.1919" rx="2.5" ry="2.5" style="stroke:#181818;stroke-width:0.5;" width="210.6452" x="59.5" y="1025.8039"/><ellipse cx="88.4662" cy="1049.6279" fill="#ADD1B2" rx="11" ry="11" style="stroke:#181818;stroke-width:1;"/><path d="M91.435,1055.2685 Q90.8568,1055.5654 90.2162,1055.706 Q89.5756,1055.8623 88.8725,1055.8623 Q86.3725,1055.8623 85.0443,1054.2217 Q83.7318,1052.5654 83.7318,1049.4404 Q83.7318,1046.3154 85.0443,1044.6592 Q86.3725,1043.0029 88.8725,1043.0029 Q89.5756,1043.0029 90.2162,1043.1592 Q90.8725,1043.3154 91.435,1043.6123 L91.435,1046.331 Q90.81,1045.7529 90.2162,1045.4873 Q89.6225,1045.206 88.9975,1045.206 Q87.6537,1045.206 86.9662,1046.2842 Q86.2787,1047.3467 86.2787,1049.4404 Q86.2787,1051.5342 86.9662,1052.6123 Q87.6537,1053.6748 88.9975,1053.6748 Q89.6225,1053.6748 90.2162,1053.4092 Q90.81,1053.1279 91.435,1052.5498 L91.435,1055.2685 Z " fill="#000000"/><text fill="#000000" font-family="Noto Sans CJK JP" font-size="12" font-style="italic" lengthAdjust="spacing" textLength="151.6092" x="103.5698" y="1044.724">&#171;&#22411;&#23450;&#32681;(&#12467;&#12531;&#12497;&#12452;&#12523;&#26178;&#12398;&#12415;)&#187;</text><text fill="#000000" font-family="'Noto Sans CJK JP'" font-size="14" lengthAdjust="spacing" textLength="63.8537" x="147.4475" y="1064.4199">types.d.ts</text><line style="stroke:#181818;stroke-width:0.5;" x1="60.5" x2="269.1452" y1="1073.4519" y2="1073.4519"/><text fill="#000000" font-family="'Noto Sans CJK JP'" font-size="14" lengthAdjust="spacing" textLength="197.6092" x="65.5" y="1093.6919">TransferConfig / TransferState</text><text fill="#000000" font-family="'Noto Sans CJK JP'" font-size="14" lengthAdjust="spacing" textLength="198.6452" x="65.5" y="1113.9638">TransferStats / FolderProgress</text><line style="stroke:#181818;stroke-width:0.5;" x1="60.5" x2="269.1452" y1="1121.9958" y2="1121.9958"/></g><!--class manifest--><g class="entity" data-qualified-name="src..manifest" data-source-line="40" id="ent0008"><rect fill="#F1F1F1" height="104.1919" rx="2.5" ry="2.5" style="stroke:#181818;stroke-width:0.5;" width="187.8113" x="418" y="86.8039"/><ellipse cx="458.0955" cy="110.6279" fill="#ADD1B2" rx="11" ry="11" style="stroke:#181818;stroke-width:1;"/><path d="M461.0642,116.2685 Q460.4861,116.5654 459.8455,116.706 Q459.2048,116.8623 458.5017,116.8623 Q456.0017,116.8623 454.6736,115.2217 Q453.3611,113.5654 453.3611,110.4404 Q453.3611,107.3154 454.6736,105.6592 Q456.0017,104.0029 458.5017,104.0029 Q459.2048,104.0029 459.8455,104.1592 Q460.5017,104.3154 461.0642,104.6123 L461.0642,107.331 Q460.4392,106.7529 459.8455,106.4873 Q459.2517,106.206 458.6267,106.206 Q457.283,106.206 456.5955,107.2842 Q455.908,108.3467 455.908,110.4404 Q455.908,112.5342 456.5955,113.6123 Q457.283,114.6748 458.6267,114.6748 Q459.2517,114.6748 459.8455,114.4092 Q460.4392,114.1279 461.0642,113.5498 L461.0642,116.2685 Z " fill="#000000"/><text fill="#000000" font-family="Noto Sans CJK JP" font-size="12" font-style="italic" lengthAdjust="spacing" textLength="83.4966" x="485.9457" y="105.724">&#171;&#12510;&#12491;&#12501;&#12455;&#12473;&#12488;&#187;</text><text fill="#000000" font-family="'Noto Sans CJK JP'" font-size="14" lengthAdjust="spacing" textLength="100.0436" x="477.6722" y="125.4199">appsscript.json</text><line style="stroke:#181818;stroke-width:0.5;" x1="419" x2="604.8113" y1="134.4519" y2="134.4519"/><text fill="#000000" font-family="'Noto Sans CJK JP'" font-size="14" lengthAdjust="spacing" textLength="175.8113" x="424" y="154.6919">timeZone / runtimeVersion</text><text fill="#000000" font-family="'Noto Sans CJK JP'" font-size="14" lengthAdjust="spacing" textLength="85.5957" x="424" y="174.9638">oauthScopes</text><line style="stroke:#181818;stroke-width:0.5;" x1="419" x2="604.8113" y1="182.9958" y2="182.9958"/></g><!--link main to transfer--><g class="link" data-entity-1="ent0002" data-entity-2="ent0003" data-link-type="dependency" data-source-line="46" id="lnk9"><path codeLine="46" d="M466.67,456.1339 C454.11,481.5839 442.6033,504.8904 429.7633,530.9004" fill="none" id="main-to-transfer" style="stroke:#181818;stroke-width:1;"/><polygon fill="#181818" points="427.55,535.3839,435.1207,529.0843,429.7633,530.9004,427.9472,525.543,427.55,535.3839" style="stroke:#181818;stroke-width:1;stroke-linejoin:miter;stroke-miterlimit:10;"/><text fill="#000000" font-family="'Noto Sans CJK JP'" font-size="13" lengthAdjust="spacing" textLength="52.0001" x="449" y="501.8839">&#21628;&#12403;&#20986;&#12375;</text></g><!--link transfer to state--><g class="link" data-entity-1="ent0003" data-entity-2="ent0004" data-link-type="dependency" data-source-line="47" id="lnk10"><path codeLine="47" d="M303.29,742.1539 C283.86,769.1339 266.4223,793.3468 249.0923,817.4068" fill="none" id="transfer-to-state" style="stroke:#181818;stroke-width:1;"/><polygon fill="#181818" points="246.17,821.4639,254.6758,816.4989,249.0923,817.4068,248.1844,811.8232,246.17,821.4639" style="stroke:#181818;stroke-width:1;stroke-linejoin:miter;stroke-miterlimit:10;"/><text fill="#000000" font-family="'Noto Sans CJK JP'" font-size="13" lengthAdjust="spacing" textLength="62.9201" x="280" y="787.8839">&#20445;&#23384; / &#24489;&#20803;</text></g><!--link transfer to triggers--><g class="link" data-entity-1="ent0003" data-entity-2="ent0005" data-link-type="dependency" data-source-line="48" id="lnk11"><path codeLine="48" d="M377,742.1539 C377,773.0239 377,800.5839 377,826.5939" fill="none" id="transfer-to-triggers" style="stroke:#181818;stroke-width:1;"/><polygon fill="#181818" points="377,831.5939,381,822.5939,377,826.5939,373,822.5939,377,831.5939" style="stroke:#181818;stroke-width:1;stroke-linejoin:miter;stroke-miterlimit:10;"/><text fill="#000000" font-family="'Noto Sans CJK JP'" font-size="13" lengthAdjust="spacing" textLength="62.9201" x="378" y="787.8839">&#20104;&#32004; / &#21066;&#38500;</text></g><!--link transfer to config--><g class="link" data-entity-1="ent0003" data-entity-2="ent0006" data-link-type="dependency" data-source-line="49" id="lnk12"><path codeLine="49" d="M458.89,741.9939 C472.52,758.7239 486.59,775.8039 500,791.8039 C510.89,804.7939 519.5137,814.8969 530.7037,827.7969" fill="none" id="transfer-to-config" style="stroke:#181818;stroke-width:1;"/><polygon fill="#181818" points="533.98,831.5739,531.1042,822.1542,530.7037,827.7969,525.061,827.3964,533.98,831.5739" style="stroke:#181818;stroke-width:1;stroke-linejoin:miter;stroke-miterlimit:10;"/><text fill="#000000" font-family="'Noto Sans CJK JP'" font-size="13" lengthAdjust="spacing" textLength="52.0001" x="501" y="787.8839">&#35373;&#23450;&#21442;&#29031;</text></g><!--link main to config--><g class="link" data-entity-1="ent0002" data-entity-2="ent0006" data-link-type="dependency" data-source-line="50" id="lnk13"><path codeLine="50" d="M523.82,455.8039 C537.95,565.1239 560.4389,739.2052 571.7389,826.6052" fill="none" id="main-to-config" style="stroke:#181818;stroke-width:1;"/><polygon fill="#181818" points="572.38,831.5639,575.193,822.1253,571.7389,826.6052,567.259,823.1511,572.38,831.5639" style="stroke:#181818;stroke-width:1;stroke-linejoin:miter;stroke-miterlimit:10;"/><text fill="#000000" font-family="'Noto Sans CJK JP'" font-size="13" lengthAdjust="spacing" textLength="52.0001" x="561" y="644.8839">&#35373;&#23450;&#21442;&#29031;</text></g><!--link state to types--><g class="link" data-entity-1="ent0004" data-entity-2="ent0007" data-link-type="dependency" data-source-line="51" id="lnk14"><path codeLine="51" d="M190.24,945.8139 C185.29,971.5139 180.5367,996.1743 175.8067,1020.7043" fill="none" id="state-to-types" style="stroke:#181818;stroke-width:1;stroke-dasharray:7,7;"/><polygon fill="#181818" points="174.86,1025.6139,180.4917,1017.534,175.8067,1020.7043,172.6364,1016.0193,174.86,1025.6139" style="stroke:#181818;stroke-width:1;stroke-linejoin:miter;stroke-miterlimit:10;"/><text fill="#000000" font-family="'Noto Sans CJK JP'" font-size="13" lengthAdjust="spacing" textLength="52.0001" x="184" y="991.8839">&#22411;&#12434;&#21442;&#29031;</text></g><!--link transfer to types--><g class="link" data-entity-1="ent0003" data-entity-2="ent0007" data-link-type="dependency" data-source-line="52" id="lnk15"><path codeLine="52" d="M277.22,670.4739 C206.93,697.8939 117.98,745.7239 75,821.8039 C47.89,869.7839 58.66,893.1739 75,945.8039 C83.96,974.6639 98.6844,998.8209 116.0744,1021.5809" fill="none" id="transfer-to-types" style="stroke:#181818;stroke-width:1;stroke-dasharray:7,7;"/><polygon fill="#181818" points="119.11,1025.5539,116.8243,1015.9739,116.0744,1021.5809,110.4674,1020.8309,119.11,1025.5539" style="stroke:#181818;stroke-width:1;stroke-linejoin:miter;stroke-miterlimit:10;"/><text fill="#000000" font-family="'Noto Sans CJK JP'" font-size="13" lengthAdjust="spacing" textLength="52.0001" x="76" y="889.8839">&#22411;&#12434;&#21442;&#29031;</text></g><!--link manifest to main--><g class="link" data-entity-1="ent0008" data-entity-2="ent0002" data-link-type="association" data-source-line="53" id="lnk16"><path codeLine="53" d="M512,190.8539 C512,214.4539 512,243.2439 512,270.4339" fill="none" id="manifest-main" style="stroke:#181818;stroke-width:1;stroke-dasharray:7,7;"/><text fill="#000000" font-family="'Noto Sans CJK JP'" font-size="13" lengthAdjust="spacing" textLength="91.0001" x="513" y="236.8839">&#23455;&#34892;&#29872;&#22659;&#12434;&#23450;&#32681;</text></g><?plantuml-src TLJVInj147xFNx7aIId6zo21rfgYfT6QjDA-o7AtkRjwkJrkDnKfFkHEMpL2LQYjWhQAeBPDAbZ4YjK_PdCv_I-wj_ShYHP2kFbcThxvPcQNQbH7WDb_cNF9x3_CFlK_d6LMQxOFw-sbDLOxQbtjk8qljvlxhMixHMOqmuGMh00PbM5Lftbiq0Ai890kO8f14He438yz1MCJwOvWea8Ppsg60ifG9oYLCg4q0nL-YbZIO1gyIm4WwP0GaAv0pSXGaWQG0FyR30qn-uWvlB8bvdmNzUqm-o10SZbn5e07X4ABbYpENqPMN_yzu4DT7vyra1mvBKIg5NJt23RlO2gUBL98goH295mrgCYMrtGKmFE921ecY8H4DXVJEc-qlvqpfy5i_kym-rUieQlQAOsgHNwE8cKkPBMgnYD89JKnInP2FL0HGKjIEy68t2_N8gfcZfOx-r3M38seFP9rh4nOME4jkgEDLqbH94mON9MtSjPUhFjhStBkdMsxgvk9AlWM-Sr3SMeeTzgIpYjEWAukQeh2Iqww6DZ-IWJBOF_a--0rzxorzmcVf2AvggD9CTwGH4OweY5K2jFqqadOA6jAH1POdEhcgE4sj-Fqm-E5_EYJB8WQDYpYX6jygZ3oU7gqDFAiEFtynSZagnuvSoOY6JbMuviylxjRv_czg-C-SVtuRrsizu_sbiqRochN_J5vDoaOZ07HlwuG7o4y8ezr6LdHCBihWgP9Y6Hf9isy8TW8xvoXbH6XeicxpAapvnEp3_tNeUEwKQs2NcC3SGA-SxxradTKmuRmObZboojXBb0GpgTIuYeF3EIIgv05xlebgvsw7ovOxNCgnlsWOAsoe7NjlpsSnBqwTXUTxg1u7NZSnPBtUy6FMrwvtJheZWidcGN19DsFjhTuc1Hqlpke89F9XNFYrUxMcRqHkcE2_qR4VSnaWdUC-vjVR_PMlOqJTz_n0yNK_m40?></g></svg>