<svg xmlns="http://www.w3.org/2000/svg" xmlns:xlink="http://www.w3.org/1999/xlink" contentStyleType="text/css" data-diagram-type="CLASS" height="1649px" preserveAspectRatio="none" style="width:948px;height:1649px;background:#FFFFFF;" version="1.1" viewBox="0 0 948 1649" width="948px" zoomAndPan="magnify"><?plantuml 1.2026.6?><defs/><g><g class="title" data-source-line="1"><text fill="#000000" font-family="'Noto Sans CJK JP'" font-size="14" font-weight="700" lengthAdjust="spacing" textLength="195.9991" x="372.6904" y="26.2399">&#12477;&#12540;&#12473;&#12467;&#12540;&#12489;&#12398;&#27083;&#25104;&#12392;&#20381;&#23384;&#38306;&#20418;</text></g><!--cluster src/--><g class="cluster" data-qualified-name="src." data-source-line="5" id="ent0001"><path d="M8.5,47.8039 L35.3299,47.8039 A3.75,3.75 0 0 1 37.8299,50.3039 L44.8299,74.0758 L915.5,74.0758 A2.5,2.5 0 0 1 918,76.5758 L918,1632.3039 A2.5,2.5 0 0 1 915.5,1634.8039 L8.5,1634.8039 A2.5,2.5 0 0 1 6,1632.3039 L6,50.3039 A2.5,2.5 0 0 1 8.5,47.8039" fill="none" style="stroke:#000000;stroke-width:1.5;"/><line style="stroke:#000000;stroke-width:1.5;" x1="6" x2="44.8299" y1="74.0758" y2="74.0758"/><text fill="#000000" font-family="'Noto Sans CJK JP'" font-size="14" font-weight="700" lengthAdjust="spacing" textLength="25.8299" x="10" y="66.0438">src/</text></g><!--class main--><g class="entity" data-qualified-name="src..main" data-source-line="6" id="ent0002"><rect fill="#F1F1F1" height="185.2795" rx="2.5" ry="2.5" style="stroke:#181818;stroke-width:0.5;" width="183.4714" x="106.5" y="495.8039"/><ellipse cx="137.6885" cy="519.6279" fill="#ADD1B2" rx="11" ry="11" style="stroke:#181818;stroke-width:1;"/><path d="M140.6572,525.2685 Q140.0791,525.5654 139.4385,525.706 Q138.7979,525.8623 138.0947,525.8623 Q135.5947,525.8623 134.2666,524.2217 Q132.9541,522.5654 132.9541,519.4404 Q132.9541,516.3154 134.2666,514.6592 Q135.5947,513.0029 138.0947,513.0029 Q138.7979,513.0029 139.4385,513.1592 Q140.0947,513.3154 140.6572,513.6123 L140.6572,516.331 Q140.0322,515.7529 139.4385,515.4873 Q138.8447,515.206 138.2197,515.206 Q136.876,515.206 136.1885,516.2842 Q135.501,517.3467 135.501,519.4404 Q135.501,521.5342 136.1885,522.6123 Q136.876,523.6748 138.2197,523.6748 Q138.8447,523.6748 139.4385,523.4092 Q140.0322,523.1279 140.6572,522.5498 L140.6572,525.2685 Z " fill="#000000"/><text fill="#000000" font-family="Noto Sans CJK JP" font-size="12" font-style="italic" lengthAdjust="spacing" textLength="119.4969" x="153.2859" y="514.724">&#171;&#12456;&#12531;&#12488;&#12522;&#12540;&#12509;&#12452;&#12531;&#12488;&#187;</text><text fill="#000000" font-family="'Noto Sans CJK JP'" font-size="14" lengthAdjust="spacing" textLength="48.9578" x="188.5555" y="534.4199">main.ts</text><line style="stroke:#181818;stroke-width:0.5;" x1="107.5" x2="288.9714" y1="543.4519" y2="543.4519"/><line style="stroke:#181818;stroke-width:0.5;" x1="107.5" x2="288.9714" y1="551.4519" y2="551.4519"/><g data-visibility-modifier="PUBLIC_METHOD"><ellipse cx="117.5" cy="567.0879" fill="#84BE84" rx="3" ry="3" style="stroke:#038048;stroke-width:1;"/></g><text fill="#000000" font-family="'Noto Sans CJK JP'" font-size="14" lengthAdjust="spacing" textLength="94.4156" x="126.5" y="571.6919">startTransfer()</text><g data-visibility-modifier="PUBLIC_METHOD"><ellipse cx="117.5" cy="587.3598" fill="#84BE84" rx="3" ry="3" style="stroke:#038048;stroke-width:1;"/></g><text fill="#000000" font-family="'Noto Sans CJK JP'" font-size="14" lengthAdjust="spacing" textLength="157.4714" x="126.5" y="591.9638">startTransferAllOwned()</text><g data-visibility-modifier="PUBLIC_METHOD"><ellipse cx="117.5" cy="607.6317" fill="#84BE84" rx="3" ry="3" style="stroke:#038048;stroke-width:1;"/></g><text fill="#000000" font-family="'Noto Sans CJK JP'" font-size="14" lengthAdjust="spacing" textLength="112.9515" x="126.5" y="612.2357">resumeTransfer()</text><g data-visibility-modifier="PUBLIC_METHOD"><ellipse cx="117.5" cy="627.9036" fill="#84BE84" rx="3" ry="3" style="stroke:#038048;stroke-width:1;"/></g><text fill="#000000" font-family="'Noto Sans CJK JP'" font-size="14" lengthAdjust="spacing" textLength="92.9876" x="126.5" y="632.5076">stopTransfer()</text><g data-visibility-modifier="PUBLIC_METHOD"><ellipse cx="117.5" cy="648.1755" fill="#84BE84" rx="3" ry="3" style="stroke:#038048;stroke-width:1;"/></g><text fill="#000000" font-family="'Noto Sans CJK JP'" font-size="14" lengthAdjust="spacing" textLength="86.0577" x="126.5" y="652.7795">showStatus()</text><g data-visibility-modifier="PUBLIC_METHOD"><ellipse cx="117.5" cy="668.4474" fill="#84BE84" rx="3" ry="3" style="stroke:#038048;stroke-width:1;"/></g><text fill="#000000" font-family="'Noto Sans CJK JP'" font-size="14" lengthAdjust="spacing" textLength="123.8575" x="126.5" y="673.0514">countOwnedFiles()</text></g><!--class transfer--><g class="entity" data-qualified-name="src..transfer" data-source-line="14" id="ent0003"><rect fill="#F1F1F1" height="205.5514" rx="2.5" ry="2.5" style="stroke:#181818;stroke-width:0.5;" width="199.0532" x="363.5" y="760.8039"/><ellipse cx="419.0283" cy="784.6279" fill="#ADD1B2" rx="11" ry="11" style="stroke:#181818;stroke-width:1;"/><path d="M421.997,790.2685 Q421.4189,790.5654 420.7783,790.706 Q420.1377,790.8623 419.4345,790.8623 Q416.9345,790.8623 415.6064,789.2217 Q414.2939,787.5654 414.2939,784.4404 Q414.2939,781.3154 415.6064,779.6592 Q416.9345,778.0029 419.4345,778.0029 Q420.1377,778.0029 420.7783,778.1592 Q421.4345,778.3154 421.997,778.6123 L421.997,781.331 Q421.372,780.7529 420.7783,780.4873 Q420.1845,780.206 419.5595,780.206 Q418.2158,780.206 417.5283,781.2842 Q416.8408,782.3467 416.8408,784.4404 Q416.8408,786.5342 417.5283,787.6123 Q418.2158,788.6748 419.5595,788.6748 Q420.1845,788.6748 420.7783,788.4092 Q421.372,788.1279 421.997,787.5498 L421.997,790.2685 Z " fill="#000000"/><text fill="#000000" font-family="Noto Sans CJK JP" font-size="12" font-style="italic" lengthAdjust="spacing" textLength="83.4966" x="437.5283" y="779.724">&#171;&#20013;&#26680;&#12525;&#12472;&#12483;&#12463;&#187;</text><text fill="#000000" font-family="'Noto Sans CJK JP'" font-size="14" lengthAdjust="spacing" textLength="67.1437" x="445.7048" y="799.4199">transfer.ts</text><line style="stroke:#181818;stroke-width:0.5;" x1="364.5" x2="561.5532" y1="808.4519" y2="808.4519"/><line style="stroke:#181818;stroke-width:0.5;" x1="364.5" x2="561.5532" y1="816.4519" y2="816.4519"/><text fill="#000000" font-family="'Noto Sans CJK JP'" font-size="14" lengthAdjust="spacing" textLength="179.4933" x="369.5" y="836.6919">startTransferWithStrategy()</text><text fill="#000000" font-family="'Noto Sans CJK JP'" font-size="14" lengthAdjust="spacing" textLength="69.9297" x="369.5" y="856.9638">runBatch()</text><text fill="#000000" font-family="'Noto Sans CJK JP'" font-size="14" lengthAdjust="spacing" textLength="99.2596" x="369.5" y="877.2357">runTreeBatch()</text><text fill="#000000" font-family="'Noto Sans CJK JP'" font-size="14" lengthAdjust="spacing" textLength="114.9816" x="369.5" y="897.5076">runSearchBatch()</text><text fill="#000000" font-family="'Noto Sans CJK JP'" font-size="14" lengthAdjust="spacing" textLength="187.0532" x="369.5" y="917.7795">transferOwnershipIfOwned()</text><text fill="#000000" font-family="'Noto Sans CJK JP'" font-size="14" lengthAdjust="spacing" textLength="99.8336" x="369.5" y="938.0514">finishTransfer()</text><text fill="#000000" font-family="'Noto Sans CJK JP'" font-size="14" lengthAdjust="spacing" textLength="86.7856" x="369.5" y="958.3233">logProgress()</text></g><!--class state--><g class="entity" data-qualified-name="src..state" data-source-line="23" id="ent0004"><rect fill="#F1F1F1" height="124.4638" rx="2.5" ry="2.5" style="stroke:#181818;stroke-width:0.5;" width="111.4966" x="603.5" y="1310.8039"/><ellipse cx="618.5" cy="1334.6279" fill="#ADD1B2" rx="11" ry="11" style="stroke:#181818;stroke-width:1;"/><path d="M621.4688,1340.2685 Q620.8906,1340.5654 620.25,1340.706 Q619.6094,1340.8623 618.9063,1340.8623 Q616.4063,1340.8623 615.0781,1339.2217 Q613.7656,1337.5654 613.7656,1334.4404 Q613.7656,1331.3154 615.0781,1329.6592 Q616.4063,1328.0029 618.9063,1328.0029 Q619.6094,1328.0029 620.25,1328.1592 Q620.9063,1328.3154 621.4688,1328.6123 L621.4688,1331.331 Q620.8438,1330.7529 620.25,1330.4873 Q619.6563,1330.206 619.0313,1330.206 Q617.6875,1330.206 617,1331.2842 Q616.3125,1332.3467 616.3125,1334.4404 Q616.3125,1336.5342 617,1337.6123 Q617.6875,1338.6748 619.0313,1338.6748 Q619.6563,1338.6748 620.25,1338.4092 Q620.8438,1338.1279 621.4688,1337.5498 L621.4688,1340.2685 Z " fill="#000000"/><text fill="#000000" font-family="Noto Sans CJK JP" font-size="12" font-style="italic" lengthAdjust="spacing" textLength="83.4966" x="630.5" y="1329.724">&#171;&#29366;&#24907;&#12398;&#27704;&#32154;&#21270;&#187;</text><text fill="#000000" font-family="'Noto Sans CJK JP'" font-size="14" lengthAdjust="spacing" textLength="48.4678" x="648.0144" y="1349.4199">state.ts</text><line style="stroke:#181818;stroke-width:0.5;" x1="604.5" x2="713.9966" y1="1358.4519" y2="1358.4519"/><line style="stroke:#181818;stroke-width:0.5;" x1="604.5" x2="713.9966" y1="1366.4519" y2="1366.4519"/><text fill="#000000" font-family="'Noto Sans CJK JP'" font-size="14" lengthAdjust="spacing" textLength="73.4857" x="609.5" y="1386.6919">saveState()</text><text fill="#000000" font-family="'Noto Sans CJK JP'" font-size="14" lengthAdjust="spacing" textLength="73.0237" x="609.5" y="1406.9638">loadState()</text><text fill="#000000" font-family="'Noto Sans CJK JP'" font-size="14" lengthAdjust="spacing" textLength="76.1877" x="609.5" y="1427.2357">clearState()</text></g><!--class triggers--><g class="entity" data-qualified-name="src..triggers" data-source-line="28" id="ent0005"><rect fill="#F1F1F1" height="104.1919" rx="2.5" ry="2.5" style="stroke:#181818;stroke-width:0.5;" width="168.2814" x="660" y="1096.3039"/><ellipse cx="700.5531" cy="1120.1279" fill="#ADD1B2" rx="11" ry="11" style="stroke:#181818;stroke-width:1;"/><path d="M703.5219,1125.7685 Q702.9437,1126.0654 702.3031,1126.206 Q701.6625,1126.3623 700.9594,1126.3623 Q698.4594,1126.3623 697.1312,1124.7217 Q695.8187,1123.0654 695.8187,1119.9404 Q695.8187,1116.8154 697.1312,1115.1592 Q698.4594,1113.5029 700.9594,1113.5029 Q701.6625,1113.5029 702.3031,1113.6592 Q702.9594,1113.8154 703.5219,1114.1123 L703.5219,1116.831 Q702.8969,1116.2529 702.3031,1115.9873 Q701.7094,1115.706 701.0844,1115.706 Q699.7406,1115.706 699.0531,1116.7842 Q698.3656,1117.8467 698.3656,1119.9404 Q698.3656,1122.0342 699.0531,1123.1123 Q699.7406,1124.1748 701.0844,1124.1748 Q701.7094,1124.1748 702.3031,1123.9092 Q702.8969,1123.6279 703.5219,1123.0498 L703.5219,1125.7685 Z " fill="#000000"/><text fill="#000000" font-family="Noto Sans CJK JP" font-size="12" font-style="italic" lengthAdjust="spacing" textLength="83.4966" x="718.2316" y="1115.224">&#171;&#12488;&#12522;&#12460;&#12540;&#31649;&#29702;&#187;</text><text fill="#000000" font-family="'Noto Sans CJK JP'" font-size="14" lengthAdjust="spacing" textLength="65.8137" x="727.073" y="1134.9199">triggers.ts</text><line style="stroke:#181818;stroke-width:0.5;" x1="661" x2="827.2814" y1="1143.9519" y2="1143.9519"/><line style="stroke:#181818;stroke-width:0.5;" x1="661" x2="827.2814" y1="1151.9519" y2="1151.9519"/><text fill="#000000" font-family="'Noto Sans CJK JP'" font-size="14" lengthAdjust="spacing" textLength="120.7355" x="666" y="1172.1919">scheduleResume()</text><text fill="#000000" font-family="'Noto Sans CJK JP'" font-size="14" lengthAdjust="spacing" textLength="156.2814" x="666" y="1192.4638">deleteResumeTriggers()</text></g><!--class config--><g class="entity" data-qualified-name="src..config" data-source-line="32" id="ent0006"><rect fill="#F1F1F1" height="104.1919" rx="2.5" ry="2.5" style="stroke:#181818;stroke-width:0.5;" width="166.7274" x="21.5" y="1096.3039"/><ellipse cx="72.5228" cy="1120.1279" fill="#ADD1B2" rx="11" ry="11" style="stroke:#181818;stroke-width:1;"/><path d="M75.4916,1125.7685 Q74.9134,1126.0654 74.2728,1126.206 Q73.6322,1126.3623 72.9291,1126.3623 Q70.4291,1126.3623 69.1009,1124.7217 Q67.7884,1123.0654 67.7884,1119.9404 Q67.7884,1116.8154 69.1009,1115.1592 Q70.4291,1113.5029 72.9291,1113.5029 Q73.6322,1113.5029 74.2728,1113.6592 Q74.9291,1113.8154 75.4916,1114.1123 L75.4916,1116.831 Q74.8666,1116.2529 74.2728,1115.9873 Q73.6791,1115.706 73.0541,1115.706 Q71.7103,1115.706 71.0228,1116.7842 Q70.3353,1117.8467 70.3353,1119.9404 Q70.3353,1122.0342 71.0228,1123.1123 Q71.7103,1124.1748 73.0541,1124.1748 Q73.6791,1124.1748 74.2728,1123.9092 Q74.8666,1123.6279 75.4916,1123.0498 L75.4916,1125.7685 Z " fill="#000000"/><text fill="#000000" font-family="Noto Sans CJK JP" font-size="12" font-style="italic" lengthAdjust="spacing" textLength="35.4963" x="103.3656" y="1115.224">&#171;&#35373;&#23450;&#187;</text><text fill="#000000" font-family="'Noto Sans CJK JP'" font-size="14" lengthAdjust="spacing" textLength="56.1818" x="93.0228" y="1134.9199">config.ts</text><line style="stroke:#181818;stroke-width:0.5;" x1="22.5" x2="187.2274" y1="1143.9519" y2="1143.9519"/><text fill="#000000" font-family="'Noto Sans CJK JP'" font-size="14" lengthAdjust="spacing" textLength="154.7274" x="27.5" y="1164.1919">CONFIG: TransferConfig</text><text fill="#000000" font-family="'Noto Sans CJK JP'" font-size="14" lengthAdjust="spacing" textLength="151.8294" x="27.5" y="1184.4638">OWNED_ITEMS_QUERY</text><line style="stroke:#181818;stroke-width:0.5;" x1="22.5" x2="187.2274" y1="1192.4958" y2="1192.4958"/></g><!--class types--><g class="entity" data-qualified-name="src..types" data-source-line="36" id="ent0007"><rect fill="#F1F1F1" height="104.1919" rx="2.5" ry="2.5" style="stroke:#181818;stroke-width:0.5;" width="210.6452" x="654.5" y="1514.8039"/><ellipse cx="683.4662" cy="1538.6279" fill="#ADD1B2" rx="11" ry="11" style="stroke:#181818;stroke-width:1;"/><path d="M686.435,1544.2685 Q685.8568,1544.5654 685.2162,1544.706 Q684.5756,1544.8623 683.8725,1544.8623 Q681.3725,1544.8623 680.0443,1543.2217 Q678.7318,1541.5654 678.7318,1538.4404 Q678.7318,1535.3154 680.0443,1533.6592 Q681.3725,1532.0029 683.8725,1532.0029 Q684.5756,1532.0029 685.2162,1532.1592 Q685.8725,1532.3154 686.435,1532.6123 L686.435,1535.331 Q685.81,1534.7529 685.2162,1534.4873 Q684.6225,1534.206 683.9975,1534.206 Q682.6537,1534.206 681.9662,1535.2842 Q681.2787,1536.3467 681.2787,1538.4404 Q681.2787,1540.5342 681.9662,1541.6123 Q682.6537,1542.6748 683.9975,1542.6748 Q684.6225,1542.6748 685.2162,1542.4092 Q685.81,1542.1279 686.435,1541.5498 L686.435,1544.2685 Z " fill="#000000"/><text fill="#000000" font-family="Noto Sans CJK JP" font-size="12" font-style="italic" lengthAdjust="spacing" textLength="151.6092" x="698.5698" y="1533.724">&#171;&#22411;&#23450;&#32681;(&#12467;&#12531;&#12497;&#12452;&#12523;&#26178;&#12398;&#12415;)&#187;</text><text fill="#000000" font-family="'Noto Sans CJK JP'" font-size="14" lengthAdjust="spacing" textLength="63.8537" x="742.4475" y="1553.4199">types.d.ts</text><line style="stroke:#181818;stroke-width:0.5;" x1="655.5" x2="864.1452" y1="1562.4519" y2="1562.4519"/><text fill="#000000" font-family="'Noto Sans CJK JP'" font-size="14" lengthAdjust="spacing" textLength="197.6092" x="660.5" y="1582.6919">TransferConfig / TransferState</text><text fill="#000000" font-family="'Noto Sans CJK JP'" font-size="14" lengthAdjust="spacing" textLength="198.6452" x="660.5" y="1602.9638">TransferStats / FolderProgress</text><line style="stroke:#181818;stroke-width:0.5;" x1="655.5" x2="864.1452" y1="1610.9958" y2="1610.9958"/></g><!--class webapp--><g class="entity" data-qualified-name="src..webapp" data-source-line="40" id="ent0008"><rect fill="#F1F1F1" height="144.7357" rx="2.5" ry="2.5" style="stroke:#181818;stroke-width:0.5;" width="302.5129" x="323.5" y="270.8039"/><ellipse cx="427.6861" cy="294.6279" fill="#ADD1B2" rx="11" ry="11" style="stroke:#181818;stroke-width:1;"/><path d="M430.6549,300.2685 Q430.0767,300.5654 429.4361,300.706 Q428.7955,300.8623 428.0924,300.8623 Q425.5924,300.8623 424.2642,299.2217 Q422.9517,297.5654 422.9517,294.4404 Q422.9517,291.3154 424.2642,289.6592 Q425.5924,288.0029 428.0924,288.0029 Q428.7955,288.0029 429.4361,288.1592 Q430.0924,288.3154 430.6549,288.6123 L430.6549,291.331 Q430.0299,290.7529 429.4361,290.4873 Q428.8424,290.206 428.2174,290.206 Q426.8736,290.206 426.1861,291.2842 Q425.4986,292.3467 425.4986,294.4404 Q425.4986,296.5342 426.1861,297.6123 Q426.8736,298.6748 428.2174,298.6748 Q428.8424,298.6748 429.4361,298.4092 Q430.0299,298.1279 430.6549,297.5498 L430.6549,300.2685 Z " fill="#000000"/><text fill="#000000" font-family="Noto Sans CJK JP" font-size="12" font-style="italic" lengthAdjust="spacing" textLength="89.6406" x="446.1861" y="289.724">&#171;Web &#12450;&#12503;&#12522; UI&#187;</text><text fill="#000000" font-family="'Noto Sans CJK JP'" font-size="14" lengthAdjust="spacing" textLength="68.5997" x="456.7066" y="309.4199">webapp.ts</text><line style="stroke:#181818;stroke-width:0.5;" x1="324.5" x2="625.0129" y1="318.4519" y2="318.4519"/><line style="stroke:#181818;stroke-width:0.5;" x1="324.5" x2="625.0129" y1="326.4519" y2="326.4519"/><g data-visibility-modifier="PUBLIC_METHOD"><ellipse cx="334.5" cy="342.0879" fill="#84BE84" rx="3" ry="3" style="stroke:#038048;stroke-width:1;"/></g><text fill="#000000" font-family="'Noto Sans CJK JP'" font-size="14" lengthAdjust="spacing" textLength="49.3078" x="343.5" y="346.6919">doGet()</text><text fill="#000000" font-family="'Noto Sans CJK JP'" font-size="14" lengthAdjust="spacing" textLength="127.4835" x="343.5" y="366.9638">webAppGetStatus()</text><text fill="#000000" font-family="'Noto Sans CJK JP'" font-size="14" lengthAdjust="spacing" textLength="276.5129" x="343.5" y="387.2357">webAppStartTree() / webAppStartSearch()</text><text fill="#000000" font-family="'Noto Sans CJK JP'" font-size="14" lengthAdjust="spacing" textLength="254.8129" x="343.5" y="407.5076">webAppStop() / webAppCountOwned()</text></g><!--class html--><g class="entity" data-qualified-name="src..html" data-source-line="46" id="ent0009"><rect fill="#F1F1F1" height="104.1919" rx="2.5" ry="2.5" style="stroke:#181818;stroke-width:0.5;" width="196.8132" x="376.5" y="86.8039"/><ellipse cx="435.4538" cy="110.6279" fill="#ADD1B2" rx="11" ry="11" style="stroke:#181818;stroke-width:1;"/><path d="M438.4225,116.2685 Q437.8444,116.5654 437.2038,116.706 Q436.5631,116.8623 435.86,116.8623 Q433.36,116.8623 432.0319,115.2217 Q430.7194,113.5654 430.7194,110.4404 Q430.7194,107.3154 432.0319,105.6592 Q433.36,104.0029 435.86,104.0029 Q436.5631,104.0029 437.2038,104.1592 Q437.86,104.3154 438.4225,104.6123 L438.4225,107.331 Q437.7975,106.7529 437.2038,106.4873 Q436.61,106.206 435.985,106.206 Q434.6413,106.206 433.9538,107.2842 Q433.2663,108.3467 433.2663,110.4404 Q433.2663,112.5342 433.9538,113.6123 Q434.6413,114.6748 435.985,114.6748 Q436.61,114.6748 437.2038,114.4092 Q437.7975,114.1279 438.4225,113.5498 L438.4225,116.2685 Z " fill="#000000"/><text fill="#000000" font-family="Noto Sans CJK JP" font-size="12" font-style="italic" lengthAdjust="spacing" textLength="62.3525" x="459.9804" y="105.724">&#171;UI &#12506;&#12540;&#12472;&#187;</text><text fill="#000000" font-family="'Noto Sans CJK JP'" font-size="14" lengthAdjust="spacing" textLength="70.4057" x="455.9538" y="125.4199">index.html</text><line style="stroke:#181818;stroke-width:0.5;" x1="377.5" x2="572.3132" y1="134.4519" y2="134.4519"/><text fill="#000000" font-family="'Noto Sans CJK JP'" font-size="14" lengthAdjust="spacing" textLength="151.7593" x="382.5" y="154.6919">&#12501;&#12457;&#12540;&#12512;&#20837;&#21147; / &#36914;&#25431;&#34920;&#31034;</text><text fill="#000000" font-family="'Noto Sans CJK JP'" font-size="14" lengthAdjust="spacing" textLength="184.8132" x="382.5" y="174.9638">google.script.run &#12391;&#21628;&#12403;&#20986;&#12375;</text><line style="stroke:#181818;stroke-width:0.5;" x1="377.5" x2="572.3132" y1="182.9958" y2="182.9958"/></g><!--class sheet--><g class="entity" data-qualified-name="src..sheet" data-source-line="50" id="ent0010"><rect fill="#F1F1F1" height="165.0076" rx="2.5" ry="2.5" style="stroke:#181818;stroke-width:0.5;" width="267.177" x="223.5" y="1065.8039"/><ellipse cx="293.6621" cy="1089.6279" fill="#ADD1B2" rx="11" ry="11" style="stroke:#181818;stroke-width:1;"/><path d="M296.6308,1095.2685 Q296.0527,1095.5654 295.4121,1095.706 Q294.7714,1095.8623 294.0683,1095.8623 Q291.5683,1095.8623 290.2402,1094.2217 Q288.9277,1092.5654 288.9277,1089.4404 Q288.9277,1086.3154 290.2402,1084.6592 Q291.5683,1083.0029 294.0683,1083.0029 Q294.7714,1083.0029 295.4121,1083.1592 Q296.0683,1083.3154 296.6308,1083.6123 L296.6308,1086.331 Q296.0058,1085.7529 295.4121,1085.4873 Q294.8183,1085.206 294.1933,1085.206 Q292.8496,1085.206 292.1621,1086.2842 Q291.4746,1087.3467 291.4746,1089.4404 Q291.4746,1091.5342 292.1621,1092.6123 Q292.8496,1093.6748 294.1933,1093.6748 Q294.8183,1093.6748 295.4121,1093.4092 Q296.0058,1093.1279 296.6308,1092.5498 L296.6308,1095.2685 Z " fill="#000000"/><text fill="#000000" font-family="Noto Sans CJK JP" font-size="12" font-style="italic" lengthAdjust="spacing" textLength="122.3529" x="312.1621" y="1084.724">&#171;&#12473;&#12503;&#12524;&#12483;&#12489;&#12471;&#12540;&#12488; UI&#187;</text><text fill="#000000" font-family="'Noto Sans CJK JP'" font-size="14" lengthAdjust="spacing" textLength="51.5618" x="347.5576" y="1104.4199">sheet.ts</text><line style="stroke:#181818;stroke-width:0.5;" x1="224.5" x2="489.677" y1="1113.4519" y2="1113.4519"/><line style="stroke:#181818;stroke-width:0.5;" x1="224.5" x2="489.677" y1="1121.4519" y2="1121.4519"/><g data-visibility-modifier="PUBLIC_METHOD"><ellipse cx="234.5" cy="1137.0879" fill="#84BE84" rx="3" ry="3" style="stroke:#038048;stroke-width:1;"/></g><text fill="#000000" font-family="'Noto Sans CJK JP'" font-size="14" lengthAdjust="spacing" textLength="212.0151" x="243.5" y="1141.6919">onOpen() : &#12459;&#12473;&#12479;&#12512;&#12513;&#12491;&#12517;&#12540;&#36861;&#21152;</text><text fill="#000000" font-family="'Noto Sans CJK JP'" font-size="14" lengthAdjust="spacing" textLength="225.9591" x="243.5" y="1161.9638">sheetSetup() / readSheetSettings()</text><text fill="#000000" font-family="'Noto Sans CJK JP'" font-size="14" lengthAdjust="spacing" textLength="241.177" x="243.5" y="1182.2357">sheetStartTree() / sheetStartSearch()</text><text fill="#000000" font-family="'Noto Sans CJK JP'" font-size="14" lengthAdjust="spacing" textLength="211.5392" x="243.5" y="1202.5076">sheetShowStatus() / sheetStop()</text><text fill="#000000" font-family="'Noto Sans CJK JP'" font-size="14" lengthAdjust="spacing" textLength="228.9131" x="243.5" y="1222.7795">recordSheetLog() / flushSheetLog()</text></g><!--class manifest--><g class="entity" data-qualified-name="src..manifest" data-source-line="57" id="ent0011"><rect fill="#F1F1F1" height="104.1919" rx="2.5" ry="2.5" style="stroke:#181818;stroke-width:0.5;" width="187.8113" x="100" y="291.3039"/><ellipse cx="140.0955" cy="315.1279" fill="#ADD1B2" rx="11" ry="11" style="stroke:#181818;stroke-width:1;"/><path d="M143.0642,320.7685 Q142.4861,321.0654 141.8455,321.206 Q141.2048,321.3623 140.5017,321.3623 Q138.0017,321.3623 136.6736,319.7217 Q135.3611,318.0654 135.3611,314.9404 Q135.3611,311.8154 136.6736,310.1592 Q138.0017,308.5029 140.5017,308.5029 Q141.2048,308.5029 141.8455,308.6592 Q142.5017,308.8154 143.0642,309.1123 L143.0642,311.831 Q142.4392,311.2529 141.8455,310.9873 Q141.2517,310.706 140.6267,310.706 Q139.283,310.706 138.5955,311.7842 Q137.908,312.8467 137.908,314.9404 Q137.908,317.0342 138.5955,318.1123 Q139.283,319.1748 140.6267,319.1748 Q141.2517,319.1748 141.8455,318.9092 Q142.4392,318.6279 143.0642,318.0498 L143.0642,320.7685 Z " fill="#000000"/><text fill="#000000" font-family="Noto Sans CJK JP" font-size="12" font-style="italic" lengthAdjust="spacing" textLength="83.4966" x="167.9457" y="310.224">&#171;&#12510;&#12491;&#12501;&#12455;&#12473;&#12488;&#187;</text><text fill="#000000" font-family="'Noto Sans CJK JP'" font-size="14" lengthAdjust="spacing" textLength="100.0436" x="159.6722" y="329.9199">appsscript.json</text><line style="stroke:#181818;stroke-width:0.5;" x1="101" x2="286.8113" y1="338.9519" y2="338.9519"/><text fill="#000000" font-family="'Noto Sans CJK JP'" font-size="14" lengthAdjust="spacing" textLength="175.8113" x="106" y="359.1919">timeZone / runtimeVersion</text><text fill="#000000" font-family="'Noto Sans CJK JP'" font-size="14" lengthAdjust="spacing" textLength="150.2334" x="106" y="379.4638">oauthScopes / webapp</text><line style="stroke:#181818;stroke-width:0.5;" x1="101" x2="286.8113" y1="387.4958" y2="387.4958"/></g><!--link main to transfer--><g class="link" data-entity-1="ent0002" data-entity-2="ent0003" data-link-type="dependency" data-source-line="63" id="lnk12"><path codeLine="63" d="M286.98,681.1339 C311.64,706.5839 335.0808,730.7829 360.2808,756.7929" fill="none" id="main-to-transfer" style="stroke:#181818;stroke-width:1;"/><polygon fill="#181818" points="363.76,760.3839,360.3703,751.1367,360.2808,756.7929,354.6247,756.7034,363.76,760.3839" style="stroke:#181818;stroke-width:1;stroke-linejoin:miter;stroke-miterlimit:10;"/><text fill="#000000" font-family="'Noto Sans CJK JP'" font-size="13" lengthAdjust="spacing" textLength="52.0001" x="331" y="726.8839">&#21628;&#12403;&#20986;&#12375;</text></g><!--link transfer to state--><g class="link" data-entity-1="ent0003" data-entity-2="ent0004" data-link-type="dependency" data-source-line="64" id="lnk13"><path codeLine="64" d="M524.57,967.0139 C529.21,976.8839 533.45,986.9139 537,996.8039 C572.66,1096.2639 543.08,1131.4339 579,1230.8039 C588.9,1258.2039 601.3052,1282.2019 615.6352,1306.1819" fill="none" id="transfer-to-state" style="stroke:#181818;stroke-width:1;"/><polygon fill="#181818" points="618.2,1310.4739,617.0169,1300.6964,615.6352,1306.1819,610.1497,1304.8001,618.2,1310.4739" style="stroke:#181818;stroke-width:1;stroke-linejoin:miter;stroke-miterlimit:10;"/><text fill="#000000" font-family="'Noto Sans CJK JP'" font-size="13" lengthAdjust="spacing" textLength="62.9201" x="580" y="1154.3839">&#20445;&#23384; / &#24489;&#20803;</text></g><!--link transfer to triggers--><g class="link" data-entity-1="ent0003" data-entity-2="ent0005" data-link-type="dependency" data-source-line="65" id="lnk14"><path codeLine="65" d="M562.86,965.1939 C606.87,1009.4439 653.1842,1055.9986 689.4242,1092.4386" fill="none" id="transfer-to-triggers" style="stroke:#181818;stroke-width:1;"/><polygon fill="#181818" points="692.95,1095.9839,689.4398,1086.7818,689.4242,1092.4386,683.7674,1092.4231,692.95,1095.9839" style="stroke:#181818;stroke-width:1;stroke-linejoin:miter;stroke-miterlimit:10;"/><text fill="#000000" font-family="'Noto Sans CJK JP'" font-size="13" lengthAdjust="spacing" textLength="62.9201" x="629" y="1022.3839">&#20104;&#32004; / &#21066;&#38500;</text></g><!--link transfer to config--><g class="link" data-entity-1="ent0003" data-entity-2="ent0006" data-link-type="dependency" data-source-line="66" id="lnk15"><path codeLine="66" d="M363.5,929.4839 C333.19,950.1739 300.18,973.7139 271,996.8039 C231.49,1028.0639 193.1173,1062.7731 161.2373,1092.8431" fill="none" id="transfer-to-config" style="stroke:#181818;stroke-width:1;"/><polygon fill="#181818" points="157.6,1096.2739,166.8917,1093.0083,161.2373,1092.8431,161.4025,1087.1887,157.6,1096.2739" style="stroke:#181818;stroke-width:1;stroke-linejoin:miter;stroke-miterlimit:10;"/><text fill="#000000" font-family="'Noto Sans CJK JP'" font-size="13" lengthAdjust="spacing" textLength="52.0001" x="272" y="1022.3839">&#35373;&#23450;&#21442;&#29031;</text></g><!--link main to config--><g class="link" data-entity-1="ent0002" data-entity-2="ent0006" data-link-type="dependency" data-source-line="67" id="lnk16"><path codeLine="67" d="M182.75,680.8239 C163.01,799.2439 130.1222,996.592 114.3822,1091.012" fill="none" id="main-to-config" style="stroke:#181818;stroke-width:1;"/><polygon fill="#181818" points="113.56,1095.9439,118.9854,1087.7241,114.3822,1091.012,111.0943,1086.4087,113.56,1095.9439" style="stroke:#181818;stroke-width:1;stroke-linejoin:miter;stroke-miterlimit:10;"/><text fill="#000000" font-family="'Noto Sans CJK JP'" font-size="13" lengthAdjust="spacing" textLength="52.0001" x="169" y="869.8839">&#35373;&#23450;&#21442;&#29031;</text></g><!--link html to webapp--><g class="link" data-entity-1="ent0009" data-entity-2="ent0008" data-link-type="dependency" data-source-line="68" id="lnk17"><path codeLine="68" d="M475,190.9039 C475,215.0439 475,239.2639 475,265.5739" fill="none" id="html-to-webapp" style="stroke:#181818;stroke-width:1;stroke-dasharray:7,7;"/><polygon fill="#181818" points="475,270.5739,479,261.5739,475,265.5739,471,261.5739,475,270.5739" style="stroke:#181818;stroke-width:1;stroke-linejoin:miter;stroke-miterlimit:10;"/><text fill="#000000" font-family="'Noto Sans CJK JP'" font-size="13" lengthAdjust="spacing" textLength="103.7011" x="476" y="236.8839">google.script.run</text></g><!--link webapp to transfer--><g class="link" data-entity-1="ent0008" data-entity-2="ent0003" data-link-type="dependency" data-source-line="69" id="lnk18"><path codeLine="69" d="M473.34,415.8539 C471.27,505.3139 467.8359,654.0252 465.4759,755.7952" fill="none" id="webapp-to-transfer" style="stroke:#181818;stroke-width:1;"/><polygon fill="#181818" points="465.36,760.7939,469.5676,751.889,465.4759,755.7952,461.5697,751.7036,465.36,760.7939" style="stroke:#181818;stroke-width:1;stroke-linejoin:miter;stroke-miterlimit:10;"/><text fill="#000000" font-family="'Noto Sans CJK JP'" font-size="13" lengthAdjust="spacing" textLength="62.9201" x="472" y="594.3839">&#38283;&#22987; / &#20572;&#27490;</text></g><!--link webapp to state--><g class="link" data-entity-1="ent0008" data-entity-2="ent0004" data-link-type="dependency" data-source-line="70" id="lnk19"><path codeLine="70" d="M526.78,416.0039 C613.28,540.6839 783.79,808.7839 846,1065.8039 C863.25,1137.0839 878.71,1165.1739 846,1230.8039 C818.79,1285.3939 763.7161,1322.1266 719.0861,1345.0866" fill="none" id="webapp-to-state" style="stroke:#181818;stroke-width:1;"/><polygon fill="#181818" points="714.64,1347.3739,724.4729,1346.8136,719.0861,1345.0866,720.8132,1339.6998,714.64,1347.3739" style="stroke:#181818;stroke-width:1;stroke-linejoin:miter;stroke-miterlimit:10;"/><text fill="#000000" font-family="'Noto Sans CJK JP'" font-size="13" lengthAdjust="spacing" textLength="91.0001" x="818" y="869.8839">&#36914;&#25431;&#12398;&#35501;&#12415;&#21462;&#12426;</text></g><!--link webapp to main--><g class="link" data-entity-1="ent0008" data-entity-2="ent0002" data-link-type="dependency" data-source-line="71" id="lnk20"><path codeLine="71" d="M393.39,415.8939 C360.83,444.4539 326.9586,474.1765 293.4686,503.5565" fill="none" id="webapp-to-main" style="stroke:#181818;stroke-width:1;"/><polygon fill="#181818" points="289.71,506.8539,299.1134,503.9255,293.4686,503.5565,293.8377,497.9117,289.71,506.8539" style="stroke:#181818;stroke-width:1;stroke-linejoin:miter;stroke-miterlimit:10;"/><text fill="#000000" font-family="'Noto Sans CJK JP'" font-size="13" lengthAdjust="spacing" textLength="65.0001" x="354" y="461.8839">&#20214;&#25968;&#12398;&#27010;&#31639;</text></g><!--link sheet to transfer--><g class="link" data-entity-1="ent0010" data-entity-2="ent0003" data-link-type="dependency" data-source-line="72" id="lnk21"><path codeLine="72" d="M334.48,1065.7439 C331.83,1042.8539 332.57,1018.3339 341,996.8039 C346.52,982.7139 351.4089,973.2791 360.4389,960.6691" fill="none" id="sheet-to-transfer" style="stroke:#181818;stroke-width:1;"/><polygon fill="#181818" points="363.35,956.6039,354.8579,961.5924,360.4389,960.6691,361.3622,966.2501,363.35,956.6039" style="stroke:#181818;stroke-width:1;stroke-linejoin:miter;stroke-miterlimit:10;"/><text fill="#000000" font-family="'Noto Sans CJK JP'" font-size="13" lengthAdjust="spacing" textLength="62.9201" x="342" y="1022.3839">&#38283;&#22987; / &#20572;&#27490;</text></g><!--link transfer to sheet--><g class="link" data-entity-1="ent0003" data-entity-2="ent0010" data-link-type="dependency" data-source-line="74" id="lnk23"><path codeLine="74" d="M433.18,966.8339 C425.83,989.7239 417.58,1013.7539 409,1035.8039 C405.2,1045.5539 402.9766,1051.0886 398.5866,1061.0486" fill="none" id="transfer-to-sheet" style="stroke:#181818;stroke-width:1;stroke-dasharray:7,7;"/><polygon fill="#181818" points="396.57,1065.6239,403.8601,1059.0017,398.5866,1061.0486,396.5397,1055.7751,396.57,1065.6239" style="stroke:#181818;stroke-width:1;stroke-linejoin:miter;stroke-miterlimit:10;"/><text fill="#000000" font-family="'Noto Sans CJK JP'" font-size="13" lengthAdjust="spacing" textLength="65.0001" x="443.4295" y="1012.8839">&#21488;&#24115;&#12408;&#35352;&#37682;</text><text fill="#000000" font-family="'Noto Sans CJK JP'" font-size="13" lengthAdjust="spacing" textLength="105.8591" x="423" y="1031.7079">(recordSheetLog)</text></g><!--link sheet to state--><g class="link" data-entity-1="ent0010" data-entity-2="ent0004" data-link-type="dependency" data-source-line="73" id="lnk22"><path codeLine="73" d="M410.45,1231.0039 C424.74,1248.9339 441.21,1266.7339 459,1280.8039 C502.39,1315.1139 556.072,1338.0983 598.562,1353.0083" fill="none" id="sheet-to-state" style="stroke:#181818;stroke-width:1;"/><polygon fill="#181818" points="603.28,1354.6639,596.1121,1347.9095,598.562,1353.0083,593.4632,1355.4583,603.28,1354.6639" style="stroke:#181818;stroke-width:1;stroke-linejoin:miter;stroke-miterlimit:10;"/><text fill="#000000" font-family="'Noto Sans CJK JP'" font-size="13" lengthAdjust="spacing" textLength="91.0001" x="460" y="1276.8839">&#36914;&#25431;&#12398;&#35501;&#12415;&#21462;&#12426;</text></g><!--link state to types--><g class="link" data-entity-1="ent0004" data-entity-2="ent0007" data-link-type="dependency" data-source-line="75" id="lnk24"><path codeLine="75" d="M691.1,1434.8139 C704.61,1460.5139 717.8428,1485.6585 730.7428,1510.1885" fill="none" id="state-to-types" style="stroke:#181818;stroke-width:1;stroke-dasharray:7,7;"/><polygon fill="#181818" points="733.07,1514.6139,732.4213,1504.7864,730.7428,1510.1885,725.3407,1508.51,733.07,1514.6139" style="stroke:#181818;stroke-width:1;stroke-linejoin:miter;stroke-miterlimit:10;"/><text fill="#000000" font-family="'Noto Sans CJK JP'" font-size="13" lengthAdjust="spacing" textLength="52.0001" x="716" y="1480.8839">&#22411;&#12434;&#21442;&#29031;</text></g><!--link transfer to types--><g class="link" data-entity-1="ent0003" data-entity-2="ent0007" data-link-type="dependency" data-source-line="76" id="lnk25"><path codeLine="76" d="M562.73,886.3439 C654.36,912.0039 784.91,964.7539 846,1065.8039 C933.38,1210.3339 843.9844,1414.4736 792.4144,1510.0436" fill="none" id="transfer-to-types" style="stroke:#181818;stroke-width:1;stroke-dasharray:7,7;"/><polygon fill="#181818" points="790.04,1514.4439,797.8341,1508.423,792.4144,1510.0436,790.7937,1504.6239,790.04,1514.4439" style="stroke:#181818;stroke-width:1;stroke-linejoin:miter;stroke-miterlimit:10;"/><text fill="#000000" font-family="'Noto Sans CJK JP'" font-size="13" lengthAdjust="spacing" textLength="52.0001" x="879" y="1276.8839">&#22411;&#12434;&#21442;&#29031;</text></g><!--link manifest to main--><g class="link" data-entity-1="ent0011" data-entity-2="ent0002" data-link-type="association" data-source-line="77" id="lnk26"><path codeLine="77" d="M194.84,395.5439 C195.32,424.5039 195.93,461.5839 196.49,495.4039" fill="none" id="manifest-main" style="stroke:#181818;stroke-width:1;stroke-dasharray:7,7;"/><text fill="#000000" font-family="'Noto Sans CJK JP'" font-size="13" lengthAdjust="spacing" textLength="91.0001" x="197" y="461.8839">&#23455;&#34892;&#29872;&#22659;&#12434;&#23450;&#32681;</text></g><?plantuml-src XLLTJnj757tthnZn1AfYtgq8AQKGEMqXZQ6eLQLeinxlRhFUMUsCIwCgKhrRMeAfI2854jfGGAI69AOeLDIX2VoOOMtpBt9dPZ-y1hKIGdlldBaVP-uzPXQpCUB-Unwyu_vRxX-AZ-01h-ztcetEuaDUtpqxUHwsdfwlRf-T-Zbwrt9SpTEgg8mhMircayHXKreLew4fmWWgQGv5upS-HJTk3lM1gQcLoRpb6AYYsHJdSgwctzKCk4KzVNG8_P13IBSrIj5GLRESFAD3IAD8VAEhLxc_omEeR947BsLzpxc_epnZO_8kGXzHfdbineFy5UmDZrpYl6RRq_CEBiU77gQrAhvuXRWNV2QPBp6DrMZiqKdDOJBQf6LZvRwVDi6Y074ZiGtDdBLRdSqs3rhSX_y1z_zAUiXKEsSnimJt63RkHLczclEnndGpDMSyZ0TS9QnvkjdlZ9EBSZrgMcwnqiz3nN8iQWwqR1FZfaSCeEX2Rr0bmt5Zqe2kkaj7dOM669k3TlTeFLnUJRlIliE2F9o4rihzjcv3nQaZmw9b651oogAonKYeOV1VmpnqzxUw3tzEy-acBjTiV4i-RvIaZ6tC8jTC56OmdKwSYcN4oPG5gNgxhN1_FGa_FZqrMRnUG35Xun8dZwRdfYO-kLsScVYyTFkBsObRNmsqSy_5D5zEkX4cn0yt6X2_Ux8tBDSF_Xx9yNxLUUO3eRn-Ef8apoP5eub3yfU120y5n2InozYB7pDRqJo-exbkN92oeA8vV0SqOPi7Qy0ncYscIrOcrp6BA0NuDTS5ExCPobjIauo1VYYXpwUcSm1Bt3xOUB9PW-zZEMNyVTvaLLkMApwWsDaYui6wrAzsKYWFdd1_Jsh5PhZm8bpw3UAV__Ycy-jQRsktktCiKGOXXetpLFSib-LXTn2lDyD7xtZzCFpbcDVN1WRVn9WbWoyCgKrl9K-lnIw3SFh_oAoB6Tg8C-rY1vei0A-lfD2UGcKysE91WmSlu4hlz7sujAa6M8GkOLPJj7WOzYLoCP3Gc6a5on2TkZ8yAtUVXgLGGRrI3gmJJ-NvZ1WIKh5hr4mzMJ9WKcX4tBUKE95SErO5KqbBi25RWsTeIefIfMPM5NzD72nQWwS6wqjOHeiuyfHeDT0zdOZT68r6KcQ-dyl9duChLyPIEIsWp7CbVW5IqbH0PwVYzmk2XITxuKAG1IMI0hZZnUxVFmdSWwNpPpjPNAG61QJK85pnkmlDjA3BZ-M4vlDZyMOLBavSBZeQwEfyjH4s6wAM-k-TrdO_AcvBJJC8HEzb2pGYN5db_b8_K1O7RVrxr7bo89JvJx-xlvPJW_i_-LBGVwTBGeWkrILuafM3i7t8w-tUxjFpvJVVECFPuHh9gQ3YZX91kBFHuFxZYBTCr4iHoQJbyt6VuVuVlQtbxkE3S3iGG2cf7m00?></g></svg>