<svg xmlns="http://www.w3.org/2000/svg" xmlns:xlink="http://www.w3.org/1999/xlink" contentStyleType="text/css" data-diagram-type="CLASS" height="1385px" preserveAspectRatio="none" style="width:692px;height:1385px;background:#FFFFFF;" version="1.1" viewBox="0 0 692 1385" width="692px" zoomAndPan="magnify"><?plantuml 1.2026.6?><defs/><g><g class="title" data-source-line="1"><text fill="#000000" font-family="'Noto Sans CJK JP'" font-size="14" font-weight="700" lengthAdjust="spacing" textLength="195.9991" x="244.5004" y="26.2399">&#12477;&#12540;&#12473;&#12467;&#12540;&#12489;&#12398;&#27083;&#25104;&#12392;&#20381;&#23384;&#38306;&#20418;</text></g><!--cluster src/--><g class="cluster" data-qualified-name="src." data-source-line="5" id="ent0001"><path d="M8.5,47.8039 L35.3299,47.8039 A3.75,3.75 0 0 1 37.8299,50.3039 L44.8299,74.0758 L674.5,74.0758 A2.5,2.5 0 0 1 677,76.5758 L677,1368.3039 A2.5,2.5 0 0 1 674.5,1370.8039 L8.5,1370.8039 A2.5,2.5 0 0 1 6,1368.3039 L6,50.3039 A2.5,2.5 0 0 1 8.5,47.8039" fill="none" style="stroke:#000000;stroke-width:1.5;"/><line style="stroke:#000000;stroke-width:1.5;" x1="6" x2="44.8299" y1="74.0758" y2="74.0758"/><text fill="#000000" font-family="'Noto Sans CJK JP'" font-size="14" font-weight="700" lengthAdjust="spacing" textLength="25.8299" x="10" y="66.0438">src/</text></g><!--class main--><g class="entity" data-qualified-name="src..main" data-source-line="6" id="ent0002"><rect fill="#F1F1F1" height="185.2795" rx="2.5" ry="2.5" style="stroke:#181818;stroke-width:0.5;" width="183.4714" x="120.5" y="495.8039"/><ellipse cx="151.6885" cy="519.6279" fill="#ADD1B2" rx="11" ry="11" style="stroke:#181818;stroke-width:1;"/><path d="M154.6572,525.2685 Q154.0791,525.5654 153.4385,525.706 Q152.7979,525.8623 152.0947,525.8623 Q149.5947,525.8623 148.2666,524.2217 Q146.9541,522.5654 146.9541,519.4404 Q146.9541,516.3154 148.2666,514.6592 Q149.5947,513.0029 152.0947,513.0029 Q152.7979,513.0029 153.4385,513.1592 Q154.0947,513.3154 154.6572,513.6123 L154.6572,516.331 Q154.0322,515.7529 153.4385,515.4873 Q152.8447,515.206 152.2197,515.206 Q150.876,515.206 150.1885,516.2842 Q149.501,517.3467 149.501,519.4404 Q149.501,521.5342 150.1885,522.6123 Q150.876,523.6748 152.2197,523.6748 Q152.8447,523.6748 153.4385,523.4092 Q154.0322,523.1279 154.6572,522.5498 L154.6572,525.2685 Z " fill="#000000"/><text fill="#000000" font-family="Noto Sans CJK JP" font-size="12" font-style="italic" lengthAdjust="spacing" textLength="119.4969" x="167.2859" y="514.724">&#171;&#12456;&#12531;&#12488;&#12522;&#12540;&#12509;&#12452;&#12531;&#12488;&#187;</text><text fill="#000000" font-family="'Noto Sans CJK JP'" font-size="14" lengthAdjust="spacing" textLength="48.9578" x="202.5555" y="534.4199">main.ts</text><line style="stroke:#181818;stroke-width:0.5;" x1="121.5" x2="302.9714" y1="543.4519" y2="543.4519"/><line style="stroke:#181818;stroke-width:0.5;" x1="121.5" x2="302.9714" y1="551.4519" y2="551.4519"/><g data-visibility-modifier="PUBLIC_METHOD"><ellipse cx="131.5" cy="567.0879" fill="#84BE84" rx="3" ry="3" style="stroke:#038048;stroke-width:1;"/></g><text fill="#000000" font-family="'Noto Sans CJK JP'" font-size="14" lengthAdjust="spacing" textLength="94.4156" x="140.5" y="571.6919">startTransfer()</text><g data-visibility-modifier="PUBLIC_METHOD"><ellipse cx="131.5" cy="587.3598" fill="#84BE84" rx="3" ry="3" style="stroke:#038048;stroke-width:1;"/></g><text fill="#000000" font-family="'Noto Sans CJK JP'" font-size="14" lengthAdjust="spacing" textLength="157.4714" x="140.5" y="591.9638">startTransferAllOwned()</text><g data-visibility-modifier="PUBLIC_METHOD"><ellipse cx="131.5" cy="607.6317" fill="#84BE84" rx="3" ry="3" style="stroke:#038048;stroke-width:1;"/></g><text fill="#000000" font-family="'Noto Sans CJK JP'" font-size="14" lengthAdjust="spacing" textLength="112.9515" x="140.5" y="612.2357">resumeTransfer()</text><g data-visibility-modifier="PUBLIC_METHOD"><ellipse cx="131.5" cy="627.9036" fill="#84BE84" rx="3" ry="3" style="stroke:#038048;stroke-width:1;"/></g><text fill="#000000" font-family="'Noto Sans CJK JP'" font-size="14" lengthAdjust="spacing" textLength="92.9876" x="140.5" y="632.5076">stopTransfer()</text><g data-visibility-modifier="PUBLIC_METHOD"><ellipse cx="131.5" cy="648.1755" fill="#84BE84" rx="3" ry="3" style="stroke:#038048;stroke-width:1;"/></g><text fill="#000000" font-family="'Noto Sans CJK JP'" font-size="14" lengthAdjust="spacing" textLength="86.0577" x="140.5" y="652.7795">showStatus()</text><g data-visibility-modifier="PUBLIC_METHOD"><ellipse cx="131.5" cy="668.4474" fill="#84BE84" rx="3" ry="3" style="stroke:#038048;stroke-width:1;"/></g><text fill="#000000" font-family="'Noto Sans CJK JP'" font-size="14" lengthAdjust="spacing" textLength="123.8575" x="140.5" y="673.0514">countOwnedFiles()</text></g><!--class transfer--><g class="entity" data-qualified-name="src..transfer" data-source-line="14" id="ent0003"><rect fill="#F1F1F1" height="205.5514" rx="2.5" ry="2.5" style="stroke:#181818;stroke-width:0.5;" width="199.0532" x="266.5" y="760.8039"/><ellipse cx="322.0283" cy="784.6279" fill="#ADD1B2" rx="11" ry="11" style="stroke:#181818;stroke-width:1;"/><path d="M324.997,790.2685 Q324.4189,790.5654 323.7783,790.706 Q323.1377,790.8623 322.4345,790.8623 Q319.9345,790.8623 318.6064,789.2217 Q317.2939,787.5654 317.2939,784.4404 Q317.2939,781.3154 318.6064,779.6592 Q319.9345,778.0029 322.4345,778.0029 Q323.1377,778.0029 323.7783,778.1592 Q324.4345,778.3154 324.997,778.6123 L324.997,781.331 Q324.372,780.7529 323.7783,780.4873 Q323.1845,780.206 322.5595,780.206 Q321.2158,780.206 320.5283,781.2842 Q319.8408,782.3467 319.8408,784.4404 Q319.8408,786.5342 320.5283,787.6123 Q321.2158,788.6748 322.5595,788.6748 Q323.1845,788.6748 323.7783,788.4092 Q324.372,788.1279 324.997,787.5498 L324.997,790.2685 Z " fill="#000000"/><text fill="#000000" font-family="Noto Sans CJK JP" font-size="12" font-style="italic" lengthAdjust="spacing" textLength="83.4966" x="340.5283" y="779.724">&#171;&#20013;&#26680;&#12525;&#12472;&#12483;&#12463;&#187;</text><text fill="#000000" font-family="'Noto Sans CJK JP'" font-size="14" lengthAdjust="spacing" textLength="67.1437" x="348.7048" y="799.4199">transfer.ts</text><line style="stroke:#181818;stroke-width:0.5;" x1="267.5" x2="464.5532" y1="808.4519" y2="808.4519"/><line style="stroke:#181818;stroke-width:0.5;" x1="267.5" x2="464.5532" y1="816.4519" y2="816.4519"/><text fill="#000000" font-family="'Noto Sans CJK JP'" font-size="14" lengthAdjust="spacing" textLength="179.4933" x="272.5" y="836.6919">startTransferWithStrategy()</text><text fill="#000000" font-family="'Noto Sans CJK JP'" font-size="14" lengthAdjust="spacing" textLength="69.9297" x="272.5" y="856.9638">runBatch()</text><text fill="#000000" font-family="'Noto Sans CJK JP'" font-size="14" lengthAdjust="spacing" textLength="99.2596" x="272.5" y="877.2357">runTreeBatch()</text><text fill="#000000" font-family="'Noto Sans CJK JP'" font-size="14" lengthAdjust="spacing" textLength="114.9816" x="272.5" y="897.5076">runSearchBatch()</text><text fill="#000000" font-family="'Noto Sans CJK JP'" font-size="14" lengthAdjust="spacing" textLength="187.0532" x="272.5" y="917.7795">transferOwnershipIfOwned()</text><text fill="#000000" font-family="'Noto Sans CJK JP'" font-size="14" lengthAdjust="spacing" textLength="99.8336" x="272.5" y="938.0514">finishTransfer()</text><text fill="#000000" font-family="'Noto Sans CJK JP'" font-size="14" lengthAdjust="spacing" textLength="86.7856" x="272.5" y="958.3233">logProgress()</text></g><!--class state--><g class="entity" data-qualified-name="src..state" data-source-line="23" id="ent0004"><rect fill="#F1F1F1" height="124.4638" rx="2.5" ry="2.5" style="stroke:#181818;stroke-width:0.5;" width="111.4966" x="550.5" y="1046.8039"/><ellipse cx="565.5" cy="1070.6279" fill="#ADD1B2" rx="11" ry="11" style="stroke:#181818;stroke-width:1;"/><path d="M568.4688,1076.2685 Q567.8906,1076.5654 567.25,1076.706 Q566.6094,1076.8623 565.9063,1076.8623 Q563.4063,1076.8623 562.0781,1075.2217 Q560.7656,1073.5654 560.7656,1070.4404 Q560.7656,1067.3154 562.0781,1065.6592 Q563.4063,1064.0029 565.9063,1064.0029 Q566.6094,1064.0029 567.25,1064.1592 Q567.9063,1064.3154 568.4688,1064.6123 L568.4688,1067.331 Q567.8438,1066.7529 567.25,1066.4873 Q566.6563,1066.206 566.0313,1066.206 Q564.6875,1066.206 564,1067.2842 Q563.3125,1068.3467 563.3125,1070.4404 Q563.3125,1072.5342 564,1073.6123 Q564.6875,1074.6748 566.0313,1074.6748 Q566.6563,1074.6748 567.25,1074.4092 Q567.8438,1074.1279 568.4688,1073.5498 L568.4688,1076.2685 Z " fill="#000000"/><text fill="#000000" font-family="Noto Sans CJK JP" font-size="12" font-style="italic" lengthAdjust="spacing" textLength="83.4966" x="577.5" y="1065.724">&#171;&#29366;&#24907;&#12398;&#27704;&#32154;&#21270;&#187;</text><text fill="#000000" font-family="'Noto Sans CJK JP'" font-size="14" lengthAdjust="spacing" textLength="48.4678" x="595.0144" y="1085.4199">state.ts</text><line style="stroke:#181818;stroke-width:0.5;" x1="551.5" x2="660.9966" y1="1094.4519" y2="1094.4519"/><line style="stroke:#181818;stroke-width:0.5;" x1="551.5" x2="660.9966" y1="1102.4519" y2="1102.4519"/><text fill="#000000" font-family="'Noto Sans CJK JP'" font-size="14" lengthAdjust="spacing" textLength="73.4857" x="556.5" y="1122.6919">saveState()</text><text fill="#000000" font-family="'Noto Sans CJK JP'" font-size="14" lengthAdjust="spacing" textLength="73.0237" x="556.5" y="1142.9638">loadState()</text><text fill="#000000" font-family="'Noto Sans CJK JP'" font-size="14" lengthAdjust="spacing" textLength="76.1877" x="556.5" y="1163.2357">clearState()</text></g><!--class triggers--><g class="entity" data-qualified-name="src..triggers" data-source-line="28" id="ent0005"><rect fill="#F1F1F1" height="104.1919" rx="2.5" ry="2.5" style="stroke:#181818;stroke-width:0.5;" width="168.2814" x="348" y="1056.8039"/><ellipse cx="388.5531" cy="1080.6279" fill="#ADD1B2" rx="11" ry="11" style="stroke:#181818;stroke-width:1;"/><path d="M391.5219,1086.2685 Q390.9437,1086.5654 390.3031,1086.706 Q389.6625,1086.8623 388.9594,1086.8623 Q386.4594,1086.8623 385.1312,1085.2217 Q383.8187,1083.5654 383.8187,1080.4404 Q383.8187,1077.3154 385.1312,1075.6592 Q386.4594,1074.0029 388.9594,1074.0029 Q389.6625,1074.0029 390.3031,1074.1592 Q390.9594,1074.3154 391.5219,1074.6123 L391.5219,1077.331 Q390.8969,1076.7529 390.3031,1076.4873 Q389.7094,1076.206 389.0844,1076.206 Q387.7406,1076.206 387.0531,1077.2842 Q386.3656,1078.3467 386.3656,1080.4404 Q386.3656,1082.5342 387.0531,1083.6123 Q387.7406,1084.6748 389.0844,1084.6748 Q389.7094,1084.6748 390.3031,1084.4092 Q390.8969,1084.1279 391.5219,1083.5498 L391.5219,1086.2685 Z " fill="#000000"/><text fill="#000000" font-family="Noto Sans CJK JP" font-size="12" font-style="italic" lengthAdjust="spacing" textLength="83.4966" x="406.2316" y="1075.724">&#171;&#12488;&#12522;&#12460;&#12540;&#31649;&#29702;&#187;</text><text fill="#000000" font-family="'Noto Sans CJK JP'" font-size="14" lengthAdjust="spacing" textLength="65.8137" x="415.073" y="1095.4199">triggers.ts</text><line style="stroke:#181818;stroke-width:0.5;" x1="349" x2="515.2814" y1="1104.4519" y2="1104.4519"/><line style="stroke:#181818;stroke-width:0.5;" x1="349" x2="515.2814" y1="1112.4519" y2="1112.4519"/><text fill="#000000" font-family="'Noto Sans CJK JP'" font-size="14" lengthAdjust="spacing" textLength="120.7355" x="354" y="1132.6919">scheduleResume()</text><text fill="#000000" font-family="'Noto Sans CJK JP'" font-size="14" lengthAdjust="spacing" textLength="156.2814" x="354" y="1152.9638">deleteResumeTriggers()</text></g><!--class config--><g class="entity" data-qualified-name="src..config" data-source-line="32" id="ent0006"><rect fill="#F1F1F1" height="104.1919" rx="2.5" ry="2.5" style="stroke:#181818;stroke-width:0.5;" width="166.7274" x="21.5" y="1056.8039"/><ellipse cx="72.5228" cy="1080.6279" fill="#ADD1B2" rx="11" ry="11" style="stroke:#181818;stroke-width:1;"/><path d="M75.4916,1086.2685 Q74.9134,1086.5654 74.2728,1086.706 Q73.6322,1086.8623 72.9291,1086.8623 Q70.4291,1086.8623 69.1009,1085.2217 Q67.7884,1083.5654 67.7884,1080.4404 Q67.7884,1077.3154 69.1009,1075.6592 Q70.4291,1074.0029 72.9291,1074.0029 Q73.6322,1074.0029 74.2728,1074.1592 Q74.9291,1074.3154 75.4916,1074.6123 L75.4916,1077.331 Q74.8666,1076.7529 74.2728,1076.4873 Q73.6791,1076.206 73.0541,1076.206 Q71.7103,1076.206 71.0228,1077.2842 Q70.3353,1078.3467 70.3353,1080.4404 Q70.3353,1082.5342 71.0228,1083.6123 Q71.7103,1084.6748 73.0541,1084.6748 Q73.6791,1084.6748 74.2728,1084.4092 Q74.8666,1084.1279 75.4916,1083.5498 L75.4916,1086.2685 Z " fill="#000000"/><text fill="#000000" font-family="Noto Sans CJK JP" font-size="12" font-style="italic" lengthAdjust="spacing" textLength="35.4963" x="103.3656" y="1075.724">&#171;&#35373;&#23450;&#187;</text><text fill="#000000" font-family="'Noto Sans CJK JP'" font-size="14" lengthAdjust="spacing" textLength="56.1818" x="93.0228" y="1095.4199">config.ts</text><line style="stroke:#181818;stroke-width:0.5;" x1="22.5" x2="187.2274" y1="1104.4519" y2="1104.4519"/><text fill="#000000" font-family="'Noto Sans CJK JP'" font-size="14" lengthAdjust="spacing" textLength="154.7274" x="27.5" y="1124.6919">CONFIG: TransferConfig</text><text fill="#000000" font-family="'Noto Sans CJK JP'" font-size="14" lengthAdjust="spacing" textLength="151.8294" x="27.5" y="1144.9638">OWNED_ITEMS_QUERY</text><line style="stroke:#181818;stroke-width:0.5;" x1="22.5" x2="187.2274" y1="1152.9958" y2="1152.9958"/></g><!--class types--><g class="entity" data-qualified-name="src..types" data-source-line="36" id="ent0007"><rect fill="#F1F1F1" height="104.1919" rx="2.5" ry="2.5" style="stroke:#181818;stroke-width:0.5;" width="210.6452" x="237.5" y="1250.8039"/><ellipse cx="266.4662" cy="1274.6279" fill="#ADD1B2" rx="11" ry="11" style="stroke:#181818;stroke-width:1;"/><path d="M269.435,1280.2685 Q268.8568,1280.5654 268.2162,1280.706 Q267.5756,1280.8623 266.8725,1280.8623 Q264.3725,1280.8623 263.0443,1279.2217 Q261.7318,1277.5654 261.7318,1274.4404 Q261.7318,1271.3154 263.0443,1269.6592 Q264.3725,1268.0029 266.8725,1268.0029 Q267.5756,1268.0029 268.2162,1268.1592 Q268.8725,1268.3154 269.435,1268.6123 L269.435,1271.331 Q268.81,1270.7529 268.2162,1270.4873 Q267.6225,1270.206 266.9975,1270.206 Q265.6537,1270.206 264.9662,1271.2842 Q264.2787,1272.3467 264.2787,1274.4404 Q264.2787,1276.5342 264.9662,1277.6123 Q265.6537,1278.6748 266.9975,1278.6748 Q267.6225,1278.6748 268.2162,1278.4092 Q268.81,1278.1279 269.435,1277.5498 L269.435,1280.2685 Z " fill="#000000"/><text fill="#000000" font-family="Noto Sans CJK JP" font-size="12" font-style="italic" lengthAdjust="spacing" textLength="151.6092" x="281.5698" y="1269.724">&#171;&#22411;&#23450;&#32681;(&#12467;&#12531;&#12497;&#12452;&#12523;&#26178;&#12398;&#12415;)&#187;</text><text fill="#000000" font-family="'Noto Sans CJK JP'" font-size="14" lengthAdjust="spacing" textLength="63.8537" x="325.4475" y="1289.4199">types.d.ts</text><line style="stroke:#181818;stroke-width:0.5;" x1="238.5" x2="447.1452" y1="1298.4519" y2="1298.4519"/><text fill="#000000" font-family="'Noto Sans CJK JP'" font-size="14" lengthAdjust="spacing" textLength="197.6092" x="243.5" y="1318.6919">TransferConfig / TransferState</text><text fill="#000000" font-family="'Noto Sans CJK JP'" font-size="14" lengthAdjust="spacing" textLength="198.6452" x="243.5" y="1338.9638">TransferStats / FolderProgress</text><line style="stroke:#181818;stroke-width:0.5;" x1="238.5" x2="447.1452" y1="1346.9958" y2="1346.9958"/></g><!--class webapp--><g class="entity" data-qualified-name="src..webapp" data-source-line="40" id="ent0008"><rect fill="#F1F1F1" height="144.7357" rx="2.5" ry="2.5" style="stroke:#181818;stroke-width:0.5;" width="302.5129" x="281.5" y="270.8039"/><ellipse cx="385.6861" cy="294.6279" fill="#ADD1B2" rx="11" ry="11" style="stroke:#181818;stroke-width:1;"/><path d="M388.6549,300.2685 Q388.0767,300.5654 387.4361,300.706 Q386.7955,300.8623 386.0924,300.8623 Q383.5924,300.8623 382.2642,299.2217 Q380.9517,297.5654 380.9517,294.4404 Q380.9517,291.3154 382.2642,289.6592 Q383.5924,288.0029 386.0924,288.0029 Q386.7955,288.0029 387.4361,288.1592 Q388.0924,288.3154 388.6549,288.6123 L388.6549,291.331 Q388.0299,290.7529 387.4361,290.4873 Q386.8424,290.206 386.2174,290.206 Q384.8736,290.206 384.1861,291.2842 Q383.4986,292.3467 383.4986,294.4404 Q383.4986,296.5342 384.1861,297.6123 Q384.8736,298.6748 386.2174,298.6748 Q386.8424,298.6748 387.4361,298.4092 Q388.0299,298.1279 388.6549,297.5498 L388.6549,300.2685 Z " fill="#000000"/><text fill="#000000" font-family="Noto Sans CJK JP" font-size="12" font-style="italic" lengthAdjust="spacing" textLength="89.6406" x="404.1861" y="289.724">&#171;Web &#12450;&#12503;&#12522; UI&#187;</text><text fill="#000000" font-family="'Noto Sans CJK JP'" font-size="14" lengthAdjust="spacing" textLength="68.5997" x="414.7066" y="309.4199">webapp.ts</text><line style="stroke:#181818;stroke-width:0.5;" x1="282.5" x2="583.0129" y1="318.4519" y2="318.4519"/><line style="stroke:#181818;stroke-width:0.5;" x1="282.5" x2="583.0129" y1="326.4519" y2="326.4519"/><g data-visibility-modifier="PUBLIC_METHOD"><ellipse cx="292.5" cy="342.0879" fill="#84BE84" rx="3" ry="3" style="stroke:#038048;stroke-width:1;"/></g><text fill="#000000" font-family="'Noto Sans CJK JP'" font-size="14" lengthAdjust="spacing" textLength="49.3078" x="301.5" y="346.6919">doGet()</text><text fill="#000000" font-family="'Noto Sans CJK JP'" font-size="14" lengthAdjust="spacing" textLength="127.4835" x="301.5" y="366.9638">webAppGetStatus()</text><text fill="#000000" font-family="'Noto Sans CJK JP'" font-size="14" lengthAdjust="spacing" textLength="276.5129" x="301.5" y="387.2357">webAppStartTree() / webAppStartSearch()</text><text fill="#000000" font-family="'Noto Sans CJK JP'" font-size="14" lengthAdjust="spacing" textLength="254.8129" x="301.5" y="407.5076">webAppStop() / webAppCountOwned()</text></g><!--class html--><g class="entity" data-qualified-name="src..html" data-source-line="46" id="ent0009"><rect fill="#F1F1F1" height="104.1919" rx="2.5" ry="2.5" style="stroke:#181818;stroke-width:0.5;" width="196.8132" x="334.5" y="86.8039"/><ellipse cx="393.4538" cy="110.6279" fill="#ADD1B2" rx="11" ry="11" style="stroke:#181818;stroke-width:1;"/><path d="M396.4225,116.2685 Q395.8444,116.5654 395.2038,116.706 Q394.5631,116.8623 393.86,116.8623 Q391.36,116.8623 390.0319,115.2217 Q388.7194,113.5654 388.7194,110.4404 Q388.7194,107.3154 390.0319,105.6592 Q391.36,104.0029 393.86,104.0029 Q394.5631,104.0029 395.2038,104.1592 Q395.86,104.3154 396.4225,104.6123 L396.4225,107.331 Q395.7975,106.7529 395.2038,106.4873 Q394.61,106.206 393.985,106.206 Q392.6413,106.206 391.9538,107.2842 Q391.2663,108.3467 391.2663,110.4404 Q391.2663,112.5342 391.9538,113.6123 Q392.6413,114.6748 393.985,114.6748 Q394.61,114.6748 395.2038,114.4092 Q395.7975,114.1279 396.4225,113.5498 L396.4225,116.2685 Z " fill="#000000"/><text fill="#000000" font-family="Noto Sans CJK JP" font-size="12" font-style="italic" lengthAdjust="spacing" textLength="62.3525" x="417.9804" y="105.724">&#171;UI &#12506;&#12540;&#12472;&#187;</text><text fill="#000000" font-family="'Noto Sans CJK JP'" font-size="14" lengthAdjust="spacing" textLength="70.4057" x="413.9538" y="125.4199">index.html</text><line style="stroke:#181818;stroke-width:0.5;" x1="335.5" x2="530.3132" y1="134.4519" y2="134.4519"/><text fill="#000000" font-family="'Noto Sans CJK JP'" font-size="14" lengthAdjust="spacing" textLength="137.7594" x="340.5" y="154.6919">&#12508;&#12479;&#12531;&#25805;&#20316; / &#36914;&#25431;&#34920;&#31034;</text><text fill="#000000" font-family="'Noto Sans CJK JP'" font-size="14" lengthAdjust="spacing" textLength="184.8132" x="340.5" y="174.9638">google.script.run &#12391;&#21628;&#12403;&#20986;&#12375;</text><line style="stroke:#181818;stroke-width:0.5;" x1="335.5" x2="530.3132" y1="182.9958" y2="182.9958"/></g><!--class manifest--><g class="entity" data-qualified-name="src..manifest" data-source-line="50" id="ent0010"><rect fill="#F1F1F1" height="104.1919" rx="2.5" ry="2.5" style="stroke:#181818;stroke-width:0.5;" width="187.8113" x="58" y="291.3039"/><ellipse cx="98.0955" cy="315.1279" fill="#ADD1B2" rx="11" ry="11" style="stroke:#181818;stroke-width:1;"/><path d="M101.0642,320.7685 Q100.4861,321.0654 99.8455,321.206 Q99.2048,321.3623 98.5017,321.3623 Q96.0017,321.3623 94.6736,319.7217 Q93.3611,318.0654 93.3611,314.9404 Q93.3611,311.8154 94.6736,310.1592 Q96.0017,308.5029 98.5017,308.5029 Q99.2048,308.5029 99.8455,308.6592 Q100.5017,308.8154 101.0642,309.1123 L101.0642,311.831 Q100.4392,311.2529 99.8455,310.9873 Q99.2517,310.706 98.6267,310.706 Q97.283,310.706 96.5955,311.7842 Q95.908,312.8467 95.908,314.9404 Q95.908,317.0342 96.5955,318.1123 Q97.283,319.1748 98.6267,319.1748 Q99.2517,319.1748 99.8455,318.9092 Q100.4392,318.6279 101.0642,318.0498 L101.0642,320.7685 Z " fill="#000000"/><text fill="#000000" font-family="Noto Sans CJK JP" font-size="12" font-style="italic" lengthAdjust="spacing" textLength="83.4966" x="125.9457" y="310.224">&#171;&#12510;&#12491;&#12501;&#12455;&#12473;&#12488;&#187;</text><text fill="#000000" font-family="'Noto Sans CJK JP'" font-size="14" lengthAdjust="spacing" textLength="100.0436" x="117.6722" y="329.9199">appsscript.json</text><line style="stroke:#181818;stroke-width:0.5;" x1="59" x2="244.8113" y1="338.9519" y2="338.9519"/><text fill="#000000" font-family="'Noto Sans CJK JP'" font-size="14" lengthAdjust="spacing" textLength="175.8113" x="64" y="359.1919">timeZone / runtimeVersion</text><text fill="#000000" font-family="'Noto Sans CJK JP'" font-size="14" lengthAdjust="spacing" textLength="150.2334" x="64" y="379.4638">oauthScopes / webapp</text><line style="stroke:#181818;stroke-width:0.5;" x1="59" x2="244.8113" y1="387.4958" y2="387.4958"/></g><!--link main to transfer--><g class="link" data-entity-1="ent0002" data-entity-2="ent0003" data-link-type="dependency" data-source-line="56" id="lnk11"><path codeLine="56" d="M263.71,681.1339 C278.04,706.5839 291.2262,730.0174 305.8762,756.0274" fill="none" id="main-to-transfer" style="stroke:#181818;stroke-width:1;"/><polygon fill="#181818" points="308.33,760.3839,307.3984,750.5792,305.8762,756.0274,300.428,754.5052,308.33,760.3839" style="stroke:#181818;stroke-width:1;stroke-linejoin:miter;stroke-miterlimit:10;"/><text fill="#000000" font-family="'Noto Sans CJK JP'" font-size="13" lengthAdjust="spacing" textLength="52.0001" x="290" y="726.8839">&#21628;&#12403;&#20986;&#12375;</text></g><!--link transfer to state--><g class="link" data-entity-1="ent0003" data-entity-2="ent0004" data-link-type="dependency" data-source-line="57" id="lnk12"><path codeLine="57" d="M428.14,967.1539 C441.83,985.0439 457.28,1002.4839 474,1016.8039 C496.64,1036.2039 509.11,1030.3839 534,1046.8039 C539.47,1050.4139 541.013,1051.3535 546.433,1055.4835" fill="none" id="transfer-to-state" style="stroke:#181818;stroke-width:1;"/><polygon fill="#181818" points="550.41,1058.5139,545.6758,1049.8775,546.433,1055.4835,540.8271,1056.2407,550.41,1058.5139" style="stroke:#181818;stroke-width:1;stroke-linejoin:miter;stroke-miterlimit:10;"/><text fill="#000000" font-family="'Noto Sans CJK JP'" font-size="13" lengthAdjust="spacing" textLength="62.9201" x="475" y="1012.8839">&#20445;&#23384; / &#24489;&#20803;</text></g><!--link transfer to triggers--><g class="link" data-entity-1="ent0003" data-entity-2="ent0005" data-link-type="dependency" data-source-line="58" id="lnk13"><path codeLine="58" d="M358.99,967.1539 C360.2,984.0239 362.92,1001.1139 368,1016.8039 C372.46,1030.5839 377.0257,1039.9442 385.1757,1052.1642" fill="none" id="transfer-to-triggers" style="stroke:#181818;stroke-width:1;"/><polygon fill="#181818" points="387.95,1056.3239,386.2841,1046.617,385.1757,1052.1642,379.6285,1051.0558,387.95,1056.3239" style="stroke:#181818;stroke-width:1;stroke-linejoin:miter;stroke-miterlimit:10;"/><text fill="#000000" font-family="'Noto Sans CJK JP'" font-size="13" lengthAdjust="spacing" textLength="62.9201" x="369" y="1012.8839">&#20104;&#32004; / &#21066;&#38500;</text></g><!--link transfer to config--><g class="link" data-entity-1="ent0003" data-entity-2="ent0006" data-link-type="dependency" data-source-line="59" id="lnk14"><path codeLine="59" d="M266.24,936.2639 C242.36,954.9739 217.55,975.8139 196,996.8039 C177.26,1015.0539 161.6876,1033.0969 146.1776,1052.6469" fill="none" id="transfer-to-config" style="stroke:#181818;stroke-width:1;"/><polygon fill="#181818" points="143.07,1056.5639,151.7972,1051.9993,146.1776,1052.6469,145.53,1047.0272,143.07,1056.5639" style="stroke:#181818;stroke-width:1;stroke-linejoin:miter;stroke-miterlimit:10;"/><text fill="#000000" font-family="'Noto Sans CJK JP'" font-size="13" lengthAdjust="spacing" textLength="52.0001" x="197" y="1012.8839">&#35373;&#23450;&#21442;&#29031;</text></g><!--link main to config--><g class="link" data-entity-1="ent0002" data-entity-2="ent0006" data-link-type="dependency" data-source-line="60" id="lnk15"><path codeLine="60" d="M193.12,680.8039 C170.56,790.1239 134.6207,964.2671 116.5807,1051.6671" fill="none" id="main-to-config" style="stroke:#181818;stroke-width:1;"/><polygon fill="#181818" points="115.57,1056.5639,121.3067,1048.5583,116.5807,1051.6671,113.4719,1046.9411,115.57,1056.5639" style="stroke:#181818;stroke-width:1;stroke-linejoin:miter;stroke-miterlimit:10;"/><text fill="#000000" font-family="'Noto Sans CJK JP'" font-size="13" lengthAdjust="spacing" textLength="52.0001" x="177" y="869.8839">&#35373;&#23450;&#21442;&#29031;</text></g><!--link html to webapp--><g class="link" data-entity-1="ent0009" data-entity-2="ent0008" data-link-type="dependency" data-source-line="61" id="lnk16"><path codeLine="61" d="M433,190.9039 C433,215.0439 433,239.2639 433,265.5739" fill="none" id="html-to-webapp" style="stroke:#181818;stroke-width:1;stroke-dasharray:7,7;"/><polygon fill="#181818" points="433,270.5739,437,261.5739,433,265.5739,429,261.5739,433,270.5739" style="stroke:#181818;stroke-width:1;stroke-linejoin:miter;stroke-miterlimit:10;"/><text fill="#000000" font-family="'Noto Sans CJK JP'" font-size="13" lengthAdjust="spacing" textLength="103.7011" x="434" y="236.8839">google.script.run</text></g><!--link webapp to transfer--><g class="link" data-entity-1="ent0008" data-entity-2="ent0003" data-link-type="dependency" data-source-line="62" id="lnk17"><path codeLine="62" d="M423.75,415.8539 C412.2,505.3139 392.9707,654.0651 379.8207,755.8351" fill="none" id="webapp-to-transfer" style="stroke:#181818;stroke-width:1;"/><polygon fill="#181818" points="379.18,760.7939,384.3003,752.3807,379.8207,755.8351,376.3663,751.3555,379.18,760.7939" style="stroke:#181818;stroke-width:1;stroke-linejoin:miter;stroke-miterlimit:10;"/><text fill="#000000" font-family="'Noto Sans CJK JP'" font-size="13" lengthAdjust="spacing" textLength="62.9201" x="413" y="594.3839">&#38283;&#22987; / &#20572;&#27490;</text></g><!--link webapp to state--><g class="link" data-entity-1="ent0008" data-entity-2="ent0004" data-link-type="dependency" data-source-line="63" id="lnk18"><path codeLine="63" d="M459.29,416.1639 C467.87,441.1639 476.99,469.5239 484,495.8039 C537.07,694.6939 577.7748,930.5375 595.6448,1041.4675" fill="none" id="webapp-to-state" style="stroke:#181818;stroke-width:1;"/><polygon fill="#181818" points="596.44,1046.4039,598.9577,1036.8823,595.6448,1041.4675,591.0595,1038.1546,596.44,1046.4039" style="stroke:#181818;stroke-width:1;stroke-linejoin:miter;stroke-miterlimit:10;"/><text fill="#000000" font-family="'Noto Sans CJK JP'" font-size="13" lengthAdjust="spacing" textLength="91.0001" x="538" y="726.8839">&#36914;&#25431;&#12398;&#35501;&#12415;&#21462;&#12426;</text></g><!--link webapp to main--><g class="link" data-entity-1="ent0008" data-entity-2="ent0002" data-link-type="dependency" data-source-line="64" id="lnk19"><path codeLine="64" d="M357.61,415.9939 C347.82,425.8539 338.06,435.9639 329,445.8039 C314.53,461.5139 302.837,474.8663 288.717,491.6663" fill="none" id="webapp-to-main" style="stroke:#181818;stroke-width:1;"/><polygon fill="#181818" points="285.5,495.4939,294.3528,491.1778,288.717,491.6663,288.2286,486.0305,285.5,495.4939" style="stroke:#181818;stroke-width:1;stroke-linejoin:miter;stroke-miterlimit:10;"/><text fill="#000000" font-family="'Noto Sans CJK JP'" font-size="13" lengthAdjust="spacing" textLength="65.0001" x="330" y="461.8839">&#20214;&#25968;&#12398;&#27010;&#31639;</text></g><!--link state to types--><g class="link" data-entity-1="ent0004" data-entity-2="ent0007" data-link-type="dependency" data-source-line="65" id="lnk20"><path codeLine="65" d="M550.25,1157.9839 C544.81,1162.3939 539.34,1166.7239 534,1170.8039 C497.88,1198.3739 460.5915,1224.3473 425.5515,1247.8673" fill="none" id="state-to-types" style="stroke:#181818;stroke-width:1;stroke-dasharray:7,7;"/><polygon fill="#181818" points="421.4,1250.6539,431.102,1248.9592,425.5515,1247.8673,426.6434,1242.3168,421.4,1250.6539" style="stroke:#181818;stroke-width:1;stroke-linejoin:miter;stroke-miterlimit:10;"/><text fill="#000000" font-family="'Noto Sans CJK JP'" font-size="13" lengthAdjust="spacing" textLength="52.0001" x="494" y="1216.8839">&#22411;&#12434;&#21442;&#29031;</text></g><!--link transfer to types--><g class="link" data-entity-1="ent0003" data-entity-2="ent0007" data-link-type="dependency" data-source-line="66" id="lnk21"><path codeLine="66" d="M305.95,967.1639 C294,992.3839 283.22,1019.9039 277,1046.8039 C264.57,1100.4939 264.26,1117.1839 277,1170.8039 C283.62,1198.6739 294.7253,1222.9923 307.8353,1246.3823" fill="none" id="transfer-to-types" style="stroke:#181818;stroke-width:1;stroke-dasharray:7,7;"/><polygon fill="#181818" points="310.28,1250.7439,309.3689,1240.9373,307.8353,1246.3823,302.3903,1244.8487,310.28,1250.7439" style="stroke:#181818;stroke-width:1;stroke-linejoin:miter;stroke-miterlimit:10;"/><text fill="#000000" font-family="'Noto Sans CJK JP'" font-size="13" lengthAdjust="spacing" textLength="52.0001" x="278" y="1114.8839">&#22411;&#12434;&#21442;&#29031;</text></g><!--link manifest to main--><g class="link" data-entity-1="ent0010" data-entity-2="ent0002" data-link-type="association" data-source-line="67" id="lnk22"><path codeLine="67" d="M162.18,395.3039 C166.72,417.0939 172.32,442.7639 178,465.8039 C180.39,475.4839 183,485.5539 185.68,495.5839" fill="none" id="manifest-main" style="stroke:#181818;stroke-width:1;stroke-dasharray:7,7;"/><text fill="#000000" font-family="'Noto Sans CJK JP'" font-size="13" lengthAdjust="spacing" textLength="91.0001" x="179" y="461.8839">&#23455;&#34892;&#29872;&#22659;&#12434;&#23450;&#32681;</text></g><?plantuml-src TLHjRnD74FxkNx7o9r25yzr2aMYQ88EQK9mGjL_GShS-NpdVdcxNJL65LDyrROX1l5Ga9GefYI8Se7QZKaLf2icFMPyl-HUTtNjtg6HPDxFFpZppxCnmari42U-Zy3y8xn_XlPSV_WFH6OnwtT7A4z7P6nw_3Fg_dQtj34-y4hjhsWvsSGlff87R5f-XDf_5BOBAivHJLCSsGrFNhgDhDyevC6jYdIwPje4Qs6AaL7AmTXSRS8kvsaGP_L12IBCmOwZSmgPTuQoCC4Fo6rs-BBmzuGEp5U6_LVnU2cytyanEghi8VSOuTlcy2_aRnBrmyHFEAvOrjsGJFJbq2MktoFahr3ddQzAbEiUypHAFHjisLz5cJ8j4xljP4JmEa1IIs53CyB0_UdKe_BxmuDyNtfzf3GMsYoPlrk4U9yQzEAlRjZ_7N6jcvhnBo9YhJh2hDVFE9BcawxAcwTGQUHqQfcsovbZ95ZLkkDG0YSxL1YmvIGfJ1bGLhXwCbhkoRVOFmuEDuE5QLXN-ZaZnI1eQwtbRiu1nvYYeQ1e6KCvKZ6pP4b4pU7z0FuI3xV39pra-hKdqjaLkgkUDa-Z48ZnspSTXnjDfr6wOHf8iiY3LwLu_66oauQVcPcTgLwie4MnAuTJHtEBiz1UtQ_FJNzPlVxKmVVFhiNBkEOHLzBGQQKByOAiBySFZDnVK-C7lgMhlTwCN7WWgEYSNq-J5f6WYTIZz2X3fOO2OePPEtEGnYuoMo1tiE0cXo096Y-GEx8GTuQ-3ncYXbWsPJgyI7aiAy2kE0tPXCY9lFUfa0l83XPmlwiunB7LoiAbqiiRVnxHrydsboLkMeYi_WEn23Gb_G-slmvIey3U5Tm9YZdvzDFou2S7FVlnhz6ZzT7ilt3rI48DImo8LfhccmoimE4XqUi7J3wBpFlZbI7JMYyb16HPZlsNKZjUJRJO8uweVjuJV5VvpuVNa8irj9cwso3VK9a02iaZh5ZIVIMrrId4RvboZiXScuYTGcU-NIchzNReqcQsFAYemJFqI58rY5GrFvBw6OC7ncs3PBuBI4GBSqKhuzqyIzs3rxCLk4HTtVnL5tHyyziBbNaReqyVgHIgLoQIJgkT5BiL7OrMThNM3NbTowMoE-ZjvL59Mz80m4ATl-p0JmUCruQtcWOeSbFNlmUZvljn4hxrmi5wAxajMqS21X5jTuJsBEQSa_XUHldAbakG81h-VRZyCd-q7Exu4gl7z3m00?></g></svg>