<svg xmlns="http://www.w3.org/2000/svg" xmlns:xlink="http://www.w3.org/1999/xlink" contentStyleType="text/css" data-diagram-type="DESCRIPTION" height="553px" preserveAspectRatio="none" style="width:1794px;height:553px;background:#FFFFFF;" version="1.1" viewBox="0 0 1794 553" width="1794px" zoomAndPan="magnify"><?plantuml 1.2026.6?><defs/><g><g class="title" data-source-line="5"><text fill="#000000" font-family="'Noto Sans CJK JP'" font-size="14" font-weight="700" lengthAdjust="spacing" textLength="413.4462" x="687.065" y="26.2399">&#31227;&#34892;&#12473;&#12463;&#12522;&#12503;&#12488;&#12398;&#20840;&#20307;&#12450;&#12540;&#12461;&#12486;&#12463;&#12481;&#12515;&#65288;&#12473;&#12503;&#12524;&#12483;&#12489;&#12471;&#12540;&#12488; UI &#29256;&#65289;</text></g><!--cluster Google ?????????????????--><g class="cluster" data-qualified-name="Google ................." data-source-line="9" id="ent0002"><path d="M1127.5,257.8039 L1415.1448,257.8039 A6,6 0 0 1 1419.1448,261.8039 L1426.1448,284.0758 L1714.5,284.0758 A4,4 0 0 1 1718.5,288.0758 L1718.5,369.8039 A4,4 0 0 1 1714.5,373.8039 L1127.5,373.8039 A4,4 0 0 1 1123.5,369.8039 L1123.5,261.8039 A4,4 0 0 1 1127.5,257.8039" fill="none" style="stroke:#000000;stroke-width:1.5;"/><line style="stroke:#000000;stroke-width:1.5;" x1="1123.5" x2="1426.1448" y1="284.0758" y2="284.0758"/><text fill="#000000" font-family="'Noto Sans CJK JP'" font-size="14" font-weight="700" lengthAdjust="spacing" textLength="289.6448" x="1127.5" y="276.0438">Google &#12473;&#12503;&#12524;&#12483;&#12489;&#12471;&#12540;&#12488;&#65288;&#21807;&#19968;&#12398;&#25805;&#20316;&#30011;&#38754;&#65289;</text></g><!--cluster Google Apps Script????????????? / ?????????--><g class="cluster" data-qualified-name="Google Apps Script............. . ........." data-source-line="15" id="ent0006"><path d="M443.5,47.8039 L891.4161,47.8039 A6,6 0 0 1 895.4161,51.8039 L902.4161,74.0758 L1095.5,74.0758 A4,4 0 0 1 1099.5,78.0758 L1099.5,384.3039 A4,4 0 0 1 1095.5,388.3039 L443.5,388.3039 A4,4 0 0 1 439.5,384.3039 L439.5,51.8039 A4,4 0 0 1 443.5,47.8039" fill="none" style="stroke:#000000;stroke-width:1.5;"/><line style="stroke:#000000;stroke-width:1.5;" x1="439.5" x2="902.4161" y1="74.0758" y2="74.0758"/><text fill="#000000" font-family="'Noto Sans CJK JP'" font-size="14" font-weight="700" lengthAdjust="spacing" textLength="449.9161" x="443.5" y="66.0438">Google Apps Script&#65288;&#12473;&#12503;&#12524;&#12483;&#12489;&#12471;&#12540;&#12488;&#12395;&#32016;&#12389;&#12367; / &#31227;&#34892;&#20803;&#27177;&#38480;&#12391;&#23455;&#34892;&#65289;</text></g><!--entity menu--><g class="entity" data-qualified-name="Google ..................menu" data-source-line="10" id="ent0003"><rect fill="#F1F1F1" height="60.5438" rx="4" ry="4" style="stroke:#181818;stroke-width:0.5;" width="149.1354" x="1554" y="296.8039"/><text fill="#000000" font-family="'Noto Sans CJK JP'" font-size="14" lengthAdjust="spacing" textLength="55.9998" x="1564" y="323.0438">&#12513;&#12491;&#12517;&#12540;</text><text fill="#000000" font-family="'Noto Sans CJK JP'" font-size="14" lengthAdjust="spacing" textLength="129.1354" x="1564" y="343.3157">&#12300;&#128193; &#12489;&#12521;&#12452;&#12502;&#31227;&#34892;&#12301;</text></g><!--entity settings--><g class="entity" data-qualified-name="Google ..................settings" data-source-line="11" id="ent0004"><rect fill="#F1F1F1" height="60.5438" rx="4" ry="4" style="stroke:#181818;stroke-width:0.5;" width="179.2213" x="1340" y="296.8039"/><text fill="#000000" font-family="'Noto Sans CJK JP'" font-size="14" lengthAdjust="spacing" textLength="97.9996" x="1350" y="323.0438">&#12300;&#35373;&#23450;&#12301;&#12471;&#12540;&#12488;</text><text fill="#000000" font-family="'Noto Sans CJK JP'" font-size="14" lengthAdjust="spacing" textLength="159.2213" x="1350" y="343.3157">&#31227;&#34892;&#20803;/&#31227;&#34892;&#20808;ID&#12539;&#21508;&#35373;&#23450;</text></g><!--entity statusSheet--><g class="entity" data-qualified-name="Google ..................statusSheet" data-source-line="12" id="ent0005"><rect fill="#F1F1F1" height="60.5438" rx="4" ry="4" style="stroke:#181818;stroke-width:0.5;" width="165.4874" x="1140" y="296.8039"/><text fill="#000000" font-family="'Noto Sans CJK JP'" font-size="14" lengthAdjust="spacing" textLength="145.4874" x="1150" y="323.0438">&#12300;&#36914;&#25431;&#12301;/&#12300;&#22833;&#25943;&#19968;&#35239;&#12301;</text><text fill="#000000" font-family="'Noto Sans CJK JP'" font-size="14" lengthAdjust="spacing" textLength="41.9998" x="1150" y="343.3157">&#12471;&#12540;&#12488;</text></g><!--entity gas--><g class="entity" data-qualified-name="Google Apps Script............. . ..........gas" data-source-line="16" id="ent0007"><rect fill="#F1F1F1" height="70.5438" rx="4" ry="4" style="stroke:#181818;stroke-width:0.5;" width="147.4635" x="837" y="86.8039"/><rect fill="#F1F1F1" height="10" style="stroke:#181818;stroke-width:0.5;" width="15" x="964.4635" y="91.8039"/><rect fill="#F1F1F1" height="2" style="stroke:#181818;stroke-width:0.5;" width="4" x="962.4635" y="93.8039"/><rect fill="#F1F1F1" height="2" style="stroke:#181818;stroke-width:0.5;" width="4" x="962.4635" y="97.8039"/><text fill="#000000" font-family="'Noto Sans CJK JP'" font-size="14" lengthAdjust="spacing" textLength="47.5298" x="852" y="123.0438">main.js</text><text fill="#000000" font-family="'Noto Sans CJK JP'" font-size="14" lengthAdjust="spacing" textLength="107.4635" x="852" y="143.3157">(&#31227;&#34892;&#12473;&#12463;&#12522;&#12503;&#12488;)</text></g><!--entity props--><g class="entity" data-qualified-name="Google Apps Script............. . ..........props" data-source-line="17" id="ent0008"><path d="M456,292.3039 C456,282.3039 526.7317,282.3039 526.7317,282.3039 C526.7317,282.3039 597.4635,282.3039 597.4635,292.3039 L597.4635,362.1196 C597.4635,372.1196 526.7317,372.1196 526.7317,372.1196 C526.7317,372.1196 456,372.1196 456,362.1196 L456,292.3039" fill="#F1F1F1" style="stroke:#181818;stroke-width:0.5;"/><path d="M456,292.3039 C456,302.3039 526.7317,302.3039 526.7317,302.3039 C526.7317,302.3039 597.4635,302.3039 597.4635,292.3039" fill="none" style="stroke:#181818;stroke-width:0.5;"/><text fill="#000000" font-family="'Noto Sans CJK JP'" font-size="14" lengthAdjust="spacing" textLength="69.9997" x="466" y="322.5438">&#12473;&#12463;&#12522;&#12503;&#12488;</text><text fill="#000000" font-family="'Noto Sans CJK JP'" font-size="14" lengthAdjust="spacing" textLength="69.9997" x="466" y="342.8157">&#12503;&#12525;&#12497;&#12486;&#12451;</text><text fill="#000000" font-family="'Noto Sans CJK JP'" font-size="14" lengthAdjust="spacing" textLength="121.4635" x="466" y="363.0876">(&#36914;&#25431;&#29366;&#24907;&#12398;&#20445;&#23384;&#20808;)</text></g><!--entity trigger--><g class="entity" data-qualified-name="Google Apps Script............. . ..........trigger" data-source-line="18" id="ent0009"><rect fill="#F1F1F1" height="70.5438" rx="4" ry="4" style="stroke:#181818;stroke-width:0.5;" width="95.9998" x="769.5" y="291.8039"/><rect fill="#F1F1F1" height="10" style="stroke:#181818;stroke-width:0.5;" width="15" x="845.4998" y="296.8039"/><rect fill="#F1F1F1" height="2" style="stroke:#181818;stroke-width:0.5;" width="4" x="843.4998" y="298.8039"/><rect fill="#F1F1F1" height="2" style="stroke:#181818;stroke-width:0.5;" width="4" x="843.4998" y="302.8039"/><text fill="#000000" font-family="'Noto Sans CJK JP'" font-size="14" lengthAdjust="spacing" textLength="55.9998" x="784.5" y="328.0438">&#26178;&#38291;&#20027;&#23566;</text><text fill="#000000" font-family="'Noto Sans CJK JP'" font-size="14" lengthAdjust="spacing" textLength="55.9998" x="784.5" y="348.3157">&#12488;&#12522;&#12460;&#12540;</text></g><!--entity user--><g class="entity" data-qualified-name="user" data-source-line="7" id="ent0001"><ellipse cx="1610.3398" cy="80.3039" fill="#F1F1F1" rx="8" ry="8" style="stroke:#181818;stroke-width:0.5;"/><path d="M1610.3398,88.3039 L1610.3398,115.3039 M1597.3398,96.3039 L1623.3398,96.3039 M1610.3398,115.3039 L1597.3398,130.3039 M1610.3398,115.3039 L1623.3398,130.3039" fill="none" style="stroke:#181818;stroke-width:0.5;"/><text fill="#000000" font-family="'Noto Sans CJK JP'" font-size="14" lengthAdjust="spacing" textLength="97.9996" x="1560.5" y="148.0438">&#31227;&#34892;&#20803;&#12518;&#12540;&#12470;&#12540;</text><text fill="#000000" font-family="'Noto Sans CJK JP'" font-size="14" lengthAdjust="spacing" textLength="99.6796" x="1560.5" y="168.3157">(@google.com)</text></g><!--entity api--><g class="entity" data-qualified-name="api" data-source-line="21" id="ent0010"><path d="M238.4781,301.1057 C241.7253,294.9099 246.8154,293.7549 251.5946,299.4101 C254.4177,292.5392 258.723,292.1465 263.7,297.2289 C266.387,291.1056 271.8411,291.3595 275.2387,296.5011 C278.05,290.5147 283.9757,288.6479 288.3671,294.791 C290.0746,288.7284 295.7774,287.8018 299.7884,292.2998 C305.612,285.9759 309.2348,288.3451 312.835,294.605 C316.2237,290.4713 321.0757,290.7021 323.3048,295.9053 C327.1745,290.4269 332.8307,290.0145 335.8309,296.7938 C340.7426,291.7942 345.7582,294.0947 347.4458,300.174 C351.8602,294.0479 356.7245,296.1781 359.6231,301.7516 C366.6349,302.8707 368.2016,309.328 364.2086,314.428 C371.7932,316.969 372.3441,321.7167 367.8533,327.5992 C372.8751,333.5433 371.008,338.7353 363.9831,341.2687 C368.9321,347.6235 368.3531,353.4783 359.5194,355.5148 C356.8151,360.1023 351.464,361.4559 348.6514,355.6277 C346.0085,362.4282 341.2524,363.1396 335.8744,358.7508 C332.8457,364.7757 329.2941,364.782 325.2181,359.7612 C321.7847,365.2462 316.1925,365.6354 312.848,359.6652 C309.7652,367.4562 304.2145,368.2126 298.8936,361.8757 C294.7864,366.3054 289.6941,366.6094 286.8661,360.4261 C283.6196,365.335 278.2813,364.6724 276.0031,359.3936 C271.2836,365.2545 266.8166,362.8559 264.0057,357.3748 C259.5725,362.9138 254.1256,362.904 251.2818,355.778 C247.4658,361.6547 242.4902,361.1829 238.4512,356.0376 C232.4613,352.4766 232.2266,345.5516 238.1197,341.7155 C231.1667,339.2254 230.8099,333.9271 235.4679,329.0132 C230.0384,323.497 231.0058,317.8422 238.4386,315.0656 C231.8324,310.4329 231.1744,305.699 238.4781,301.1057" fill="#F1F1F1" style="stroke:#181818;stroke-width:0.5;"/><text fill="#000000" font-family="'Noto Sans CJK JP'" font-size="14" lengthAdjust="spacing" textLength="76.7757" x="245" y="323.0438">Drive API v3</text><text fill="#000000" font-family="'Noto Sans CJK JP'" font-size="14" lengthAdjust="spacing" textLength="107.4635" x="245" y="343.3157">(&#39640;&#24230;&#12394;&#12469;&#12540;&#12499;&#12473;)</text></g><!--entity my--><g class="entity" data-qualified-name="my" data-source-line="23" id="ent0011"><path d="M453.5,454.3039 L491.5,454.3039 A6,6 0 0 1 495.5,458.3039 L502.5,475.3039 L573.4996,475.3039 A4,4 0 0 1 577.4996,479.3039 L577.4996,528.8477 A4,4 0 0 1 573.4996,532.8477 L453.5,532.8477 A4,4 0 0 1 449.5,528.8477 L449.5,458.3039 A4,4 0 0 1 453.5,454.3039" fill="#F1F1F1" style="stroke:#181818;stroke-width:0.5;"/><line style="stroke:#181818;stroke-width:0.5;" x1="449.5" x2="502.5" y1="475.3039" y2="475.3039"/><text fill="#000000" font-family="'Noto Sans CJK JP'" font-size="14" lengthAdjust="spacing" textLength="83.9996" x="459.5" y="498.5438">&#12510;&#12452;&#12489;&#12521;&#12452;&#12502;</text><text fill="#000000" font-family="'Noto Sans CJK JP'" font-size="14" lengthAdjust="spacing" textLength="97.9996" x="459.5" y="518.8157">&#31227;&#34892;&#20803;&#12501;&#12457;&#12523;&#12480;</text></g><!--entity sd--><g class="entity" data-qualified-name="sd" data-source-line="24" id="ent0012"><path d="M6,468.8039 C6,458.8039 84.4247,458.8039 84.4247,458.8039 C84.4247,458.8039 162.8494,458.8039 162.8494,468.8039 L162.8494,518.3477 C162.8494,528.3477 84.4247,528.3477 84.4247,528.3477 C84.4247,528.3477 6,528.3477 6,518.3477 L6,468.8039" fill="#F1F1F1" style="stroke:#181818;stroke-width:0.5;"/><path d="M6,468.8039 C6,478.8039 84.4247,478.8039 84.4247,478.8039 C84.4247,478.8039 162.8494,478.8039 162.8494,468.8039" fill="none" style="stroke:#181818;stroke-width:0.5;"/><text fill="#000000" font-family="'Noto Sans CJK JP'" font-size="14" lengthAdjust="spacing" textLength="83.9996" x="16" y="499.0438">&#20849;&#26377;&#12489;&#12521;&#12452;&#12502;</text><text fill="#000000" font-family="'Noto Sans CJK JP'" font-size="14" lengthAdjust="spacing" textLength="136.8494" x="16" y="519.3157">(@misugi-corp.co.jp)</text></g><g class="entity" data-qualified-name="GMN24" data-source-line="39" id="ent0025"><path d="M198.5,464.8039 L198.5,489.8039 L163.41,493.8039 L198.5,497.8039 L198.5,523.2759 A4,4 0 0 0 202.5,527.2759 L410.5002,527.2759 A4,4 0 0 0 414.5002,523.2759 L414.5002,470.8039 L404.5002,460.8039 L202.5,460.8039 A4,4 0 0 0 198.5,464.8039" fill="#FEFFDD" style="stroke:#181818;stroke-width:0.5;"/><path d="M404.5002,460.8039 L404.5002,468.8039 A2,2 0 0 0 406.5002,470.8039 L414.5002,470.8039 L404.5002,460.8039" fill="#FEFFDD" style="stroke:#181818;stroke-width:0.5;"/><text fill="#000000" font-family="'Noto Sans CJK JP'" font-size="13" lengthAdjust="spacing" textLength="195.0002" x="204.5" y="480.8839">&#20107;&#21069;&#28310;&#20633;&#12392;&#12375;&#12390;&#31227;&#34892;&#20803;&#12518;&#12540;&#12470;&#12540;&#12434;</text><text fill="#000000" font-family="'Noto Sans CJK JP'" font-size="13" lengthAdjust="spacing" textLength="169.0002" x="204.5" y="499.7079">&#12300;&#12467;&#12531;&#12486;&#12531;&#12484;&#31649;&#29702;&#32773;&#12301;&#20197;&#19978;&#12398;</text><text fill="#000000" font-family="'Noto Sans CJK JP'" font-size="13" lengthAdjust="spacing" textLength="169.0002" x="204.5" y="518.5319">&#12513;&#12531;&#12496;&#12540;&#12392;&#12375;&#12390;&#36861;&#21152;&#12375;&#12390;&#12362;&#12367;</text></g><!--link user to settings--><g class="link" data-entity-1="ent0001" data-entity-2="ent0004" data-link-type="dependency" data-source-line="26" id="lnk13"><path d="M1560.07,170.2639 C1549.39,180.7339 1538.38,191.9539 1528.5,202.8039 C1520.64,211.4439 1482.6646,259.1445 1455.9546,292.8645" fill="none" id="user-to-settings" style="stroke:#181818;stroke-width:1;"/><polygon fill="#181818" points="1452.85,296.7839,1461.5738,292.2127,1455.9546,292.8645,1455.3028,287.2453,1452.85,296.7839" style="stroke:#181818;stroke-width:1;stroke-linejoin:miter;stroke-miterlimit:10;"/><text fill="#000000" font-family="'Noto Sans CJK JP'" font-size="13" lengthAdjust="spacing" textLength="109.5771" x="1529.5" y="228.3839">&#9312; ID &#12392;&#35373;&#23450;&#12434;&#20837;&#21147;</text></g><!--link user to menu--><g class="link" data-entity-1="ent0001" data-entity-2="ent0003" data-link-type="dependency" data-source-line="27" id="lnk14"><path d="M1637.62,173.0339 C1641.71,182.6539 1645.3,192.8439 1647.5,202.8039 C1654.53,234.5739 1648.2486,266.7283 1640.6386,291.8683" fill="none" id="user-to-menu" style="stroke:#181818;stroke-width:1;"/><polygon fill="#181818" points="1639.19,296.6539,1645.6259,289.1988,1640.6386,291.8683,1637.9691,286.881,1639.19,296.6539" style="stroke:#181818;stroke-width:1;stroke-linejoin:miter;stroke-miterlimit:10;"/><text fill="#000000" font-family="'Noto Sans CJK JP'" font-size="13" lengthAdjust="spacing" textLength="119.9121" x="1654.582" y="218.8839">&#9313; &#12513;&#12491;&#12517;&#12540;&#12363;&#12425;&#25805;&#20316;</text><text fill="#000000" font-family="'Noto Sans CJK JP'" font-size="13" lengthAdjust="spacing" textLength="128.0761" x="1650.5" y="237.7079">(&#38283;&#22987;/&#20877;&#38283;/&#20013;&#27490;/&#36914;&#25431;)</text></g><!--link menu to gas--><g class="link" data-entity-1="ent0003" data-entity-2="ent0007" data-link-type="dependency" data-source-line="28" id="lnk15"><path d="M1602.18,296.6439 C1585.25,279.7339 1561.76,259.9339 1536.5,249.8039 C1512.72,240.2639 1444.26,253.5539 1421.5,241.8039 C1401.58,231.5139 1408.91,214.0239 1389.5,202.8039 C1321.81,163.6839 1105.6905,139.9554 989.0505,129.6154" fill="none" id="menu-to-gas" style="stroke:#181818;stroke-width:1;"/><polygon fill="#181818" points="984.07,129.1739,992.6816,133.953,989.0505,129.6154,993.3881,125.9842,984.07,129.1739" style="stroke:#181818;stroke-width:1;stroke-linejoin:miter;stroke-miterlimit:10;"/><text fill="#000000" font-family="'Noto Sans CJK JP'" font-size="13" lengthAdjust="spacing" textLength="65.0001" x="1422.5" y="228.3839">&#38306;&#25968;&#12434;&#23455;&#34892;</text></g><!--link gas to settings--><g class="link" data-entity-1="ent0007" data-entity-2="ent0004" data-link-type="dependency" data-source-line="29" id="lnk16"><path d="M984.33,127.6139 C1057.72,134.6939 1171.33,153.4039 1256.5,202.8039 C1276.9,214.6439 1272.3,229.6139 1292.5,241.8039 C1304.31,248.9339 1310.02,243.9139 1322.5,249.8039 C1348.52,262.0739 1370.9291,277.7012 1390.9591,293.5512" fill="none" id="gas-to-settings" style="stroke:#181818;stroke-width:1;"/><polygon fill="#181818" points="1394.88,296.6539,1390.3045,287.9324,1390.9591,293.5512,1385.3402,294.2058,1394.88,296.6539" style="stroke:#181818;stroke-width:1;stroke-linejoin:miter;stroke-miterlimit:10;"/><text fill="#000000" font-family="'Noto Sans CJK JP'" font-size="13" lengthAdjust="spacing" textLength="91.0001" x="1293.5" y="228.3839">&#35373;&#23450;&#12434;&#35501;&#12415;&#36796;&#12416;</text></g><!--link gas to statusSheet--><g class="link" data-entity-1="ent0007" data-entity-2="ent0005" data-link-type="dependency" data-source-line="30" id="lnk17"><path d="M984.12,156.7239 C1011.03,169.9239 1041.28,185.9639 1067.5,202.8039 C1091.46,218.1839 1145.3713,262.1021 1183.2213,293.4921" fill="none" id="gas-to-statusSheet" style="stroke:#181818;stroke-width:1;"/><polygon fill="#181818" points="1187.07,296.6839,1182.6958,287.8597,1183.2213,293.4921,1177.5889,294.0176,1187.07,296.6839" style="stroke:#181818;stroke-width:1;stroke-linejoin:miter;stroke-miterlimit:10;"/><text fill="#000000" font-family="'Noto Sans CJK JP'" font-size="13" lengthAdjust="spacing" textLength="130.0002" x="1117.5" y="228.3839">&#36914;&#25431;&#12539;&#22833;&#25943;&#12434;&#26360;&#12365;&#20986;&#12377;</text></g><!--link gas to api--><g class="link" data-entity-1="ent0007" data-entity-2="ent0010" data-link-type="dependency" data-source-line="31" id="lnk18"><path d="M837,124.1539 C700.2,127.2239 413.68,141.0439 339.5,202.8039 C313.37,224.5639 304.3942,258.4505 300.9442,286.7905" fill="none" id="gas-to-api" style="stroke:#181818;stroke-width:1;"/><polygon fill="#181818" points="300.34,291.7539,305.3983,283.3032,300.9442,286.7905,297.4569,282.3365,300.34,291.7539" style="stroke:#181818;stroke-width:1;stroke-linejoin:miter;stroke-miterlimit:10;"/><text fill="#000000" font-family="'Noto Sans CJK JP'" font-size="13" lengthAdjust="spacing" textLength="150.2151" x="340.5" y="228.3839">files.list / create / update</text></g><!--link api to my--><g class="link" data-entity-1="ent0010" data-entity-2="ent0011" data-link-type="dependency" data-source-line="32" id="lnk19"><path d="M343.83,362.9939 C378.7,389.6639 422.889,423.4757 458.989,451.0957" fill="none" id="api-to-my" style="stroke:#181818;stroke-width:1;"/><polygon fill="#181818" points="462.96,454.1339,458.2427,445.4882,458.989,451.0957,453.3815,451.8419,462.96,454.1339" style="stroke:#181818;stroke-width:1;stroke-linejoin:miter;stroke-miterlimit:10;"/><text fill="#000000" font-family="'Noto Sans CJK JP'" font-size="13" lengthAdjust="spacing" textLength="155.7662" x="419.5" y="420.3839">&#19968;&#35239;&#21462;&#24471; / removeParents</text></g><!--link api to sd--><g class="link" data-entity-1="ent0010" data-entity-2="ent0012" data-link-type="dependency" data-source-line="33" id="lnk20"><path d="M253.38,362.9939 C216.71,391.1739 169.2441,427.6666 132.7941,455.6866" fill="none" id="api-to-sd" style="stroke:#181818;stroke-width:1;"/><polygon fill="#181818" points="128.83,458.7339,138.4032,456.42,132.7941,455.6866,133.5275,450.0775,128.83,458.7339" style="stroke:#181818;stroke-width:1;stroke-linejoin:miter;stroke-miterlimit:10;"/><text fill="#000000" font-family="'Noto Sans CJK JP'" font-size="13" lengthAdjust="spacing" textLength="159.0682" x="199.5" y="420.3839">&#12501;&#12457;&#12523;&#12480;&#20316;&#25104; / addParents</text></g><!--link gas to props--><g class="link" data-entity-1="ent0007" data-entity-2="ent0008" data-link-type="dependency" data-source-line="34" id="lnk21"><path d="M836.73,127.1939 C733.14,134.3839 552.71,153.7639 512.5,202.8039 C494.64,224.5739 497.1166,251.4784 505.3166,277.2984" fill="none" id="gas-to-props" style="stroke:#181818;stroke-width:1;"/><polygon fill="#181818" points="506.83,282.0639,507.9182,272.2753,505.3166,277.2984,500.2935,274.6968,506.83,282.0639" style="stroke:#181818;stroke-width:1;stroke-linejoin:miter;stroke-miterlimit:10;"/><text fill="#000000" font-family="'Noto Sans CJK JP'" font-size="13" lengthAdjust="spacing" textLength="193.7002" x="513.5" y="228.3839">&#36914;&#25431;&#12434;&#20445;&#23384; (&#20013;&#26029;&#12539;&#20877;&#38283;&#12395;&#20633;&#12360;&#12427;)</text></g><!--link gas to trigger--><g class="link" data-entity-1="ent0007" data-entity-2="ent0009" data-link-type="dependency" data-source-line="35" id="lnk22"><path d="M836.73,134.3339 C795.67,144.6539 747.86,164.5539 722.5,202.8039 C700.38,236.1739 731.5477,269.2911 765.1877,293.7811" fill="none" id="gas-to-trigger" style="stroke:#181818;stroke-width:1;"/><polygon fill="#181818" points="769.23,296.7239,764.3081,288.1931,765.1877,293.7811,759.5997,294.6607,769.23,296.7239" style="stroke:#181818;stroke-width:1;stroke-linejoin:miter;stroke-miterlimit:10;"/><text fill="#000000" font-family="'Noto Sans CJK JP'" font-size="13" lengthAdjust="spacing" textLength="143.0002" x="723.5" y="228.3839">&#26178;&#38291;&#20999;&#12428;&#21069;&#12395;&#20877;&#38283;&#12434;&#20104;&#32004;</text></g><!--link trigger to gas--><g class="link" data-entity-1="ent0009" data-entity-2="ent0007" data-link-type="dependency" data-source-line="36" id="lnk23"><path d="M842.42,291.6739 C852.36,276.8139 863.36,258.9439 871.5,241.8039 C884.41,214.6039 893.4433,186.8263 900.2433,162.7063" fill="none" id="trigger-to-gas" style="stroke:#181818;stroke-width:1;"/><polygon fill="#181818" points="901.6,157.8939,895.308,165.4708,900.2433,162.7063,903.0078,167.6416,901.6,157.8939" style="stroke:#181818;stroke-width:1;stroke-linejoin:miter;stroke-miterlimit:10;"/><text fill="#000000" font-family="'Noto Sans CJK JP'" font-size="13" lengthAdjust="spacing" textLength="171.4832" x="887.5" y="228.3839">resumeMigration &#12391;&#33258;&#21205;&#20877;&#38283;</text></g><?plantuml-src VLH1Szf65BxhL-pGYtsmEVJIwQ6JJZpfE9rcFEFfBPSDMh0Ia3HQuKwcqnaa6HkCgKaSGzmaJUp41jl5IPeq9M37_wMF5N1AVqBUIY1mafQ3M9RlVU-zxtrF_9QcczIY6QAo9CscxIk6Rb-Z6KPYrmpR88jKv-JorU_9rOMOmYFm3PgubRAChAvUDjA6HRwu4dmc47o9giPFcfuYIPhcREAVOPYbCujyfTYQdMQaL-_qTpV0VGlkS_2EmAk1Lm3dHEGRtRCjSFV0EmMt2Tvg0730U_h-j23n4la7U1vuHN3_bZ2lG7wS9xrYuVrfKL5emiRwOc42aKVSGS3r1f_NzQbBASD8fTbimiXCnmZb9CkPfIWczaTJAC9tmT_alp9X4UBUysuhXxNwM-NksSFUlSxWqHwcZf6V5K8ibh2fBYbYuEs2Lm9lFyWCkOr_7syvHB9vX-0-0wywL25N3Yh9C3tx4KDkezzeYfFV41ALS5sFUekFJeNvEV0weh8ImWCwpcmRny4_eHpa_lJBDQICum_nxAM_NSE6-WTrlC8wHtb24flQMRwun9Yj_FAfJD-Q9YUB2KipxVyP3pZ7lTSLSFR1sIHn4fNlDmu7EtXV5oUFyIRI46TZ6ZhJRHBBK4sVlSbnS9zrJ3Z259LDgjIcDoYNFLu4OK_o6yrq9_3JKsGBDUYjl_7p9Hnbz_oHQDv77KD2qp9CVh4GVySTLBUwhOvuyQiaB4Xw5piz3I9iIqkbq4YeKI9jP5KIcxEqPHHeOPuiVoaJ7jyNxGDmCEYlG1Kq-Tim6pKrHKaQQHNt0qtpU-2DiKacvWtUDhY7u1s3bmijSriPjotoB_s7nOkXKvSo6i-cj9c4OPbe-jcRPfYKgueYhKzcPhw9h4A-9l_SUKBcvmWuZQ7ptBiYlo_M7upHqgS1SfTCMXoS4hZ5S2bamzMIg9VYOhMCftYtrVIRU_5Gzcabe91SE3ga6bJt_EqNCbLW14NUVbHNL4t_g0dEUVyThdHk31pRLDA51iU52CoDGVw35ZXbiTO6PoSAGjqHdDJIZC-cDMwZDHCMepR3GzP4NPaY8K7Bjn4PBedOh8ftDOHOB6CiimLgeJzuXEGg8YVdX6huXGhYgQgEmACA0f-D2tRlXZuaKrAkQbDs4CY72oJS7N1mmqhJKVJGSnWVcbCKri3T4CMoX8TnoDWkz5wlA2FiM7EByMo6_Q2bB6fhXeuJh_VNZaHfEmnL5Dr09J1ioIP6Klg5a6wxXFH-knfKqm2d1ix1Pz-qc1dn-7u1znLuh-JUoUTAxsItLrdjv_BuhkbszhkjTTm-YPH6Ga0bCDAGkNz-9jQVX6Tm4BcfC5qbih0F?></g></svg>