<svg xmlns="http://www.w3.org/2000/svg" xmlns:xlink="http://www.w3.org/1999/xlink" contentStyleType="text/css" data-diagram-type="ACTIVITY" height="1537px" preserveAspectRatio="none" style="width:568px;height:1537px;background:#FFFFFF;" version="1.1" viewBox="0 0 568 1537" width="568px" zoomAndPan="magnify"><?plantuml 1.2026.6?><defs/><g><g class="title" data-source-line="4"><text fill="#000000" font-family="'Noto Sans CJK JP'" font-size="14" font-weight="700" lengthAdjust="spacing" textLength="255.457" x="155.6148" y="36.2399">runLoop / processFolder &#12398;&#20966;&#29702;&#12501;&#12525;&#12540;</text></g><ellipse cx="287.1904" cy="66.2719" fill="#222222" rx="10" ry="10" style="stroke:#222222;stroke-width:1;"/><rect fill="#F1F1F1" height="37.3761" rx="12.5" ry="12.5" style="stroke:#181818;stroke-width:0.5;" width="200.0014" x="187.1897" y="96.2719"/><text fill="#000000" font-family="'Noto Sans CJK JP'" font-size="12" lengthAdjust="spacing" textLength="180.0014" x="197.1897" y="120.192">&#12300;&#35373;&#23450;&#12301;&#12471;&#12540;&#12488;&#12434;&#35501;&#12415;&#36796;&#12415;&#12539;&#26908;&#35388;</text><rect fill="#F1F1F1" height="54.7522" rx="12.5" ry="12.5" style="stroke:#181818;stroke-width:0.5;" width="208.1134" x="183.1337" y="153.648"/><text fill="#000000" font-family="'Noto Sans CJK JP'" font-size="12" lengthAdjust="spacing" textLength="72.0005" x="193.1337" y="177.5681">&#31227;&#34892;&#20808;&#12434;&#35299;&#27770;</text><text fill="#000000" font-family="'Noto Sans CJK JP'" font-size="12" lengthAdjust="spacing" textLength="188.1134" x="193.1337" y="194.9443">(&#20849;&#26377;&#12489;&#12521;&#12452;&#12502;&#20869;&#12391;&#12354;&#12427;&#12371;&#12392;&#12434;&#30906;&#35469;)</text><rect fill="#F1F1F1" height="37.3761" rx="12.5" ry="12.5" style="stroke:#181818;stroke-width:0.5;" width="267.5139" x="153.4334" y="228.4003"/><text fill="#000000" font-family="'Noto Sans CJK JP'" font-size="12" lengthAdjust="spacing" textLength="247.5139" x="163.4334" y="252.3204">&#12461;&#12517;&#12540;&#12395; (&#31227;&#34892;&#20803;&#12523;&#12540;&#12488;, &#31227;&#34892;&#20808;&#12523;&#12540;&#12488;) &#12434;&#25237;&#20837;</text><rect fill="#F1F1F1" height="37.3761" rx="12.5" ry="12.5" style="stroke:#181818;stroke-width:0.5;" width="167.2531" x="203.5638" y="394.0002"/><text fill="#000000" font-family="'Noto Sans CJK JP'" font-size="12" lengthAdjust="spacing" textLength="147.2531" x="213.5638" y="417.9203">&#29366;&#24907;&#12434; SUSPENDED &#12391;&#20445;&#23384;</text><rect fill="#F1F1F1" height="37.3761" rx="12.5" ry="12.5" style="stroke:#181818;stroke-width:0.5;" width="177.3212" x="198.5298" y="451.3764"/><text fill="#000000" font-family="'Noto Sans CJK JP'" font-size="12" lengthAdjust="spacing" textLength="157.3212" x="208.5298" y="475.2965">60&#31186;&#24460;&#12398;&#20877;&#38283;&#12488;&#12522;&#12460;&#12540;&#12434;&#20104;&#32004;</text><ellipse cx="287.1904" cy="519.7525" fill="none" rx="11" ry="11" style="stroke:#222222;stroke-width:1;"/><ellipse cx="287.1904" cy="519.7525" fill="#222222" rx="6" ry="6" style="stroke:#222222;stroke-width:1;"/><polygon fill="#F1F1F1" points="246.0837,344.0363,328.2971,344.0363,340.2971,356.0363,328.2971,368.0363,246.0837,368.0363,234.0837,356.0363,246.0837,344.0363" style="stroke:#181818;stroke-width:0.5;stroke-linejoin:miter;stroke-miterlimit:10;"/><text fill="#000000" font-family="'Noto Sans CJK JP'" font-size="11" lengthAdjust="spacing" textLength="21.9998" x="291.1904" y="380.7962">&#12399;&#12356;</text><text fill="#000000" font-family="'Noto Sans CJK JP'" font-size="11" lengthAdjust="spacing" textLength="82.2134" x="246.0837" y="360.8323">&#21046;&#38480;&#26178;&#38291;&#12434;&#36229;&#36942;?</text><text fill="#000000" font-family="'Noto Sans CJK JP'" font-size="11" lengthAdjust="spacing" textLength="32.9998" x="340.2971" y="352.8683">&#12356;&#12356;&#12360;</text><rect fill="#F1F1F1" height="54.7522" rx="12.5" ry="12.5" style="stroke:#181818;stroke-width:0.5;" width="200.0014" x="187.1897" y="572.7525"/><text fill="#000000" font-family="'Noto Sans CJK JP'" font-size="12" lengthAdjust="spacing" textLength="180.0014" x="197.1897" y="596.6726">&#12461;&#12517;&#12540;&#20808;&#38957;&#12398;&#12501;&#12457;&#12523;&#12480;&#12434;&#12300;&#35223;&#12367;&#12301;</text><text fill="#000000" font-family="'Noto Sans CJK JP'" font-size="12" lengthAdjust="spacing" textLength="152.1132" x="197.1897" y="614.0487">(&#23436;&#20102;&#12377;&#12427;&#12414;&#12391;&#21462;&#12426;&#20986;&#12373;&#12394;&#12356;)</text><rect fill="none" height="684.257" style="stroke:#000000;stroke-width:1.5;" width="480.6866" x="41" y="637.5047"/><path d="M352.2927,637.5047 L352.2927,650.7766 L342.2927,660.7766 L41,660.7766" fill="none" style="stroke:#000000;stroke-width:1.5;"/><text fill="#000000" font-family="'Noto Sans CJK JP'" font-size="14" lengthAdjust="spacing" textLength="301.2927" x="44" y="654.7447">processFolder (&#12409;&#12365;&#31561; = &#20309;&#24230;&#12420;&#12426;&#30452;&#12375;&#12390;&#12418;&#23433;&#20840;)</text><rect fill="#F1F1F1" height="37.3761" rx="12.5" ry="12.5" style="stroke:#181818;stroke-width:0.5;" width="200.0014" x="187.1897" y="677.7766"/><text fill="#000000" font-family="'Noto Sans CJK JP'" font-size="12" lengthAdjust="spacing" textLength="180.0014" x="197.1897" y="701.6967">&#12501;&#12457;&#12523;&#12480;&#20869;&#12398;&#12501;&#12449;&#12452;&#12523;&#12434;&#19968;&#35239;&#21462;&#24471;</text><polygon fill="#F1F1F1" points="235.0838,793.4127,339.297,793.4127,351.297,805.4127,339.297,817.4127,235.0838,817.4127,223.0838,805.4127,235.0838,793.4127" style="stroke:#181818;stroke-width:0.5;stroke-linejoin:miter;stroke-miterlimit:10;"/><text fill="#000000" font-family="'Noto Sans CJK JP'" font-size="11" lengthAdjust="spacing" textLength="104.2133" x="235.0838" y="810.2086">&#33258;&#20998;&#12364;&#25152;&#26377;&#12375;&#12390;&#12356;&#12427;?</text><text fill="#000000" font-family="'Noto Sans CJK JP'" font-size="11" lengthAdjust="spacing" textLength="83.1044" x="139.9793" y="802.2447">&#12356;&#12356;&#12360;=&#20182;&#20154;&#25152;&#26377;</text><text fill="#000000" font-family="'Noto Sans CJK JP'" font-size="11" lengthAdjust="spacing" textLength="21.9998" x="351.297" y="802.2447">&#12399;&#12356;</text><rect fill="#F1F1F1" height="54.7522" rx="12.5" ry="12.5" style="stroke:#181818;stroke-width:0.5;" width="212.0375" x="71" y="827.4127"/><text fill="#000000" font-family="'Noto Sans CJK JP'" font-size="12" lengthAdjust="spacing" textLength="192.0375" x="81" y="851.3328">&#12473;&#12461;&#12483;&#12503;&#38598;&#35336; + &#12473;&#12461;&#12483;&#12503;&#19968;&#35239;&#12408;&#35352;&#37682;</text><text fill="#000000" font-family="'Noto Sans CJK JP'" font-size="12" lengthAdjust="spacing" textLength="128.113" x="81" y="868.7089">(&#31227;&#21205;&#20803;&#12395;&#12381;&#12398;&#12414;&#12414;&#27531;&#12377;)</text><rect fill="#F1F1F1" height="54.7522" rx="12.5" ry="12.5" style="stroke:#181818;stroke-width:0.5;" width="188.6492" x="303.0375" y="827.4127"/><text fill="#000000" font-family="'Noto Sans CJK JP'" font-size="12" lengthAdjust="spacing" textLength="84.0006" x="313.0375" y="851.3328">&#12501;&#12449;&#12452;&#12523;&#12434;&#31227;&#21205;</text><text fill="#000000" font-family="'Noto Sans CJK JP'" font-size="12" lengthAdjust="spacing" textLength="168.6492" x="313.0375" y="868.7089">(addParents / removeParents)</text><rect fill="#F1F1F1" height="72.1284" rx="12.5" ry="12.5" style="stroke:#181818;stroke-width:0.5;" width="132.0569" x="331.3336" y="952.1289"/><text fill="#000000" font-family="'Noto Sans CJK JP'" font-size="12" lengthAdjust="spacing" textLength="72.0005" x="341.3336" y="976.0489">&#12467;&#12500;&#12540;&#12391;&#25937;&#28168;</text><text fill="#000000" font-family="'Noto Sans CJK JP'" font-size="12" lengthAdjust="spacing" textLength="88.0567" x="341.3336" y="993.4251">(&#12381;&#12428;&#12418;&#22833;&#25943;&#12394;&#12425;</text><text fill="#000000" font-family="'Noto Sans CJK JP'" font-size="12" lengthAdjust="spacing" textLength="112.0569" x="341.3336" y="1010.8012">&#31278;&#21029;&#12388;&#12365;&#12391;&#22833;&#25943;&#35352;&#37682;)</text><polygon fill="#F1F1F1" points="367.2553,902.1649,427.4688,902.1649,439.4688,914.1649,427.4688,926.1649,367.2553,926.1649,355.2553,914.1649,367.2553,902.1649" style="stroke:#181818;stroke-width:0.5;stroke-linejoin:miter;stroke-miterlimit:10;"/><text fill="#000000" font-family="'Noto Sans CJK JP'" font-size="11" lengthAdjust="spacing" textLength="21.9998" x="401.362" y="938.9248">&#12399;&#12356;</text><text fill="#000000" font-family="'Noto Sans CJK JP'" font-size="11" lengthAdjust="spacing" textLength="60.2136" x="367.2553" y="918.9609">&#31227;&#21205;&#12395;&#22833;&#25943;?</text><text fill="#000000" font-family="'Noto Sans CJK JP'" font-size="11" lengthAdjust="spacing" textLength="32.9998" x="439.4688" y="910.9969">&#12356;&#12356;&#12360;</text><polygon fill="#F1F1F1" points="397.362,1044.2572,409.362,1056.2572,397.362,1068.2572,385.362,1056.2572,397.362,1044.2572" style="stroke:#181818;stroke-width:0.5;stroke-linejoin:miter;stroke-miterlimit:10;"/><polygon fill="#F1F1F1" points="287.1904,1074.2572,299.1904,1086.2572,287.1904,1098.2572,275.1904,1086.2572,287.1904,1074.2572" style="stroke:#181818;stroke-width:0.5;stroke-linejoin:miter;stroke-miterlimit:10;"/><polygon fill="#F1F1F1" points="224.0838,735.1528,350.2969,735.1528,362.2969,747.1528,350.2969,759.1528,224.0838,759.1528,212.0838,747.1528,224.0838,735.1528" style="stroke:#181818;stroke-width:0.5;stroke-linejoin:miter;stroke-miterlimit:10;"/><text fill="#000000" font-family="'Noto Sans CJK JP'" font-size="11" lengthAdjust="spacing" textLength="21.9998" x="291.1904" y="771.9127">&#12354;&#12427;</text><text fill="#000000" font-family="'Noto Sans CJK JP'" font-size="11" lengthAdjust="spacing" textLength="126.2131" x="224.0838" y="751.9487">&#26410;&#20966;&#29702;&#12398;&#12501;&#12449;&#12452;&#12523;&#12364;&#12354;&#12427;?</text><text fill="#000000" font-family="'Noto Sans CJK JP'" font-size="11" lengthAdjust="spacing" textLength="21.9998" x="190.084" y="743.9848">&#12394;&#12356;</text><rect fill="#F1F1F1" height="37.3761" rx="12.5" ry="12.5" style="stroke:#181818;stroke-width:0.5;" width="152.001" x="211.1899" y="1140.2572"/><text fill="#000000" font-family="'Noto Sans CJK JP'" font-size="12" lengthAdjust="spacing" textLength="132.001" x="221.1899" y="1164.1773">&#12469;&#12502;&#12501;&#12457;&#12523;&#12480;&#12434;&#19968;&#35239;&#21462;&#24471;</text><rect fill="#F1F1F1" height="54.7522" rx="12.5" ry="12.5" style="stroke:#181818;stroke-width:0.5;" width="152.001" x="211.1899" y="1197.6333"/><text fill="#000000" font-family="'Noto Sans CJK JP'" font-size="12" lengthAdjust="spacing" textLength="132.001" x="221.1899" y="1221.5534">&#31227;&#34892;&#20808;&#12395;&#21516;&#21517;&#12501;&#12457;&#12523;&#12480;&#12434;</text><text fill="#000000" font-family="'Noto Sans CJK JP'" font-size="12" lengthAdjust="spacing" textLength="77.5685" x="221.1899" y="1238.9296">find-or-create</text><rect fill="#F1F1F1" height="37.3761" rx="12.5" ry="12.5" style="stroke:#181818;stroke-width:0.5;" width="224.0016" x="175.1896" y="1272.3856"/><text fill="#000000" font-family="'Noto Sans CJK JP'" font-size="12" lengthAdjust="spacing" textLength="204.0016" x="185.1896" y="1296.3057">&#12469;&#12502;&#12501;&#12457;&#12523;&#12480;&#12398;&#32068;&#12434;&#12461;&#12517;&#12540;&#26411;&#23614;&#12408;&#36861;&#21152;</text><rect fill="#F1F1F1" height="37.3761" rx="12.5" ry="12.5" style="stroke:#181818;stroke-width:0.5;" width="236.0016" x="169.1896" y="1341.7617"/><text fill="#000000" font-family="'Noto Sans CJK JP'" font-size="12" lengthAdjust="spacing" textLength="216.0016" x="179.1896" y="1365.6818">&#12461;&#12517;&#12540;&#12363;&#12425;&#20808;&#38957;&#12434;&#21462;&#12426;&#38500;&#12365;&#12289;&#29366;&#24907;&#12434;&#20445;&#23384;</text><polygon fill="#F1F1F1" points="207.5839,285.7764,366.7968,285.7764,378.7968,297.7764,366.7968,309.7764,207.5839,309.7764,195.5839,297.7764,207.5839,285.7764" style="stroke:#181818;stroke-width:0.5;stroke-linejoin:miter;stroke-miterlimit:10;"/><text fill="#000000" font-family="'Noto Sans CJK JP'" font-size="11" lengthAdjust="spacing" textLength="21.9998" x="291.1904" y="322.5363">&#12399;&#12356;</text><text fill="#000000" font-family="'Noto Sans CJK JP'" font-size="11" lengthAdjust="spacing" textLength="159.2129" x="207.5839" y="302.5724">&#12461;&#12517;&#12540;&#12395;&#12501;&#12457;&#12523;&#12480;&#12364;&#27531;&#12387;&#12390;&#12356;&#12427;?</text><text fill="#000000" font-family="'Noto Sans CJK JP'" font-size="11" lengthAdjust="spacing" textLength="32.9998" x="162.5842" y="294.6084">&#12356;&#12356;&#12360;</text><rect fill="#F1F1F1" height="54.7522" rx="12.5" ry="12.5" style="stroke:#181818;stroke-width:0.5;" width="260.4098" x="156.9855" y="1421.1378"/><text fill="#000000" font-family="'Noto Sans CJK JP'" font-size="12" lengthAdjust="spacing" textLength="48.0004" x="166.9855" y="1445.0579">&#23436;&#20102;&#20966;&#29702;</text><text fill="#000000" font-family="'Noto Sans CJK JP'" font-size="12" lengthAdjust="spacing" textLength="240.4098" x="166.9855" y="1462.434">(DONE &#20445;&#23384;&#12539;&#12488;&#12522;&#12460;&#12540;&#21066;&#38500;&#12539;&#12524;&#12509;&#12540;&#12488;/&#36890;&#30693;)</text><ellipse cx="287.1904" cy="1506.8901" fill="none" rx="11" ry="11" style="stroke:#222222;stroke-width:1;"/><ellipse cx="287.1904" cy="1506.8901" fill="#222222" rx="6" ry="6" style="stroke:#222222;stroke-width:1;"/><line style="stroke:#181818;stroke-width:1;" x1="287.1904" x2="287.1904" y1="76.2719" y2="96.2719"/><polygon fill="#181818" points="283.1904,86.2719,287.1904,96.2719,291.1904,86.2719,287.1904,90.2719" style="stroke:#181818;stroke-width:1;stroke-linejoin:miter;stroke-miterlimit:10;"/><line style="stroke:#181818;stroke-width:1;" x1="287.1904" x2="287.1904" y1="133.648" y2="153.648"/><polygon fill="#181818" points="283.1904,143.648,287.1904,153.648,291.1904,143.648,287.1904,147.648" style="stroke:#181818;stroke-width:1;stroke-linejoin:miter;stroke-miterlimit:10;"/><line style="stroke:#181818;stroke-width:1;" x1="287.1904" x2="287.1904" y1="208.4003" y2="228.4003"/><polygon fill="#181818" points="283.1904,218.4003,287.1904,228.4003,291.1904,218.4003,287.1904,222.4003" style="stroke:#181818;stroke-width:1;stroke-linejoin:miter;stroke-miterlimit:10;"/><line style="stroke:#181818;stroke-width:1;" x1="287.1904" x2="287.1904" y1="431.3764" y2="451.3764"/><polygon fill="#181818" points="283.1904,441.3764,287.1904,451.3764,291.1904,441.3764,287.1904,445.3764" style="stroke:#181818;stroke-width:1;stroke-linejoin:miter;stroke-miterlimit:10;"/><line style="stroke:#181818;stroke-width:1;" x1="287.1904" x2="287.1904" y1="488.7525" y2="508.7525"/><polygon fill="#181818" points="283.1904,498.7525,287.1904,508.7525,291.1904,498.7525,287.1904,502.7525" style="stroke:#181818;stroke-width:1;stroke-linejoin:miter;stroke-miterlimit:10;"/><line style="stroke:#181818;stroke-width:1;" x1="287.1904" x2="287.1904" y1="368.0363" y2="394.0002"/><polygon fill="#181818" points="283.1904,384.0002,287.1904,394.0002,291.1904,384.0002,287.1904,388.0002" style="stroke:#181818;stroke-width:1;stroke-linejoin:miter;stroke-miterlimit:10;"/><line style="stroke:#181818;stroke-width:1;" x1="340.2971" x2="385.851" y1="356.0363" y2="356.0363"/><polygon fill="#181818" points="381.851,449.3764,385.851,459.3764,389.851,449.3764,385.851,453.3764" style="stroke:#181818;stroke-width:1;stroke-linejoin:miter;stroke-miterlimit:10;"/><line style="stroke:#181818;stroke-width:1;" x1="385.851" x2="385.851" y1="356.0363" y2="552.7525"/><line style="stroke:#181818;stroke-width:1;" x1="385.851" x2="287.1904" y1="552.7525" y2="552.7525"/><line style="stroke:#181818;stroke-width:1;" x1="287.1904" x2="287.1904" y1="552.7525" y2="572.7525"/><polygon fill="#181818" points="283.1904,562.7525,287.1904,572.7525,291.1904,562.7525,287.1904,566.7525" style="stroke:#181818;stroke-width:1;stroke-linejoin:miter;stroke-miterlimit:10;"/><line style="stroke:#181818;stroke-width:1;" x1="397.362" x2="397.362" y1="926.1649" y2="952.1289"/><polygon fill="#181818" points="393.362,942.1289,397.362,952.1289,401.362,942.1289,397.362,946.1289" style="stroke:#181818;stroke-width:1;stroke-linejoin:miter;stroke-miterlimit:10;"/><line style="stroke:#181818;stroke-width:1;" x1="439.4688" x2="473.3905" y1="914.1649" y2="914.1649"/><polygon fill="#181818" points="469.3905,978.193,473.3905,988.193,477.3905,978.193,473.3905,982.193" style="stroke:#181818;stroke-width:1;stroke-linejoin:miter;stroke-miterlimit:10;"/><line style="stroke:#181818;stroke-width:1;" x1="473.3905" x2="473.3905" y1="914.1649" y2="1056.2572"/><line style="stroke:#181818;stroke-width:1;" x1="473.3905" x2="409.362" y1="1056.2572" y2="1056.2572"/><polygon fill="#181818" points="419.362,1052.2572,409.362,1056.2572,419.362,1060.2572,415.362,1056.2572" style="stroke:#181818;stroke-width:1;stroke-linejoin:miter;stroke-miterlimit:10;"/><line style="stroke:#181818;stroke-width:1;" x1="397.362" x2="397.362" y1="1024.2572" y2="1044.2572"/><polygon fill="#181818" points="393.362,1034.2572,397.362,1044.2572,401.362,1034.2572,397.362,1038.2572" style="stroke:#181818;stroke-width:1;stroke-linejoin:miter;stroke-miterlimit:10;"/><line style="stroke:#181818;stroke-width:1;" x1="397.362" x2="397.362" y1="882.1649" y2="902.1649"/><polygon fill="#181818" points="393.362,892.1649,397.362,902.1649,401.362,892.1649,397.362,896.1649" style="stroke:#181818;stroke-width:1;stroke-linejoin:miter;stroke-miterlimit:10;"/><line style="stroke:#181818;stroke-width:1;" x1="223.0838" x2="177.0187" y1="805.4127" y2="805.4127"/><line style="stroke:#181818;stroke-width:1;" x1="177.0187" x2="177.0187" y1="805.4127" y2="827.4127"/><polygon fill="#181818" points="173.0187,817.4127,177.0187,827.4127,181.0187,817.4127,177.0187,821.4127" style="stroke:#181818;stroke-width:1;stroke-linejoin:miter;stroke-miterlimit:10;"/><line style="stroke:#181818;stroke-width:1;" x1="351.297" x2="397.362" y1="805.4127" y2="805.4127"/><line style="stroke:#181818;stroke-width:1;" x1="397.362" x2="397.362" y1="805.4127" y2="827.4127"/><polygon fill="#181818" points="393.362,817.4127,397.362,827.4127,401.362,817.4127,397.362,821.4127" style="stroke:#181818;stroke-width:1;stroke-linejoin:miter;stroke-miterlimit:10;"/><line style="stroke:#181818;stroke-width:1;" x1="177.0187" x2="177.0187" y1="882.1649" y2="1086.2572"/><line style="stroke:#181818;stroke-width:1;" x1="177.0187" x2="275.1904" y1="1086.2572" y2="1086.2572"/><polygon fill="#181818" points="265.1904,1082.2572,275.1904,1086.2572,265.1904,1090.2572,269.1904,1086.2572" style="stroke:#181818;stroke-width:1;stroke-linejoin:miter;stroke-miterlimit:10;"/><line style="stroke:#181818;stroke-width:1;" x1="397.362" x2="397.362" y1="1068.2572" y2="1086.2572"/><line style="stroke:#181818;stroke-width:1;" x1="397.362" x2="299.1904" y1="1086.2572" y2="1086.2572"/><polygon fill="#181818" points="309.1904,1082.2572,299.1904,1086.2572,309.1904,1090.2572,305.1904,1086.2572" style="stroke:#181818;stroke-width:1;stroke-linejoin:miter;stroke-miterlimit:10;"/><line style="stroke:#181818;stroke-width:1;" x1="287.1904" x2="287.1904" y1="759.1528" y2="793.4127"/><polygon fill="#181818" points="283.1904,783.4127,287.1904,793.4127,291.1904,783.4127,287.1904,787.4127" style="stroke:#181818;stroke-width:1;stroke-linejoin:miter;stroke-miterlimit:10;"/><line style="stroke:#181818;stroke-width:1;" x1="287.1904" x2="287.1904" y1="1098.2572" y2="1108.2572"/><line style="stroke:#181818;stroke-width:1;" x1="287.1904" x2="505.6866" y1="1108.2572" y2="1108.2572"/><polygon fill="#181818" points="501.6866,931.353,505.6866,921.353,509.6866,931.353,505.6866,927.353" style="stroke:#181818;stroke-width:1;stroke-linejoin:miter;stroke-miterlimit:10;"/><line style="stroke:#181818;stroke-width:1;" x1="505.6866" x2="505.6866" y1="747.1528" y2="1108.2572"/><line style="stroke:#181818;stroke-width:1;" x1="505.6866" x2="362.2969" y1="747.1528" y2="747.1528"/><polygon fill="#181818" points="372.2969,743.1528,362.2969,747.1528,372.2969,751.1528,368.2969,747.1528" style="stroke:#181818;stroke-width:1;stroke-linejoin:miter;stroke-miterlimit:10;"/><line style="stroke:#181818;stroke-width:1;" x1="212.0838" x2="57" y1="747.1528" y2="747.1528"/><polygon fill="#181818" points="53,917.353,57,927.353,61,917.353,57,921.353" style="stroke:#181818;stroke-width:1;stroke-linejoin:miter;stroke-miterlimit:10;"/><line style="stroke:#181818;stroke-width:1;" x1="57" x2="57" y1="747.1528" y2="1120.2572"/><line style="stroke:#181818;stroke-width:1;" x1="57" x2="287.1904" y1="1120.2572" y2="1120.2572"/><line style="stroke:#181818;stroke-width:1;" x1="287.1904" x2="287.1904" y1="1120.2572" y2="1140.2572"/><polygon fill="#181818" points="283.1904,1130.2572,287.1904,1140.2572,291.1904,1130.2572,287.1904,1134.2572" style="stroke:#181818;stroke-width:1;stroke-linejoin:miter;stroke-miterlimit:10;"/><line style="stroke:#181818;stroke-width:1;" x1="287.1904" x2="287.1904" y1="715.1528" y2="735.1528"/><polygon fill="#181818" points="283.1904,725.1528,287.1904,735.1528,291.1904,725.1528,287.1904,729.1528" style="stroke:#181818;stroke-width:1;stroke-linejoin:miter;stroke-miterlimit:10;"/><line style="stroke:#181818;stroke-width:1;" x1="287.1904" x2="287.1904" y1="1177.6333" y2="1197.6333"/><polygon fill="#181818" points="283.1904,1187.6333,287.1904,1197.6333,291.1904,1187.6333,287.1904,1191.6333" style="stroke:#181818;stroke-width:1;stroke-linejoin:miter;stroke-miterlimit:10;"/><line style="stroke:#181818;stroke-width:1;" x1="287.1904" x2="287.1904" y1="1252.3856" y2="1272.3856"/><polygon fill="#181818" points="283.1904,1262.3856,287.1904,1272.3856,291.1904,1262.3856,287.1904,1266.3856" style="stroke:#181818;stroke-width:1;stroke-linejoin:miter;stroke-miterlimit:10;"/><line style="stroke:#181818;stroke-width:1;" x1="287.1904" x2="287.1904" y1="627.5047" y2="677.7766"/><polygon fill="#181818" points="283.1904,667.7766,287.1904,677.7766,291.1904,667.7766,287.1904,671.7766" style="stroke:#181818;stroke-width:1;stroke-linejoin:miter;stroke-miterlimit:10;"/><line style="stroke:#181818;stroke-width:1;" x1="287.1904" x2="287.1904" y1="1309.7617" y2="1341.7617"/><polygon fill="#181818" points="283.1904,1331.7617,287.1904,1341.7617,291.1904,1331.7617,287.1904,1335.7617" style="stroke:#181818;stroke-width:1;stroke-linejoin:miter;stroke-miterlimit:10;"/><line style="stroke:#181818;stroke-width:1;" x1="287.1904" x2="287.1904" y1="309.7764" y2="344.0363"/><polygon fill="#181818" points="283.1904,334.0363,287.1904,344.0363,291.1904,334.0363,287.1904,338.0363" style="stroke:#181818;stroke-width:1;stroke-linejoin:miter;stroke-miterlimit:10;"/><line style="stroke:#181818;stroke-width:1;" x1="287.1904" x2="287.1904" y1="1379.1378" y2="1389.1378"/><line style="stroke:#181818;stroke-width:1;" x1="287.1904" x2="533.6866" y1="1389.1378" y2="1389.1378"/><polygon fill="#181818" points="529.6866,846.7891,533.6866,836.7891,537.6866,846.7891,533.6866,842.7891" style="stroke:#181818;stroke-width:1;stroke-linejoin:miter;stroke-miterlimit:10;"/><line style="stroke:#181818;stroke-width:1;" x1="533.6866" x2="533.6866" y1="297.7764" y2="1389.1378"/><line style="stroke:#181818;stroke-width:1;" x1="533.6866" x2="378.7968" y1="297.7764" y2="297.7764"/><polygon fill="#181818" points="388.7968,293.7764,378.7968,297.7764,388.7968,301.7764,384.7968,297.7764" style="stroke:#181818;stroke-width:1;stroke-linejoin:miter;stroke-miterlimit:10;"/><line style="stroke:#181818;stroke-width:1;" x1="195.5839" x2="29" y1="297.7764" y2="297.7764"/><polygon fill="#181818" points="25,832.7891,29,842.7891,33,832.7891,29,836.7891" style="stroke:#181818;stroke-width:1;stroke-linejoin:miter;stroke-miterlimit:10;"/><line style="stroke:#181818;stroke-width:1;" x1="29" x2="29" y1="297.7764" y2="1401.1378"/><line style="stroke:#181818;stroke-width:1;" x1="29" x2="287.1904" y1="1401.1378" y2="1401.1378"/><line style="stroke:#181818;stroke-width:1;" x1="287.1904" x2="287.1904" y1="1401.1378" y2="1421.1378"/><polygon fill="#181818" points="283.1904,1411.1378,287.1904,1421.1378,291.1904,1411.1378,287.1904,1415.1378" style="stroke:#181818;stroke-width:1;stroke-linejoin:miter;stroke-miterlimit:10;"/><line style="stroke:#181818;stroke-width:1;" x1="287.1904" x2="287.1904" y1="265.7764" y2="285.7764"/><polygon fill="#181818" points="283.1904,275.7764,287.1904,285.7764,291.1904,275.7764,287.1904,279.7764" style="stroke:#181818;stroke-width:1;stroke-linejoin:miter;stroke-miterlimit:10;"/><line style="stroke:#181818;stroke-width:1;" x1="287.1904" x2="287.1904" y1="1475.8901" y2="1495.8901"/><polygon fill="#181818" points="283.1904,1485.8901,287.1904,1495.8901,291.1904,1485.8901,287.1904,1489.8901" style="stroke:#181818;stroke-width:1;stroke-linejoin:miter;stroke-miterlimit:10;"/><?plantuml-src TLHBKzjM5DxhLzoX6pnj9brrWIVJHO15sg7CCDsnKR4SF34I8ubcqUcCxnKsjf4RwjHsdC0qQS1sJEsMDg744FDZZgyU_wBdwieFQEhHMBhIUNxVTuxrAADlgwQwHL9QMjt9sik6Rg-eMngPMp5iWwofkaNkF_YAF5YTKwo9yNVgngE7fh6Zf-uRMSCadon7lnaBQrDD6Oyp-aEILhEMfjWPEwiHSqV_sZ2soLsoRHeRccKj6zcKPXAWVRxNyWyAuDJ0wO5pfIYMhPgsiW0vD-ZqUFyvv2h0_i5Fu1I1LODk3-XrCBp2Vt0klUF3e7ELL1RyzcNmokNvoARzsZiRhElpF7_c7PR0mUiDi6DmwhoG1ze6oe3j0tqAj8Fs_c-3e5j9O1HWMCI9I4PFoVmufWFEgIpWCpBDCtwN81Z2AzTu_YIfA8ytCzZm_6mWqHnx4zddWBfU7pE_1je2kejLV9aW6GiTw1zuJYY4PD9adXVFm-Q1rsHX_Qbew3mVqf_GqjxKz5bRGXRyyhcNtqSZilRjskhIokBI8kBQ7bqVyTwpfBJvudE_NUL3L-1Tg8JrVO6bqmNskwYGLKU3elzsLnfRjh6D3ngo9pBjHbTH9DFqL2QDzobA24Fu4ldetsYHLGLvhGRG9qYUeA7lZWO5eCq8z25Mnv_KWPNvtW1e3MXNT2EoeuPGC1b39tCtXOA5l0TQyNibSe-CFjJue0KCqIlxBzu2RGWm6UFz4izt4dFa1zdrR54HxxBCLv4IJaNR5xcW9MhXmuPiFcRFE-p6khpbGrqfdGbfuY29aCG5UrrUB0YMIpaXFLdRcEWnVJ6ezqQNzT5W84t7KI9ytqSGe-uQuOj2q2cIJydiIrauq8kWyonq_qA8KPPyloQaYdgZHw9k0VGm4bipaOo3ZrcTwcUAr1GN6GoZggdKgcfgkctXw9hQbl6z5fyd4MNRqWDpy-CphzRug58dpVqDpY_HPBIzsi_UHH4JYPAPApYC_8KaM6bTzpjzNZm1UepS2zL47sNFCmLyHAhnXrYmDv_nQJoaKdcnMjWxt0-tXFnVXSmi6kpsmEK7bLi-wtewewVk6EQT3LDJRItvl_5ftt-tAyPbF4_UuId_SoXulVx0oo-5vuyt1WueJdef7ZjMbMCKDYDySdIo2iR3Fzlg11rbGSwZL3Y2l_ZDoXAHBhXHPrS3BqN1nKiy7ibzTpVCFVT_FK42nAhu5m00?></g></svg>