<svg xmlns="http://www.w3.org/2000/svg" xmlns:xlink="http://www.w3.org/1999/xlink" contentStyleType="text/css" data-diagram-type="DESCRIPTION" height="838px" preserveAspectRatio="none" style="width:978px;height:838px;background:#FFFFFF;" version="1.1" viewBox="0 0 978 838" width="978px" zoomAndPan="magnify"><?plantuml 1.2026.6?><defs/><g><g class="title" data-source-line="5"><text fill="#000000" font-family="'Noto Sans CJK JP'" font-size="14" font-weight="700" lengthAdjust="spacing" textLength="477.8879" x="247.0152" y="26.2399">&#12501;&#12457;&#12523;&#12480;&#12399;&#12300;&#20316;&#12426;&#30452;&#12375;&#12301;&#12539;&#12501;&#12449;&#12452;&#12523;&#12399;&#12300;&#31227;&#21205;&#12301;&#8212; &#38542;&#23652;&#12399;&#12381;&#12398;&#12414;&#12414;&#32173;&#25345;&#12373;&#12428;&#12427;</text></g><!--cluster SRC--><g class="cluster" data-qualified-name="SRC" data-source-line="7" id="ent0001"><path d="M8.5,47.8039 L143.2274,47.8039 A3.75,3.75 0 0 1 145.7274,50.3039 L152.7274,74.0758 L413.5,74.0758 A2.5,2.5 0 0 1 416,76.5758 L416,821.3039 A2.5,2.5 0 0 1 413.5,823.8039 L8.5,823.8039 A2.5,2.5 0 0 1 6,821.3039 L6,50.3039 A2.5,2.5 0 0 1 8.5,47.8039" fill="#FFF8E1" style="stroke:#000000;stroke-width:1.5;"/><line style="stroke:#000000;stroke-width:1.5;" x1="6" x2="152.7274" y1="74.0758" y2="74.0758"/><text fill="#000000" font-family="'Noto Sans CJK JP'" font-size="14" font-weight="700" lengthAdjust="spacing" textLength="133.7274" x="10" y="66.0438">&#31227;&#34892;&#20803;: &#12510;&#12452;&#12489;&#12521;&#12452;&#12502;</text></g><!--cluster s0--><g class="cluster" data-qualified-name="SRC.s0" data-source-line="8" id="ent0002"><path d="M40.5,102.8039 L83.4998,102.8039 A3.75,3.75 0 0 1 85.9998,105.3039 L92.9998,129.0758 L381.5,129.0758 A2.5,2.5 0 0 1 384,131.5758 L384,789.3039 A2.5,2.5 0 0 1 381.5,791.8039 L40.5,791.8039 A2.5,2.5 0 0 1 38,789.3039 L38,105.3039 A2.5,2.5 0 0 1 40.5,102.8039" fill="none" style="stroke:#000000;stroke-width:1.5;"/><line style="stroke:#000000;stroke-width:1.5;" x1="38" x2="92.9998" y1="129.0758" y2="129.0758"/><text fill="#000000" font-family="'Noto Sans CJK JP'" font-size="14" font-weight="700" lengthAdjust="spacing" textLength="41.9998" x="42" y="121.0438">&#21942;&#26989;&#37096;</text></g><!--cluster s1--><g class="cluster" data-qualified-name="SRC.s0.s1" data-source-line="9" id="ent0003"><path d="M80.5,173.8039 L142.5397,173.8039 A3.75,3.75 0 0 1 145.0397,176.3039 L152.0397,200.0758 L341.5,200.0758 A2.5,2.5 0 0 1 344,202.5758 L344,479.3039 A2.5,2.5 0 0 1 341.5,481.8039 L80.5,481.8039 A2.5,2.5 0 0 1 78,479.3039 L78,176.3039 A2.5,2.5 0 0 1 80.5,173.8039" fill="none" style="stroke:#000000;stroke-width:1.5;"/><line style="stroke:#000000;stroke-width:1.5;" x1="78" x2="152.0397" y1="200.0758" y2="200.0758"/><text fill="#000000" font-family="'Noto Sans CJK JP'" font-size="14" font-weight="700" lengthAdjust="spacing" textLength="61.0397" x="82" y="192.0438">2025&#24180;&#24230;</text></g><!--cluster s2--><g class="cluster" data-qualified-name="SRC.s0.s2" data-source-line="14" id="ent0007"><path d="M84,521.8039 L146.0397,521.8039 A3.75,3.75 0 0 1 148.5397,524.3039 L155.5397,548.0758 L338,548.0758 A2.5,2.5 0 0 1 340.5,550.5758 L340.5,749.3039 A2.5,2.5 0 0 1 338,751.8039 L84,751.8039 A2.5,2.5 0 0 1 81.5,749.3039 L81.5,524.3039 A2.5,2.5 0 0 1 84,521.8039" fill="none" style="stroke:#000000;stroke-width:1.5;"/><line style="stroke:#000000;stroke-width:1.5;" x1="81.5" x2="155.5397" y1="548.0758" y2="548.0758"/><text fill="#000000" font-family="'Noto Sans CJK JP'" font-size="14" font-weight="700" lengthAdjust="spacing" textLength="61.0397" x="85.5" y="540.0438">2026&#24180;&#24230;</text></g><!--cluster DST--><g class="cluster" data-qualified-name="DST" data-source-line="21" id="ent0010"><path d="M687,219.8039 L821.7274,219.8039 A3.75,3.75 0 0 1 824.2274,222.3039 L831.2274,246.0758 L899,246.0758 A2.5,2.5 0 0 1 901.5,248.5758 L901.5,569.3039 A2.5,2.5 0 0 1 899,571.8039 L687,571.8039 A2.5,2.5 0 0 1 684.5,569.3039 L684.5,222.3039 A2.5,2.5 0 0 1 687,219.8039" fill="#E8F5E9" style="stroke:#000000;stroke-width:1.5;"/><line style="stroke:#000000;stroke-width:1.5;" x1="684.5" x2="831.2274" y1="246.0758" y2="246.0758"/><text fill="#000000" font-family="'Noto Sans CJK JP'" font-size="14" font-weight="700" lengthAdjust="spacing" textLength="133.7274" x="688.5" y="238.0438">&#31227;&#34892;&#20808;: &#20849;&#26377;&#12489;&#12521;&#12452;&#12502;</text></g><!--cluster d0--><g class="cluster" data-qualified-name="DST.d0" data-source-line="22" id="ent0011"><path d="M727,282.8039 L769.9998,282.8039 A3.75,3.75 0 0 1 772.4998,285.3039 L779.4998,309.0758 L859,309.0758 A2.5,2.5 0 0 1 861.5,311.5758 L861.5,521.3039 A2.5,2.5 0 0 1 859,523.8039 L727,523.8039 A2.5,2.5 0 0 1 724.5,521.3039 L724.5,285.3039 A2.5,2.5 0 0 1 727,282.8039" fill="none" style="stroke:#000000;stroke-width:1.5;"/><line style="stroke:#000000;stroke-width:1.5;" x1="724.5" x2="779.4998" y1="309.0758" y2="309.0758"/><text fill="#000000" font-family="'Noto Sans CJK JP'" font-size="14" font-weight="700" lengthAdjust="spacing" textLength="41.9998" x="728.5" y="301.0438">&#21942;&#26989;&#37096;</text></g><!--entity f1--><g class="entity" data-qualified-name="SRC.s0.s1.f1" data-source-line="10" id="ent0004"><rect fill="#F1F1F1" height="43.2719" rx="2.5" ry="2.5" style="stroke:#181818;stroke-width:0.5;" width="115.6796" x="153" y="240.3039"/><polygon fill="#F1F1F1" points="251.6796,245.3039,251.6796,259.3039,263.6796,259.3039,263.6796,251.3039,257.6796,245.3039,251.6796,245.3039" style="stroke:#181818;stroke-width:0.5;stroke-linejoin:miter;stroke-miterlimit:10;"/><line style="stroke:#181818;stroke-width:0.5;" x1="257.6796" x2="257.6796" y1="245.3039" y2="251.3039"/><line style="stroke:#181818;stroke-width:0.5;" x1="263.6796" x2="257.6796" y1="251.3039" y2="251.3039"/><text fill="#000000" font-family="'Noto Sans CJK JP'" font-size="14" lengthAdjust="spacing" textLength="85.6796" x="163" y="269.5438">&#25552;&#26696;&#26360;A.docx</text></g><!--entity f2--><g class="entity" data-qualified-name="SRC.s0.s1.f2" data-source-line="11" id="ent0005"><rect fill="#F1F1F1" height="43.2719" rx="2.5" ry="2.5" style="stroke:#181818;stroke-width:0.5;" width="217.9772" x="102" y="318.3039"/><polygon fill="#F1F1F1" points="302.9772,323.3039,302.9772,337.3039,314.9772,337.3039,314.9772,329.3039,308.9772,323.3039,302.9772,323.3039" style="stroke:#181818;stroke-width:0.5;stroke-linejoin:miter;stroke-miterlimit:10;"/><line style="stroke:#181818;stroke-width:0.5;" x1="308.9772" x2="308.9772" y1="323.3039" y2="329.3039"/><line style="stroke:#181818;stroke-width:0.5;" x1="314.9772" x2="308.9772" y1="329.3039" y2="329.3039"/><text fill="#000000" font-family="'Noto Sans CJK JP'" font-size="14" lengthAdjust="spacing" textLength="187.9772" x="112" y="347.5438">&#35696;&#20107;&#37682; (Google &#12489;&#12461;&#12517;&#12513;&#12531;&#12488;)</text></g><!--entity b1--><g class="entity" data-qualified-name="SRC.s0.s1.b1" data-source-line="12" id="ent0006"><path d="M131,398.8039 L131,454.3477 A2.5,2.5 0 0 0 133.5,456.8477 L288.4994,456.8477 A2.5,2.5 0 0 0 290.9994,454.3477 L290.9994,406.3039 L280.9994,396.3039 L133.5,396.3039 A2.5,2.5 0 0 0 131,398.8039" fill="#FFFDE7" style="stroke:#181818;stroke-width:0.5;"/><path d="M280.9994,396.3039 L280.9994,403.8039 A2.5,2.5 0 0 0 283.4994,406.3039 L290.9994,406.3039" fill="#FFFDE7" style="stroke:#181818;stroke-width:0.5;"/><text fill="#000000" font-family="'Noto Sans CJK JP'" font-size="14" lengthAdjust="spacing" textLength="139.9994" x="141" y="422.5438">&#12371;&#12398;&#12501;&#12457;&#12523;&#12480;&#12398;&#20013;&#36523;&#12399;</text><text fill="#000000" font-family="'Noto Sans CJK JP'" font-size="14" lengthAdjust="spacing" textLength="105.4196" x="141" y="442.8157">&#31227;&#21205;&#12375;&#12414;&#12375;&#12383;.txt</text></g><!--entity f3--><g class="entity" data-qualified-name="SRC.s0.s2.f3" data-source-line="15" id="ent0008"><rect fill="#F1F1F1" height="43.2719" rx="2.5" ry="2.5" style="stroke:#181818;stroke-width:0.5;" width="210.5992" x="105.5" y="588.3039"/><polygon fill="#F1F1F1" points="299.0992,593.3039,299.0992,607.3039,311.0992,607.3039,311.0992,599.3039,305.0992,593.3039,299.0992,593.3039" style="stroke:#181818;stroke-width:0.5;stroke-linejoin:miter;stroke-miterlimit:10;"/><line style="stroke:#181818;stroke-width:0.5;" x1="305.0992" x2="305.0992" y1="593.3039" y2="599.3039"/><line style="stroke:#181818;stroke-width:0.5;" x1="311.0992" x2="305.0992" y1="599.3039" y2="599.3039"/><text fill="#000000" font-family="'Noto Sans CJK JP'" font-size="14" lengthAdjust="spacing" textLength="180.5992" x="115.5" y="617.5438">&#35211;&#31309;&#12418;&#12426; (&#12473;&#12503;&#12524;&#12483;&#12489;&#12471;&#12540;&#12488;)</text></g><!--entity b2--><g class="entity" data-qualified-name="SRC.s0.s2.b2" data-source-line="16" id="ent0009"><path d="M131,668.8039 L131,724.3477 A2.5,2.5 0 0 0 133.5,726.8477 L288.4994,726.8477 A2.5,2.5 0 0 0 290.9994,724.3477 L290.9994,676.3039 L280.9994,666.3039 L133.5,666.3039 A2.5,2.5 0 0 0 131,668.8039" fill="#FFFDE7" style="stroke:#181818;stroke-width:0.5;"/><path d="M280.9994,666.3039 L280.9994,673.8039 A2.5,2.5 0 0 0 283.4994,676.3039 L290.9994,676.3039" fill="#FFFDE7" style="stroke:#181818;stroke-width:0.5;"/><text fill="#000000" font-family="'Noto Sans CJK JP'" font-size="14" lengthAdjust="spacing" textLength="139.9994" x="141" y="692.5438">&#12371;&#12398;&#12501;&#12457;&#12523;&#12480;&#12398;&#20013;&#36523;&#12399;</text><text fill="#000000" font-family="'Noto Sans CJK JP'" font-size="14" lengthAdjust="spacing" textLength="105.4196" x="141" y="712.8157">&#31227;&#21205;&#12375;&#12414;&#12375;&#12383;.txt</text></g><!--entity d1--><g class="entity" data-qualified-name="DST.d0.d1" data-source-line="23" id="ent0012"><path d="M751,348.8039 L792,348.8039 A3.75,3.75 0 0 1 794.5,351.3039 L801.5,369.8039 L835.0798,369.8039 A2.5,2.5 0 0 1 837.5798,372.3039 L837.5798,404.5758 A2.5,2.5 0 0 1 835.0798,407.0758 L751,407.0758 A2.5,2.5 0 0 1 748.5,404.5758 L748.5,351.3039 A2.5,2.5 0 0 1 751,348.8039" fill="#F1F1F1" style="stroke:#181818;stroke-width:0.5;"/><line style="stroke:#181818;stroke-width:0.5;" x1="748.5" x2="801.5" y1="369.8039" y2="369.8039"/><text fill="#000000" font-family="'Noto Sans CJK JP'" font-size="14" lengthAdjust="spacing" textLength="59.0798" x="758.5" y="393.0438">2025&#24180;&#24230;</text></g><!--entity d2--><g class="entity" data-qualified-name="DST.d0.d2" data-source-line="24" id="ent0013"><path d="M751,441.8039 L792,441.8039 A3.75,3.75 0 0 1 794.5,444.3039 L801.5,462.8039 L835.0798,462.8039 A2.5,2.5 0 0 1 837.5798,465.3039 L837.5798,497.5758 A2.5,2.5 0 0 1 835.0798,500.0758 L751,500.0758 A2.5,2.5 0 0 1 748.5,497.5758 L748.5,444.3039 A2.5,2.5 0 0 1 751,441.8039" fill="#F1F1F1" style="stroke:#181818;stroke-width:0.5;"/><line style="stroke:#181818;stroke-width:0.5;" x1="748.5" x2="801.5" y1="462.8039" y2="462.8039"/><text fill="#000000" font-family="'Noto Sans CJK JP'" font-size="14" lengthAdjust="spacing" textLength="59.0798" x="758.5" y="486.0438">2026&#24180;&#24230;</text></g><g class="entity" data-qualified-name="GMN22" data-source-line="38" id="ent0023"><path d="M622,91.8039 L622,195.924 L963.9184,195.924 L963.9184,101.8039 L953.9184,91.8039 L622,91.8039" fill="#FEFFDD" style="stroke:#181818;stroke-width:0.5;"/><path d="M953.9184,91.8039 L953.9184,101.8039 L963.9184,101.8039 L953.9184,91.8039" fill="#FEFFDD" style="stroke:#181818;stroke-width:1;"/><text fill="#000000" font-family="'Noto Sans CJK JP'" font-size="13" lengthAdjust="spacing" textLength="169.0002" x="628" y="111.8839">&#12539;&#12501;&#12457;&#12523;&#12480;&#12399;&#26032;&#35215;&#20316;&#25104;&#12394;&#12398;&#12391;</text><text fill="#000000" font-family="'Noto Sans CJK JP'" font-size="13" font-weight="700" lengthAdjust="spacing" textLength="149.0062" x="799.9122" y="111.8839">&#12501;&#12457;&#12523;&#12480;&#12398; URL &#12399;&#22793;&#12431;&#12427;</text><text fill="#000000" font-family="'Noto Sans CJK JP'" font-size="13" lengthAdjust="spacing" textLength="143.0002" x="628" y="130.7079">&#12539;&#12501;&#12449;&#12452;&#12523;&#12399;&#31227;&#21205;&#12394;&#12398;&#12391;</text><text fill="#000000" font-family="'Noto Sans CJK JP'" font-size="13" font-weight="700" lengthAdjust="spacing" textLength="81.0551" x="773.9122" y="130.7079">URL &#12381;&#12398;&#12414;&#12414;</text><text fill="#000000" font-family="'Noto Sans CJK JP'" font-size="13" lengthAdjust="spacing" textLength="91.0001" x="854.9673" y="130.7079">&#12289;&#25152;&#26377;&#32773;&#12384;&#12369;&#12364;</text><text fill="#000000" font-family="'Noto Sans CJK JP'" font-size="13" lengthAdjust="spacing" textLength="235.6123" x="633.824" y="149.5319">&#20849;&#26377;&#12489;&#12521;&#12452;&#12502; (&#31227;&#34892;&#20808;&#32068;&#32340;) &#12395;&#20999;&#12426;&#26367;&#12431;&#12427;</text><text fill="#000000" font-family="'Noto Sans CJK JP'" font-size="13" lengthAdjust="spacing" textLength="288.9123" x="628" y="168.356">&#12539;&#9314; &#31227;&#21205;&#20803;&#12398;&#21508;&#12501;&#12457;&#12523;&#12480;&#12395;&#12399;&#31227;&#34892;&#20808;&#12522;&#12531;&#12463;&#20837;&#12426;&#12398;</text><text fill="#000000" font-family="'Noto Sans CJK JP'" font-size="13" lengthAdjust="spacing" textLength="272.7143" x="633.824" y="187.18">&#26696;&#20869; .txt &#12364;&#27531;&#12426;&#12289;&#26087;&#12501;&#12457;&#12523;&#12480;&#12398;&#36947;&#12375;&#12427;&#12409;&#12395;&#12394;&#12427;</text></g><!--link s0 to d0--><g class="link" data-entity-1="ent0002" data-entity-2="ent0011" data-link-type="dependency" data-source-line="28" id="lnk14"><path d="M385.2081,148.8957 C386.4565,149.0727 387.7081,149.2517 388.9628,149.4328 C393.9816,150.1572 399.05,150.9148 404.1598,151.707 C424.599,154.8761 445.7011,158.6001 466.9472,162.9751 C509.4394,171.7251 552.5075,183.0789 592,197.8039 C603.845,202.2239 652.48,230.3939 698.82,257.8639 C710.405,264.7314 721.8466,271.5551 732.534,277.9531 C735.2058,279.5526 733.5427,278.5537 736.1108,280.094" fill="none" id="s0-to-d0" style="stroke:#1565C0;stroke-width:1;stroke-dasharray:7,7;"/><polygon fill="#1565C0" points="740.3986,282.6658,734.7379,274.6062,736.1108,280.094,730.623,281.4668,740.3986,282.6658" style="stroke:#1565C0;stroke-width:1;stroke-linejoin:miter;stroke-miterlimit:10;"/><text fill="#000000" font-family="'Noto Sans CJK JP'" font-size="13" lengthAdjust="spacing" textLength="158.9122" x="433" y="153.8839">&#9312; &#21516;&#21517;&#12501;&#12457;&#12523;&#12480;&#12434;&#26032;&#35215;&#20316;&#25104;</text></g><!--link s1 to d1--><g class="link" data-entity-1="ent0003" data-entity-2="ent0012" data-link-type="dependency" data-source-line="29" id="lnk15"><path d="M344.7187,214.3127 C345.0896,214.3487 345.4607,214.3849 345.8321,214.4211 C346.5748,214.4937 347.3183,214.5666 348.0625,214.6401 C349.551,214.787 351.0425,214.9358 352.5364,215.0864 C376.4394,217.4964 400.9725,220.3839 424,223.8039 C499.44,235.0039 534.67,208.4939 592,258.8039 C622.43,285.5039 591.39,318.3139 622,344.8039 C656.78,374.9039 705.71,380.8298 743.48,380.7098" fill="none" id="s1-to-d1" style="stroke:#1565C0;stroke-width:1;stroke-dasharray:7,7;"/><polygon fill="#1565C0" points="748.48,380.6939,739.4673,376.7225,743.48,380.7098,739.4928,384.7225,748.48,380.6939" style="stroke:#1565C0;stroke-width:1;stroke-linejoin:miter;stroke-miterlimit:10;"/><text fill="#000000" font-family="'Noto Sans CJK JP'" font-size="13" lengthAdjust="spacing" textLength="13" x="505.5" y="221.8839">&#9312;</text></g><!--link s2 to d2--><g class="link" data-entity-1="ent0007" data-entity-2="ent0013" data-link-type="dependency" data-source-line="30" id="lnk16"><path d="M342.4369,560.6374 C344.0341,560.4116 348.0292,533.5749 349.6442,533.3465 C375.4852,529.693 403.5803,525.7208 432.6638,521.6089 C548.9975,505.1614 676.1942,487.1788 743.1492,477.7138" fill="none" id="s2-to-d2" style="stroke:#1565C0;stroke-width:1;stroke-dasharray:7,7;"/><polygon fill="#1565C0" points="748.1,477.0139,738.6287,474.313,743.1492,477.7138,739.7485,482.2343,748.1,477.0139" style="stroke:#1565C0;stroke-width:1;stroke-linejoin:miter;stroke-miterlimit:10;"/><text fill="#000000" font-family="'Noto Sans CJK JP'" font-size="13" lengthAdjust="spacing" textLength="13" x="505.5" y="495.8839">&#9312;</text></g><!--link f1 to d1--><g class="link" data-entity-1="ent0004" data-entity-2="ent0012" data-link-type="dependency" data-source-line="31" id="lnk17"><path d="M269.07,264.9839 C344.93,270.6739 482.17,286.1039 592,326.8039 C606.58,332.2039 607.48,339.2339 622,344.8039 C663.27,360.6239 708.229,368.5309 743.269,372.9309" fill="none" id="f1-to-d1" style="stroke:#2E7D32;stroke-width:2;"/><polygon fill="#2E7D32" points="748.23,373.5539,739.7985,368.4637,743.269,372.9309,738.8018,376.4014,748.23,373.5539" style="stroke:#2E7D32;stroke-width:2;stroke-linejoin:miter;stroke-miterlimit:10;"/><text fill="#000000" font-family="'Noto Sans CJK JP'" font-size="13" lengthAdjust="spacing" textLength="132.9122" x="446" y="282.8839">&#9313; &#12501;&#12449;&#12452;&#12523;&#12399;&#12300;&#31227;&#21205;&#12301;</text></g><!--link f2 to d1--><g class="link" data-entity-1="ent0005" data-entity-2="ent0012" data-link-type="dependency" data-source-line="32" id="lnk18"><path d="M320.07,346.8839 C448.88,355.3239 653.0007,368.6972 743.2507,374.6072" fill="none" id="f2-to-d1" style="stroke:#2E7D32;stroke-width:2;"/><polygon fill="#2E7D32" points="748.24,374.9339,739.5206,370.3543,743.2507,374.6072,738.9979,378.3372,748.24,374.9339" style="stroke:#2E7D32;stroke-width:2;stroke-linejoin:miter;stroke-miterlimit:10;"/><text fill="#000000" font-family="'Noto Sans CJK JP'" font-size="13" lengthAdjust="spacing" textLength="157.3522" x="433.5" y="350.8839">&#9313; ID&#12539;URL&#12539;&#29256;&#23653;&#27508;&#12399;&#32173;&#25345;</text></g><!--link f3 to d2--><g class="link" data-entity-1="ent0008" data-entity-2="ent0013" data-link-type="dependency" data-source-line="33" id="lnk19"><path d="M316.66,616.4239 C398.3,616.4639 511.04,604.7539 592,549.8039 C612.2,536.0939 601.75,517.4339 622,503.8039 C659.54,478.5439 706.7039,471.7718 743.3139,470.3218" fill="none" id="f3-to-d2" style="stroke:#2E7D32;stroke-width:2;"/><polygon fill="#2E7D32" points="748.31,470.1239,739.1587,466.4832,743.3139,470.3218,739.4754,474.4769,748.31,470.1239" style="stroke:#2E7D32;stroke-width:2;stroke-linejoin:miter;stroke-miterlimit:10;"/><text fill="#000000" font-family="'Noto Sans CJK JP'" font-size="13" lengthAdjust="spacing" textLength="13" x="505.5" y="545.8839">&#9313;</text></g><!--link b1 to d1--><g class="link" data-entity-1="ent0006" data-entity-2="ent0012" data-link-type="dependency" data-source-line="34" id="lnk20"><path d="M291.13,420.1239 C415.12,409.6439 646.0977,390.1248 743.3977,381.9048" fill="none" id="b1-to-d1" style="stroke:#F9A825;stroke-width:1;stroke-dasharray:7,7;"/><polygon fill="#F9A825" points="748.38,381.4839,739.0752,378.2557,743.3977,381.9048,739.7487,386.2273,748.38,381.4839" style="stroke:#F9A825;stroke-width:1;stroke-linejoin:miter;stroke-miterlimit:10;"/><text fill="#000000" font-family="'Noto Sans CJK JP'" font-size="13" lengthAdjust="spacing" textLength="132.9122" x="446" y="391.8839">&#9314; &#31227;&#34892;&#20808;&#12522;&#12531;&#12463;&#12434;&#35352;&#36617;</text></g><!--link b2 to d2--><g class="link" data-entity-1="ent0009" data-entity-2="ent0013" data-link-type="dependency" data-source-line="35" id="lnk21"><path d="M291.04,707.7139 C376.56,714.7639 511.46,711.3239 592,635.8039 C635.89,594.6539 578.79,545.6639 622,503.8039 C655.25,471.5839 705.0211,466.0883 743.3811,466.8983" fill="none" id="b2-to-d2" style="stroke:#F9A825;stroke-width:1;stroke-dasharray:7,7;"/><polygon fill="#F9A825" points="748.38,467.0039,739.4664,462.8148,743.3811,466.8983,739.2976,470.813,748.38,467.0039" style="stroke:#F9A825;stroke-width:1;stroke-linejoin:miter;stroke-miterlimit:10;"/><text fill="#000000" font-family="'Noto Sans CJK JP'" font-size="13" lengthAdjust="spacing" textLength="13" x="505.5" y="631.8839">&#9314;</text></g><!--link DST to GMN22--><g class="link" data-entity-1="ent0010" data-entity-2="ent0023" data-link-type="association" data-source-line="38" id="lnk24"><path d="M683.8164,567.2394 C682.9346,567.1692 682.0507,567.0961 681.165,567.0201 C624.4775,562.1564 559.975,545.3189 523,498.3039 C466.4,426.3339 476.4,371.1139 523,292.3039 C548.25,249.5939 590.65,218.3339 634.45,195.8439" fill="none" id="DST-GMN22" style="stroke:#181818;stroke-width:1;stroke-dasharray:7,7;"/></g><?plantuml-src hLHPJnDX57sVNt5JNf08eKFAzc12e1ZH40FwX3nCcHbiB3Ec7QE98UdCHxMrHOgo646bX4NGWhW2Rl_5oqpBl_3EDuLk15zicgR9lUTyvvwxnEw4jRjIL9e0ML6bUn6ZNzUCGMb20T-WRkWmB6anw1su2WFNVKBiD3aaZTqPZ-htDBbNZ-XHQEZddugCs6r9rk-7jN5GfKXC4IAAQW0HHiFZjmsGmr5bp0Zhcc24ZOW2oERHsaBs3baSpLsCPuv-BgFrfB3q6Sr5Z4yZ-yvpScYjkMayfx3vtKxFK_HFV0wENpwrzzRSWFaApHqqVz6ty3NlP4mq2Pb1Aoq8gXwHbIZu25hCPUm4wwQtNtFI5B8j_cV11r8CXeTwULcTGJyy501EaFR2LsSzVypUygnOAm-MmsAh6B0FFjk76rxSNue3I54Zh4fZ1lYScQoJIpfB-pqjiZxsW2Ug_hgqOlx3qM7wEFCH6Y_h-ZYtAOLM7jawiXooJyYI5pomM0AhOShoeVdSTQ3AqvsZ_Npnq3NkbbRoZOnrJQBVDot60uCpXVoywBvW1sUShAsjlR8syOpQYXlfmjOqMXPr3nhHEa2sYEmzCiR5VqFseooxxR_95kjaJmgJzUrETeETs7EMKtNjxXk-0Gt1plv0iEkSTil_QBViFyymMJpHHMFJCjBW3xG7Ubj7MowvlDtmPtO5x6p6pavNUM0zSnO-53TcQ2ESP5QWYQg6-ZseGEse3eYbWEg7vf46CTZHroPU396qqUPJM0xEMIj15Sz3NkcZhRmvT8r-2wcalRVkv6bRTxsT4zIsix2UffmGubNqT_LqYe6AAbRXj5F8jjqHjtR9WEBR5yKVAI4are0yjbL1q7H3WP1k6Fe4wAhRJ7Bwv6QKxqgbaMXkypEn2KrDDJC7L1HGkhr64pj3TwEfgOAkxDN9G9Q9F63v_X1rt7HISPguOZo1vWgQisXc-93K3o8qdbPV-39LE9YxG6JlxEHZsYLdwRUdnLDIiegUfnj6pzdPgUeYIlfglBGJwyH5-Lm17I7xKGBSBQA7CivEsWsIuCND6aUEtTLSfDVHFE3SswuIHPF1TVul?></g></svg>