<svg xmlns="http://www.w3.org/2000/svg" xmlns:xlink="http://www.w3.org/1999/xlink" contentStyleType="text/css" data-diagram-type="DESCRIPTION" height="294px" preserveAspectRatio="none" style="width:1304px;height:294px;background:#FFFFFF;" version="1.1" viewBox="0 0 1304 294" width="1304px" zoomAndPan="magnify"><?plantuml 1.2026.6?><defs/><g><g class="title" data-source-line="5"><text fill="#000000" font-family="'Noto Sans CJK JP'" font-size="14" font-weight="700" lengthAdjust="spacing" textLength="433.5641" x="431.8096" y="26.2399">&#38283;&#30330;&#12501;&#12525;&#12540; &#8212; TypeScript &#12363;&#12425;&#12473;&#12503;&#12524;&#12483;&#12489;&#12471;&#12540;&#12488;&#32016;&#12389;&#12365;&#12473;&#12463;&#12522;&#12503;&#12488;&#12408;</text></g><!--entity ts--><g class="entity" data-qualified-name="ts" data-source-line="7" id="ent0001"><path d="M6,55.7719 L6,111.3157 A2.5,2.5 0 0 0 8.5,113.8157 L103.8037,113.8157 A2.5,2.5 0 0 0 106.3037,111.3157 L106.3037,63.2719 L96.3037,53.2719 L8.5,53.2719 A2.5,2.5 0 0 0 6,55.7719" fill="#F1F1F1" style="stroke:#181818;stroke-width:0.5;"/><path d="M96.3037,53.2719 L96.3037,60.7719 A2.5,2.5 0 0 0 98.8037,63.2719 L106.3037,63.2719" fill="#F1F1F1" style="stroke:#181818;stroke-width:0.5;"/><text fill="#000000" font-family="'Noto Sans CJK JP'" font-size="14" lengthAdjust="spacing" textLength="73.5697" x="16" y="79.5118">src/main.ts</text><text fill="#000000" font-family="'Noto Sans CJK JP'" font-size="14" lengthAdjust="spacing" textLength="80.3037" x="16" y="99.7838">(TypeScript)</text></g><!--entity manifest--><g class="entity" data-qualified-name="manifest" data-source-line="8" id="ent0002"><path d="M262.5,156.7719 L262.5,212.3157 A2.5,2.5 0 0 0 265,214.8157 L404.6555,214.8157 A2.5,2.5 0 0 0 407.1555,212.3157 L407.1555,164.2719 L397.1555,154.2719 L265,154.2719 A2.5,2.5 0 0 0 262.5,156.7719" fill="#F1F1F1" style="stroke:#181818;stroke-width:0.5;"/><path d="M397.1555,154.2719 L397.1555,161.7719 A2.5,2.5 0 0 0 399.6555,164.2719 L407.1555,164.2719" fill="#F1F1F1" style="stroke:#181818;stroke-width:0.5;"/><text fill="#000000" font-family="'Noto Sans CJK JP'" font-size="14" lengthAdjust="spacing" textLength="124.6555" x="272.5" y="180.5118">src/appsscript.json</text><text fill="#000000" font-family="'Noto Sans CJK JP'" font-size="14" lengthAdjust="spacing" textLength="93.4636" x="272.5" y="200.7838">(&#12510;&#12491;&#12501;&#12455;&#12473;&#12488;)</text></g><!--entity tsc--><g class="entity" data-qualified-name="tsc" data-source-line="9" id="ent0003"><rect fill="#F1F1F1" height="70.5438" rx="2.5" ry="2.5" style="stroke:#181818;stroke-width:0.5;" width="161.5055" x="254" y="48.2719"/><rect fill="#F1F1F1" height="10" style="stroke:#181818;stroke-width:0.5;" width="15" x="395.5055" y="53.2719"/><rect fill="#F1F1F1" height="2" style="stroke:#181818;stroke-width:0.5;" width="4" x="393.5055" y="55.2719"/><rect fill="#F1F1F1" height="2" style="stroke:#181818;stroke-width:0.5;" width="4" x="393.5055" y="59.2719"/><text fill="#000000" font-family="'Noto Sans CJK JP'" font-size="14" lengthAdjust="spacing" textLength="18.9699" x="269" y="84.5118">tsc</text><text fill="#000000" font-family="'Noto Sans CJK JP'" font-size="14" lengthAdjust="spacing" textLength="121.5055" x="269" y="104.7838">(&#22411;&#12481;&#12455;&#12483;&#12463; + &#22793;&#25563;)</text></g><!--entity js--><g class="entity" data-qualified-name="js" data-source-line="10" id="ent0004"><path d="M519,59.7719 L519,115.3157 A2.5,2.5 0 0 0 521.5,117.8157 L662.0095,117.8157 A2.5,2.5 0 0 0 664.5095,115.3157 L664.5095,67.2719 L654.5095,57.2719 L521.5,57.2719 A2.5,2.5 0 0 0 519,59.7719" fill="#F1F1F1" style="stroke:#181818;stroke-width:0.5;"/><path d="M654.5095,57.2719 L654.5095,64.7719 A2.5,2.5 0 0 0 657.0095,67.2719 L664.5095,67.2719" fill="#F1F1F1" style="stroke:#181818;stroke-width:0.5;"/><text fill="#000000" font-family="'Noto Sans CJK JP'" font-size="14" lengthAdjust="spacing" textLength="77.3777" x="529" y="83.5118">dist/main.js</text><text fill="#000000" font-family="'Noto Sans CJK JP'" font-size="14" lengthAdjust="spacing" textLength="125.5095" x="529" y="103.7838">(GAS &#29992; JavaScript)</text></g><!--entity manifest2--><g class="entity" data-qualified-name="manifest2" data-source-line="11" id="ent0005"><path d="M517,160.2719 L517,195.5438 A2.5,2.5 0 0 0 519.5,198.0438 L664.3915,198.0438 A2.5,2.5 0 0 0 666.8915,195.5438 L666.8915,167.7719 L656.8915,157.7719 L519.5,157.7719 A2.5,2.5 0 0 0 517,160.2719" fill="#F1F1F1" style="stroke:#181818;stroke-width:0.5;"/><path d="M656.8915,157.7719 L656.8915,165.2719 A2.5,2.5 0 0 0 659.3915,167.7719 L666.8915,167.7719" fill="#F1F1F1" style="stroke:#181818;stroke-width:0.5;"/><text fill="#000000" font-family="'Noto Sans CJK JP'" font-size="14" lengthAdjust="spacing" textLength="129.8915" x="527" y="184.0118">dist/appsscript.json</text></g><!--entity gasproj--><g class="entity" data-qualified-name="gasproj" data-source-line="12" id="ent0006"><path d="M999.7367,95.1052 C1002.7829,89.4012 1008.5575,90.2199 1011.6352,95.0697 C1014.5254,88.5791 1021.2123,88.1339 1025.131,93.9411 C1028.5404,87.7702 1034.2981,87.7827 1037.7402,93.9076 C1042.182,88.0764 1047.6816,86.0131 1052.1788,93.8489 C1055.5032,88.0263 1059.3961,86.6013 1064.7267,91.5013 C1068.1959,84.6028 1073.6481,85.2795 1077.9046,90.6561 C1081.9298,85.1357 1086.4978,83.6879 1090.6623,90.5122 C1094.6681,85.8771 1100.2626,85.592 1103.1214,91.8269 C1107.8009,85.0346 1111.9474,86.126 1116.1696,92.2876 C1120.2066,85.8722 1125.7203,86.0242 1128.8936,93.1021 C1132.787,87.0983 1138.6498,85.6279 1142.7137,92.925 C1147.4404,86.2825 1154.1809,87.8247 1156.6655,95.1625 C1159.7865,88.9171 1164.3497,89.6376 1168.3818,94.1723 C1172.9121,87.5301 1179.4772,88.8485 1181.9171,96.1949 C1187.9518,98.9904 1189.1855,103.6171 1183.2639,107.8002 C1190.2353,110.0123 1191.7986,116.3314 1185.7813,121.0173 C1191.1542,124.6552 1190.4761,129.3412 1185.422,132.6573 C1191.1602,136.7641 1190.2003,141.9248 1184.8606,145.5493 C1189.7295,149.5301 1189.1763,154.2835 1183.443,156.9455 C1189.3018,161.2496 1189.7169,167.1612 1182.8059,170.8816 C1178.6544,178.118 1174.2234,178.5228 1168.7341,172.2781 C1163.9758,178.2472 1159.5747,178.8598 1155.3101,171.7705 C1153.2241,177.9664 1147.1786,178.0277 1143.3756,173.7217 C1140.3366,179.3485 1134.4937,181.2248 1130.322,174.9658 C1125.3164,181.6184 1119.596,181.4205 1115.5932,173.922 C1113.4255,179.9928 1107.8079,182.1282 1103.4956,176.0592 C1099.8658,181.6418 1093.2486,181.8921 1090.0767,175.5442 C1086.3463,180.6969 1082.1158,182.4589 1077.909,176.0453 C1073.1378,181.7641 1068.2844,181.0113 1064.5441,174.8824 C1060.3534,179.3599 1056.0885,180.1055 1052.7912,173.8995 C1047.8233,181.4108 1041.6272,180.3824 1038.1048,172.5186 C1034.7908,178.0853 1028.9133,177.1237 1025.9185,172.1495 C1022.2766,178.5213 1016.2037,178.2837 1013.2819,171.46 C1008.7818,176.689 1004.5349,176.5879 1000.6783,170.7285 C993.0801,168.313 992.478,162.4958 998.4508,157.751 C990.7839,155.1455 989.8967,150.65 994.9377,144.6395 C989.2121,142.6739 988.092,138.1995 992.1921,133.7552 C986.9741,128.6379 987.9874,124.1643 994.6222,121.3731 C989.6923,115.8785 990.779,110.9888 997.5499,108.0691 C991.482,103.2421 992.0991,97.6203 999.7367,95.1052" fill="#F1F1F1" style="stroke:#181818;stroke-width:0.5;"/><text fill="#000000" font-family="'Noto Sans CJK JP'" font-size="14" lengthAdjust="spacing" textLength="167.9993" x="1005.5" y="117.5118">&#12473;&#12503;&#12524;&#12483;&#12489;&#12471;&#12540;&#12488;&#12395;&#32016;&#12389;&#12367;</text><text fill="#000000" font-family="'Noto Sans CJK JP'" font-size="14" lengthAdjust="spacing" textLength="161.4193" x="1005.5" y="137.7838">Apps Script &#12503;&#12525;&#12472;&#12455;&#12463;&#12488;</text><text fill="#000000" font-family="'Noto Sans CJK JP'" font-size="14" lengthAdjust="spacing" textLength="160.0193" x="1005.5" y="158.0557">(&#25313;&#24373;&#27231;&#33021; &#8594; Apps Script)</text></g><g class="entity" data-qualified-name="GMN12" data-source-line="21" id="ent0013"><path d="M890,212.7719 L890,279.244 A0,0 0 0 0 890,279.244 L1289.1833,279.244 A0,0 0 0 0 1289.1833,279.244 L1289.1833,222.7719 L1279.1833,212.7719 L1093.5,212.7719 L1089.5,177.4219 L1085.5,212.7719 L890,212.7719 A0,0 0 0 0 890,212.7719" fill="#FEFFDD" style="stroke:#181818;stroke-width:0.5;"/><path d="M1279.1833,212.7719 L1279.1833,222.7719 L1289.1833,222.7719 L1279.1833,212.7719" fill="#FEFFDD" style="stroke:#181818;stroke-width:0.5;"/><text fill="#000000" font-family="'Noto Sans CJK JP'" font-size="13" lengthAdjust="spacing" textLength="321.8023" x="896" y="232.8519">&#12473;&#12503;&#12524;&#12483;&#12489;&#12471;&#12540;&#12488;&#12398;&#12300;&#25313;&#24373;&#27231;&#33021; &#8594; Apps Script&#12301;&#12391;&#38283;&#12367;</text><text fill="#000000" font-family="'Noto Sans CJK JP'" font-size="13" lengthAdjust="spacing" textLength="378.1833" x="896" y="251.6759">container-bound &#12473;&#12463;&#12522;&#12503;&#12488;&#12290;onOpen &#12391;&#12513;&#12491;&#12517;&#12540;&#12364;&#36861;&#21152;&#12373;&#12428;&#12289;</text><text fill="#000000" font-family="'Noto Sans CJK JP'" font-size="13" lengthAdjust="spacing" textLength="312.0003" x="896" y="270.5">&#20197;&#24460;&#12399;&#21033;&#29992;&#32773;&#12364;&#12473;&#12503;&#12524;&#12483;&#12489;&#12471;&#12540;&#12488;&#12384;&#12369;&#12391;&#25805;&#20316;&#12391;&#12365;&#12427;&#12290;</text></g><!--link ts to tsc--><g class="link" data-entity-1="ent0001" data-entity-2="ent0003" data-link-type="dependency" data-source-line="14" id="lnk7"><path d="M106.2,83.7719 C147.09,83.7719 201.08,83.7719 248.78,83.7719" fill="none" id="ts-to-tsc" style="stroke:#181818;stroke-width:1;"/><polygon fill="#181818" points="253.78,83.7719,244.78,79.7719,248.78,83.7719,244.78,87.7719,253.78,83.7719" style="stroke:#181818;stroke-width:1;stroke-linejoin:miter;stroke-miterlimit:10;"/><text fill="#000000" font-family="'Noto Sans CJK JP'" font-size="13" lengthAdjust="spacing" textLength="86.8401" x="137" y="79.8519">mise run build</text></g><!--link manifest to manifest2--><g class="link" data-entity-1="ent0002" data-entity-2="ent0005" data-link-type="dependency" data-source-line="15" id="lnk8"><path d="M407.71,182.8019 C441.74,181.8719 477.3719,180.8887 511.7219,179.9487" fill="none" id="manifest-to-manifest2" style="stroke:#181818;stroke-width:1;"/><polygon fill="#181818" points="516.72,179.8119,507.6139,176.0596,511.7219,179.9487,507.8328,184.0566,516.72,179.8119" style="stroke:#181818;stroke-width:1;stroke-linejoin:miter;stroke-miterlimit:10;"/><text fill="#000000" font-family="'Noto Sans CJK JP'" font-size="13" lengthAdjust="spacing" textLength="39" x="447" y="175.8519">&#12467;&#12500;&#12540;</text></g><!--link tsc to js--><g class="link" data-entity-1="ent0003" data-entity-2="ent0004" data-link-type="dependency" data-source-line="16" id="lnk9"><path d="M416.33,85.0319 C449.18,85.5519 481.8906,86.0637 513.8406,86.5637" fill="none" id="tsc-to-js" style="stroke:#181818;stroke-width:1;"/><polygon fill="#181818" points="518.84,86.6419,509.9037,82.5016,513.8406,86.5637,509.7785,90.5006,518.84,86.6419" style="stroke:#181818;stroke-width:1;stroke-linejoin:miter;stroke-miterlimit:10;"/></g><!--link js to gasproj--><g class="link" data-entity-1="ent0004" data-entity-2="ent0006" data-link-type="dependency" data-source-line="17" id="lnk10"><path d="M665.05,94.1719 C750.81,101.7819 889.4496,114.0998 985.3196,122.6098" fill="none" id="js-to-gasproj" style="stroke:#181818;stroke-width:1;"/><polygon fill="#181818" points="990.3,123.0519,981.6889,118.2718,985.3196,122.6098,980.9816,126.2405,990.3,123.0519" style="stroke:#181818;stroke-width:1;stroke-linejoin:miter;stroke-miterlimit:10;"/><text fill="#000000" font-family="'Noto Sans CJK JP'" font-size="13" lengthAdjust="spacing" textLength="157.4302" x="700.275" y="73.8519">&#26041;&#27861;A: &#12456;&#12487;&#12451;&#12479;&#12408;&#36028;&#12426;&#20184;&#12369;</text><text fill="#000000" font-family="'Noto Sans CJK JP'" font-size="13" lengthAdjust="spacing" textLength="161.9801" x="698" y="92.6759">&#26041;&#27861;B: mise run clasp:push</text></g><!--link manifest2 to gasproj--><g class="link" data-entity-1="ent0005" data-entity-2="ent0006" data-link-type="dependency" data-source-line="18" id="lnk11"><path d="M667.18,170.8819 C753.17,162.9019 890.2314,150.1737 985.3214,141.3537" fill="none" id="manifest2-to-gasproj" style="stroke:#181818;stroke-width:1;"/><polygon fill="#181818" points="990.3,140.8919,980.969,137.7402,985.3214,141.3537,981.7079,145.706,990.3,140.8919" style="stroke:#181818;stroke-width:1;stroke-linejoin:miter;stroke-miterlimit:10;"/></g><?plantuml-src VPD1JzH05CVlyobUrel6W8b73YP8WWacQ897BhFjxDAbdMawinflsqxKXLq2AA16Wn8bW8eaeX44vBlms6Nz5hvsMQWas5ixl_T___Vl6ptfoP17F01Nb7ZLDyDAcb4U22YCAgDWZ4iDGoDtOUH-WUapkCYToNAagj8TKhwAuCfmzkG8FS5TzSYJPIXnNmlcYv814eoyyeG1ruk4OpmbcV6CB-3FKkFazI-qYsWtqUx3KMq17ZmEnPWJUQ41Z1kOJ66oY_ObsYzeBLfw_Kaeslh9zpcCLp6UIO5a2-sd3AjZlCDOoIFvWewS6m7tPB_Hu_BgkVAr0d0DHkSm7ePQPuVz5QqauMYNqJPISybQvg7UBGkuz4f26-Qe85HII0C5ensgQ2qJ7gSuEKssu3gqFawrPz_qsZcd_LnFcwwlIkhhpk0Od2oimmX_oFF-AZhFNp3uZvMRpF5LrON2PLbX_BaNr-ou72Gfw6MSufkOx6HJKefrSjHkhBJsVxGttdNi0HmzVGwvYgwtCjTXf2gC6GrzVRVIuM000ayBYAeIYbNFTrdFNaQSUIKEassq2sIDfNNfASrQwIgTAXFLNjfjRoyEflWwscUOVC3aaFvkvzi-9jF7UwymdX-NNUfshhdZayH0MDKJxBnfJfengOo0eZ961Q1APzy1Bi_lAzQQ_ui5QpCOhz52Ky8avD1zeXyiehvYUbtWuexM4YNlXKBIZjEsh6IBjfhsYfkTmuFMz7kCQU-QM8j9x7XljVMxYV5Mgxv1YzAfFI7iSgjKEq-oxHSpnmTlK_tqYZIe9HFa99tzBm00?></g></svg>