<svg xmlns="http://www.w3.org/2000/svg" xmlns:xlink="http://www.w3.org/1999/xlink" contentStyleType="text/css" data-diagram-type="SEQUENCE" height="665px" preserveAspectRatio="none" style="width:732px;height:665px;background:#FFFFFF;" version="1.1" viewBox="0 0 732 665" width="732px" zoomAndPan="magnify"><?plantuml 1.2026.3?><defs/><g><g class="title" data-source-line="1"><text fill="#000000" font-family="sans-serif" font-size="14" font-weight="700" lengthAdjust="spacing" textLength="330.2295" x="197.8023" y="27.9951">ZedToken &#12391;&#38450;&#12368; &#8212; &#12300;&#12371;&#12398;&#26178;&#28857;&#20197;&#38477;&#12391;&#35413;&#20385;&#12375;&#12390;&#12301;</text></g><g class="participant-lifeline" data-entity-uid="part1" data-qualified-name="alice" data-source-line="3" id="part1-lifeline"><g><title>alice</title><rect fill="#000000" fill-opacity="0.00000" height="464.125" width="8" x="20.3345" y="118.5938"/><line style="stroke:#181818;stroke-width:0.5;stroke-dasharray:5,5;" x1="24" x2="24" y1="118.5938" y2="582.7188"/></g></g><g class="participant-lifeline" data-entity-uid="part2" data-qualified-name="app" data-source-line="4" id="part2-lifeline"><g><title>...</title><rect fill="#000000" fill-opacity="0.00000" height="464.125" width="8" x="205.7111" y="118.5938"/><line style="stroke:#181818;stroke-width:0.5;stroke-dasharray:5,5;" x1="208.7112" x2="208.7112" y1="118.5938" y2="582.7188"/></g></g><g class="participant-lifeline" data-entity-uid="part3" data-qualified-name="db" data-source-line="5" id="part3-lifeline"><g><title>...DB</title><rect fill="#000000" fill-opacity="0.00000" height="464.125" width="8" x="412.8347" y="118.5938"/><line style="stroke:#181818;stroke-width:0.5;stroke-dasharray:5,5;" x1="416.6425" x2="416.6425" y1="118.5938" y2="582.7188"/></g></g><g class="participant-lifeline" data-entity-uid="part4" data-qualified-name="sp" data-source-line="6" id="part4-lifeline"><g><title>SpiceDB</title><rect fill="#000000" fill-opacity="0.00000" height="464.125" width="8" x="493.2062" y="118.5938"/><line style="stroke:#181818;stroke-width:0.5;stroke-dasharray:5,5;" x1="497.027" x2="497.027" y1="118.5938" y2="582.7188"/></g></g><g class="participant-lifeline" data-entity-uid="part5" data-qualified-name="bob" data-source-line="7" id="part5-lifeline"><g><title>bob</title><rect fill="#000000" fill-opacity="0.00000" height="464.125" width="8" x="555.5549" y="118.5938"/><line style="stroke:#181818;stroke-width:0.5;stroke-dasharray:5,5;" x1="559.3854" x2="559.3854" y1="118.5938" y2="582.7188"/></g></g><g class="participant participant-head" data-entity-uid="part1" data-qualified-name="alice" data-source-line="3" id="part1-head"><text fill="#000000" font-family="sans-serif" font-size="14" lengthAdjust="spacing" textLength="32.6689" x="5" y="115.292">alice</text><ellipse cx="24.3345" cy="50.7969" fill="#E2E2F0" rx="8" ry="8" style="stroke:#181818;stroke-width:0.5;"/><path d="M24.3345,58.7969 L24.3345,85.7969 M11.3345,66.7969 L37.3345,66.7969 M24.3345,85.7969 L11.3345,100.7969 M24.3345,85.7969 L37.3345,100.7969" fill="none" style="stroke:#181818;stroke-width:0.5;"/></g><g class="participant participant-tail" data-entity-uid="part1" data-qualified-name="alice" data-source-line="3" id="part1-tail"><text fill="#000000" font-family="sans-serif" font-size="14" lengthAdjust="spacing" textLength="32.6689" x="5" y="594.7139">alice</text><ellipse cx="24.3345" cy="606.5156" fill="#E2E2F0" rx="8" ry="8" style="stroke:#181818;stroke-width:0.5;"/><path d="M24.3345,614.5156 L24.3345,641.5156 M11.3345,622.5156 L37.3345,622.5156 M24.3345,641.5156 L11.3345,656.5156 M24.3345,641.5156 L37.3345,656.5156" fill="none" style="stroke:#181818;stroke-width:0.5;"/></g><g class="participant participant-head" data-entity-uid="part2" data-qualified-name="app" data-source-line="4" id="part2-head"><rect fill="#E2E2F0" height="30.2969" rx="2.5" ry="2.5" style="stroke:#181818;stroke-width:0.5;" width="55.9998" x="181.7112" y="87.2969"/><text fill="#000000" font-family="sans-serif" font-size="14" lengthAdjust="spacing" textLength="41.9998" x="188.7112" y="107.292">&#12450;&#12503;&#12522;</text></g><g class="participant participant-tail" data-entity-uid="part2" data-qualified-name="app" data-source-line="4" id="part2-tail"><rect fill="#E2E2F0" height="30.2969" rx="2.5" ry="2.5" style="stroke:#181818;stroke-width:0.5;" width="55.9998" x="181.7112" y="581.7188"/><text fill="#000000" font-family="sans-serif" font-size="14" lengthAdjust="spacing" textLength="41.9998" x="188.7112" y="601.7139">&#12450;&#12503;&#12522;</text></g><g class="participant participant-head" data-entity-uid="part3" data-qualified-name="db" data-source-line="5" id="part3-head"><text fill="#000000" font-family="sans-serif" font-size="14" lengthAdjust="spacing" textLength="62.3846" x="382.6425" y="115.292">&#12450;&#12503;&#12522;DB</text><path d="M398.8347,66.2969 C398.8347,56.2969 416.8347,56.2969 416.8347,56.2969 C416.8347,56.2969 434.8347,56.2969 434.8347,66.2969 L434.8347,92.2969 C434.8347,102.2969 416.8347,102.2969 416.8347,102.2969 C416.8347,102.2969 398.8347,102.2969 398.8347,92.2969 L398.8347,66.2969" fill="#D5E8D4" style="stroke:#181818;stroke-width:0.5;"/><path d="M398.8347,66.2969 C398.8347,76.2969 416.8347,76.2969 416.8347,76.2969 C416.8347,76.2969 434.8347,76.2969 434.8347,66.2969" fill="none" style="stroke:#181818;stroke-width:0.5;"/></g><g class="participant participant-tail" data-entity-uid="part3" data-qualified-name="db" data-source-line="5" id="part3-tail"><text fill="#000000" font-family="sans-serif" font-size="14" lengthAdjust="spacing" textLength="62.3846" x="382.6425" y="594.7139">&#12450;&#12503;&#12522;DB</text><path d="M398.8347,608.0156 C398.8347,598.0156 416.8347,598.0156 416.8347,598.0156 C416.8347,598.0156 434.8347,598.0156 434.8347,608.0156 L434.8347,634.0156 C434.8347,644.0156 416.8347,644.0156 416.8347,644.0156 C416.8347,644.0156 398.8347,644.0156 398.8347,634.0156 L398.8347,608.0156" fill="#D5E8D4" style="stroke:#181818;stroke-width:0.5;"/><path d="M398.8347,608.0156 C398.8347,618.0156 416.8347,618.0156 416.8347,618.0156 C416.8347,618.0156 434.8347,618.0156 434.8347,608.0156" fill="none" style="stroke:#181818;stroke-width:0.5;"/></g><g class="participant participant-head" data-entity-uid="part4" data-qualified-name="sp" data-source-line="6" id="part4-head"><rect fill="#E2E2F0" height="30.2969" rx="2.5" ry="2.5" style="stroke:#181818;stroke-width:0.5;" width="72.3584" x="461.027" y="87.2969"/><text fill="#000000" font-family="sans-serif" font-size="14" lengthAdjust="spacing" textLength="58.3584" x="468.027" y="107.292">SpiceDB</text></g><g class="participant participant-tail" data-entity-uid="part4" data-qualified-name="sp" data-source-line="6" id="part4-tail"><rect fill="#E2E2F0" height="30.2969" rx="2.5" ry="2.5" style="stroke:#181818;stroke-width:0.5;" width="72.3584" x="461.027" y="581.7188"/><text fill="#000000" font-family="sans-serif" font-size="14" lengthAdjust="spacing" textLength="58.3584" x="468.027" y="601.7139">SpiceDB</text></g><g class="participant participant-head" data-entity-uid="part5" data-qualified-name="bob" data-source-line="7" id="part5-head"><text fill="#000000" font-family="sans-serif" font-size="14" lengthAdjust="spacing" textLength="26.3389" x="543.3854" y="115.292">bob</text><ellipse cx="559.5549" cy="50.7969" fill="#E2E2F0" rx="8" ry="8" style="stroke:#181818;stroke-width:0.5;"/><path d="M559.5549,58.7969 L559.5549,85.7969 M546.5549,66.7969 L572.5549,66.7969 M559.5549,85.7969 L546.5549,100.7969 M559.5549,85.7969 L572.5549,100.7969" fill="none" style="stroke:#181818;stroke-width:0.5;"/></g><g class="participant participant-tail" data-entity-uid="part5" data-qualified-name="bob" data-source-line="7" id="part5-tail"><text fill="#000000" font-family="sans-serif" font-size="14" lengthAdjust="spacing" textLength="26.3389" x="543.3854" y="594.7139">bob</text><ellipse cx="559.5549" cy="606.5156" fill="#E2E2F0" rx="8" ry="8" style="stroke:#181818;stroke-width:0.5;"/><path d="M559.5549,614.5156 L559.5549,641.5156 M546.5549,622.5156 L572.5549,622.5156 M559.5549,641.5156 L546.5549,656.5156 M559.5549,641.5156 L572.5549,656.5156" fill="none" style="stroke:#181818;stroke-width:0.5;"/></g><g class="message" data-entity-1="part1" data-entity-2="part2" data-source-line="9" id="msg1"><polygon fill="#181818" points="197.7111,145.7266,207.7111,149.7266,197.7111,153.7266,201.7111,149.7266" style="stroke:#181818;stroke-width:1;"/><line style="stroke:#181818;stroke-width:1;" x1="24.3345" x2="203.7111" y1="149.7266" y2="149.7266"/><text fill="#000000" font-family="sans-serif" font-size="13" lengthAdjust="spacing" textLength="161.3766" x="31.3345" y="144.6606">&#9312; bob &#12434;&#12501;&#12457;&#12523;&#12480;&#12363;&#12425;&#22806;&#12377;</text></g><g class="message" data-entity-1="part2" data-entity-2="part4" data-source-line="10" id="msg2"><polygon fill="#181818" points="485.2062,174.8594,495.2062,178.8594,485.2062,182.8594,489.2062,178.8594" style="stroke:#181818;stroke-width:1;"/><line style="stroke:#181818;stroke-width:1;" x1="209.7111" x2="491.2062" y1="178.8594" y2="178.8594"/><text fill="#000000" font-family="sans-serif" font-size="13" lengthAdjust="spacing" textLength="233.5874" x="216.7111" y="173.7935">WriteRelationships (DELETE viewer)</text></g><g class="message" data-entity-1="part4" data-entity-2="part2" data-source-line="11" id="msg3"><polygon fill="#181818" points="220.7111,203.9922,210.7111,207.9922,220.7111,211.9922,216.7111,207.9922" style="stroke:#181818;stroke-width:1;"/><line style="stroke:#181818;stroke-width:1;stroke-dasharray:2,2;" x1="214.7111" x2="496.2062" y1="207.9922" y2="207.9922"/><text fill="#000000" font-family="sans-serif" font-size="13" lengthAdjust="spacing" textLength="27.9614" x="226.7111" y="202.9263">OK (</text><text fill="#000000" font-family="sans-serif" font-size="13" font-weight="700" lengthAdjust="spacing" textLength="91.8506" x="254.6725" y="202.9263">ZedToken t1</text><text fill="#000000" font-family="sans-serif" font-size="13" lengthAdjust="spacing" textLength="5.0718" x="346.5231" y="202.9263">)</text></g><g class="message" data-entity-1="part2" data-entity-2="part3" data-source-line="12" id="msg4"><polygon fill="#181818" points="404.8347,233.125,414.8347,237.125,404.8347,241.125,408.8347,237.125" style="stroke:#181818;stroke-width:1;"/><line style="stroke:#181818;stroke-width:1;" x1="209.7111" x2="410.8347" y1="237.125" y2="237.125"/><text fill="#000000" font-family="sans-serif" font-size="13" lengthAdjust="spacing" textLength="151.633" x="216.7111" y="232.0591">&#12501;&#12457;&#12523;&#12480;&#12398;&#34892;&#12395; t1 &#12434;&#20445;&#23384;</text></g><g class="message" data-entity-1="part1" data-entity-2="part2" data-source-line="13" id="msg5"><polygon fill="#181818" points="197.7111,262.2578,207.7111,266.2578,197.7111,270.2578,201.7111,266.2578" style="stroke:#181818;stroke-width:1;"/><line style="stroke:#181818;stroke-width:1;" x1="24.3345" x2="203.7111" y1="266.2578" y2="266.2578"/><text fill="#000000" font-family="sans-serif" font-size="13" lengthAdjust="spacing" textLength="155.4098" x="31.3345" y="261.1919">&#9313; &#27231;&#23494;&#25991;&#26360; secret &#12434;&#32622;&#12367;</text></g><g class="message" data-entity-1="part2" data-entity-2="part4" data-source-line="14" id="msg6"><polygon fill="#181818" points="485.2062,291.3906,495.2062,295.3906,485.2062,299.3906,489.2062,295.3906" style="stroke:#181818;stroke-width:1;"/><line style="stroke:#181818;stroke-width:1;" x1="209.7111" x2="491.2062" y1="295.3906" y2="295.3906"/><text fill="#000000" font-family="sans-serif" font-size="13" lengthAdjust="spacing" textLength="232.2036" x="216.7111" y="290.3247">WriteRelationships (CREATE secret)</text></g><g class="message" data-entity-1="part4" data-entity-2="part2" data-source-line="15" id="msg7"><polygon fill="#181818" points="220.7111,320.5234,210.7111,324.5234,220.7111,328.5234,216.7111,324.5234" style="stroke:#181818;stroke-width:1;"/><line style="stroke:#181818;stroke-width:1;stroke-dasharray:2,2;" x1="214.7111" x2="496.2062" y1="324.5234" y2="324.5234"/><text fill="#000000" font-family="sans-serif" font-size="13" lengthAdjust="spacing" textLength="27.9614" x="226.7111" y="319.4575">OK (</text><text fill="#000000" font-family="sans-serif" font-size="13" font-weight="700" lengthAdjust="spacing" textLength="91.8506" x="254.6725" y="319.4575">ZedToken t2</text><text fill="#000000" font-family="sans-serif" font-size="13" lengthAdjust="spacing" textLength="5.0718" x="346.5231" y="319.4575">)</text></g><g class="message" data-entity-1="part2" data-entity-2="part3" data-source-line="16" id="msg8"><polygon fill="#181818" points="404.8347,349.6563,414.8347,353.6563,404.8347,357.6563,408.8347,353.6563" style="stroke:#181818;stroke-width:1;"/><line style="stroke:#181818;stroke-width:1;" x1="209.7111" x2="410.8347" y1="353.6563" y2="353.6563"/><text fill="#000000" font-family="sans-serif" font-size="13" lengthAdjust="spacing" textLength="144.1236" x="216.7111" y="348.5903">secret &#12398;&#34892;&#12395; t2 &#12434;&#20445;&#23384;</text></g><g class="message" data-entity-1="part5" data-entity-2="part2" data-source-line="17" id="msg9"><polygon fill="#181818" points="220.7111,378.7891,210.7111,382.7891,220.7111,386.7891,216.7111,382.7891" style="stroke:#181818;stroke-width:1;"/><line style="stroke:#181818;stroke-width:1;" x1="214.7111" x2="558.5549" y1="382.7891" y2="382.7891"/><text fill="#000000" font-family="sans-serif" font-size="13" lengthAdjust="spacing" textLength="167.6289" x="226.7111" y="377.7231">&#9314; GET /documents/secret</text></g><g class="message" data-entity-1="part2" data-entity-2="part3" data-source-line="18" id="msg10"><polygon fill="#181818" points="404.8347,407.9219,414.8347,411.9219,404.8347,415.9219,408.8347,411.9219" style="stroke:#181818;stroke-width:1;"/><line style="stroke:#181818;stroke-width:1;" x1="209.7111" x2="410.8347" y1="411.9219" y2="411.9219"/><text fill="#000000" font-family="sans-serif" font-size="13" lengthAdjust="spacing" textLength="183.1237" x="216.7111" y="406.856">secret &#12398;&#34892;&#12363;&#12425; t2 &#12434;&#21462;&#12426;&#20986;&#12377;</text></g><g class="message" data-entity-1="part2" data-entity-2="part4" data-source-line="19" id="msg11"><polygon fill="#181818" points="485.2062,452.1875,495.2062,456.1875,485.2062,460.1875,489.2062,456.1875" style="stroke:#181818;stroke-width:1;"/><line style="stroke:#181818;stroke-width:1;" x1="209.7111" x2="491.2062" y1="456.1875" y2="456.1875"/><text fill="#000000" font-family="sans-serif" font-size="13" lengthAdjust="spacing" textLength="161.4146" x="216.7111" y="435.9888">Check(secret, view, bob)</text><text fill="#000000" font-family="sans-serif" font-size="13" font-weight="700" lengthAdjust="spacing" textLength="152.0137" x="216.7111" y="451.1216">at_least_as_fresh(t2)</text></g><path d="M502,469.1875 L502,509.1875 L721,509.1875 L721,479.1875 L711,469.1875 L502,469.1875" fill="#D5E8D4" style="stroke:#181818;stroke-width:0.5;"/><path d="M711,469.1875 L711,479.1875 L721,479.1875 L711,469.1875" fill="#D5E8D4" style="stroke:#181818;stroke-width:0.5;"/><text fill="#000000" font-family="sans-serif" font-size="13" lengthAdjust="spacing" textLength="198.8342" x="508" y="486.2544">t2 = &#9312;&#9313;&#12434;&#21547;&#12416;&#19990;&#30028;&#20197;&#38477;&#12391;&#35413;&#20385;&#12290;</text><text fill="#000000" font-family="sans-serif" font-size="13" lengthAdjust="spacing" textLength="130.0002" x="508" y="501.3872">&#21093;&#22890;&#12364;&#24517;&#12378;&#21453;&#26144;&#12373;&#12428;&#12427;</text><g class="message" data-entity-1="part4" data-entity-2="part2" data-source-line="24" id="msg12"><polygon fill="#181818" points="220.7111,531.5859,210.7111,535.5859,220.7111,539.5859,216.7111,535.5859" style="stroke:#181818;stroke-width:1;"/><line style="stroke:#181818;stroke-width:1;stroke-dasharray:2,2;" x1="214.7111" x2="496.2062" y1="535.5859" y2="535.5859"/><text fill="#000000" font-family="sans-serif" font-size="13" lengthAdjust="spacing" textLength="30.9258" x="226.7111" y="530.52">false</text></g><g class="message" data-entity-1="part2" data-entity-2="part5" data-source-line="25" id="msg13"><polygon fill="#181818" points="547.5549,560.7188,557.5549,564.7188,547.5549,568.7188,551.5549,564.7188" style="stroke:#181818;stroke-width:1;"/><line style="stroke:#181818;stroke-width:1;stroke-dasharray:2,2;" x1="209.7111" x2="553.5549" y1="564.7188" y2="564.7188"/><text fill="#000000" font-family="sans-serif" font-size="13" lengthAdjust="spacing" textLength="98.0777" x="216.7111" y="559.6528">404 &#8212; &#28431;&#12428;&#12394;&#12356;</text></g><?plantuml-src XLDRQnD157xVNt6eBydIKWqH9A2WpUA3Wb03WWXXifcOfN5tsHdrTMUZbjg4r4lIH16ROfGq6C6dUkr_wSbksd_XJ2wrYM1VPxxRVESCjtY9mbsQppXhr0OKduwRNr5imQ7_6j2le7Y5eX-rWc7mRV2ZSzogIiXHjpxutKQnZU8Z-bLD8oPtF20bowIQIpnkcPPBR0uB6EnYUHlBUmj0613NrVA4annXzDHT-jheDf-3S-cBngLqSbRZjYjb9nZcJhnoJaxQAaDOkgA48GM7BtRKEM3m4ijr3BfOxc7PHx69mKRueO6YfIca9325l-DPdAxI4k6MOxEYvJA8fOsRHiQ0HnPzJBsu9d5B9_gtRa1Crq-wuXTqFJuLbE5JCElQFshB-deIfn8D3jw5dvl_Hcv3r7qVVdaMDTQZj_l0gEbHhWZ3NtqKjJC3hwmQLsNWCU-Cm8dvm5EtlraJfxAgBaybtONhHWQMyuxvy06rELiUi_ydg8gVQ8Qr1WRFm_NlyrDOAL9pBJOcBewANrHJZD-pTPtmR8aInhE4PGiUPSKOJyHrNRCTJi6pxXSvE0KbCrqSK6wNrIR8PfNhLWy3Vx3V6DOhy-lh1n8URdJ2pXwAIdZm5CMRi5QDcZiev1mh66ngrCw3CfljjK1AZ8uV8SzKJIb8da-E_apqiwQuGce--GC0?></g></svg>