<svg xmlns="http://www.w3.org/2000/svg" xmlns:xlink="http://www.w3.org/1999/xlink" contentStyleType="text/css" data-diagram-type="DESCRIPTION" height="669px" preserveAspectRatio="none" style="width:646px;height:669px;background:#FFFFFF;" version="1.1" viewBox="0 0 646 669" width="646px" zoomAndPan="magnify"><?plantuml 1.2026.6?><defs/><g><g class="title" data-source-line="4"><text fill="#000000" font-family="'Noto Sans CJK JP'" font-size="14" font-weight="700" lengthAdjust="spacing" textLength="439.0661" x="100.151" y="26.2399">&#12489;&#12513;&#12452;&#12531;&#38291;&#12501;&#12457;&#12523;&#12480;&#31227;&#34892;&#12398;&#22721; &#8212; &#25163;&#21205;&#25805;&#20316;&#12391;&#12391;&#12365;&#12427;&#12371;&#12392;&#12539;&#12391;&#12365;&#12394;&#12356;&#12371;&#12392;</text></g><!--cluster SRC--><g class="cluster" data-qualified-name="SRC" data-source-line="6" id="ent0001"><rect fill="#FAFAFA" height="316" rx="4" ry="4" style="stroke:#181818;stroke-width:1;" width="284" x="143.58" y="48.2719"/><text fill="#000000" font-family="'Noto Sans CJK JP'" font-size="14" font-weight="700" lengthAdjust="spacing" textLength="268.3369" x="151.4115" y="66.5118">&#31227;&#34892;&#20803;: &#20491;&#20154; / &#21029;&#12489;&#12513;&#12452;&#12531; (@google.com)</text></g><!--cluster DST--><g class="cluster" data-qualified-name="DST" data-source-line="12" id="ent0005"><rect fill="#F0F8FF" height="125" rx="4" ry="4" style="stroke:#181818;stroke-width:1;" width="342" x="110.58" y="435.2719"/><text fill="#000000" font-family="'Noto Sans CJK JP'" font-size="14" font-weight="700" lengthAdjust="spacing" textLength="326.2968" x="118.4316" y="453.5118">&#31227;&#34892;&#20808;: Google Workspace (@misugi-corp.co.jp)</text></g><!--entity srcUser--><g class="entity" data-qualified-name="SRC.srcUser" data-source-line="7" id="ent0002"><ellipse cx="264.8117" cy="95.7719" fill="#F1F1F1" rx="8" ry="8" style="stroke:#181818;stroke-width:0.5;"/><path d="M264.8117,103.7719 L264.8117,130.7719 M251.8117,111.7719 L277.8117,111.7719 M264.8117,130.7719 L251.8117,145.7719 M264.8117,130.7719 L277.8117,145.7719" fill="none" style="stroke:#181818;stroke-width:0.5;"/><text fill="#000000" font-family="'Noto Sans CJK JP'" font-size="14" lengthAdjust="spacing" textLength="97.9996" x="197.08" y="163.5118">&#31227;&#34892;&#20803;&#12518;&#12540;&#12470;&#12540;</text><text fill="#000000" font-family="'Noto Sans CJK JP'" font-size="14" lengthAdjust="spacing" textLength="135.4634" x="197.08" y="183.7838">(&#12501;&#12449;&#12452;&#12523;&#12398;&#12458;&#12540;&#12490;&#12540;)</text></g><!--entity myDrive--><g class="entity" data-qualified-name="SRC.myDrive" data-source-line="8" id="ent0003"><path d="M171.58,249.2719 L209.58,249.2719 A6,6 0 0 1 213.58,253.2719 L220.58,270.2719 L357.0853,270.2719 A4,4 0 0 1 361.0853,274.2719 L361.0853,344.0876 A4,4 0 0 1 357.0853,348.0876 L171.58,348.0876 A4,4 0 0 1 167.58,344.0876 L167.58,253.2719 A4,4 0 0 1 171.58,249.2719" fill="#F1F1F1" style="stroke:#181818;stroke-width:0.5;"/><line style="stroke:#181818;stroke-width:0.5;" x1="167.58" x2="220.58" y1="270.2719" y2="270.2719"/><text fill="#000000" font-family="'Noto Sans CJK JP'" font-size="14" lengthAdjust="spacing" textLength="83.9996" x="177.58" y="293.5118">&#12510;&#12452;&#12489;&#12521;&#12452;&#12502;</text><text fill="#000000" font-family="'Noto Sans CJK JP'" font-size="14" lengthAdjust="spacing" textLength="111.9995" x="177.58" y="313.7838">&#31227;&#34892;&#23550;&#35937;&#12501;&#12457;&#12523;&#12480;</text><text fill="#000000" font-family="'Noto Sans CJK JP'" font-size="14" lengthAdjust="spacing" textLength="163.5053" x="177.58" y="334.0557">(&#12469;&#12502;&#12501;&#12457;&#12523;&#12480; + &#12501;&#12449;&#12452;&#12523;)</text></g><!--entity sd--><g class="entity" data-qualified-name="DST.sd" data-source-line="13" id="ent0006"><path d="M152.08,484.2719 C152.08,474.2719 264.8116,474.2719 264.8116,474.2719 C264.8116,474.2719 377.5431,474.2719 377.5431,484.2719 L377.5431,533.8157 C377.5431,543.8157 264.8116,543.8157 264.8116,543.8157 C264.8116,543.8157 152.08,543.8157 152.08,533.8157 L152.08,484.2719" fill="#F1F1F1" style="stroke:#181818;stroke-width:0.5;"/><path d="M152.08,484.2719 C152.08,494.2719 264.8116,494.2719 264.8116,494.2719 C264.8116,494.2719 377.5431,494.2719 377.5431,484.2719" fill="none" style="stroke:#181818;stroke-width:0.5;"/><text fill="#000000" font-family="'Noto Sans CJK JP'" font-size="14" lengthAdjust="spacing" textLength="83.9996" x="162.08" y="514.5118">&#20849;&#26377;&#12489;&#12521;&#12452;&#12502;</text><text fill="#000000" font-family="'Noto Sans CJK JP'" font-size="14" lengthAdjust="spacing" textLength="205.4631" x="162.08" y="534.7838">(&#25152;&#26377;&#32773;&#12399;&#20491;&#20154;&#12391;&#12399;&#12394;&#12367;&#12300;&#32068;&#32340;&#12301;)</text></g><g class="entity" data-qualified-name="GMN10" data-source-line="21" id="ent0011"><path d="M77.08,611.2719 L77.08,650.9199 A4,4 0 0 0 81.08,654.9199 L447.9924,654.9199 A4,4 0 0 0 451.9924,650.9199 L451.9924,617.2719 L441.9924,607.2719 L268.58,607.2719 L264.58,544.3419 L260.58,607.2719 L81.08,607.2719 A4,4 0 0 0 77.08,611.2719" fill="#FEFFDD" style="stroke:#181818;stroke-width:0.5;"/><path d="M441.9924,607.2719 L441.9924,615.2719 A2,2 0 0 0 443.9924,617.2719 L451.9924,617.2719 L441.9924,607.2719" fill="#FEFFDD" style="stroke:#181818;stroke-width:0.5;"/><text fill="#000000" font-family="'Noto Sans CJK JP'" font-size="13" lengthAdjust="spacing" textLength="351.0003" x="83.08" y="627.3519">&#12371;&#12398;&#12300;&#12501;&#12449;&#12452;&#12523;&#21336;&#20301;&#12394;&#12425;&#31227;&#21205;&#12391;&#12365;&#12427;&#12301;&#12392;&#12356;&#12358;&#20181;&#27096;&#12434;&#21033;&#29992;&#12375;&#12289;</text><text fill="#000000" font-family="'Noto Sans CJK JP'" font-size="13" font-weight="700" lengthAdjust="spacing" textLength="221.0003" x="83.08" y="646.1759">&#12501;&#12457;&#12523;&#12480;&#12399;&#20316;&#12426;&#30452;&#12375;&#12539;&#12501;&#12449;&#12452;&#12523;&#12399;&#31227;&#21205;</text><text fill="#000000" font-family="'Noto Sans CJK JP'" font-size="13" lengthAdjust="spacing" textLength="130.0002" x="306.9923" y="646.1759">&#12392;&#12356;&#12358;&#25126;&#30053;&#12391;&#31227;&#34892;&#12377;&#12427;</text></g><!--link srcUser to myDrive--><g class="link" data-entity-1="ent0002" data-entity-2="ent0003" data-link-type="association" data-source-line="9" id="lnk4"><path d="M264.58,188.6419 C264.58,207.9519 264.58,250.9819 264.58,270.1619" fill="none" id="srcUser-myDrive" style="stroke:#181818;stroke-width:1;"/></g><!--link myDrive to sd--><g class="link" data-entity-1="ent0003" data-entity-2="ent0006" data-link-type="dependency" data-source-line="16" id="lnk7"><path d="M167.39,309.6219 C121.58,319.7019 70.88,339.9019 42.58,380.2719 C6,432.4519 75.0465,465.0051 147.2065,484.7051" fill="none" id="myDrive-to-sd" style="stroke:#B00020;stroke-width:1;stroke-dasharray:7,7;"/><polygon fill="#B00020" points="152.03,486.0219,144.4012,479.7928,147.2065,484.7051,142.2943,487.5104,152.03,486.0219" style="stroke:#B00020;stroke-width:1;stroke-linejoin:miter;stroke-miterlimit:10;"/><text fill="#B00020" font-family="'Noto Sans CJK JP'" font-size="13" lengthAdjust="spacing" textLength="119.9121" x="72.518" y="396.3519">&#10007; &#12501;&#12457;&#12523;&#12480;&#12372;&#12392;&#31227;&#21205;</text><text fill="#B00020" font-family="'Noto Sans CJK JP'" font-size="13" lengthAdjust="spacing" textLength="177.7882" x="43.58" y="415.1759">(&#32068;&#32340;&#22806;&#12518;&#12540;&#12470;&#12540;&#12399;&#27177;&#38480;&#12456;&#12521;&#12540;)</text></g><!--link myDrive to sd--><g class="link" data-entity-1="ent0003" data-entity-2="ent0006" data-link-type="dependency" data-source-line="17" id="lnk8"><path d="M262.48,348.2919 C262.11,358.8319 261.77,369.9219 261.58,380.2719 C260.99,412.0519 261.8062,443.2757 262.8062,469.0557" fill="none" id="myDrive-to-sd-1" style="stroke:#B00020;stroke-width:1;stroke-dasharray:7,7;"/><polygon fill="#B00020" points="263,474.0519,266.6481,464.9036,262.8062,469.0557,258.6542,465.2137,263,474.0519" style="stroke:#B00020;stroke-width:1;stroke-linejoin:miter;stroke-miterlimit:10;"/><text fill="#B00020" font-family="'Noto Sans CJK JP'" font-size="13" lengthAdjust="spacing" textLength="132.9122" x="285.018" y="396.3519">&#10007; &#12458;&#12540;&#12490;&#12540;&#27177;&#38480;&#12398;&#35698;&#28193;</text><text fill="#B00020" font-family="'Noto Sans CJK JP'" font-size="13" lengthAdjust="spacing" textLength="177.7882" x="262.58" y="415.1759">(&#12489;&#12513;&#12452;&#12531;&#12434;&#12414;&#12383;&#12368;&#12392;&#23455;&#34892;&#19981;&#21487;)</text></g><!--link myDrive to sd--><g class="link" data-entity-1="ent0003" data-entity-2="ent0006" data-link-type="dependency" data-source-line="18" id="lnk9"><path d="M361.95,320.6619 C393.79,332.6119 425.77,351.2619 444.58,380.2719 C470.91,420.8919 432.0984,450.6187 381.3184,472.2987" fill="none" id="myDrive-to-sd-2" style="stroke:#1B5E20;stroke-width:2;"/><polygon fill="#1B5E20" points="376.72,474.2619,386.5678,474.4068,381.3184,472.2987,383.4266,467.0493,376.72,474.2619" style="stroke:#1B5E20;stroke-width:2;stroke-linejoin:miter;stroke-miterlimit:10;"/><text fill="#1B5E20" font-family="'Noto Sans CJK JP'" font-size="13" lengthAdjust="spacing" textLength="171.9122" x="455.518" y="396.3519">&#9675; &#12501;&#12449;&#12452;&#12523;&#21336;&#20301;&#12398;&#31227;&#21205;&#12399;&#21487;&#33021;</text><text fill="#1B5E20" font-family="'Noto Sans CJK JP'" font-size="13" lengthAdjust="spacing" textLength="177.7882" x="452.58" y="415.1759">(&#20849;&#26377;&#12489;&#12521;&#12452;&#12502;&#12398;&#12513;&#12531;&#12496;&#12540;&#12394;&#12425;)</text></g><?plantuml-src dLHTJzDW5BxVhpWPDtCwc2OcP26B0iu44s94uuLuKTPkJBQ-IriqnfZqGyp6M22oyH69P96F0N4BAWP1-36SjHl_mjDsmqxmncnfclEUztcUyvnpAa-bn2mdSHdWXGGtdLPYJ5H6kOm0_b6cC1ZZH1c6HXx0o4E_Jxv8bYSvdhrAYKb8S6bPy9n8R5haXvWa2XBq-vIKaXO0ZJmQ5TGtqFXslhI8HXdr7JJsq52RsyUjoXngDVEp1cTg2QnymIoKhSLYusGDjMtdNqIzWDeYQbKqZjiHRHUrTsxGvvE4kCA9IQBoku3cZ141KoqqZewW3ypSfbS21Eua6QFitZZBNFC39yFOeo7eYTsrV_361y355IPvmD3OGkCNwZ_eEIu6d0fSj3tIZlgkVMhCqjF5awNu4rcG22d1qZnPuKVZavDFCdQSbwLniGrVFstjLxocs0pw0QLuWt0TlBGkJ-Rri9HwAH1Fcn52eOlWsokDoKNWlbCzF6NIb9pbuW8Paad9qybKACwaBBdI-oBhuW-FFIPVmh7-MCpnXUSKReAJ2SwSsRVMyjtr1AoyIi6MEeDQtNNVwLRTwTOygdFDWtVDdoLKYssRU5jaMo-4dlKCXiFXM-4RF2TF2lppK9Go8083SPPcKgHz6ZrRMmQlCwYLQ0geFXgSWJudDpek_dKfu5AR6qlUNf8sgxfplhg0UjKkXFhNGVW_MPv9Q0DhjTQNhzPXvT_AlBE9-WVKJb5RHuskLitQEZMjSLWqv-jNAhivUFiUAPkWARkaopsBdYqNkYR7BAuqJcY1QgvZTglcwotZvBB0Da3WSg_jeIV9fDTOS6pSHJt_Hw1FP8e04qnHM0POmkupWBEiDHg2gyJOzpjwEXkl5ksDjxVyVUEuR6sla3bcRgTPek0ogXfX1eFTWr2tlnhwRFFZTpk5FXPTYrft6O91k02sSblDyYPnTZv4gyJi4qGUx19-0m00?></g></svg>