<svg xmlns="http://www.w3.org/2000/svg" xmlns:xlink="http://www.w3.org/1999/xlink" contentStyleType="text/css" data-diagram-type="DESCRIPTION" height="731px" preserveAspectRatio="none" style="width:908px;height:731px;background:#FFFFFF;" version="1.1" viewBox="0 0 908 731" width="908px" zoomAndPan="magnify"><?plantuml 1.2026.6?><defs/><g><g class="title" data-source-line="4"><text fill="#000000" font-family="'Noto Sans CJK JP'" font-size="14" font-weight="700" lengthAdjust="spacing" textLength="237.999" x="331.7736" y="26.2399">&#31227;&#34892;&#12473;&#12463;&#12522;&#12503;&#12488;&#12398;&#20840;&#20307;&#12450;&#12540;&#12461;&#12486;&#12463;&#12481;&#12515;</text></g><!--cluster Google Apps Script (??????????????)--><g class="cluster" data-qualified-name="Google Apps Script ................" data-source-line="8" id="ent0002"><path d="M10,232.7719 L347.9046,232.7719 A6,6 0 0 1 351.9046,236.7719 L358.9046,259.0438 L508,259.0438 A4,4 0 0 1 512,263.0438 L512,543.7719 A4,4 0 0 1 508,547.7719 L10,547.7719 A4,4 0 0 1 6,543.7719 L6,236.7719 A4,4 0 0 1 10,232.7719" fill="none" style="stroke:#000000;stroke-width:1.5;"/><line style="stroke:#000000;stroke-width:1.5;" x1="6" x2="358.9046" y1="259.0438" y2="259.0438"/><text fill="#000000" font-family="'Noto Sans CJK JP'" font-size="14" font-weight="700" lengthAdjust="spacing" textLength="339.9046" x="10" y="251.0118">Google Apps Script (&#31227;&#34892;&#20803;&#12450;&#12459;&#12454;&#12531;&#12488;&#12398;&#27177;&#38480;&#12391;&#23455;&#34892;)</text></g><!--entity gas--><g class="entity" data-qualified-name="Google Apps Script .................gas" data-source-line="9" id="ent0003"><rect fill="#F1F1F1" height="70.5438" rx="4" ry="4" style="stroke:#181818;stroke-width:0.5;" width="147.4635" x="217.5" y="271.7719"/><rect fill="#F1F1F1" height="10" style="stroke:#181818;stroke-width:0.5;" width="15" x="344.9635" y="276.7719"/><rect fill="#F1F1F1" height="2" style="stroke:#181818;stroke-width:0.5;" width="4" x="342.9635" y="278.7719"/><rect fill="#F1F1F1" height="2" style="stroke:#181818;stroke-width:0.5;" width="4" x="342.9635" y="282.7719"/><text fill="#000000" font-family="'Noto Sans CJK JP'" font-size="14" lengthAdjust="spacing" textLength="47.5298" x="232.5" y="308.0118">main.js</text><text fill="#000000" font-family="'Noto Sans CJK JP'" font-size="14" lengthAdjust="spacing" textLength="107.4635" x="232.5" y="328.2838">(&#31227;&#34892;&#12473;&#12463;&#12522;&#12503;&#12488;)</text></g><!--entity props--><g class="entity" data-qualified-name="Google Apps Script .................props" data-source-line="10" id="ent0004"><path d="M22.5,451.7719 C22.5,441.7719 93.2317,441.7719 93.2317,441.7719 C93.2317,441.7719 163.9635,441.7719 163.9635,451.7719 L163.9635,521.5876 C163.9635,531.5876 93.2317,531.5876 93.2317,531.5876 C93.2317,531.5876 22.5,531.5876 22.5,521.5876 L22.5,451.7719" fill="#F1F1F1" style="stroke:#181818;stroke-width:0.5;"/><path d="M22.5,451.7719 C22.5,461.7719 93.2317,461.7719 93.2317,461.7719 C93.2317,461.7719 163.9635,461.7719 163.9635,451.7719" fill="none" style="stroke:#181818;stroke-width:0.5;"/><text fill="#000000" font-family="'Noto Sans CJK JP'" font-size="14" lengthAdjust="spacing" textLength="69.9997" x="32.5" y="482.0118">&#12473;&#12463;&#12522;&#12503;&#12488;</text><text fill="#000000" font-family="'Noto Sans CJK JP'" font-size="14" lengthAdjust="spacing" textLength="69.9997" x="32.5" y="502.2838">&#12503;&#12525;&#12497;&#12486;&#12451;</text><text fill="#000000" font-family="'Noto Sans CJK JP'" font-size="14" lengthAdjust="spacing" textLength="121.4635" x="32.5" y="522.5557">(&#36914;&#25431;&#29366;&#24907;&#12398;&#20445;&#23384;&#20808;)</text></g><!--entity trigger--><g class="entity" data-qualified-name="Google Apps Script .................trigger" data-source-line="11" id="ent0005"><rect fill="#F1F1F1" height="70.5438" rx="4" ry="4" style="stroke:#181818;stroke-width:0.5;" width="95.9998" x="255" y="451.2719"/><rect fill="#F1F1F1" height="10" style="stroke:#181818;stroke-width:0.5;" width="15" x="330.9998" y="456.2719"/><rect fill="#F1F1F1" height="2" style="stroke:#181818;stroke-width:0.5;" width="4" x="328.9998" y="458.2719"/><rect fill="#F1F1F1" height="2" style="stroke:#181818;stroke-width:0.5;" width="4" x="328.9998" y="462.2719"/><text fill="#000000" font-family="'Noto Sans CJK JP'" font-size="14" lengthAdjust="spacing" textLength="55.9998" x="270" y="487.5118">&#26178;&#38291;&#20027;&#23566;</text><text fill="#000000" font-family="'Noto Sans CJK JP'" font-size="14" lengthAdjust="spacing" textLength="55.9998" x="270" y="507.7838">&#12488;&#12522;&#12460;&#12540;</text></g><!--entity user--><g class="entity" data-qualified-name="user" data-source-line="6" id="ent0001"><ellipse cx="290.8398" cy="55.2719" fill="#F1F1F1" rx="8" ry="8" style="stroke:#181818;stroke-width:0.5;"/><path d="M290.8398,63.2719 L290.8398,90.2719 M277.8398,71.2719 L303.8398,71.2719 M290.8398,90.2719 L277.8398,105.2719 M290.8398,90.2719 L303.8398,105.2719" fill="none" style="stroke:#181818;stroke-width:0.5;"/><text fill="#000000" font-family="'Noto Sans CJK JP'" font-size="14" lengthAdjust="spacing" textLength="97.9996" x="241" y="123.0118">&#31227;&#34892;&#20803;&#12518;&#12540;&#12470;&#12540;</text><text fill="#000000" font-family="'Noto Sans CJK JP'" font-size="14" lengthAdjust="spacing" textLength="99.6796" x="241" y="143.2838">(@google.com)</text></g><!--entity api--><g class="entity" data-qualified-name="api" data-source-line="14" id="ent0006"><path d="M536.9781,460.5737 C540.2253,454.3779 545.3154,453.2229 550.0946,458.8781 C552.9177,452.0072 557.223,451.6146 562.2,456.6969 C564.887,450.5736 570.3411,450.8275 573.7387,455.9691 C576.55,449.9827 582.4757,448.1159 586.8671,454.259 C588.5746,448.1964 594.2774,447.2699 598.2884,451.7678 C604.112,445.4439 607.7348,447.8131 611.335,454.073 C614.7237,449.9394 619.5757,450.1702 621.8048,455.3733 C625.6745,449.8949 631.3307,449.4825 634.3309,456.2619 C639.2426,451.2622 644.2582,453.5627 645.9458,459.642 C650.3602,453.5159 655.2245,455.6461 658.1231,461.2196 C665.1349,462.3387 666.7016,468.796 662.7086,473.896 C670.2932,476.437 670.8441,481.1847 666.3533,487.0672 C671.3751,493.0114 669.508,498.2033 662.4831,500.7367 C667.4321,507.0916 666.8531,512.9463 658.0194,514.9828 C655.3151,519.5703 649.964,520.9239 647.1514,515.0957 C644.5085,521.8962 639.7524,522.6076 634.3744,518.2188 C631.3457,524.2437 627.7941,524.2501 623.7181,519.2292 C620.2847,524.7142 614.6925,525.1034 611.348,519.1332 C608.2652,526.9242 602.7145,527.6806 597.3936,521.3438 C593.2864,525.7734 588.1941,526.0774 585.3661,519.8941 C582.1196,524.803 576.7813,524.1404 574.5031,518.8616 C569.7836,524.7225 565.3166,522.3239 562.5057,516.8428 C558.0725,522.3819 552.6256,522.372 549.7818,515.246 C545.9658,521.1228 540.9902,520.6509 536.9512,515.5056 C530.9613,511.9446 530.7266,505.0196 536.6197,501.1835 C529.6667,498.6934 529.3099,493.3952 533.9679,488.4812 C528.5384,482.965 529.5058,477.3102 536.9386,474.5336 C530.3324,469.901 529.6744,465.167 536.9781,460.5737" fill="#F1F1F1" style="stroke:#181818;stroke-width:0.5;"/><text fill="#000000" font-family="'Noto Sans CJK JP'" font-size="14" lengthAdjust="spacing" textLength="76.7757" x="543.5" y="482.5118">Drive API v3</text><text fill="#000000" font-family="'Noto Sans CJK JP'" font-size="14" lengthAdjust="spacing" textLength="107.4635" x="543.5" y="502.7838">(&#39640;&#24230;&#12394;&#12469;&#12540;&#12499;&#12473;)</text></g><!--entity my--><g class="entity" data-qualified-name="my" data-source-line="16" id="ent0007"><path d="M697,632.7719 L735,632.7719 A6,6 0 0 1 739,636.7719 L746,653.7719 L816.9996,653.7719 A4,4 0 0 1 820.9996,657.7719 L820.9996,707.3157 A4,4 0 0 1 816.9996,711.3157 L697,711.3157 A4,4 0 0 1 693,707.3157 L693,636.7719 A4,4 0 0 1 697,632.7719" fill="#F1F1F1" style="stroke:#181818;stroke-width:0.5;"/><line style="stroke:#181818;stroke-width:0.5;" x1="693" x2="746" y1="653.7719" y2="653.7719"/><text fill="#000000" font-family="'Noto Sans CJK JP'" font-size="14" lengthAdjust="spacing" textLength="83.9996" x="703" y="677.0118">&#12510;&#12452;&#12489;&#12521;&#12452;&#12502;</text><text fill="#000000" font-family="'Noto Sans CJK JP'" font-size="14" lengthAdjust="spacing" textLength="97.9996" x="703" y="697.2838">&#31227;&#34892;&#20803;&#12501;&#12457;&#12523;&#12480;</text></g><!--entity sd--><g class="entity" data-qualified-name="sd" data-source-line="17" id="ent0008"><path d="M249.5,647.2719 C249.5,637.2719 327.9247,637.2719 327.9247,637.2719 C327.9247,637.2719 406.3494,637.2719 406.3494,647.2719 L406.3494,696.8157 C406.3494,706.8157 327.9247,706.8157 327.9247,706.8157 C327.9247,706.8157 249.5,706.8157 249.5,696.8157 L249.5,647.2719" fill="#F1F1F1" style="stroke:#181818;stroke-width:0.5;"/><path d="M249.5,647.2719 C249.5,657.2719 327.9247,657.2719 327.9247,657.2719 C327.9247,657.2719 406.3494,657.2719 406.3494,647.2719" fill="none" style="stroke:#181818;stroke-width:0.5;"/><text fill="#000000" font-family="'Noto Sans CJK JP'" font-size="14" lengthAdjust="spacing" textLength="83.9996" x="259.5" y="677.5118">&#20849;&#26377;&#12489;&#12521;&#12452;&#12502;</text><text fill="#000000" font-family="'Noto Sans CJK JP'" font-size="14" lengthAdjust="spacing" textLength="136.8494" x="259.5" y="697.7838">(@misugi-corp.co.jp)</text></g><g class="entity" data-qualified-name="GMN16" data-source-line="28" id="ent0017"><path d="M442,643.2719 L442,668.2719 L406.91,672.2719 L442,676.2719 L442,701.744 A4,4 0 0 0 446,705.744 L654.0002,705.744 A4,4 0 0 0 658.0002,701.744 L658.0002,649.2719 L648.0002,639.2719 L446,639.2719 A4,4 0 0 0 442,643.2719" fill="#FEFFDD" style="stroke:#181818;stroke-width:0.5;"/><path d="M648.0002,639.2719 L648.0002,647.2719 A2,2 0 0 0 650.0002,649.2719 L658.0002,649.2719 L648.0002,639.2719" fill="#FEFFDD" style="stroke:#181818;stroke-width:0.5;"/><text fill="#000000" font-family="'Noto Sans CJK JP'" font-size="13" lengthAdjust="spacing" textLength="195.0002" x="448" y="659.3519">&#20107;&#21069;&#28310;&#20633;&#12392;&#12375;&#12390;&#31227;&#34892;&#20803;&#12518;&#12540;&#12470;&#12540;&#12434;</text><text fill="#000000" font-family="'Noto Sans CJK JP'" font-size="13" lengthAdjust="spacing" textLength="169.0002" x="448" y="678.1759">&#12300;&#12467;&#12531;&#12486;&#12531;&#12484;&#31649;&#29702;&#32773;&#12301;&#20197;&#19978;&#12398;</text><text fill="#000000" font-family="'Noto Sans CJK JP'" font-size="13" lengthAdjust="spacing" textLength="169.0002" x="448" y="697">&#12513;&#12531;&#12496;&#12540;&#12392;&#12375;&#12390;&#36861;&#21152;&#12375;&#12390;&#12362;&#12367;</text></g><!--link user to gas--><g class="link" data-entity-1="ent0001" data-entity-2="ent0003" data-link-type="dependency" data-source-line="19" id="lnk9"><path d="M291,147.8319 C291,186.0419 291,232.9019 291,266.7219" fill="none" id="user-to-gas" style="stroke:#181818;stroke-width:1;"/><polygon fill="#181818" points="291,271.7219,295,262.7219,291,266.7219,287,262.7219,291,271.7219" style="stroke:#181818;stroke-width:1;stroke-linejoin:miter;stroke-miterlimit:10;"/><text fill="#000000" font-family="'Noto Sans CJK JP'" font-size="13" lengthAdjust="spacing" textLength="144.1831" x="292" y="193.8519">&#9312; startMigration &#12434;&#23455;&#34892;</text><text fill="#000000" font-family="'Noto Sans CJK JP'" font-size="13" lengthAdjust="spacing" textLength="125.7881" x="301.1975" y="212.6759">(&#21021;&#22238;&#12398;&#12415;&#27177;&#38480;&#12434;&#25215;&#35469;)</text></g><!--link gas to api--><g class="link" data-entity-1="ent0003" data-entity-2="ent0006" data-link-type="dependency" data-source-line="20" id="lnk10"><path d="M364.76,328.6619 C397.33,339.3119 435.34,354.0719 467,372.7719 C503.44,394.2919 535.7566,423.0243 560.5566,447.5743" fill="none" id="gas-to-api" style="stroke:#181818;stroke-width:1;"/><polygon fill="#181818" points="564.11,451.0919,560.5279,441.9176,560.5566,447.5743,554.8998,447.603,564.11,451.0919" style="stroke:#181818;stroke-width:1;stroke-linejoin:miter;stroke-miterlimit:10;"/><text fill="#000000" font-family="'Noto Sans CJK JP'" font-size="13" lengthAdjust="spacing" textLength="222.9112" x="521" y="398.3519">&#9313; files.list / files.create / files.update</text></g><!--link api to my--><g class="link" data-entity-1="ent0006" data-entity-2="ent0007" data-link-type="dependency" data-source-line="21" id="lnk11"><path d="M627.09,522.2819 C654.43,553.6419 691.4342,596.0732 719.8742,628.6932" fill="none" id="api-to-my" style="stroke:#181818;stroke-width:1;"/><polygon fill="#181818" points="723.16,632.4619,720.2605,623.0495,719.8742,628.6932,714.2305,628.3068,723.16,632.4619" style="stroke:#181818;stroke-width:1;stroke-linejoin:miter;stroke-miterlimit:10;"/><text fill="#000000" font-family="'Noto Sans CJK JP'" font-size="13" lengthAdjust="spacing" textLength="52.0001" x="768.7731" y="579.8519">&#19968;&#35239;&#21462;&#24471;</text><text fill="#000000" font-family="'Noto Sans CJK JP'" font-size="13" lengthAdjust="spacing" textLength="195.5462" x="697" y="598.6759">removeParents (&#31227;&#21205;&#20803;&#12363;&#12425;&#22806;&#12377;)</text></g><!--link api to sd--><g class="link" data-entity-1="ent0006" data-entity-2="ent0008" data-link-type="dependency" data-source-line="22" id="lnk12"><path d="M560.28,522.3019 C546.05,534.2419 529.09,546.8419 512,555.7719 C500.91,561.5619 496.3,558.3919 485,563.7719 C443.39,583.5719 404.477,610.6785 374.067,634.0085" fill="none" id="api-to-sd" style="stroke:#181818;stroke-width:1;"/><polygon fill="#181818" points="370.1,637.0519,379.6754,634.7473,374.067,634.0085,374.8059,628.4001,370.1,637.0519" style="stroke:#181818;stroke-width:1;stroke-linejoin:miter;stroke-miterlimit:10;"/><text fill="#000000" font-family="'Noto Sans CJK JP'" font-size="13" lengthAdjust="spacing" textLength="78.0001" x="533.424" y="579.8519">&#12501;&#12457;&#12523;&#12480;&#20316;&#25104;</text><text fill="#000000" font-family="'Noto Sans CJK JP'" font-size="13" lengthAdjust="spacing" textLength="172.8482" x="486" y="598.6759">addParents (&#31227;&#21205;&#20808;&#12395;&#20184;&#12369;&#12427;)</text></g><!--link gas to props--><g class="link" data-entity-1="ent0003" data-entity-2="ent0004" data-link-type="dependency" data-source-line="23" id="lnk13"><path d="M217.37,321.2019 C163.38,332.3519 96.69,350.2219 80,372.7719 C65.61,392.2219 66.6119,414.1199 72.9819,436.6899" fill="none" id="gas-to-props" style="stroke:#181818;stroke-width:1;"/><polygon fill="#181818" points="74.34,441.5019,75.745,431.7538,72.9819,436.6899,68.0458,433.9268,74.34,441.5019" style="stroke:#181818;stroke-width:1;stroke-linejoin:miter;stroke-miterlimit:10;"/><text fill="#000000" font-family="'Noto Sans CJK JP'" font-size="13" lengthAdjust="spacing" textLength="80.9121" x="103.438" y="388.8519">&#9314; &#36914;&#25431;&#12434;&#20445;&#23384;</text><text fill="#000000" font-family="'Noto Sans CJK JP'" font-size="13" lengthAdjust="spacing" textLength="125.7881" x="81" y="407.6759">(&#20013;&#26029;&#12539;&#20877;&#38283;&#12395;&#20633;&#12360;&#12427;)</text></g><!--link gas to trigger--><g class="link" data-entity-1="ent0003" data-entity-2="ent0005" data-link-type="dependency" data-source-line="24" id="lnk14"><path d="M242.25,343.0919 C233.62,351.7319 225.84,361.7219 221,372.7719 C214.04,388.6519 213.96,395.9319 221,411.7719 C228.32,428.2419 237.52,439.3424 251.05,450.9124" fill="none" id="gas-to-trigger" style="stroke:#181818;stroke-width:1;"/><polygon fill="#181818" points="254.85,454.1619,250.6096,445.2727,251.05,450.9124,245.4103,451.3527,254.85,454.1619" style="stroke:#181818;stroke-width:1;stroke-linejoin:miter;stroke-miterlimit:10;"/><text fill="#000000" font-family="'Noto Sans CJK JP'" font-size="13" lengthAdjust="spacing" textLength="93.9121" x="222" y="388.8519">&#9315; &#26178;&#38291;&#20999;&#12428;&#21069;&#12395;</text><text fill="#000000" font-family="'Noto Sans CJK JP'" font-size="13" lengthAdjust="spacing" textLength="65.0001" x="236.456" y="407.6759">&#20877;&#38283;&#12434;&#20104;&#32004;</text></g><!--link trigger to gas--><g class="link" data-entity-1="ent0005" data-entity-2="ent0003" data-link-type="dependency" data-source-line="25" id="lnk15"><path d="M314.63,451.2019 C320.62,428.7319 325.6,398.8619 320,372.7719 C317.84,362.6919 316.0106,356.8466 311.7906,347.4066" fill="none" id="trigger-to-gas" style="stroke:#181818;stroke-width:1;"/><polygon fill="#181818" points="309.75,342.8419,309.7713,352.6907,311.7906,347.4066,317.0747,349.4259,309.75,342.8419" style="stroke:#181818;stroke-width:1;stroke-linejoin:miter;stroke-miterlimit:10;"/><text fill="#000000" font-family="'Noto Sans CJK JP'" font-size="13" lengthAdjust="spacing" textLength="135.3951" x="323" y="388.8519">&#9316; resumeMigration &#12391;</text><text fill="#000000" font-family="'Noto Sans CJK JP'" font-size="13" lengthAdjust="spacing" textLength="52.0001" x="364.6975" y="407.6759">&#33258;&#21205;&#20877;&#38283;</text></g><?plantuml-src RLDDRzj64BtlhrZeP1_i7defUYXIf6ZG50qCvAhBHbmnJCHTOfTo4HG5H39o92jgx0IHRUIZSUpwIxNR96tWM7NzNp9SIluN7IuLMsvo8RdWl3TltflLjpqHCCLywl0ggzV2RwK8hp6Vqz8r6KfwdGbDBr_zdbwTAn5zLgnlCaV-w0cNLbbDyua_IjQ5SragmHNzWeHUMEDqk3qOhT-7-1t4Vq2o1yaA92s83anp9pr-1F5BIFw1U1-I1LiGGR912Ak4Kj5IWJND198jM_OMdsKnTScLqgtnsOhqfqkKQLhNN14IiCfjvgBwA_Ot_Je8DBrUKLuGqgbpBcmPzo56nZU5b6ndztHj2Q9jS_0hrY3bJuHI90-au2Aa9PzvOlQMniwVdARGu3ADA8U5x0RJAE9_HMLXtpZeifrr0zbE6w-pxifmyMtMxA2EzEIPsLyrpJ5Xe6IWBmh9rkBJtgFqS63-_2KdRENqyU_eYaM4odDTTE9dGYerMNTewHlbpQCHSz_H-S_pXlrLSxG54OB-pWrDC81tHJSMU8HKPSt1x4gGF8Tu4v8s9BlserSM4s4yXdWNaZua3Glrxv3piKtpLVQqVH4wTSdtTDtrPYfI1PZQxAsWQAeTGlBiwCpCLxc1z4lwVla5rI5JuG-UgrZeIK4XVbWaWqoczSmyUOvcGNGopYr-cBLFHdlTQP8pv4muYsLQfrMlnlLipTCX_Mnyg2ZEGdvsh0UedPCSaaFzEuXC3nkZhMtpe6V-NIaBnNqvp-UOmWYqNIJJUPpx47KWRflD7aHhqsS4sa62IOlIuwTPQwaicEDyn87Rrqy7gn0jGzmvrs-JjnEyfCMEu935Tg05wU5-riCz6fY5xcaF5wTluZM8MXSengjWIJPeiJUcTG_Y-wRTHKXPZD58VDGQ_dMNV41CHh595TTrdqza4MsNnUZUNYxV4X0Y9Dg9u9iXbTKyKahJemwsoOvwLjaEH2iGRNtoDcD_h8S6tgatza8ksEVTuS7wS6bXr6X2eviEVaiF5p7pl39PjmLBEVO3y-Zas2o-ABuXmie7X0k7viB-0m00?></g></svg>