<svg xmlns="http://www.w3.org/2000/svg" xmlns:xlink="http://www.w3.org/1999/xlink" contentStyleType="text/css" data-diagram-type="ACTIVITY" height="1458px" preserveAspectRatio="none" style="width:404px;height:1458px;background:#FFFFFF;" version="1.1" viewBox="0 0 404 1458" width="404px" zoomAndPan="magnify"><?plantuml 1.2026.6?><defs/><g><g class="title" data-source-line="3"><text fill="#000000" font-family="'Noto Sans CJK JP'" font-size="14" font-weight="700" lengthAdjust="spacing" textLength="255.457" x="73.4179" y="36.2399">runLoop / processFolder &#12398;&#20966;&#29702;&#12501;&#12525;&#12540;</text></g><ellipse cx="197.1464" cy="66.2719" fill="#222222" rx="10" ry="10" style="stroke:#222222;stroke-width:1;"/><rect fill="#F1F1F1" height="37.3761" rx="12.5" ry="12.5" style="stroke:#181818;stroke-width:0.5;" width="102.3326" x="145.9801" y="96.2719"/><text fill="#000000" font-family="'Noto Sans CJK JP'" font-size="12" lengthAdjust="spacing" textLength="82.3326" x="155.9801" y="120.192">CONFIG &#12434;&#26908;&#35388;</text><rect fill="#F1F1F1" height="54.7522" rx="12.5" ry="12.5" style="stroke:#181818;stroke-width:0.5;" width="208.1134" x="93.0896" y="153.648"/><text fill="#000000" font-family="'Noto Sans CJK JP'" font-size="12" lengthAdjust="spacing" textLength="72.0005" x="103.0896" y="177.5681">&#31227;&#34892;&#20808;&#12434;&#35299;&#27770;</text><text fill="#000000" font-family="'Noto Sans CJK JP'" font-size="12" lengthAdjust="spacing" textLength="188.1134" x="103.0896" y="194.9443">(&#20849;&#26377;&#12489;&#12521;&#12452;&#12502;&#20869;&#12391;&#12354;&#12427;&#12371;&#12392;&#12434;&#30906;&#35469;)</text><rect fill="#F1F1F1" height="37.3761" rx="12.5" ry="12.5" style="stroke:#181818;stroke-width:0.5;" width="267.5139" x="63.3894" y="228.4003"/><text fill="#000000" font-family="'Noto Sans CJK JP'" font-size="12" lengthAdjust="spacing" textLength="247.5139" x="73.3894" y="252.3204">&#12461;&#12517;&#12540;&#12395; (&#31227;&#34892;&#20803;&#12523;&#12540;&#12488;, &#31227;&#34892;&#20808;&#12523;&#12540;&#12488;) &#12434;&#25237;&#20837;</text><rect fill="#F1F1F1" height="37.3761" rx="12.5" ry="12.5" style="stroke:#181818;stroke-width:0.5;" width="167.2531" x="113.5198" y="394.0002"/><text fill="#000000" font-family="'Noto Sans CJK JP'" font-size="12" lengthAdjust="spacing" textLength="147.2531" x="123.5198" y="417.9203">&#29366;&#24907;&#12434; SUSPENDED &#12391;&#20445;&#23384;</text><rect fill="#F1F1F1" height="37.3761" rx="12.5" ry="12.5" style="stroke:#181818;stroke-width:0.5;" width="177.3212" x="108.4858" y="451.3764"/><text fill="#000000" font-family="'Noto Sans CJK JP'" font-size="12" lengthAdjust="spacing" textLength="157.3212" x="118.4858" y="475.2965">60&#31186;&#24460;&#12398;&#20877;&#38283;&#12488;&#12522;&#12460;&#12540;&#12434;&#20104;&#32004;</text><ellipse cx="197.1464" cy="519.7525" fill="none" rx="11" ry="11" style="stroke:#222222;stroke-width:1;"/><ellipse cx="197.1464" cy="519.7525" fill="#222222" rx="6" ry="6" style="stroke:#222222;stroke-width:1;"/><polygon fill="#F1F1F1" points="156.0396,344.0363,238.2531,344.0363,250.2531,356.0363,238.2531,368.0363,156.0396,368.0363,144.0396,356.0363,156.0396,344.0363" style="stroke:#181818;stroke-width:0.5;stroke-linejoin:miter;stroke-miterlimit:10;"/><text fill="#000000" font-family="'Noto Sans CJK JP'" font-size="11" lengthAdjust="spacing" textLength="21.9998" x="201.1464" y="380.7962">&#12399;&#12356;</text><text fill="#000000" font-family="'Noto Sans CJK JP'" font-size="11" lengthAdjust="spacing" textLength="82.2134" x="156.0396" y="360.8323">&#21046;&#38480;&#26178;&#38291;&#12434;&#36229;&#36942;?</text><text fill="#000000" font-family="'Noto Sans CJK JP'" font-size="11" lengthAdjust="spacing" textLength="32.9998" x="250.2531" y="352.8683">&#12356;&#12356;&#12360;</text><rect fill="#F1F1F1" height="54.7522" rx="12.5" ry="12.5" style="stroke:#181818;stroke-width:0.5;" width="200.0014" x="97.1457" y="572.7525"/><text fill="#000000" font-family="'Noto Sans CJK JP'" font-size="12" lengthAdjust="spacing" textLength="180.0014" x="107.1457" y="596.6726">&#12461;&#12517;&#12540;&#20808;&#38957;&#12398;&#12501;&#12457;&#12523;&#12480;&#12434;&#12300;&#35223;&#12367;&#12301;</text><text fill="#000000" font-family="'Noto Sans CJK JP'" font-size="12" lengthAdjust="spacing" textLength="152.1132" x="107.1457" y="614.0487">(&#23436;&#20102;&#12377;&#12427;&#12414;&#12391;&#21462;&#12426;&#20986;&#12373;&#12394;&#12356;)</text><rect fill="none" height="602.8809" style="stroke:#000000;stroke-width:1.5;" width="316.2927" x="41" y="639.0367"/><path d="M352.2927,639.0367 L352.2927,652.3086 L342.2927,662.3086 L41,662.3086" fill="none" style="stroke:#000000;stroke-width:1.5;"/><text fill="#000000" font-family="'Noto Sans CJK JP'" font-size="14" lengthAdjust="spacing" textLength="301.2927" x="44" y="656.2766">processFolder (&#12409;&#12365;&#31561; = &#20309;&#24230;&#12420;&#12426;&#30452;&#12375;&#12390;&#12418;&#23433;&#20840;)</text><rect fill="#F1F1F1" height="37.3761" rx="12.5" ry="12.5" style="stroke:#181818;stroke-width:0.5;" width="200.0014" x="97.1457" y="679.3086"/><text fill="#000000" font-family="'Noto Sans CJK JP'" font-size="12" lengthAdjust="spacing" textLength="180.0014" x="107.1457" y="703.2287">&#12501;&#12457;&#12523;&#12480;&#20869;&#12398;&#12501;&#12449;&#12452;&#12523;&#12434;&#19968;&#35239;&#21462;&#24471;</text><rect fill="#F1F1F1" height="54.7522" rx="12.5" ry="12.5" style="stroke:#181818;stroke-width:0.5;" width="188.6492" x="102.8218" y="794.9446"/><text fill="#000000" font-family="'Noto Sans CJK JP'" font-size="12" lengthAdjust="spacing" textLength="84.0006" x="112.8218" y="818.8647">&#12501;&#12449;&#12452;&#12523;&#12434;&#31227;&#21205;</text><text fill="#000000" font-family="'Noto Sans CJK JP'" font-size="12" lengthAdjust="spacing" textLength="168.6492" x="112.8218" y="836.2409">(addParents / removeParents)</text><rect fill="#F1F1F1" height="54.7522" rx="12.5" ry="12.5" style="stroke:#181818;stroke-width:0.5;" width="208.1134" x="93.0896" y="919.6608"/><text fill="#000000" font-family="'Noto Sans CJK JP'" font-size="12" lengthAdjust="spacing" textLength="72.0005" x="103.0896" y="943.5809">&#12467;&#12500;&#12540;&#12391;&#25937;&#28168;</text><text fill="#000000" font-family="'Noto Sans CJK JP'" font-size="12" lengthAdjust="spacing" textLength="188.1134" x="103.0896" y="960.9571">(&#12381;&#12428;&#12418;&#22833;&#25943;&#12394;&#12425;&#22833;&#25943;&#12522;&#12473;&#12488;&#12408;&#35352;&#37682;)</text><polygon fill="#F1F1F1" points="167.0396,869.6969,227.2532,869.6969,239.2532,881.6969,227.2532,893.6969,167.0396,893.6969,155.0396,881.6969,167.0396,869.6969" style="stroke:#181818;stroke-width:0.5;stroke-linejoin:miter;stroke-miterlimit:10;"/><text fill="#000000" font-family="'Noto Sans CJK JP'" font-size="11" lengthAdjust="spacing" textLength="21.9998" x="201.1464" y="906.4568">&#12399;&#12356;</text><text fill="#000000" font-family="'Noto Sans CJK JP'" font-size="11" lengthAdjust="spacing" textLength="60.2136" x="167.0396" y="886.4929">&#31227;&#21205;&#12395;&#22833;&#25943;?</text><text fill="#000000" font-family="'Noto Sans CJK JP'" font-size="11" lengthAdjust="spacing" textLength="32.9998" x="239.2532" y="878.5289">&#12356;&#12356;&#12360;</text><polygon fill="#F1F1F1" points="197.1464,994.4131,209.1464,1006.4131,197.1464,1018.4131,185.1464,1006.4131,197.1464,994.4131" style="stroke:#181818;stroke-width:0.5;stroke-linejoin:miter;stroke-miterlimit:10;"/><polygon fill="#F1F1F1" points="134.0398,736.6847,260.2529,736.6847,272.2529,748.6847,260.2529,760.6847,134.0398,760.6847,122.0398,748.6847,134.0398,736.6847" style="stroke:#181818;stroke-width:0.5;stroke-linejoin:miter;stroke-miterlimit:10;"/><text fill="#000000" font-family="'Noto Sans CJK JP'" font-size="11" lengthAdjust="spacing" textLength="21.9998" x="201.1464" y="773.4446">&#12354;&#12427;</text><text fill="#000000" font-family="'Noto Sans CJK JP'" font-size="11" lengthAdjust="spacing" textLength="126.2131" x="134.0398" y="753.4807">&#26410;&#20966;&#29702;&#12398;&#12501;&#12449;&#12452;&#12523;&#12364;&#12354;&#12427;?</text><text fill="#000000" font-family="'Noto Sans CJK JP'" font-size="11" lengthAdjust="spacing" textLength="21.9998" x="100.04" y="745.5168">&#12394;&#12356;</text><rect fill="#F1F1F1" height="37.3761" rx="12.5" ry="12.5" style="stroke:#181818;stroke-width:0.5;" width="152.001" x="121.1459" y="1060.4131"/><text fill="#000000" font-family="'Noto Sans CJK JP'" font-size="12" lengthAdjust="spacing" textLength="132.001" x="131.1459" y="1084.3332">&#12469;&#12502;&#12501;&#12457;&#12523;&#12480;&#12434;&#19968;&#35239;&#21462;&#24471;</text><rect fill="#F1F1F1" height="54.7522" rx="12.5" ry="12.5" style="stroke:#181818;stroke-width:0.5;" width="152.001" x="121.1459" y="1117.7892"/><text fill="#000000" font-family="'Noto Sans CJK JP'" font-size="12" lengthAdjust="spacing" textLength="132.001" x="131.1459" y="1141.7093">&#31227;&#34892;&#20808;&#12395;&#21516;&#21517;&#12501;&#12457;&#12523;&#12480;&#12434;</text><text fill="#000000" font-family="'Noto Sans CJK JP'" font-size="12" lengthAdjust="spacing" textLength="77.5685" x="131.1459" y="1159.0854">find-or-create</text><rect fill="#F1F1F1" height="37.3761" rx="12.5" ry="12.5" style="stroke:#181818;stroke-width:0.5;" width="224.0016" x="85.1456" y="1192.5414"/><text fill="#000000" font-family="'Noto Sans CJK JP'" font-size="12" lengthAdjust="spacing" textLength="204.0016" x="95.1456" y="1216.4615">&#12469;&#12502;&#12501;&#12457;&#12523;&#12480;&#12398;&#32068;&#12434;&#12461;&#12517;&#12540;&#26411;&#23614;&#12408;&#36861;&#21152;</text><rect fill="#F1F1F1" height="37.3761" rx="12.5" ry="12.5" style="stroke:#181818;stroke-width:0.5;" width="236.0016" x="79.1455" y="1261.9176"/><text fill="#000000" font-family="'Noto Sans CJK JP'" font-size="12" lengthAdjust="spacing" textLength="216.0016" x="89.1455" y="1285.8377">&#12461;&#12517;&#12540;&#12363;&#12425;&#20808;&#38957;&#12434;&#21462;&#12426;&#38500;&#12365;&#12289;&#29366;&#24907;&#12434;&#20445;&#23384;</text><polygon fill="#F1F1F1" points="117.5399,285.7764,276.7528,285.7764,288.7528,297.7764,276.7528,309.7764,117.5399,309.7764,105.5399,297.7764,117.5399,285.7764" style="stroke:#181818;stroke-width:0.5;stroke-linejoin:miter;stroke-miterlimit:10;"/><text fill="#000000" font-family="'Noto Sans CJK JP'" font-size="11" lengthAdjust="spacing" textLength="21.9998" x="201.1464" y="322.5363">&#12399;&#12356;</text><text fill="#000000" font-family="'Noto Sans CJK JP'" font-size="11" lengthAdjust="spacing" textLength="159.2129" x="117.5399" y="302.5724">&#12461;&#12517;&#12540;&#12395;&#12501;&#12457;&#12523;&#12480;&#12364;&#27531;&#12387;&#12390;&#12356;&#12427;?</text><text fill="#000000" font-family="'Noto Sans CJK JP'" font-size="11" lengthAdjust="spacing" textLength="32.9998" x="72.5401" y="294.6084">&#12356;&#12356;&#12360;</text><rect fill="#F1F1F1" height="54.7522" rx="12.5" ry="12.5" style="stroke:#181818;stroke-width:0.5;" width="260.4098" x="66.9415" y="1341.2937"/><text fill="#000000" font-family="'Noto Sans CJK JP'" font-size="12" lengthAdjust="spacing" textLength="48.0004" x="76.9415" y="1365.2138">&#23436;&#20102;&#20966;&#29702;</text><text fill="#000000" font-family="'Noto Sans CJK JP'" font-size="12" lengthAdjust="spacing" textLength="240.4098" x="76.9415" y="1382.5899">(DONE &#20445;&#23384;&#12539;&#12488;&#12522;&#12460;&#12540;&#21066;&#38500;&#12539;&#12524;&#12509;&#12540;&#12488;/&#36890;&#30693;)</text><ellipse cx="197.1464" cy="1427.0459" fill="none" rx="11" ry="11" style="stroke:#222222;stroke-width:1;"/><ellipse cx="197.1464" cy="1427.0459" fill="#222222" rx="6" ry="6" style="stroke:#222222;stroke-width:1;"/><line style="stroke:#181818;stroke-width:1;" x1="197.1464" x2="197.1464" y1="76.2719" y2="96.2719"/><polygon fill="#181818" points="193.1464,86.2719,197.1464,96.2719,201.1464,86.2719,197.1464,90.2719" style="stroke:#181818;stroke-width:1;stroke-linejoin:miter;stroke-miterlimit:10;"/><line style="stroke:#181818;stroke-width:1;" x1="197.1464" x2="197.1464" y1="133.648" y2="153.648"/><polygon fill="#181818" points="193.1464,143.648,197.1464,153.648,201.1464,143.648,197.1464,147.648" style="stroke:#181818;stroke-width:1;stroke-linejoin:miter;stroke-miterlimit:10;"/><line style="stroke:#181818;stroke-width:1;" x1="197.1464" x2="197.1464" y1="208.4003" y2="228.4003"/><polygon fill="#181818" points="193.1464,218.4003,197.1464,228.4003,201.1464,218.4003,197.1464,222.4003" style="stroke:#181818;stroke-width:1;stroke-linejoin:miter;stroke-miterlimit:10;"/><line style="stroke:#181818;stroke-width:1;" x1="197.1464" x2="197.1464" y1="431.3764" y2="451.3764"/><polygon fill="#181818" points="193.1464,441.3764,197.1464,451.3764,201.1464,441.3764,197.1464,445.3764" style="stroke:#181818;stroke-width:1;stroke-linejoin:miter;stroke-miterlimit:10;"/><line style="stroke:#181818;stroke-width:1;" x1="197.1464" x2="197.1464" y1="488.7525" y2="508.7525"/><polygon fill="#181818" points="193.1464,498.7525,197.1464,508.7525,201.1464,498.7525,197.1464,502.7525" style="stroke:#181818;stroke-width:1;stroke-linejoin:miter;stroke-miterlimit:10;"/><line style="stroke:#181818;stroke-width:1;" x1="197.1464" x2="197.1464" y1="368.0363" y2="394.0002"/><polygon fill="#181818" points="193.1464,384.0002,197.1464,394.0002,201.1464,384.0002,197.1464,388.0002" style="stroke:#181818;stroke-width:1;stroke-linejoin:miter;stroke-miterlimit:10;"/><line style="stroke:#181818;stroke-width:1;" x1="250.2531" x2="295.807" y1="356.0363" y2="356.0363"/><polygon fill="#181818" points="291.807,449.3764,295.807,459.3764,299.807,449.3764,295.807,453.3764" style="stroke:#181818;stroke-width:1;stroke-linejoin:miter;stroke-miterlimit:10;"/><line style="stroke:#181818;stroke-width:1;" x1="295.807" x2="295.807" y1="356.0363" y2="552.7525"/><line style="stroke:#181818;stroke-width:1;" x1="295.807" x2="197.1464" y1="552.7525" y2="552.7525"/><line style="stroke:#181818;stroke-width:1;" x1="197.1464" x2="197.1464" y1="552.7525" y2="572.7525"/><polygon fill="#181818" points="193.1464,562.7525,197.1464,572.7525,201.1464,562.7525,197.1464,566.7525" style="stroke:#181818;stroke-width:1;stroke-linejoin:miter;stroke-miterlimit:10;"/><line style="stroke:#181818;stroke-width:1;" x1="197.1464" x2="197.1464" y1="893.6969" y2="919.6608"/><polygon fill="#181818" points="193.1464,909.6608,197.1464,919.6608,201.1464,909.6608,197.1464,913.6608" style="stroke:#181818;stroke-width:1;stroke-linejoin:miter;stroke-miterlimit:10;"/><line style="stroke:#181818;stroke-width:1;" x1="239.2532" x2="311.2031" y1="881.6969" y2="881.6969"/><polygon fill="#181818" points="307.2031,937.037,311.2031,947.037,315.2031,937.037,311.2031,941.037" style="stroke:#181818;stroke-width:1;stroke-linejoin:miter;stroke-miterlimit:10;"/><line style="stroke:#181818;stroke-width:1;" x1="311.2031" x2="311.2031" y1="881.6969" y2="1006.4131"/><line style="stroke:#181818;stroke-width:1;" x1="311.2031" x2="209.1464" y1="1006.4131" y2="1006.4131"/><polygon fill="#181818" points="219.1464,1002.4131,209.1464,1006.4131,219.1464,1010.4131,215.1464,1006.4131" style="stroke:#181818;stroke-width:1;stroke-linejoin:miter;stroke-miterlimit:10;"/><line style="stroke:#181818;stroke-width:1;" x1="197.1464" x2="197.1464" y1="974.4131" y2="994.4131"/><polygon fill="#181818" points="193.1464,984.4131,197.1464,994.4131,201.1464,984.4131,197.1464,988.4131" style="stroke:#181818;stroke-width:1;stroke-linejoin:miter;stroke-miterlimit:10;"/><line style="stroke:#181818;stroke-width:1;" x1="197.1464" x2="197.1464" y1="849.6969" y2="869.6969"/><polygon fill="#181818" points="193.1464,859.6969,197.1464,869.6969,201.1464,859.6969,197.1464,863.6969" style="stroke:#181818;stroke-width:1;stroke-linejoin:miter;stroke-miterlimit:10;"/><line style="stroke:#181818;stroke-width:1;" x1="197.1464" x2="197.1464" y1="760.6847" y2="794.9446"/><polygon fill="#181818" points="193.1464,784.9446,197.1464,794.9446,201.1464,784.9446,197.1464,788.9446" style="stroke:#181818;stroke-width:1;stroke-linejoin:miter;stroke-miterlimit:10;"/><line style="stroke:#181818;stroke-width:1;" x1="197.1464" x2="197.1464" y1="1018.4131" y2="1028.4131"/><line style="stroke:#181818;stroke-width:1;" x1="197.1464" x2="335.2031" y1="1028.4131" y2="1028.4131"/><polygon fill="#181818" points="331.2031,892.1969,335.2031,882.1969,339.2031,892.1969,335.2031,888.1969" style="stroke:#181818;stroke-width:1;stroke-linejoin:miter;stroke-miterlimit:10;"/><line style="stroke:#181818;stroke-width:1;" x1="335.2031" x2="335.2031" y1="748.6847" y2="1028.4131"/><line style="stroke:#181818;stroke-width:1;" x1="335.2031" x2="272.2529" y1="748.6847" y2="748.6847"/><polygon fill="#181818" points="282.2529,744.6847,272.2529,748.6847,282.2529,752.6847,278.2529,748.6847" style="stroke:#181818;stroke-width:1;stroke-linejoin:miter;stroke-miterlimit:10;"/><line style="stroke:#181818;stroke-width:1;" x1="122.0398" x2="71.0896" y1="748.6847" y2="748.6847"/><polygon fill="#181818" points="67.0896,878.1969,71.0896,888.1969,75.0896,878.1969,71.0896,882.1969" style="stroke:#181818;stroke-width:1;stroke-linejoin:miter;stroke-miterlimit:10;"/><line style="stroke:#181818;stroke-width:1;" x1="71.0896" x2="71.0896" y1="748.6847" y2="1040.4131"/><line style="stroke:#181818;stroke-width:1;" x1="71.0896" x2="197.1464" y1="1040.4131" y2="1040.4131"/><line style="stroke:#181818;stroke-width:1;" x1="197.1464" x2="197.1464" y1="1040.4131" y2="1060.4131"/><polygon fill="#181818" points="193.1464,1050.4131,197.1464,1060.4131,201.1464,1050.4131,197.1464,1054.4131" style="stroke:#181818;stroke-width:1;stroke-linejoin:miter;stroke-miterlimit:10;"/><line style="stroke:#181818;stroke-width:1;" x1="197.1464" x2="197.1464" y1="716.6847" y2="736.6847"/><polygon fill="#181818" points="193.1464,726.6847,197.1464,736.6847,201.1464,726.6847,197.1464,730.6847" style="stroke:#181818;stroke-width:1;stroke-linejoin:miter;stroke-miterlimit:10;"/><line style="stroke:#181818;stroke-width:1;" x1="197.1464" x2="197.1464" y1="1097.7892" y2="1117.7892"/><polygon fill="#181818" points="193.1464,1107.7892,197.1464,1117.7892,201.1464,1107.7892,197.1464,1111.7892" style="stroke:#181818;stroke-width:1;stroke-linejoin:miter;stroke-miterlimit:10;"/><line style="stroke:#181818;stroke-width:1;" x1="197.1464" x2="197.1464" y1="1172.5414" y2="1192.5414"/><polygon fill="#181818" points="193.1464,1182.5414,197.1464,1192.5414,201.1464,1182.5414,197.1464,1186.5414" style="stroke:#181818;stroke-width:1;stroke-linejoin:miter;stroke-miterlimit:10;"/><line style="stroke:#181818;stroke-width:1;" x1="197.1464" x2="197.1464" y1="627.5047" y2="679.3086"/><polygon fill="#181818" points="193.1464,669.3086,197.1464,679.3086,201.1464,669.3086,197.1464,673.3086" style="stroke:#181818;stroke-width:1;stroke-linejoin:miter;stroke-miterlimit:10;"/><line style="stroke:#181818;stroke-width:1;" x1="197.1464" x2="197.1464" y1="1229.9176" y2="1261.9176"/><polygon fill="#181818" points="193.1464,1251.9176,197.1464,1261.9176,201.1464,1251.9176,197.1464,1255.9176" style="stroke:#181818;stroke-width:1;stroke-linejoin:miter;stroke-miterlimit:10;"/><line style="stroke:#181818;stroke-width:1;" x1="197.1464" x2="197.1464" y1="309.7764" y2="344.0363"/><polygon fill="#181818" points="193.1464,334.0363,197.1464,344.0363,201.1464,334.0363,197.1464,338.0363" style="stroke:#181818;stroke-width:1;stroke-linejoin:miter;stroke-miterlimit:10;"/><line style="stroke:#181818;stroke-width:1;" x1="197.1464" x2="197.1464" y1="1299.2937" y2="1309.2937"/><line style="stroke:#181818;stroke-width:1;" x1="197.1464" x2="369.2927" y1="1309.2937" y2="1309.2937"/><polygon fill="#181818" points="365.2927,807.6331,369.2927,797.6331,373.2927,807.6331,369.2927,803.6331" style="stroke:#181818;stroke-width:1;stroke-linejoin:miter;stroke-miterlimit:10;"/><line style="stroke:#181818;stroke-width:1;" x1="369.2927" x2="369.2927" y1="297.7764" y2="1309.2937"/><line style="stroke:#181818;stroke-width:1;" x1="369.2927" x2="288.7528" y1="297.7764" y2="297.7764"/><polygon fill="#181818" points="298.7528,293.7764,288.7528,297.7764,298.7528,301.7764,294.7528,297.7764" style="stroke:#181818;stroke-width:1;stroke-linejoin:miter;stroke-miterlimit:10;"/><line style="stroke:#181818;stroke-width:1;" x1="105.5399" x2="29" y1="297.7764" y2="297.7764"/><polygon fill="#181818" points="25,793.6331,29,803.6331,33,793.6331,29,797.6331" style="stroke:#181818;stroke-width:1;stroke-linejoin:miter;stroke-miterlimit:10;"/><line style="stroke:#181818;stroke-width:1;" x1="29" x2="29" y1="297.7764" y2="1321.2937"/><line style="stroke:#181818;stroke-width:1;" x1="29" x2="197.1464" y1="1321.2937" y2="1321.2937"/><line style="stroke:#181818;stroke-width:1;" x1="197.1464" x2="197.1464" y1="1321.2937" y2="1341.2937"/><polygon fill="#181818" points="193.1464,1331.2937,197.1464,1341.2937,201.1464,1331.2937,197.1464,1335.2937" style="stroke:#181818;stroke-width:1;stroke-linejoin:miter;stroke-miterlimit:10;"/><line style="stroke:#181818;stroke-width:1;" x1="197.1464" x2="197.1464" y1="265.7764" y2="285.7764"/><polygon fill="#181818" points="193.1464,275.7764,197.1464,285.7764,201.1464,275.7764,197.1464,279.7764" style="stroke:#181818;stroke-width:1;stroke-linejoin:miter;stroke-miterlimit:10;"/><line style="stroke:#181818;stroke-width:1;" x1="197.1464" x2="197.1464" y1="1396.0459" y2="1416.0459"/><polygon fill="#181818" points="193.1464,1406.0459,197.1464,1416.0459,201.1464,1406.0459,197.1464,1410.0459" style="stroke:#181818;stroke-width:1;stroke-linejoin:miter;stroke-miterlimit:10;"/><?plantuml-src TLHBJzj04BxxLwmu4Qc8ddeWgdhWKPLM0GdrniKYJh4ADh9DELILici2UJY5XeQG5bGeaF0eQMa1GNZzc67jv5zqrav2e5IobDtLp7mpt_TDpBUgDYKRyYI9AZ5vUi8Qq3Kh8aygf2EYMpePaJMJz0w-98F37PBP2ZR7vQW-esflI4oUC1N9Kgq9XHZJsYjTdoBTPChGnnJJ7D0deef1W5RuVCbRd0Cx3_O1s1UIP5goOKazlKEHWHVF2R2SkxLQsxa8IprU-RosuV144XzhvKtti3ggTVB4eRkQ0Xk_NM1RO2_pkGJGCb06B0Dq2UWEndlVgxMzR0Yh04ESROG2kaywcpLjiFV5cvryH6vnccyXluzqdYUsmv8qCwxYJ9tjXKJ_RDUFZmDrt0eYRm8j0Pt5Bfw5Y6fY0ls9zv14Y1eZdJnvKYykkaLMNruI0vqawlGZHbhZYjOUIqYFbpvn4naC8YElHuRx8ttzVKXT-UPwZH-iX8EO9u-zSevVEOBIkMnzEODjWxq7x8VeaELkgadlQ3O8DYrz2WyA2YIGPlqlAS0KBQh6yFUM9QIXldw0LU-Co78GTsgb0j05Y6U531NdfZe7jEYJVeNTyOLbO6a-NmMQ1xedfX7eQ1FqXAfhfEEk5x2HCw1Pxo15dfARopolbe0XUsdlwn7GWY2JCLv9ySHEg8Ey3wPkRyhNFMXpmtV2lXZxD5uhYLxuLI4Olg6UkxhNiDwz7Ee4rcc99Yw144t0s_9e5Px9u_noD3ei6ufccMXoGvdKtocDUoZSo1MY1_5e6BvrwEOB3yeTuB0_O7_spLLsyv_SqoI205q3vWWQ_6p1AairpaBgCw4vFQtjhDITtotS1sJsdnjI-wUcfGET6jooOzocUxB_osVRMk9OYmvVpDxB6TLYgXRjqeskCKEHBINyt_gquXtF2dCrtUUkxlDVLsAcwqkUNXUP7-xO4sX6S12ObEK2qzMBM-WaYDFMuZHNfNtK5XzIJ-3Um0_8SzzGf9y4AM2VjoyIJ_d5nIDUru9_X-vw_8ltRHi95ulr5m00?></g></svg>