<svg xmlns="http://www.w3.org/2000/svg" xmlns:xlink="http://www.w3.org/1999/xlink" contentStyleType="text/css" data-diagram-type="STATE" height="608px" preserveAspectRatio="none" style="width:1115px;height:608px;background:#FFFFFF;" version="1.1" viewBox="0 0 1115 608" width="1115px" zoomAndPan="magnify"><?plantuml 1.2026.6?><defs/><g><g class="title" data-source-line="3"><text fill="#000000" font-family="'Noto Sans CJK JP'" font-size="14" font-weight="700" lengthAdjust="spacing" textLength="139.9994" x="484.1508" y="26.2399">&#31227;&#34892;&#12472;&#12519;&#12502;&#12398;&#29366;&#24907;&#36983;&#31227;</text></g><g class="start_entity" data-qualified-name=".start." data-source-line="5" id="ent0001"><ellipse cx="495" cy="57.2719" fill="#222222" rx="10" ry="10" style="stroke:#222222;stroke-width:1;"/></g><g class="entity" data-qualified-name="RUNNING" data-source-line="5" id="ent0002"><rect fill="#F1F1F1" height="50" rx="12.5" ry="12.5" style="stroke:#181818;stroke-width:0.5;" width="83.0978" x="453.5" y="147.2719"/><line style="stroke:#181818;stroke-width:0.5;" x1="453.5" x2="536.5978" y1="177.5438" y2="177.5438"/><text fill="#000000" font-family="'Noto Sans CJK JP'" font-size="14" lengthAdjust="spacing" textLength="63.0978" x="463.5" y="168.5118">RUNNING</text></g><g class="entity" data-qualified-name="SUSPENDED" data-source-line="7" id="ent0004"><rect fill="#F1F1F1" height="50" rx="12.5" ry="12.5" style="stroke:#181818;stroke-width:0.5;" width="101.5217" x="664" y="304.2719"/><line style="stroke:#181818;stroke-width:0.5;" x1="664" x2="765.5217" y1="334.5438" y2="334.5438"/><text fill="#000000" font-family="'Noto Sans CJK JP'" font-size="14" lengthAdjust="spacing" textLength="81.5217" x="674" y="325.5118">SUSPENDED</text></g><g class="entity" data-qualified-name="DONE" data-source-line="9" id="ent0007"><rect fill="#F1F1F1" height="50" rx="12.5" ry="12.5" style="stroke:#181818;stroke-width:0.5;" width="58.3878" x="7" y="304.2719"/><line style="stroke:#181818;stroke-width:0.5;" x1="7" x2="65.3878" y1="334.5438" y2="334.5438"/><text fill="#000000" font-family="'Noto Sans CJK JP'" font-size="14" lengthAdjust="spacing" textLength="38.3878" x="17" y="325.5118">DONE</text></g><g class="entity" data-qualified-name="ERROR" data-source-line="10" id="ent0009"><rect fill="#F1F1F1" height="50" rx="12.5" ry="12.5" style="stroke:#181818;stroke-width:0.5;" width="65.3038" x="343.5" y="304.2719"/><line style="stroke:#181818;stroke-width:0.5;" x1="343.5" x2="408.8038" y1="334.5438" y2="334.5438"/><text fill="#000000" font-family="'Noto Sans CJK JP'" font-size="14" lengthAdjust="spacing" textLength="45.3038" x="353.5" y="325.5118">ERROR</text></g><g class="entity" data-qualified-name="CANCELLED" data-source-line="12" id="ent0012"><rect fill="#F1F1F1" height="50" rx="12.5" ry="12.5" style="stroke:#181818;stroke-width:0.5;" width="97.8257" x="666" y="442.2719"/><line style="stroke:#181818;stroke-width:0.5;" x1="666" x2="763.8257" y1="472.5438" y2="472.5438"/><text fill="#000000" font-family="'Noto Sans CJK JP'" font-size="14" lengthAdjust="spacing" textLength="77.8257" x="676" y="463.5118">CANCELLED</text></g><g class="end_entity" data-qualified-name=".end." data-source-line="14" id="ent0015"><ellipse cx="376" cy="583.2719" fill="none" rx="11" ry="11" style="stroke:#222222;stroke-width:1;"/><ellipse cx="376" cy="583.2719" fill="#222222" rx="6" ry="6" style="stroke:#222222;stroke-width:1;"/></g><g class="entity" data-qualified-name="GMN19" data-source-line="19" id="ent0020"><path d="M572,148.2719 L572,168.2719 L536.87,172.2719 L572,176.2719 L572,195.9199 A0,0 0 0 0 572,195.9199 L860.2153,195.9199 A0,0 0 0 0 860.2153,195.9199 L860.2153,158.2719 L850.2153,148.2719 L572,148.2719 A0,0 0 0 0 572,148.2719" fill="#FEFFDD" style="stroke:#181818;stroke-width:0.5;"/><path d="M850.2153,148.2719 L850.2153,158.2719 L860.2153,158.2719 L850.2153,148.2719" fill="#FEFFDD" style="stroke:#181818;stroke-width:0.5;"/><text fill="#000000" font-family="'Noto Sans CJK JP'" font-size="13" lengthAdjust="spacing" textLength="267.2153" x="578" y="168.3519">&#23455;&#34892;&#20013;&#12399;&#12461;&#12517;&#12540;&#12398;&#12501;&#12457;&#12523;&#12480;&#12434;1&#12388;&#12378;&#12388;&#20966;&#29702;&#12375;&#12289;</text><text fill="#000000" font-family="'Noto Sans CJK JP'" font-size="13" lengthAdjust="spacing" textLength="228.2153" x="578" y="187.1759">1&#12501;&#12457;&#12523;&#12480;&#32066;&#12360;&#12427;&#12372;&#12392;&#12395;&#29366;&#24907;&#12434;&#20445;&#23384;&#12377;&#12427;</text></g><g class="entity" data-qualified-name="GMN22" data-source-line="23" id="ent0023"><path d="M100,296.2719 L100,325.2719 L65.18,329.2719 L100,333.2719 L100,362.744 A0,0 0 0 0 100,362.744 L303.8972,362.744 A0,0 0 0 0 303.8972,362.744 L303.8972,306.2719 L293.8972,296.2719 L100,296.2719 A0,0 0 0 0 100,296.2719" fill="#FEFFDD" style="stroke:#181818;stroke-width:0.5;"/><path d="M293.8972,296.2719 L293.8972,306.2719 L303.8972,306.2719 L293.8972,296.2719" fill="#FEFFDD" style="stroke:#181818;stroke-width:0.5;"/><text fill="#000000" font-family="'Noto Sans CJK JP'" font-size="13" lengthAdjust="spacing" textLength="182.8972" x="106" y="316.3519">trashEmptySourceFolders() &#12391;</text><text fill="#000000" font-family="'Noto Sans CJK JP'" font-size="13" lengthAdjust="spacing" textLength="169.0002" x="106" y="335.1759">&#31354;&#12395;&#12394;&#12387;&#12383;&#31227;&#34892;&#20803;&#12501;&#12457;&#12523;&#12480;&#12434;</text><text fill="#000000" font-family="'Noto Sans CJK JP'" font-size="13" lengthAdjust="spacing" textLength="128.7001" x="106" y="354">&#24460;&#29255;&#20184;&#12369;&#12391;&#12365;&#12427; (&#20219;&#24847;)</text></g><!--link *start* to RUNNING--><g class="link" data-entity-1="ent0001" data-entity-2="ent0002" data-link-type="dependency" data-source-line="5" id="lnk3"><path d="M495,67.5219 C495,84.7019 495,117.0619 495,141.9419" fill="none" id="*start*-to-RUNNING" style="stroke:#181818;stroke-width:1;"/><polygon fill="#181818" points="495,146.9419,499,137.9419,495,141.9419,491,137.9419,495,146.9419" style="stroke:#181818;stroke-width:1;stroke-linejoin:miter;stroke-miterlimit:10;"/><text fill="#000000" font-family="'Noto Sans CJK JP'" font-size="13" lengthAdjust="spacing" textLength="95.147" x="496" y="113.3519">startMigration()</text></g><!--link RUNNING to SUSPENDED--><g class="link" data-entity-1="ent0002" data-entity-2="ent0004" data-link-type="dependency" data-source-line="7" id="lnk5"><path d="M529.7,197.3219 C541.88,206.2719 555.4,216.8019 567,227.2719 C584.51,243.0819 584.44,251.7119 603,266.2719 C621.53,280.8219 639.4892,291.635 659.3592,302.025" fill="none" id="RUNNING-to-SUSPENDED" style="stroke:#181818;stroke-width:1;"/><polygon fill="#181818" points="663.79,304.3419,657.668,296.6269,659.3592,302.025,653.961,303.7162,663.79,304.3419" style="stroke:#181818;stroke-width:1;stroke-linejoin:miter;stroke-miterlimit:10;"/><text fill="#000000" font-family="'Noto Sans CJK JP'" font-size="13" lengthAdjust="spacing" textLength="91.0001" x="647.4135" y="243.3519">&#21046;&#38480;&#26178;&#38291;&#12434;&#36229;&#36942;</text><text fill="#000000" font-family="'Noto Sans CJK JP'" font-size="13" lengthAdjust="spacing" textLength="177.8272" x="604" y="262.1759">(&#29366;&#24907;&#20445;&#23384; + &#20877;&#38283;&#12488;&#12522;&#12460;&#12540;&#20104;&#32004;)</text></g><!--link SUSPENDED to RUNNING--><g class="link" data-entity-1="ent0004" data-entity-2="ent0002" data-link-type="dependency" data-source-line="8" id="lnk6"><path d="M751.01,304.1319 C778.25,282.9619 807.58,251.8219 786,227.2719 C751.68,188.2319 604.27,210.5119 554,197.2719 C548.33,195.7819 547.178,195.5833 541.468,193.5033" fill="none" id="SUSPENDED-to-RUNNING" style="stroke:#181818;stroke-width:1;"/><polygon fill="#181818" points="536.77,191.7919,543.8573,198.6308,541.468,193.5033,546.5955,191.114,536.77,191.7919" style="stroke:#181818;stroke-width:1;stroke-linejoin:miter;stroke-miterlimit:10;"/><text fill="#000000" font-family="'Noto Sans CJK JP'" font-size="13" lengthAdjust="spacing" textLength="112.3591" x="826.6746" y="243.3519">resumeMigration()</text><text fill="#000000" font-family="'Noto Sans CJK JP'" font-size="13" lengthAdjust="spacing" textLength="175.7082" x="795" y="262.1759">(&#12488;&#12522;&#12460;&#12540;&#12391;&#33258;&#21205; / &#25163;&#21205;&#12391;&#12418;&#21487;)</text></g><!--link RUNNING to DONE--><g class="link" data-entity-1="ent0002" data-entity-2="ent0007" data-link-type="dependency" data-source-line="9" id="lnk8"><path d="M453.16,175.5619 C348.49,181.6919 81.68,199.8619 53,227.2719 C32.56,246.8019 30.5792,276.0557 32.2992,299.1857" fill="none" id="RUNNING-to-DONE" style="stroke:#181818;stroke-width:1;"/><polygon fill="#181818" points="32.67,304.1719,35.9916,294.9001,32.2992,299.1857,28.0136,295.4933,32.67,304.1719" style="stroke:#181818;stroke-width:1;stroke-linejoin:miter;stroke-miterlimit:10;"/><text fill="#000000" font-family="'Noto Sans CJK JP'" font-size="13" lengthAdjust="spacing" textLength="117.0001" x="54" y="252.8519">&#12461;&#12517;&#12540;&#12364;&#31354;&#12395;&#12394;&#12387;&#12383;</text></g><!--link RUNNING to ERROR--><g class="link" data-entity-1="ent0002" data-entity-2="ent0009" data-link-type="dependency" data-source-line="10" id="lnk10"><path d="M453.29,174.2519 C377.39,177.0019 221.4,187.4819 188,227.2719 C176.86,240.5519 177.18,252.7319 188,266.2719 C225.84,313.6019 264.6,274.1119 321,296.2719 C328.51,299.2219 331.8387,300.6467 339.0087,304.6667" fill="none" id="RUNNING-to-ERROR" style="stroke:#181818;stroke-width:1;"/><polygon fill="#181818" points="343.37,307.1119,337.4759,299.2215,339.0087,304.6667,333.5635,306.1995,343.37,307.1119" style="stroke:#181818;stroke-width:1;stroke-linejoin:miter;stroke-miterlimit:10;"/><text fill="#000000" font-family="'Noto Sans CJK JP'" font-size="13" lengthAdjust="spacing" textLength="137.2152" x="196.2865" y="243.3519">&#24819;&#23450;&#22806;&#12456;&#12521;&#12540;&#12364;3&#22238;&#36899;&#32154;</text><text fill="#000000" font-family="'Noto Sans CJK JP'" font-size="13" lengthAdjust="spacing" textLength="151.7882" x="189" y="262.1759">(&#33258;&#21205;&#20877;&#38283;&#12434;&#20572;&#27490;&#12375;&#12390;&#36890;&#30693;)</text></g><!--link ERROR to RUNNING--><g class="link" data-entity-1="ent0009" data-entity-2="ent0002" data-link-type="dependency" data-source-line="11" id="lnk11"><path d="M370.66,304.0819 C367.24,282.1519 365.88,249.9019 381,227.2719 C397.36,202.7819 423.2028,190.5314 448.5928,183.0714" fill="none" id="ERROR-to-RUNNING" style="stroke:#181818;stroke-width:1;"/><polygon fill="#181818" points="453.39,181.6619,443.6274,180.3612,448.5928,183.0714,445.8826,188.0368,453.39,181.6619" style="stroke:#181818;stroke-width:1;stroke-linejoin:miter;stroke-miterlimit:10;"/><text fill="#000000" font-family="'Noto Sans CJK JP'" font-size="13" lengthAdjust="spacing" textLength="117.0001" x="413.6355" y="243.3519">&#21407;&#22240;&#12395;&#23550;&#20966;&#12375;&#12383;&#12354;&#12392;</text><text fill="#000000" font-family="'Noto Sans CJK JP'" font-size="13" lengthAdjust="spacing" textLength="180.2711" x="382" y="262.1759">resumeMigration() &#12434;&#25163;&#21205;&#23455;&#34892;</text></g><!--link RUNNING to CANCELLED--><g class="link" data-entity-1="ent0002" data-entity-2="ent0012" data-link-type="dependency" data-source-line="12" id="lnk13"><path d="M536.69,192.1119 C542.42,194.1419 548.29,195.9419 554,197.2719 C600.11,207.9919 946.73,192.6419 979,227.2719 C1061.93,316.2619 866.0995,407.7929 768.8595,446.2529" fill="none" id="RUNNING-to-CANCELLED" style="stroke:#181818;stroke-width:1;"/><polygon fill="#181818" points="764.21,448.0919,774.0503,448.5014,768.8595,446.2529,771.108,441.0621,764.21,448.0919" style="stroke:#181818;stroke-width:1;stroke-linejoin:miter;stroke-miterlimit:10;"/><text fill="#000000" font-family="'Noto Sans CJK JP'" font-size="13" lengthAdjust="spacing" textLength="106.3011" x="993" y="335.3519">cancelMigration()</text></g><!--link SUSPENDED to CANCELLED--><g class="link" data-entity-1="ent0004" data-entity-2="ent0012" data-link-type="dependency" data-source-line="13" id="lnk14"><path d="M715,354.2719 C715,378.9819 715,412.2719 715,437.0519" fill="none" id="SUSPENDED-to-CANCELLED" style="stroke:#181818;stroke-width:1;"/><polygon fill="#181818" points="715,442.0519,719,433.0519,715,437.0519,711,433.0519,715,442.0519" style="stroke:#181818;stroke-width:1;stroke-linejoin:miter;stroke-miterlimit:10;"/><text fill="#000000" font-family="'Noto Sans CJK JP'" font-size="13" lengthAdjust="spacing" textLength="106.3011" x="716" y="408.3519">cancelMigration()</text></g><!--link DONE to *end*--><g class="link" data-entity-1="ent0007" data-entity-2="ent0015" data-link-type="dependency" data-source-line="14" id="lnk16"><path d="M65.28,351.9719 C138.25,406.0619 321.3126,541.7453 363.4626,572.9753" fill="none" id="DONE-to-*end*" style="stroke:#181818;stroke-width:1;"/><polygon fill="#181818" points="367.48,575.9519,362.6299,567.3801,363.4626,572.9753,357.8673,573.8079,367.48,575.9519" style="stroke:#181818;stroke-width:1;stroke-linejoin:miter;stroke-miterlimit:10;"/><text fill="#000000" font-family="'Noto Sans CJK JP'" font-size="13" lengthAdjust="spacing" textLength="71.292" x="252" y="473.3519">resetState()</text></g><!--link CANCELLED to *end*--><g class="link" data-entity-1="ent0012" data-entity-2="ent0015" data-link-type="dependency" data-source-line="15" id="lnk17"><path d="M665.71,484.8519 C584.54,512.1419 432.3493,563.3284 390.9493,577.2484" fill="none" id="CANCELLED-to-*end*" style="stroke:#181818;stroke-width:1;"/><polygon fill="#181818" points="386.21,578.8419,396.0155,579.765,390.9493,577.2484,393.4659,572.1822,386.21,578.8419" style="stroke:#181818;stroke-width:1;stroke-linejoin:miter;stroke-miterlimit:10;"/><text fill="#000000" font-family="'Noto Sans CJK JP'" font-size="13" lengthAdjust="spacing" textLength="71.292" x="547" y="538.3519">resetState()</text></g><!--link ERROR to *end*--><g class="link" data-entity-1="ent0009" data-entity-2="ent0015" data-link-type="dependency" data-source-line="16" id="lnk18"><path d="M376,354.4319 C376,408.1419 376,530.6019 376,567.2519" fill="none" id="ERROR-to-*end*" style="stroke:#181818;stroke-width:1;"/><polygon fill="#181818" points="376,572.2519,380,563.2519,376,567.2519,372,563.2519,376,572.2519" style="stroke:#181818;stroke-width:1;stroke-linejoin:miter;stroke-miterlimit:10;"/><text fill="#000000" font-family="'Noto Sans CJK JP'" font-size="13" lengthAdjust="spacing" textLength="71.292" x="377" y="473.3519">resetState()</text></g><?plantuml-src VLFBRjDG4DtxAwwwIa0LgjYnG4AjYoZ5hH9rHLbOpSr397PbtmYnoxNxI9k-23IG50ZGH_eWoG88LOFAnqnkNFy5uvYsSNXiBCldpCmvPyRcqvGshnfgXiHeNCscsRYkCKNDK3Aaw4mdKLKpoUZ4Gp8nFIIPLsGpgSRqPoajGU9gsgGIIx4q9KwjVV5n3QnJi6jWbu0tdDLMTx7Wyky8ITBZ6q_8yF1T4fbHb0VAVNA7c4mrsADKmb1PIjT2OKcwn3nUT2OwBIjZyXWoHRxbbhUwPSijlGIhUD5QTFd6h1Ro9tH-lXFrD-Gc4KlhRga0TXxiOx0-W_sZSvPtlYw4fUjcGGa6DRCPsgS1c_RN0wzTB1-BmZQvHReh1Np1Bs1POhCP3gWTcr9ax0TM7UpzNk6QStG6_0JuCV1TuDK0NOv4fYB8xzfVHACYzafW7O9zv1VU5ZlltTokqwgW6d_yRsTMKV2ttVeduA-17xYvYbFT3qj-iw0niL4LEnzmlcYUY-M3Na4Lk0NyS5RxmpNgBlhsHAEAMmne7RsdZCgJaxr5pAdQ74ttxooOxF-vlP0ycdSBlV0fYpALKSIkA_z1k7Rv5r3IT4Q9aKea6T7Zbpb8XFX-EgTruCs-vJJ0tWOBypu1EuVcHu3l0Q_W4yDojfQyl78SwqVwYSutp2yFLW7uAmmIq_KF41luDmYyZAX4jHZn10seyknZIsQePbBEpBFdKJrhpD5nFHsZXkbjWTSG7xWR_xyIY_Q0PC_S-PgpijnfuzmNtbtoTPnEGfrskxkm6RwIyGi0?></g></svg>