<svg xmlns="http://www.w3.org/2000/svg" xmlns:xlink="http://www.w3.org/1999/xlink" contentStyleType="text/css" data-diagram-type="STATE" height="627px" preserveAspectRatio="none" style="width:1221px;height:627px;background:#FFFFFF;" version="1.1" viewBox="0 0 1221 627" width="1221px" zoomAndPan="magnify"><?plantuml 1.2026.6?><defs/><g><g class="title" data-source-line="3"><text fill="#000000" font-family="'Noto Sans CJK JP'" font-size="14" font-weight="700" lengthAdjust="spacing" textLength="139.9994" x="537.0004" y="26.2399">&#31227;&#34892;&#12472;&#12519;&#12502;&#12398;&#29366;&#24907;&#36983;&#31227;</text></g><g class="start_entity" data-qualified-name=".start." data-source-line="5" id="ent0001"><ellipse cx="489" cy="57.2719" fill="#222222" rx="10" ry="10" style="stroke:#222222;stroke-width:1;"/></g><g class="entity" data-qualified-name="RUNNING" data-source-line="5" id="ent0002"><rect fill="#F1F1F1" height="50" rx="12.5" ry="12.5" style="stroke:#181818;stroke-width:0.5;" width="83.0978" x="447.5" y="166.2719"/><line style="stroke:#181818;stroke-width:0.5;" x1="447.5" x2="530.5978" y1="196.5438" y2="196.5438"/><text fill="#000000" font-family="'Noto Sans CJK JP'" font-size="14" lengthAdjust="spacing" textLength="63.0978" x="457.5" y="187.5118">RUNNING</text></g><g class="entity" data-qualified-name="SUSPENDED" data-source-line="7" id="ent0004"><rect fill="#F1F1F1" height="50" rx="12.5" ry="12.5" style="stroke:#181818;stroke-width:0.5;" width="101.5217" x="672" y="323.2719"/><line style="stroke:#181818;stroke-width:0.5;" x1="672" x2="773.5217" y1="353.5438" y2="353.5438"/><text fill="#000000" font-family="'Noto Sans CJK JP'" font-size="14" lengthAdjust="spacing" textLength="81.5217" x="682" y="344.5118">SUSPENDED</text></g><g class="entity" data-qualified-name="DONE" data-source-line="9" id="ent0007"><rect fill="#F1F1F1" height="50" rx="12.5" ry="12.5" style="stroke:#181818;stroke-width:0.5;" width="58.3878" x="7" y="323.2719"/><line style="stroke:#181818;stroke-width:0.5;" x1="7" x2="65.3878" y1="353.5438" y2="353.5438"/><text fill="#000000" font-family="'Noto Sans CJK JP'" font-size="14" lengthAdjust="spacing" textLength="38.3878" x="17" y="344.5118">DONE</text></g><g class="entity" data-qualified-name="ERROR" data-source-line="10" id="ent0009"><rect fill="#F1F1F1" height="50" rx="12.5" ry="12.5" style="stroke:#181818;stroke-width:0.5;" width="65.3038" x="343.5" y="323.2719"/><line style="stroke:#181818;stroke-width:0.5;" x1="343.5" x2="408.8038" y1="353.5438" y2="353.5438"/><text fill="#000000" font-family="'Noto Sans CJK JP'" font-size="14" lengthAdjust="spacing" textLength="45.3038" x="353.5" y="344.5118">ERROR</text></g><g class="entity" data-qualified-name="CANCELLED" data-source-line="12" id="ent0012"><rect fill="#F1F1F1" height="50" rx="12.5" ry="12.5" style="stroke:#181818;stroke-width:0.5;" width="97.8257" x="674" y="461.2719"/><line style="stroke:#181818;stroke-width:0.5;" x1="674" x2="771.8257" y1="491.5438" y2="491.5438"/><text fill="#000000" font-family="'Noto Sans CJK JP'" font-size="14" lengthAdjust="spacing" textLength="77.8257" x="684" y="482.5118">CANCELLED</text></g><g class="end_entity" data-qualified-name=".end." data-source-line="14" id="ent0015"><ellipse cx="376" cy="602.2719" fill="none" rx="11" ry="11" style="stroke:#222222;stroke-width:1;"/><ellipse cx="376" cy="602.2719" fill="#222222" rx="6" ry="6" style="stroke:#222222;stroke-width:1;"/></g><g class="entity" data-qualified-name="GMN19" data-source-line="19" id="ent0020"><path d="M566,167.2719 L566,187.2719 L530.87,191.2719 L566,195.2719 L566,214.9199 A0,0 0 0 0 566,214.9199 L854.2153,214.9199 A0,0 0 0 0 854.2153,214.9199 L854.2153,177.2719 L844.2153,167.2719 L566,167.2719 A0,0 0 0 0 566,167.2719" fill="#FEFFDD" style="stroke:#181818;stroke-width:0.5;"/><path d="M844.2153,167.2719 L844.2153,177.2719 L854.2153,177.2719 L844.2153,167.2719" fill="#FEFFDD" style="stroke:#181818;stroke-width:0.5;"/><text fill="#000000" font-family="'Noto Sans CJK JP'" font-size="13" lengthAdjust="spacing" textLength="267.2153" x="572" y="187.3519">&#23455;&#34892;&#20013;&#12399;&#12461;&#12517;&#12540;&#12398;&#12501;&#12457;&#12523;&#12480;&#12434;1&#12388;&#12378;&#12388;&#20966;&#29702;&#12375;&#12289;</text><text fill="#000000" font-family="'Noto Sans CJK JP'" font-size="13" lengthAdjust="spacing" textLength="228.2153" x="572" y="206.1759">1&#12501;&#12457;&#12523;&#12480;&#32066;&#12360;&#12427;&#12372;&#12392;&#12395;&#29366;&#24907;&#12434;&#20445;&#23384;&#12377;&#12427;</text></g><g class="entity" data-qualified-name="GMN22" data-source-line="23" id="ent0023"><path d="M100,315.2719 L100,344.2719 L65.18,348.2719 L100,352.2719 L100,381.744 A0,0 0 0 0 100,381.744 L303.8972,381.744 A0,0 0 0 0 303.8972,381.744 L303.8972,325.2719 L293.8972,315.2719 L100,315.2719 A0,0 0 0 0 100,315.2719" fill="#FEFFDD" style="stroke:#181818;stroke-width:0.5;"/><path d="M293.8972,315.2719 L293.8972,325.2719 L303.8972,325.2719 L293.8972,315.2719" fill="#FEFFDD" style="stroke:#181818;stroke-width:0.5;"/><text fill="#000000" font-family="'Noto Sans CJK JP'" font-size="13" lengthAdjust="spacing" textLength="182.8972" x="106" y="335.3519">trashEmptySourceFolders() &#12391;</text><text fill="#000000" font-family="'Noto Sans CJK JP'" font-size="13" lengthAdjust="spacing" textLength="169.0002" x="106" y="354.1759">&#31354;&#12395;&#12394;&#12387;&#12383;&#31227;&#34892;&#20803;&#12501;&#12457;&#12523;&#12480;&#12434;</text><text fill="#000000" font-family="'Noto Sans CJK JP'" font-size="13" lengthAdjust="spacing" textLength="128.7001" x="106" y="373">&#24460;&#29255;&#20184;&#12369;&#12391;&#12365;&#12427; (&#20219;&#24847;)</text></g><!--link *start* to RUNNING--><g class="link" data-entity-1="ent0001" data-entity-2="ent0002" data-link-type="dependency" data-source-line="5" id="lnk3"><path d="M489,67.3419 C489,87.5019 489,131.5519 489,161.2419" fill="none" id="*start*-to-RUNNING" style="stroke:#181818;stroke-width:1;"/><polygon fill="#181818" points="489,166.2419,493,157.2419,489,161.2419,485,157.2419,489,166.2419" style="stroke:#181818;stroke-width:1;stroke-linejoin:miter;stroke-miterlimit:10;"/><text fill="#000000" font-family="'Noto Sans CJK JP'" font-size="13" lengthAdjust="spacing" textLength="156.0002" x="490" y="113.3519">&#12513;&#12491;&#12517;&#12540;&#12300;&#9313;&#31227;&#34892;&#12434;&#38283;&#22987;&#12301;</text><text fill="#000000" font-family="'Noto Sans CJK JP'" font-size="13" lengthAdjust="spacing" textLength="95.147" x="520.4266" y="132.1759">(startMigration)</text></g><!--link RUNNING to SUSPENDED--><g class="link" data-entity-1="ent0002" data-entity-2="ent0004" data-link-type="dependency" data-source-line="7" id="lnk5"><path d="M520.82,216.3519 C532.23,225.3819 544.98,235.9619 556,246.2719 C573.23,262.3819 572.99,271.3019 592,285.2719 C616.33,303.1519 642.0289,315.9586 667.3589,326.5786" fill="none" id="RUNNING-to-SUSPENDED" style="stroke:#181818;stroke-width:1;"/><polygon fill="#181818" points="671.97,328.5119,665.2166,321.3431,667.3589,326.5786,662.1234,328.7209,671.97,328.5119" style="stroke:#181818;stroke-width:1;stroke-linejoin:miter;stroke-miterlimit:10;"/><text fill="#000000" font-family="'Noto Sans CJK JP'" font-size="13" lengthAdjust="spacing" textLength="91.0001" x="636.4135" y="262.3519">&#21046;&#38480;&#26178;&#38291;&#12434;&#36229;&#36942;</text><text fill="#000000" font-family="'Noto Sans CJK JP'" font-size="13" lengthAdjust="spacing" textLength="177.8272" x="593" y="281.1759">(&#29366;&#24907;&#20445;&#23384; + &#20877;&#38283;&#12488;&#12522;&#12460;&#12540;&#20104;&#32004;)</text></g><!--link SUSPENDED to RUNNING--><g class="link" data-entity-1="ent0004" data-entity-2="ent0002" data-link-type="dependency" data-source-line="8" id="lnk6"><path d="M750.3,323.2519 C771.84,301.4419 795.15,269.2619 775,246.2719 C741.46,208.0119 597.19,229.3019 548,216.2719 C542.33,214.7719 541.189,214.5706 535.469,212.4906" fill="none" id="SUSPENDED-to-RUNNING" style="stroke:#181818;stroke-width:1;"/><polygon fill="#181818" points="530.77,210.7819,537.8612,217.6168,535.469,212.4906,540.5951,210.0984,530.77,210.7819" style="stroke:#181818;stroke-width:1;stroke-linejoin:miter;stroke-miterlimit:10;"/><text fill="#000000" font-family="'Noto Sans CJK JP'" font-size="13" lengthAdjust="spacing" textLength="112.3591" x="854.6746" y="262.3519">resumeMigration()</text><text fill="#000000" font-family="'Noto Sans CJK JP'" font-size="13" lengthAdjust="spacing" textLength="253.7083" x="784" y="281.1759">(&#12488;&#12522;&#12460;&#12540;&#12391;&#33258;&#21205; / &#12513;&#12491;&#12517;&#12540;&#12300;&#20877;&#38283;&#12301;&#12391;&#12418;&#21487;)</text></g><!--link RUNNING to DONE--><g class="link" data-entity-1="ent0002" data-entity-2="ent0007" data-link-type="dependency" data-source-line="9" id="lnk8"><path d="M447.34,194.6319 C343.84,200.8719 81.24,219.2419 53,246.2719 C32.58,265.8219 30.6014,295.0655 32.3114,318.1955" fill="none" id="RUNNING-to-DONE" style="stroke:#181818;stroke-width:1;"/><polygon fill="#181818" points="32.68,323.1819,36.0056,313.9115,32.3114,318.1955,28.0273,314.5013,32.68,323.1819" style="stroke:#181818;stroke-width:1;stroke-linejoin:miter;stroke-miterlimit:10;"/><text fill="#000000" font-family="'Noto Sans CJK JP'" font-size="13" lengthAdjust="spacing" textLength="117.0001" x="54" y="271.8519">&#12461;&#12517;&#12540;&#12364;&#31354;&#12395;&#12394;&#12387;&#12383;</text></g><!--link RUNNING to ERROR--><g class="link" data-entity-1="ent0002" data-entity-2="ent0009" data-link-type="dependency" data-source-line="10" id="lnk10"><path d="M447.22,193.4119 C372.47,196.4319 220.58,207.3319 188,246.2719 C176.88,259.5619 177.18,271.7319 188,285.2719 C225.84,332.6019 264.6,293.1119 321,315.2719 C328.51,318.2219 331.8387,319.6467 339.0087,323.6667" fill="none" id="RUNNING-to-ERROR" style="stroke:#181818;stroke-width:1;"/><polygon fill="#181818" points="343.37,326.1119,337.4759,318.2215,339.0087,323.6667,333.5635,325.1995,343.37,326.1119" style="stroke:#181818;stroke-width:1;stroke-linejoin:miter;stroke-miterlimit:10;"/><text fill="#000000" font-family="'Noto Sans CJK JP'" font-size="13" lengthAdjust="spacing" textLength="137.2152" x="196.2865" y="262.3519">&#24819;&#23450;&#22806;&#12456;&#12521;&#12540;&#12364;3&#22238;&#36899;&#32154;</text><text fill="#000000" font-family="'Noto Sans CJK JP'" font-size="13" lengthAdjust="spacing" textLength="151.7882" x="189" y="281.1759">(&#33258;&#21205;&#20877;&#38283;&#12434;&#20572;&#27490;&#12375;&#12390;&#36890;&#30693;)</text></g><!--link ERROR to RUNNING--><g class="link" data-entity-1="ent0009" data-entity-2="ent0002" data-link-type="dependency" data-source-line="11" id="lnk11"><path d="M370.77,323.1519 C367.43,301.2819 366.13,269.0619 381,246.2719 C395.95,223.3619 418.9832,211.3528 442.6132,203.5328" fill="none" id="ERROR-to-RUNNING" style="stroke:#181818;stroke-width:1;"/><polygon fill="#181818" points="447.36,201.9619,437.559,200.9921,442.6132,203.5328,440.0724,208.587,447.36,201.9619" style="stroke:#181818;stroke-width:1;stroke-linejoin:miter;stroke-miterlimit:10;"/><text fill="#000000" font-family="'Noto Sans CJK JP'" font-size="13" lengthAdjust="spacing" textLength="117.0001" x="408" y="262.3519">&#21407;&#22240;&#12395;&#23550;&#20966;&#12375;&#12383;&#12354;&#12392;</text><text fill="#000000" font-family="'Noto Sans CJK JP'" font-size="13" lengthAdjust="spacing" textLength="169.0002" x="382" y="281.1759">&#12513;&#12491;&#12517;&#12540;&#12300;&#20013;&#26029;&#12363;&#12425;&#12398;&#20877;&#38283;&#12301;</text></g><!--link RUNNING to CANCELLED--><g class="link" data-entity-1="ent0002" data-entity-2="ent0012" data-link-type="dependency" data-source-line="12" id="lnk13"><path d="M530.68,211.1619 C536.41,213.1819 542.28,214.9719 548,216.2719 C602.06,228.5419 1008,205.9119 1046,246.2719 C1142.84,349.1219 889.1671,437.3922 776.9071,470.3822" fill="none" id="RUNNING-to-CANCELLED" style="stroke:#181818;stroke-width:1;"/><polygon fill="#181818" points="772.11,471.7919,781.8727,473.0921,776.9071,470.3822,779.6171,465.4167,772.11,471.7919" style="stroke:#181818;stroke-width:1;stroke-linejoin:miter;stroke-miterlimit:10;"/><text fill="#000000" font-family="'Noto Sans CJK JP'" font-size="13" lengthAdjust="spacing" textLength="143.0002" x="1062" y="354.3519">&#12513;&#12491;&#12517;&#12540;&#12300;&#31227;&#34892;&#12434;&#20013;&#27490;&#12301;</text></g><!--link SUSPENDED to CANCELLED--><g class="link" data-entity-1="ent0004" data-entity-2="ent0012" data-link-type="dependency" data-source-line="13" id="lnk14"><path d="M723,373.2719 C723,397.9819 723,431.2719 723,456.0519" fill="none" id="SUSPENDED-to-CANCELLED" style="stroke:#181818;stroke-width:1;"/><polygon fill="#181818" points="723,461.0519,727,452.0519,723,456.0519,719,452.0519,723,461.0519" style="stroke:#181818;stroke-width:1;stroke-linejoin:miter;stroke-miterlimit:10;"/><text fill="#000000" font-family="'Noto Sans CJK JP'" font-size="13" lengthAdjust="spacing" textLength="143.0002" x="724" y="427.3519">&#12513;&#12491;&#12517;&#12540;&#12300;&#31227;&#34892;&#12434;&#20013;&#27490;&#12301;</text></g><!--link DONE to *end*--><g class="link" data-entity-1="ent0007" data-entity-2="ent0015" data-link-type="dependency" data-source-line="14" id="lnk16"><path d="M55.58,373.4019 C84.03,407.3619 139.69,469.7319 197,511.2719 C255.58,553.7319 332.4657,584.8369 360.9857,595.6669" fill="none" id="DONE-to-*end*" style="stroke:#181818;stroke-width:1;"/><polygon fill="#181818" points="365.66,597.4419,358.6662,590.5074,360.9857,595.6669,355.8262,597.9864,365.66,597.4419" style="stroke:#181818;stroke-width:1;stroke-linejoin:miter;stroke-miterlimit:10;"/><text fill="#000000" font-family="'Noto Sans CJK JP'" font-size="13" lengthAdjust="spacing" textLength="169.0002" x="198" y="492.3519">&#12513;&#12491;&#12517;&#12540;&#12300;&#29366;&#24907;&#12434;&#12522;&#12475;&#12483;&#12488;&#12301;</text></g><!--link CANCELLED to *end*--><g class="link" data-entity-1="ent0012" data-entity-2="ent0015" data-link-type="dependency" data-source-line="15" id="lnk17"><path d="M673.65,503.4819 C590.76,530.7119 433.2305,582.472 390.9905,596.342" fill="none" id="CANCELLED-to-*end*" style="stroke:#181818;stroke-width:1;"/><polygon fill="#181818" points="386.24,597.9019,396.0387,598.8945,390.9905,596.342,393.5429,591.2938,386.24,597.9019" style="stroke:#181818;stroke-width:1;stroke-linejoin:miter;stroke-miterlimit:10;"/><text fill="#000000" font-family="'Noto Sans CJK JP'" font-size="13" lengthAdjust="spacing" textLength="169.0002" x="551" y="557.3519">&#12513;&#12491;&#12517;&#12540;&#12300;&#29366;&#24907;&#12434;&#12522;&#12475;&#12483;&#12488;&#12301;</text></g><!--link ERROR to *end*--><g class="link" data-entity-1="ent0009" data-entity-2="ent0015" data-link-type="dependency" data-source-line="16" id="lnk18"><path d="M376,373.4319 C376,427.1419 376,549.6019 376,586.2519" fill="none" id="ERROR-to-*end*" style="stroke:#181818;stroke-width:1;"/><polygon fill="#181818" points="376,591.2519,380,582.2519,376,586.2519,372,582.2519,376,591.2519" style="stroke:#181818;stroke-width:1;stroke-linejoin:miter;stroke-miterlimit:10;"/><text fill="#000000" font-family="'Noto Sans CJK JP'" font-size="13" lengthAdjust="spacing" textLength="169.0002" x="377" y="492.3519">&#12513;&#12491;&#12517;&#12540;&#12300;&#29366;&#24907;&#12434;&#12522;&#12475;&#12483;&#12488;&#12301;</text></g><?plantuml-src bLDBRn9H5DxFhxZfYj4qfd7dmiIqr5Zhj85qPLrCP7X4c6bcfZ7kviujXHReIuj2LSG-QAdGXOfDCVM_UBXCvrzu1YWjk68pctk-r_dE6AzYwfAiomaIKiBoSjoSrbHJaXCA6PCqKoD1MJN8vCnJCZC_9XZzOICgXxJNCJL2mdBSK0GpPiOLubIQL-KisEV0Ai3oGElEUgETpBZq5pu9mlCxByZu-4CIM92a9z9Zye00AmFB03i4zXkixD_jyZN7ZflFy4e6hDoYwZDCMJUVnIAwRCOqLHI4QmQFBRWGdFTBK_ufvEFfXblOQXTiD_yMEQuQIPTk847NH-lF9rxxGEuIlff3Uc1fO5Mmlw5uwoBj_5WHXHkoGQEwOYmdbBu5duYaj_50ArUfAi_iadl3eNfYLWvdmBRvvfauu7zgJl9xgx1hFGZDEYSNG4-1Le7k0oqDZFi3WRa0phVPTrulyeCysCV0Jhh0-tplisljEuqY-kiQwidREvn-RDU-0dqFzCYrYaxfK1IwP8DH-KQ9xtr1VNvsoLD77K09g0tqU54TojOwhxNpDQ38luPrzwCEE9vy94twPsSx1GtX-srxH6WEaOCDZ8RjhDA3UPVsFw1p10ZejDO4nhm64NOZCZhsPeEZuGHLCnMYno9HasZXw_KBXF1w2MDX9g1djswY3cmNRApv59Y5V1D03u0MyOiTELkhNaqMHVp4xK7d9zQM1Zi3z1tsXwNs3NL_1g05V1KKDKGyGqEkl7qYfQdBHjIVM3BV1BLb_QKohSL3YcxuH88dZUz3vzejXYVPa6Klt6NMMKkrcgYxxVqED8VgnDTgDjihcsBVnZy0?></g></svg>