<svg xmlns="http://www.w3.org/2000/svg" xmlns:xlink="http://www.w3.org/1999/xlink" contentStyleType="text/css" data-diagram-type="DESCRIPTION" height="648px" preserveAspectRatio="none" style="width:978px;height:648px;background:#FFFFFF;" version="1.1" viewBox="0 0 978 648" width="978px" zoomAndPan="magnify"><?plantuml 1.2026.6?><defs/><g><g class="title" data-source-line="4"><text fill="#000000" font-family="'Noto Sans CJK JP'" font-size="14" font-weight="700" lengthAdjust="spacing" textLength="477.8879" x="247.0152" y="26.2399">&#12501;&#12457;&#12523;&#12480;&#12399;&#12300;&#20316;&#12426;&#30452;&#12375;&#12301;&#12539;&#12501;&#12449;&#12452;&#12523;&#12399;&#12300;&#31227;&#21205;&#12301;&#8212; &#38542;&#23652;&#12399;&#12381;&#12398;&#12414;&#12414;&#32173;&#25345;&#12373;&#12428;&#12427;</text></g><!--cluster SRC--><g class="cluster" data-qualified-name="SRC" data-source-line="6" id="ent0001"><path d="M8.5,49.2719 L143.2274,49.2719 A3.75,3.75 0 0 1 145.7274,51.7719 L152.7274,75.5438 L413.5,75.5438 A2.5,2.5 0 0 1 416,78.0438 L416,630.7719 A2.5,2.5 0 0 1 413.5,633.2719 L8.5,633.2719 A2.5,2.5 0 0 1 6,630.7719 L6,51.7719 A2.5,2.5 0 0 1 8.5,49.2719" fill="#FFF8E1" style="stroke:#000000;stroke-width:1.5;"/><line style="stroke:#000000;stroke-width:1.5;" x1="6" x2="152.7274" y1="75.5438" y2="75.5438"/><text fill="#000000" font-family="'Noto Sans CJK JP'" font-size="14" font-weight="700" lengthAdjust="spacing" textLength="133.7274" x="10" y="67.5118">&#31227;&#34892;&#20803;: &#12510;&#12452;&#12489;&#12521;&#12452;&#12502;</text></g><!--cluster s0--><g class="cluster" data-qualified-name="SRC.s0" data-source-line="7" id="ent0002"><path d="M40.5,104.2719 L83.4998,104.2719 A3.75,3.75 0 0 1 85.9998,106.7719 L92.9998,130.5438 L381.5,130.5438 A2.5,2.5 0 0 1 384,133.0438 L384,598.7719 A2.5,2.5 0 0 1 381.5,601.2719 L40.5,601.2719 A2.5,2.5 0 0 1 38,598.7719 L38,106.7719 A2.5,2.5 0 0 1 40.5,104.2719" fill="none" style="stroke:#000000;stroke-width:1.5;"/><line style="stroke:#000000;stroke-width:1.5;" x1="38" x2="92.9998" y1="130.5438" y2="130.5438"/><text fill="#000000" font-family="'Noto Sans CJK JP'" font-size="14" font-weight="700" lengthAdjust="spacing" textLength="41.9998" x="42" y="122.5118">&#21942;&#26989;&#37096;</text></g><!--cluster s1--><g class="cluster" data-qualified-name="SRC.s0.s1" data-source-line="8" id="ent0003"><path d="M80.5,175.2719 L142.5397,175.2719 A3.75,3.75 0 0 1 145.0397,177.7719 L152.0397,201.5438 L341.5,201.5438 A2.5,2.5 0 0 1 344,204.0438 L344,384.7719 A2.5,2.5 0 0 1 341.5,387.2719 L80.5,387.2719 A2.5,2.5 0 0 1 78,384.7719 L78,177.7719 A2.5,2.5 0 0 1 80.5,175.2719" fill="none" style="stroke:#000000;stroke-width:1.5;"/><line style="stroke:#000000;stroke-width:1.5;" x1="78" x2="152.0397" y1="201.5438" y2="201.5438"/><text fill="#000000" font-family="'Noto Sans CJK JP'" font-size="14" font-weight="700" lengthAdjust="spacing" textLength="61.0397" x="82" y="193.5118">2025&#24180;&#24230;</text></g><!--cluster s2--><g class="cluster" data-qualified-name="SRC.s0.s2" data-source-line="12" id="ent0006"><path d="M84,427.2719 L146.0397,427.2719 A3.75,3.75 0 0 1 148.5397,429.7719 L155.5397,453.5438 L338,453.5438 A2.5,2.5 0 0 1 340.5,456.0438 L340.5,558.7719 A2.5,2.5 0 0 1 338,561.2719 L84,561.2719 A2.5,2.5 0 0 1 81.5,558.7719 L81.5,429.7719 A2.5,2.5 0 0 1 84,427.2719" fill="none" style="stroke:#000000;stroke-width:1.5;"/><line style="stroke:#000000;stroke-width:1.5;" x1="81.5" x2="155.5397" y1="453.5438" y2="453.5438"/><text fill="#000000" font-family="'Noto Sans CJK JP'" font-size="14" font-weight="700" lengthAdjust="spacing" textLength="61.0397" x="85.5" y="445.5118">2026&#24180;&#24230;</text></g><!--cluster DST--><g class="cluster" data-qualified-name="DST" data-source-line="18" id="ent0008"><path d="M687,137.2719 L821.7274,137.2719 A3.75,3.75 0 0 1 824.2274,139.7719 L831.2274,163.5438 L899,163.5438 A2.5,2.5 0 0 1 901.5,166.0438 L901.5,486.7719 A2.5,2.5 0 0 1 899,489.2719 L687,489.2719 A2.5,2.5 0 0 1 684.5,486.7719 L684.5,139.7719 A2.5,2.5 0 0 1 687,137.2719" fill="#E8F5E9" style="stroke:#000000;stroke-width:1.5;"/><line style="stroke:#000000;stroke-width:1.5;" x1="684.5" x2="831.2274" y1="163.5438" y2="163.5438"/><text fill="#000000" font-family="'Noto Sans CJK JP'" font-size="14" font-weight="700" lengthAdjust="spacing" textLength="133.7274" x="688.5" y="155.5118">&#31227;&#34892;&#20808;: &#20849;&#26377;&#12489;&#12521;&#12452;&#12502;</text></g><!--cluster d0--><g class="cluster" data-qualified-name="DST.d0" data-source-line="19" id="ent0009"><path d="M727,200.2719 L769.9998,200.2719 A3.75,3.75 0 0 1 772.4998,202.7719 L779.4998,226.5438 L859,226.5438 A2.5,2.5 0 0 1 861.5,229.0438 L861.5,438.7719 A2.5,2.5 0 0 1 859,441.2719 L727,441.2719 A2.5,2.5 0 0 1 724.5,438.7719 L724.5,202.7719 A2.5,2.5 0 0 1 727,200.2719" fill="none" style="stroke:#000000;stroke-width:1.5;"/><line style="stroke:#000000;stroke-width:1.5;" x1="724.5" x2="779.4998" y1="226.5438" y2="226.5438"/><text fill="#000000" font-family="'Noto Sans CJK JP'" font-size="14" font-weight="700" lengthAdjust="spacing" textLength="41.9998" x="728.5" y="218.5118">&#21942;&#26989;&#37096;</text></g><!--entity f1--><g class="entity" data-qualified-name="SRC.s0.s1.f1" data-source-line="9" id="ent0004"><rect fill="#F1F1F1" height="43.2719" rx="2.5" ry="2.5" style="stroke:#181818;stroke-width:0.5;" width="115.6796" x="153" y="241.7719"/><polygon fill="#F1F1F1" points="251.6796,246.7719,251.6796,260.7719,263.6796,260.7719,263.6796,252.7719,257.6796,246.7719,251.6796,246.7719" style="stroke:#181818;stroke-width:0.5;stroke-linejoin:miter;stroke-miterlimit:10;"/><line style="stroke:#181818;stroke-width:0.5;" x1="257.6796" x2="257.6796" y1="246.7719" y2="252.7719"/><line style="stroke:#181818;stroke-width:0.5;" x1="263.6796" x2="257.6796" y1="252.7719" y2="252.7719"/><text fill="#000000" font-family="'Noto Sans CJK JP'" font-size="14" lengthAdjust="spacing" textLength="85.6796" x="163" y="271.0118">&#25552;&#26696;&#26360;A.docx</text></g><!--entity f2--><g class="entity" data-qualified-name="SRC.s0.s1.f2" data-source-line="10" id="ent0005"><rect fill="#F1F1F1" height="43.2719" rx="2.5" ry="2.5" style="stroke:#181818;stroke-width:0.5;" width="217.9772" x="102" y="319.7719"/><polygon fill="#F1F1F1" points="302.9772,324.7719,302.9772,338.7719,314.9772,338.7719,314.9772,330.7719,308.9772,324.7719,302.9772,324.7719" style="stroke:#181818;stroke-width:0.5;stroke-linejoin:miter;stroke-miterlimit:10;"/><line style="stroke:#181818;stroke-width:0.5;" x1="308.9772" x2="308.9772" y1="324.7719" y2="330.7719"/><line style="stroke:#181818;stroke-width:0.5;" x1="314.9772" x2="308.9772" y1="330.7719" y2="330.7719"/><text fill="#000000" font-family="'Noto Sans CJK JP'" font-size="14" lengthAdjust="spacing" textLength="187.9772" x="112" y="349.0118">&#35696;&#20107;&#37682; (Google &#12489;&#12461;&#12517;&#12513;&#12531;&#12488;)</text></g><!--entity f3--><g class="entity" data-qualified-name="SRC.s0.s2.f3" data-source-line="13" id="ent0007"><rect fill="#F1F1F1" height="43.2719" rx="2.5" ry="2.5" style="stroke:#181818;stroke-width:0.5;" width="210.5992" x="105.5" y="493.7719"/><polygon fill="#F1F1F1" points="299.0992,498.7719,299.0992,512.7719,311.0992,512.7719,311.0992,504.7719,305.0992,498.7719,299.0992,498.7719" style="stroke:#181818;stroke-width:0.5;stroke-linejoin:miter;stroke-miterlimit:10;"/><line style="stroke:#181818;stroke-width:0.5;" x1="305.0992" x2="305.0992" y1="498.7719" y2="504.7719"/><line style="stroke:#181818;stroke-width:0.5;" x1="311.0992" x2="305.0992" y1="504.7719" y2="504.7719"/><text fill="#000000" font-family="'Noto Sans CJK JP'" font-size="14" lengthAdjust="spacing" textLength="180.5992" x="115.5" y="523.0118">&#35211;&#31309;&#12418;&#12426; (&#12473;&#12503;&#12524;&#12483;&#12489;&#12471;&#12540;&#12488;)</text></g><!--entity d1--><g class="entity" data-qualified-name="DST.d0.d1" data-source-line="20" id="ent0010"><path d="M751,266.2719 L792,266.2719 A3.75,3.75 0 0 1 794.5,268.7719 L801.5,287.2719 L835.0798,287.2719 A2.5,2.5 0 0 1 837.5798,289.7719 L837.5798,322.0438 A2.5,2.5 0 0 1 835.0798,324.5438 L751,324.5438 A2.5,2.5 0 0 1 748.5,322.0438 L748.5,268.7719 A2.5,2.5 0 0 1 751,266.2719" fill="#F1F1F1" style="stroke:#181818;stroke-width:0.5;"/><line style="stroke:#181818;stroke-width:0.5;" x1="748.5" x2="801.5" y1="287.2719" y2="287.2719"/><text fill="#000000" font-family="'Noto Sans CJK JP'" font-size="14" lengthAdjust="spacing" textLength="59.0798" x="758.5" y="310.5118">2025&#24180;&#24230;</text></g><!--entity d2--><g class="entity" data-qualified-name="DST.d0.d2" data-source-line="21" id="ent0011"><path d="M751,359.2719 L792,359.2719 A3.75,3.75 0 0 1 794.5,361.7719 L801.5,380.2719 L835.0798,380.2719 A2.5,2.5 0 0 1 837.5798,382.7719 L837.5798,415.0438 A2.5,2.5 0 0 1 835.0798,417.5438 L751,417.5438 A2.5,2.5 0 0 1 748.5,415.0438 L748.5,361.7719 A2.5,2.5 0 0 1 751,359.2719" fill="#F1F1F1" style="stroke:#181818;stroke-width:0.5;"/><line style="stroke:#181818;stroke-width:0.5;" x1="748.5" x2="801.5" y1="380.2719" y2="380.2719"/><text fill="#000000" font-family="'Noto Sans CJK JP'" font-size="14" lengthAdjust="spacing" textLength="59.0798" x="758.5" y="403.5118">2026&#24180;&#24230;</text></g><g class="entity" data-qualified-name="GMN18" data-source-line="33" id="ent0019"><path d="M622,47.2719 L622,113.744 L963.9184,113.744 L963.9184,57.2719 L953.9184,47.2719 L622,47.2719" fill="#FEFFDD" style="stroke:#181818;stroke-width:0.5;"/><path d="M953.9184,47.2719 L953.9184,57.2719 L963.9184,57.2719 L953.9184,47.2719" fill="#FEFFDD" style="stroke:#181818;stroke-width:1;"/><text fill="#000000" font-family="'Noto Sans CJK JP'" font-size="13" lengthAdjust="spacing" textLength="169.0002" x="628" y="67.3519">&#12539;&#12501;&#12457;&#12523;&#12480;&#12399;&#26032;&#35215;&#20316;&#25104;&#12394;&#12398;&#12391;</text><text fill="#000000" font-family="'Noto Sans CJK JP'" font-size="13" font-weight="700" lengthAdjust="spacing" textLength="149.0062" x="799.9122" y="67.3519">&#12501;&#12457;&#12523;&#12480;&#12398; URL &#12399;&#22793;&#12431;&#12427;</text><text fill="#000000" font-family="'Noto Sans CJK JP'" font-size="13" lengthAdjust="spacing" textLength="143.0002" x="628" y="86.1759">&#12539;&#12501;&#12449;&#12452;&#12523;&#12399;&#31227;&#21205;&#12394;&#12398;&#12391;</text><text fill="#000000" font-family="'Noto Sans CJK JP'" font-size="13" font-weight="700" lengthAdjust="spacing" textLength="81.0551" x="773.9122" y="86.1759">URL &#12381;&#12398;&#12414;&#12414;</text><text fill="#000000" font-family="'Noto Sans CJK JP'" font-size="13" lengthAdjust="spacing" textLength="91.0001" x="854.9673" y="86.1759">&#12289;&#25152;&#26377;&#32773;&#12384;&#12369;&#12364;</text><text fill="#000000" font-family="'Noto Sans CJK JP'" font-size="13" lengthAdjust="spacing" textLength="235.6123" x="633.824" y="105">&#20849;&#26377;&#12489;&#12521;&#12452;&#12502; (&#31227;&#34892;&#20808;&#32068;&#32340;) &#12395;&#20999;&#12426;&#26367;&#12431;&#12427;</text></g><!--link s0 to d0--><g class="link" data-entity-1="ent0002" data-entity-2="ent0009" data-link-type="dependency" data-source-line="25" id="lnk12"><path d="M385.6649,158.2308 C390.6556,158.9346 395.7017,159.6502 400.7957,160.377 C421.1716,163.2841 442.3134,166.3703 463.745,169.5946 C506.6081,176.0432 550.63,183.0444 592,190.2719 C635.995,197.9569 680.2426,206.9661 718.8026,215.1936" fill="none" id="s0-to-d0" style="stroke:#1565C0;stroke-width:1;stroke-dasharray:7,7;"/><polygon fill="#1565C0" points="723.6925,216.2369,715.7253,210.4469,718.8026,215.1936,714.0559,218.2708,723.6925,216.2369" style="stroke:#1565C0;stroke-width:1;stroke-linejoin:miter;stroke-miterlimit:10;"/><text fill="#000000" font-family="'Noto Sans CJK JP'" font-size="13" lengthAdjust="spacing" textLength="158.9122" x="433" y="162.3519">&#9312; &#21516;&#21517;&#12501;&#12457;&#12523;&#12480;&#12434;&#26032;&#35215;&#20316;&#25104;</text></g><!--link s1 to d1--><g class="link" data-entity-1="ent0003" data-entity-2="ent0010" data-link-type="dependency" data-source-line="26" id="lnk13"><path d="M344.39,209.4932 C418.4675,214.1094 511.775,224.6519 592,248.2719 C606.11,252.4319 608.01,257.7219 622,262.2719 C663.89,275.8819 708.5623,284.0007 743.3423,289.0707" fill="none" id="s1-to-d1" style="stroke:#1565C0;stroke-width:1;stroke-dasharray:7,7;"/><polygon fill="#1565C0" points="748.29,289.7919,739.9611,284.5355,743.3423,289.0707,738.8071,292.4518,748.29,289.7919" style="stroke:#1565C0;stroke-width:1;stroke-linejoin:miter;stroke-miterlimit:10;"/><text fill="#000000" font-family="'Noto Sans CJK JP'" font-size="13" lengthAdjust="spacing" textLength="13" x="505.5" y="214.3519">&#9312;</text></g><!--link s2 to d2--><g class="link" data-entity-1="ent0006" data-entity-2="ent0011" data-link-type="dependency" data-source-line="27" id="lnk14"><path d="M342.4369,468.8008 C344.0341,468.608 348.0292,441.8539 349.6442,441.659 C375.4852,438.5402 403.5803,435.1494 432.6638,431.6394 C548.9975,417.5994 676.181,402.251 743.136,394.171" fill="none" id="s2-to-d2" style="stroke:#1565C0;stroke-width:1;stroke-dasharray:7,7;"/><polygon fill="#1565C0" points="748.1,393.5719,738.6856,390.679,743.136,394.171,739.6441,398.6214,748.1,393.5719" style="stroke:#1565C0;stroke-width:1;stroke-linejoin:miter;stroke-miterlimit:10;"/><text fill="#000000" font-family="'Noto Sans CJK JP'" font-size="13" lengthAdjust="spacing" textLength="13" x="505.5" y="409.3519">&#9312;</text></g><!--link f1 to d1--><g class="link" data-entity-1="ent0004" data-entity-2="ent0010" data-link-type="dependency" data-source-line="28" id="lnk15"><path d="M269.2,266.4319 C384.95,272.8119 639.7076,286.8665 743.2176,292.5765" fill="none" id="f1-to-d1" style="stroke:#2E7D32;stroke-width:2;"/><polygon fill="#2E7D32" points="748.21,292.8519,739.444,288.3623,743.2176,292.5765,739.0033,296.3501,748.21,292.8519" style="stroke:#2E7D32;stroke-width:2;stroke-linejoin:miter;stroke-miterlimit:10;"/><text fill="#000000" font-family="'Noto Sans CJK JP'" font-size="13" lengthAdjust="spacing" textLength="132.9122" x="446" y="272.3519">&#9313; &#12501;&#12449;&#12452;&#12523;&#12399;&#12300;&#31227;&#21205;&#12301;</text></g><!--link f2 to d1--><g class="link" data-entity-1="ent0005" data-entity-2="ent0010" data-link-type="dependency" data-source-line="29" id="lnk16"><path d="M320.12,333.2719 C396.18,327.5819 500.33,319.6619 592,312.2719 C645.84,307.9319 702.8188,303.0447 743.3288,299.5247" fill="none" id="f2-to-d1" style="stroke:#2E7D32;stroke-width:2;"/><polygon fill="#2E7D32" points="748.31,299.0919,738.9975,295.886,743.3288,299.5247,739.69,303.856,748.31,299.0919" style="stroke:#2E7D32;stroke-width:2;stroke-linejoin:miter;stroke-miterlimit:10;"/><text fill="#000000" font-family="'Noto Sans CJK JP'" font-size="13" lengthAdjust="spacing" textLength="157.3522" x="433.5" y="308.3519">&#9313; ID&#12539;URL&#12539;&#29256;&#23653;&#27508;&#12399;&#32173;&#25345;</text></g><!--link f3 to d2--><g class="link" data-entity-1="ent0007" data-entity-2="ent0011" data-link-type="dependency" data-source-line="30" id="lnk17"><path d="M316.86,521.3919 C397.56,521.3019 508.96,510.3919 592,460.2719 C610.72,448.9719 603.4,432.7619 622,421.2719 C660.37,397.5719 707.1471,390.5788 743.4371,388.6388" fill="none" id="f3-to-d2" style="stroke:#2E7D32;stroke-width:2;"/><polygon fill="#2E7D32" points="748.43,388.3719,739.2293,384.8581,743.4371,388.6388,739.6564,392.8466,748.43,388.3719" style="stroke:#2E7D32;stroke-width:2;stroke-linejoin:miter;stroke-miterlimit:10;"/><text fill="#000000" font-family="'Noto Sans CJK JP'" font-size="13" lengthAdjust="spacing" textLength="13" x="505.5" y="456.3519">&#9313;</text></g><!--link DST to GMN18--><g class="link" data-entity-1="ent0008" data-entity-2="ent0019" data-link-type="association" data-source-line="33" id="lnk20"><path d="M683.8164,484.7074 C682.9346,484.6372 682.0507,484.5642 681.165,484.4882 C624.4775,479.6244 559.975,462.7869 523,415.7719 C466.4,343.8019 474.23,287.2519 523,209.7719 C552.42,163.0219 603.93,132.7719 654.13,113.3819" fill="none" id="DST-GMN18" style="stroke:#181818;stroke-width:1;stroke-dasharray:7,7;"/></g><?plantuml-src XLDRJzDW6Bx_ViMRxGOM8RHaY5oO6DYCQ8W1lI9S5Df2usZDMgE98MdxITnSaM4u98A69Hn470T55F3mNtXfE_u5trhOmP6PBCsIvtdUm_Czh_v4KPyAQM4IH4aMdgMCfAOQ0yAa1941pT1WI51rwEs_3_qF8qIlaFK9GTIUA-euo49AbqXAaWrWzBGoFc60gAIbCKFHL68eHae2f0jeRo7THcgYjOkcS_Px1Uqt_l81MajepY0z2JW5jDVAj83ZRvwukGM6dfhpSFx-hRk_LWQi3sZjeFM7_Vp3ekTOQ36bWtQE45bBYL8Q8anQAZZkDErXlJy6HRD8ju8_Yn4GT1WQx8LeCfdiJd3maW1SATt5Gs-zU4u_1Ioz8m2hCD_1nzsZ0_Tu8yIvInn0I1kAB8mP4F5cyruXuot_lDCkQcCl0gBCDT1AnRspuzovynLQxchQU61J5kqYqdMa1QJVa6PQGp4VYAV-dQIhTXB-cabA6pb_QmPjctaDBMWV8Lr2-WKf3LhzGFghsgIpqcIAJ3LQcUa1TthVMyasMDatz0YYYUvaF76hYPNYVwmKkMRhYVpLNEn9seUZNBmhtjinqdwxNBS7JkTMmSqxRdwcBchsEsznhxGnozBcPVA4lLQzb0kbX9bN3_2NWCn1st2KJzpiw-HlZBBHHjegiW8qYIoH-MRAUtqiyOy77x2ldysu--jUaLt2RfXd8dTUfmrdAX2YQeO4evfXQ9EWoMNxcJTN5rIzijhLqVeS7Cqcn6Brj1rWOm2Zksii4RFiYcAncdBLxIvNgoaK2glNo4gRbfSrMKPAvZHQgsZDeUK4pzeO7MYf9Cl__ie_cczbnRRTp6kMLM_vRpWBaLGHoljU0000?></g></svg>