<svg xmlns="http://www.w3.org/2000/svg" xmlns:xlink="http://www.w3.org/1999/xlink" contentStyleType="text/css" data-diagram-type="DESCRIPTION" height="294px" preserveAspectRatio="none" style="width:1162px;height:294px;background:#FFFFFF;" version="1.1" viewBox="0 0 1162 294" width="1162px" zoomAndPan="magnify"><?plantuml 1.2026.6?><defs/><g><g class="title" data-source-line="4"><text fill="#000000" font-family="'Noto Sans CJK JP'" font-size="14" font-weight="700" lengthAdjust="spacing" textLength="378.4185" x="388.7469" y="26.2399">&#38283;&#30330;&#12501;&#12525;&#12540; &#8212; TypeScript &#12363;&#12425; Apps Script &#12503;&#12525;&#12472;&#12455;&#12463;&#12488;&#12408;</text></g><!--entity ts--><g class="entity" data-qualified-name="ts" data-source-line="6" id="ent0001"><path d="M6,55.7719 L6,111.3157 A2.5,2.5 0 0 0 8.5,113.8157 L103.8037,113.8157 A2.5,2.5 0 0 0 106.3037,111.3157 L106.3037,63.2719 L96.3037,53.2719 L8.5,53.2719 A2.5,2.5 0 0 0 6,55.7719" fill="#F1F1F1" style="stroke:#181818;stroke-width:0.5;"/><path d="M96.3037,53.2719 L96.3037,60.7719 A2.5,2.5 0 0 0 98.8037,63.2719 L106.3037,63.2719" fill="#F1F1F1" style="stroke:#181818;stroke-width:0.5;"/><text fill="#000000" font-family="'Noto Sans CJK JP'" font-size="14" lengthAdjust="spacing" textLength="73.5697" x="16" y="79.5118">src/main.ts</text><text fill="#000000" font-family="'Noto Sans CJK JP'" font-size="14" lengthAdjust="spacing" textLength="80.3037" x="16" y="99.7838">(TypeScript)</text></g><!--entity manifest--><g class="entity" data-qualified-name="manifest" data-source-line="7" id="ent0002"><path d="M262.5,156.7719 L262.5,212.3157 A2.5,2.5 0 0 0 265,214.8157 L404.6555,214.8157 A2.5,2.5 0 0 0 407.1555,212.3157 L407.1555,164.2719 L397.1555,154.2719 L265,154.2719 A2.5,2.5 0 0 0 262.5,156.7719" fill="#F1F1F1" style="stroke:#181818;stroke-width:0.5;"/><path d="M397.1555,154.2719 L397.1555,161.7719 A2.5,2.5 0 0 0 399.6555,164.2719 L407.1555,164.2719" fill="#F1F1F1" style="stroke:#181818;stroke-width:0.5;"/><text fill="#000000" font-family="'Noto Sans CJK JP'" font-size="14" lengthAdjust="spacing" textLength="124.6555" x="272.5" y="180.5118">src/appsscript.json</text><text fill="#000000" font-family="'Noto Sans CJK JP'" font-size="14" lengthAdjust="spacing" textLength="93.4636" x="272.5" y="200.7838">(&#12510;&#12491;&#12501;&#12455;&#12473;&#12488;)</text></g><!--entity tsc--><g class="entity" data-qualified-name="tsc" data-source-line="8" id="ent0003"><rect fill="#F1F1F1" height="70.5438" rx="2.5" ry="2.5" style="stroke:#181818;stroke-width:0.5;" width="161.5055" x="254" y="48.2719"/><rect fill="#F1F1F1" height="10" style="stroke:#181818;stroke-width:0.5;" width="15" x="395.5055" y="53.2719"/><rect fill="#F1F1F1" height="2" style="stroke:#181818;stroke-width:0.5;" width="4" x="393.5055" y="55.2719"/><rect fill="#F1F1F1" height="2" style="stroke:#181818;stroke-width:0.5;" width="4" x="393.5055" y="59.2719"/><text fill="#000000" font-family="'Noto Sans CJK JP'" font-size="14" lengthAdjust="spacing" textLength="18.9699" x="269" y="84.5118">tsc</text><text fill="#000000" font-family="'Noto Sans CJK JP'" font-size="14" lengthAdjust="spacing" textLength="121.5055" x="269" y="104.7838">(&#22411;&#12481;&#12455;&#12483;&#12463; + &#22793;&#25563;)</text></g><!--entity js--><g class="entity" data-qualified-name="js" data-source-line="9" id="ent0004"><path d="M519,59.7719 L519,115.3157 A2.5,2.5 0 0 0 521.5,117.8157 L662.0095,117.8157 A2.5,2.5 0 0 0 664.5095,115.3157 L664.5095,67.2719 L654.5095,57.2719 L521.5,57.2719 A2.5,2.5 0 0 0 519,59.7719" fill="#F1F1F1" style="stroke:#181818;stroke-width:0.5;"/><path d="M654.5095,57.2719 L654.5095,64.7719 A2.5,2.5 0 0 0 657.0095,67.2719 L664.5095,67.2719" fill="#F1F1F1" style="stroke:#181818;stroke-width:0.5;"/><text fill="#000000" font-family="'Noto Sans CJK JP'" font-size="14" lengthAdjust="spacing" textLength="77.3777" x="529" y="83.5118">dist/main.js</text><text fill="#000000" font-family="'Noto Sans CJK JP'" font-size="14" lengthAdjust="spacing" textLength="125.5095" x="529" y="103.7838">(GAS &#29992; JavaScript)</text></g><!--entity manifest2--><g class="entity" data-qualified-name="manifest2" data-source-line="10" id="ent0005"><path d="M517,160.2719 L517,195.5438 A2.5,2.5 0 0 0 519.5,198.0438 L664.3915,198.0438 A2.5,2.5 0 0 0 666.8915,195.5438 L666.8915,167.7719 L656.8915,157.7719 L519.5,157.7719 A2.5,2.5 0 0 0 517,160.2719" fill="#F1F1F1" style="stroke:#181818;stroke-width:0.5;"/><path d="M656.8915,157.7719 L656.8915,165.2719 A2.5,2.5 0 0 0 659.3915,167.7719 L666.8915,167.7719" fill="#F1F1F1" style="stroke:#181818;stroke-width:0.5;"/><text fill="#000000" font-family="'Noto Sans CJK JP'" font-size="14" lengthAdjust="spacing" textLength="129.8915" x="527" y="184.0118">dist/appsscript.json</text></g><!--entity gasproj--><g class="entity" data-qualified-name="gasproj" data-source-line="11" id="ent0006"><path d="M950.0794,95.4264 C953.8791,89.8404 958.0096,89.4214 961.9512,95.2792 C964.4611,90.0068 968.5748,88.7487 972.7891,93.4218 C976.7813,87.0146 982.6051,86.9346 985.7865,94.1929 C987.3879,87.6224 993.0801,86.2808 997.4457,91.4471 C1000.9997,86.4923 1005.4305,86.7822 1009.0101,91.4162 C1012.1374,85.581 1015.913,85.6205 1019.6529,90.8257 C1023.113,86.0911 1028.1298,85.1407 1031.4025,91.0329 C1036.2883,84.891 1042.2837,86.7808 1044.8449,93.4685 C1047.611,88.706 1052.8247,87.429 1056.0566,92.9613 C1059.165,88.2323 1064.4734,88.1928 1067.183,93.4074 C1070.8523,87.1033 1076.8615,87.7178 1079.9487,93.9978 C1084.1488,88.4919 1088.5109,90.1785 1091.3036,95.477 C1097.0419,98.6911 1098.3047,102.8692 1093.4034,107.884 C1100.1804,110.3178 1101.1544,114.406 1096.5444,119.833 C1102.8725,123.0954 1104.1418,128.0655 1098.7481,133.2527 C1103.0493,138.1409 1102.2861,143.2901 1095.291,144.7949 C1101.5199,149.3028 1101.3326,154.2451 1094.311,157.7507 C1098.6717,163.3401 1097.7339,167.8577 1090.2785,169.3332 C1087.4036,175.2905 1083.03,175.7015 1078.9465,170.568 C1076.4115,176.1182 1070.9666,176.5174 1067.4447,171.6584 C1063.4366,177.3871 1059.4841,176.9269 1055.4817,171.652 C1052.8981,176.3473 1048.3335,177.8835 1044.6975,172.8143 C1040.4024,178.8326 1036.5907,177.0047 1033.0927,171.9769 C1029.091,178.19 1025.0049,178.2769 1020.2871,172.7586 C1016.8166,178.8609 1013.0483,178.5414 1009.2915,173.0296 C1005.2319,179.2748 1000.7173,179.5984 996.8951,172.8039 C992.1618,178.2964 987.6044,177.0387 985.11,170.5936 C981.7912,176.4483 978.3936,177.4472 973.6339,172.0652 C969.8351,179.1652 963.6787,177.6807 960.4258,171.5215 C956.9206,176.8803 953.0363,175.299 950.1238,170.8961 C943.1908,168.0472 942.4971,162.87 947.3348,157.5596 C940.579,154.8424 940.6271,150.5636 945.7366,146.18 C938.5328,143.345 937.9417,136.9069 943.8289,132.2757 C938.7087,127.9954 939.3553,123.428 945.4907,120.7739 C938.4574,115.4893 940.7104,110.7575 946.8647,106.7665 C942.1493,101.703 944.4937,97.5697 950.0794,95.4264" fill="#F1F1F1" style="stroke:#181818;stroke-width:0.5;"/><text fill="#000000" font-family="'Noto Sans CJK JP'" font-size="14" lengthAdjust="spacing" textLength="74.2837" x="955.5" y="117.5118">Apps Script</text><text fill="#000000" font-family="'Noto Sans CJK JP'" font-size="14" lengthAdjust="spacing" textLength="83.9996" x="955.5" y="137.7838">&#12503;&#12525;&#12472;&#12455;&#12463;&#12488;</text><text fill="#000000" font-family="'Noto Sans CJK JP'" font-size="14" lengthAdjust="spacing" textLength="127.2595" x="955.5" y="158.0557">(script.google.com)</text></g><g class="entity" data-qualified-name="GMN12" data-source-line="20" id="ent0013"><path d="M890,212.7719 L890,279.244 A0,0 0 0 0 890,279.244 L1147.9123,279.244 A0,0 0 0 0 1147.9123,279.244 L1147.9123,222.7719 L1137.9123,212.7719 L1023,212.7719 L1019,177.4219 L1015,212.7719 L890,212.7719 A0,0 0 0 0 890,212.7719" fill="#FEFFDD" style="stroke:#181818;stroke-width:0.5;"/><path d="M1137.9123,212.7719 L1137.9123,222.7719 L1147.9123,222.7719 L1137.9123,212.7719" fill="#FEFFDD" style="stroke:#181818;stroke-width:0.5;"/><text fill="#000000" font-family="'Noto Sans CJK JP'" font-size="13" lengthAdjust="spacing" textLength="182.0002" x="896" y="232.8519">&#12393;&#12385;&#12425;&#12398;&#26041;&#27861;&#12391;&#12418;&#32080;&#26524;&#12399;&#21516;&#12376;&#12290;</text><text fill="#000000" font-family="'Noto Sans CJK JP'" font-size="13" lengthAdjust="spacing" textLength="236.9123" x="896" y="251.6759">clasp &#12399;&#12467;&#12510;&#12531;&#12489;1&#30330;&#12391;&#21453;&#26144;&#12391;&#12365;&#12427;&#12383;&#12417;&#12289;</text><text fill="#000000" font-family="'Noto Sans CJK JP'" font-size="13" lengthAdjust="spacing" textLength="182.0002" x="896" y="270.5">&#32368;&#12426;&#36820;&#12375;&#20462;&#27491;&#12377;&#12427;&#38283;&#30330;&#26178;&#12395;&#21521;&#12367;</text></g><!--link ts to tsc--><g class="link" data-entity-1="ent0001" data-entity-2="ent0003" data-link-type="dependency" data-source-line="13" id="lnk7"><path d="M106.2,83.7719 C147.09,83.7719 201.08,83.7719 248.78,83.7719" fill="none" id="ts-to-tsc" style="stroke:#181818;stroke-width:1;"/><polygon fill="#181818" points="253.78,83.7719,244.78,79.7719,248.78,83.7719,244.78,87.7719,253.78,83.7719" style="stroke:#181818;stroke-width:1;stroke-linejoin:miter;stroke-miterlimit:10;"/><text fill="#000000" font-family="'Noto Sans CJK JP'" font-size="13" lengthAdjust="spacing" textLength="86.8401" x="137" y="79.8519">mise run build</text></g><!--link manifest to manifest2--><g class="link" data-entity-1="ent0002" data-entity-2="ent0005" data-link-type="dependency" data-source-line="14" id="lnk8"><path d="M407.71,182.8019 C441.74,181.8719 477.3719,180.8887 511.7219,179.9487" fill="none" id="manifest-to-manifest2" style="stroke:#181818;stroke-width:1;"/><polygon fill="#181818" points="516.72,179.8119,507.6139,176.0596,511.7219,179.9487,507.8328,184.0566,516.72,179.8119" style="stroke:#181818;stroke-width:1;stroke-linejoin:miter;stroke-miterlimit:10;"/><text fill="#000000" font-family="'Noto Sans CJK JP'" font-size="13" lengthAdjust="spacing" textLength="39" x="447" y="175.8519">&#12467;&#12500;&#12540;</text></g><!--link tsc to js--><g class="link" data-entity-1="ent0003" data-entity-2="ent0004" data-link-type="dependency" data-source-line="15" id="lnk9"><path d="M416.33,85.0319 C449.18,85.5519 481.8906,86.0637 513.8406,86.5637" fill="none" id="tsc-to-js" style="stroke:#181818;stroke-width:1;"/><polygon fill="#181818" points="518.84,86.6419,509.9037,82.5016,513.8406,86.5637,509.7785,90.5006,518.84,86.6419" style="stroke:#181818;stroke-width:1;stroke-linejoin:miter;stroke-miterlimit:10;"/></g><!--link js to gasproj--><g class="link" data-entity-1="ent0004" data-entity-2="ent0006" data-link-type="dependency" data-source-line="16" id="lnk10"><path d="M665.1,95.2319 C741.47,103.1419 856.6766,115.0668 935.1666,123.1968" fill="none" id="js-to-gasproj" style="stroke:#181818;stroke-width:1;"/><polygon fill="#181818" points="940.14,123.7119,931.6,118.8059,935.1666,123.1968,930.7758,126.7634,940.14,123.7119" style="stroke:#181818;stroke-width:1;stroke-linejoin:miter;stroke-miterlimit:10;"/><text fill="#000000" font-family="'Noto Sans CJK JP'" font-size="13" lengthAdjust="spacing" textLength="157.4302" x="700.275" y="75.8519">&#26041;&#27861;A: &#12456;&#12487;&#12451;&#12479;&#12408;&#36028;&#12426;&#20184;&#12369;</text><text fill="#000000" font-family="'Noto Sans CJK JP'" font-size="13" lengthAdjust="spacing" textLength="161.9801" x="698" y="94.6759">&#26041;&#27861;B: mise run clasp:push</text></g><!--link manifest2 to gasproj--><g class="link" data-entity-1="ent0005" data-entity-2="ent0006" data-link-type="dependency" data-source-line="17" id="lnk11"><path d="M667.03,169.7619 C743.49,161.4819 857.339,149.1596 935.179,140.7396" fill="none" id="manifest2-to-gasproj" style="stroke:#181818;stroke-width:1;"/><polygon fill="#181818" points="940.15,140.2019,930.772,137.193,935.179,140.7396,931.6324,145.1466,940.15,140.2019" style="stroke:#181818;stroke-width:1;stroke-linejoin:miter;stroke-miterlimit:10;"/></g><?plantuml-src PPBFQnD15CVlyrSySbAa5Jts8CI2GeKYn6Clqzr9Ed5tPjcPADuoimUDiRI5z1TALIgq8ct58ZHQoF_YQpRrl_1jjZ-YNkOmytdVxtVUU-QfL0bFUGoXgFDMP1zePUTvBA0ohws66bS6PkSUmTpZ2ZDNi5dYeNukLGFgF3A2HQ9kWV1KDfOiX38LWPLQCIjj9E3tHdUq_GEpTSmEC3k5N-qUF7cHY5gGoiG2kYxw3bIJnC3bLRPPiFu4_Hxw8ynUeJjXh2v9hMBIu7RCfPgsPa7Tk1QwMG5km9e9Z9Ec6JzEDurMX6EsWrcto58ezqcvB8kvadLXB0jqd6Wbb8MADG5L37S8TmMUPPG5Ri7mKoTVUNjf5rpuXTBOCbUpoFMmMeDHRn_c-3C-cQzf9lb_0luLvIuB8jqAeJBHcGNrVsl8x4AYeNKZ4jFqXTAhmKsIwYPZri3KrBqYBCn0B8s0jALWiIMZa5tQZOahR-BG7sFMeu6negvufUpDKkb2cQXyevyVhrSBV1-pb-XtqGzeMkVVJj6_FlkvXMvjGPNK_Gdp82A9cQHbbjYrwOGqOqfR0OlQMXs3hb_T0otCPtGVQMVG7PR2wAWNVlHzDTzvX-vekFe6tHQsFS5Z7oev6d-7XazdvqwnZsvlkBASRtqeYjqo-Ywwz-WTjXsLZVfVAVxve8Tkysnmc1_iejicfjpbVDkZ-p9SNKEtmeGAeSZw1m00?></g></svg>