<svg xmlns="http://www.w3.org/2000/svg" xmlns:xlink="http://www.w3.org/1999/xlink" contentStyleType="text/css" data-diagram-type="DESCRIPTION" height="593px" preserveAspectRatio="none" style="width:2265px;height:593px;background:#FFFFFF;" version="1.1" viewBox="0 0 2265 593" width="2265px" zoomAndPan="magnify"><?plantuml 1.2026.6?><defs/><g><g class="title" data-source-line="4"><text fill="#000000" font-family="'Noto Sans CJK JP'" font-size="14" font-weight="700" lengthAdjust="spacing" textLength="385.4464" x="936.277" y="26.2399">&#12473;&#12503;&#12524;&#12483;&#12489;&#12471;&#12540;&#12488; UI &#12398;&#20840;&#20307;&#20687;&#65288;&#21033;&#29992;&#32773;&#12364;&#35302;&#12427;&#12398;&#12399;&#12371;&#12371;&#12384;&#12369;&#65289;</text></g><!--cluster ss--><g class="cluster" data-qualified-name="ss" data-source-line="6" id="ent0001"><rect fill="#FFFFFF" height="531" rx="4" ry="4" style="stroke:#181818;stroke-width:1;" width="1907" x="7" y="48.2719"/><text fill="#000000" font-family="'Noto Sans CJK JP'" font-size="14" font-weight="700" lengthAdjust="spacing" textLength="163.6453" x="878.6773" y="66.5118">Google &#12473;&#12503;&#12524;&#12483;&#12489;&#12471;&#12540;&#12488;</text></g><!--cluster menu--><g class="cluster" data-qualified-name="ss.menu" data-source-line="8" id="ent0002"><rect fill="#E8F0FE" height="81" rx="4" ry="4" style="stroke:#181818;stroke-width:1;" width="1186" x="207" y="95.2719"/><text fill="#000000" font-family="'Noto Sans CJK JP'" font-size="14" font-weight="700" lengthAdjust="spacing" textLength="185.1772" x="707.4114" y="113.5118">&#12513;&#12491;&#12517;&#12540;&#12300;&#128193; &#12489;&#12521;&#12452;&#12502;&#31227;&#34892;&#12301;</text></g><!--cluster settings--><g class="cluster" data-qualified-name="ss.settings" data-source-line="16" id="ent0008"><rect fill="#FFF8E1" height="311" rx="4" ry="4" style="stroke:#181818;stroke-width:1;" width="886" x="39" y="236.2719"/><text fill="#000000" font-family="'Noto Sans CJK JP'" font-size="14" font-weight="700" lengthAdjust="spacing" textLength="97.9996" x="433.0002" y="254.5118">&#12300;&#35373;&#23450;&#12301;&#12471;&#12540;&#12488;</text></g><!--cluster prog--><g class="cluster" data-qualified-name="ss.prog" data-source-line="26" id="ent0016"><rect fill="#E6F4EA" height="97" rx="4" ry="4" style="stroke:#181818;stroke-width:1;" width="615" x="1267" y="236.2719"/><text fill="#000000" font-family="'Noto Sans CJK JP'" font-size="14" font-weight="700" lengthAdjust="spacing" textLength="97.9996" x="1525.5002" y="254.5118">&#12300;&#36914;&#25431;&#12301;&#12471;&#12540;&#12488;</text></g><!--cluster fail--><g class="cluster" data-qualified-name="ss.fail" data-source-line="31" id="ent0019"><rect fill="#FCE8E6" height="97" rx="4" ry="4" style="stroke:#181818;stroke-width:1;" width="262" x="965" y="236.2719"/><text fill="#000000" font-family="'Noto Sans CJK JP'" font-size="14" font-weight="700" lengthAdjust="spacing" textLength="125.9995" x="1033.0003" y="254.5118">&#12300;&#22833;&#25943;&#19968;&#35239;&#12301;&#12471;&#12540;&#12488;</text></g><!--entity m1--><g class="entity" data-qualified-name="ss.menu.m1" data-source-line="9" id="ent0003"><rect fill="#F1F1F1" height="26.2719" rx="4" ry="4" style="stroke:#181818;stroke-width:0.5;" width="202.8952" x="735.5" y="134.2719"/><text fill="#000000" font-family="'Noto Sans CJK JP'" font-size="14" lengthAdjust="spacing" textLength="182.8952" x="745.5" y="153.5118">&#9312; &#35373;&#23450;&#12471;&#12540;&#12488;&#12434;&#28310;&#20633; / &#21021;&#26399;&#21270;</text></g><!--entity m2--><g class="entity" data-qualified-name="ss.menu.m2" data-source-line="10" id="ent0004"><rect fill="#F1F1F1" height="26.2719" rx="4" ry="4" style="stroke:#181818;stroke-width:0.5;" width="205.1352" x="973.5" y="134.2719"/><text fill="#000000" font-family="'Noto Sans CJK JP'" font-size="14" lengthAdjust="spacing" textLength="185.1352" x="983.5" y="153.5118">&#9313; &#31227;&#34892;&#12434;&#38283;&#22987;&#65288;&#35373;&#23450;&#12395;&#24467;&#12358;&#65289;</text></g><!--entity m3--><g class="entity" data-qualified-name="ss.menu.m3" data-source-line="11" id="ent0005"><rect fill="#F1F1F1" height="26.2719" rx="4" ry="4" style="stroke:#181818;stroke-width:0.5;" width="163.1354" x="1213.5" y="134.2719"/><text fill="#000000" font-family="'Noto Sans CJK JP'" font-size="14" lengthAdjust="spacing" textLength="143.1354" x="1223.5" y="153.5118">&#9314; &#36914;&#25431;&#12434;&#26356;&#26032;&#12375;&#12390;&#34920;&#31034;</text></g><!--entity m4--><g class="entity" data-qualified-name="ss.menu.m4" data-source-line="12" id="ent0006"><rect fill="#F1F1F1" height="26.2719" rx="4" ry="4" style="stroke:#181818;stroke-width:0.5;" width="225.5191" x="474" y="134.2719"/><text fill="#000000" font-family="'Noto Sans CJK JP'" font-size="14" lengthAdjust="spacing" textLength="205.5191" x="484" y="153.5118">&#20013;&#26029;&#12363;&#12425;&#12398;&#20877;&#38283; / &#20013;&#27490; / &#12522;&#12475;&#12483;&#12488;</text></g><!--entity m5--><g class="entity" data-qualified-name="ss.menu.m5" data-source-line="13" id="ent0007"><rect fill="#F1F1F1" height="26.2719" rx="4" ry="4" style="stroke:#181818;stroke-width:0.5;" width="215.9991" x="223" y="134.2719"/><text fill="#000000" font-family="'Noto Sans CJK JP'" font-size="14" lengthAdjust="spacing" textLength="195.9991" x="233" y="153.5118">&#12304;&#24460;&#29255;&#20184;&#12369;&#12305;&#31354;&#12501;&#12457;&#12523;&#12480;&#12434;&#21066;&#38500;</text></g><!--entity s1--><g class="entity" data-qualified-name="ss.settings.s1" data-source-line="17" id="ent0009"><rect fill="#F1F1F1" height="26.2719" rx="4" ry="4" style="stroke:#181818;stroke-width:0.5;" width="234.9971" x="63.5" y="283.2719"/><text fill="#000000" font-family="'Noto Sans CJK JP'" font-size="14" lengthAdjust="spacing" textLength="150.9613" x="73.5" y="302.5118">&#31227;&#34892;&#20803;&#12501;&#12457;&#12523;&#12480;ID           [</text><text fill="#000000" font-family="'Noto Sans CJK JP'" font-size="14" lengthAdjust="spacing" text-decoration="underline" textLength="43.6518" x="224.4613" y="302.5118">__&#20837;&#21147;</text><text fill="#000000" font-family="'Noto Sans CJK JP'" font-size="14" lengthAdjust="spacing" textLength="20.3839" x="268.1132" y="302.5118">__]</text></g><!--entity s2--><g class="entity" data-qualified-name="ss.settings.s2" data-source-line="18" id="ent0010"><rect fill="#F1F1F1" height="26.2719" rx="4" ry="4" style="stroke:#181818;stroke-width:0.5;" width="302.5888" x="333.5" y="283.2719"/><text fill="#000000" font-family="'Noto Sans CJK JP'" font-size="14" lengthAdjust="spacing" textLength="218.5531" x="343.5" y="302.5118">&#31227;&#34892;&#20808;ID(&#20849;&#26377;&#12489;&#12521;&#12452;&#12502;/&#12501;&#12457;&#12523;&#12480;) [</text><text fill="#000000" font-family="'Noto Sans CJK JP'" font-size="14" lengthAdjust="spacing" text-decoration="underline" textLength="43.6518" x="562.0531" y="302.5118">__&#20837;&#21147;</text><text fill="#000000" font-family="'Noto Sans CJK JP'" font-size="14" lengthAdjust="spacing" textLength="20.3839" x="605.7049" y="302.5118">__]</text></g><!--entity s3--><g class="entity" data-qualified-name="ss.settings.s3" data-source-line="19" id="ent0011"><rect fill="#F1F1F1" height="26.2719" rx="4" ry="4" style="stroke:#181818;stroke-width:0.5;" width="210.3852" x="672" y="283.2719"/><text fill="#000000" font-family="'Noto Sans CJK JP'" font-size="14" lengthAdjust="spacing" textLength="190.3852" x="682" y="302.5118">&#12489;&#12521;&#12452;&#12521;&#12531;&#65288;&#12362;&#35430;&#12375;&#65289;          [&#10003;]</text></g><!--entity s4--><g class="entity" data-qualified-name="ss.settings.s4" data-source-line="20" id="ent0012"><rect fill="#F1F1F1" height="26.2719" rx="4" ry="4" style="stroke:#181818;stroke-width:0.5;" width="210.3852" x="83" y="399.2719"/><text fill="#000000" font-family="'Noto Sans CJK JP'" font-size="14" lengthAdjust="spacing" textLength="190.3852" x="93" y="418.5118">&#12488;&#12483;&#12503;&#12501;&#12457;&#12523;&#12480;&#12434;&#20316;&#12427;          [&#10003;]</text></g><!--entity s5--><g class="entity" data-qualified-name="ss.settings.s5" data-source-line="21" id="ent0013"><rect fill="#F1F1F1" height="26.2719" rx="4" ry="4" style="stroke:#181818;stroke-width:0.5;" width="218.1131" x="328" y="399.2719"/><text fill="#000000" font-family="'Noto Sans CJK JP'" font-size="14" lengthAdjust="spacing" textLength="198.1131" x="338" y="418.5118">&#31227;&#21205;&#22833;&#25943;&#26178;&#12395;&#12467;&#12500;&#12540;&#25937;&#28168;        [&#10003;]</text></g><!--entity s6--><g class="entity" data-qualified-name="ss.settings.s6" data-source-line="22" id="ent0014"><rect fill="#F1F1F1" height="26.2719" rx="4" ry="4" style="stroke:#181818;stroke-width:0.5;" width="233.8071" x="581" y="399.2719"/><text fill="#000000" font-family="'Noto Sans CJK JP'" font-size="14" lengthAdjust="spacing" textLength="149.7713" x="591" y="418.5118">&#23436;&#20102;&#36890;&#30693;&#12513;&#12540;&#12523;               [</text><text fill="#000000" font-family="'Noto Sans CJK JP'" font-size="14" lengthAdjust="spacing" text-decoration="underline" textLength="43.6518" x="740.7713" y="418.5118">__&#20837;&#21147;</text><text fill="#000000" font-family="'Noto Sans CJK JP'" font-size="14" lengthAdjust="spacing" textLength="20.3839" x="784.4232" y="418.5118">__]</text></g><!--entity s7--><g class="entity" data-qualified-name="ss.settings.s7" data-source-line="23" id="ent0015"><rect fill="#F1F1F1" height="26.2719" rx="4" ry="4" style="stroke:#181818;stroke-width:0.5;" width="259.063" x="63.5" y="497.2719"/><text fill="#000000" font-family="'Noto Sans CJK JP'" font-size="14" lengthAdjust="spacing" textLength="239.063" x="73.5" y="516.5118">[&#35443;&#32048;] &#23455;&#34892;&#21046;&#38480;/&#24453;&#27231;/&#12506;&#12540;&#12472;/&#12522;&#12488;&#12521;&#12452;</text></g><!--entity p1--><g class="entity" data-qualified-name="ss.prog.p1" data-source-line="27" id="ent0017"><rect fill="#F1F1F1" height="26.2719" rx="4" ry="4" style="stroke:#181818;stroke-width:0.5;" width="209.2792" x="1648.5" y="283.2719"/><text fill="#000000" font-family="'Noto Sans CJK JP'" font-size="14" lengthAdjust="spacing" textLength="189.2792" x="1658.5" y="302.5118">&#29366;&#24907; / &#12514;&#12540;&#12489; / &#38283;&#22987; / &#26368;&#32066;&#26356;&#26032;</text></g><!--entity p2--><g class="entity" data-qualified-name="ss.prog.p2" data-source-line="28" id="ent0018"><rect fill="#F1F1F1" height="26.2719" rx="4" ry="4" style="stroke:#181818;stroke-width:0.5;" width="303.1348" x="1310.5" y="283.2719"/><text fill="#000000" font-family="'Noto Sans CJK JP'" font-size="14" lengthAdjust="spacing" textLength="283.1348" x="1320.5" y="302.5118">&#20966;&#29702;&#12539;&#20316;&#25104;&#12539;&#31227;&#21205;&#12539;&#12467;&#12500;&#12540;&#12539;&#22833;&#25943;&#12539;&#27531;&#12426; &#20214;&#25968;</text></g><!--entity f1--><g class="entity" data-qualified-name="ss.fail.f1" data-source-line="32" id="ent0020"><rect fill="#F1F1F1" height="26.2719" rx="4" ry="4" style="stroke:#181818;stroke-width:0.5;" width="195.0132" x="1008.5" y="283.2719"/><text fill="#000000" font-family="'Noto Sans CJK JP'" font-size="14" lengthAdjust="spacing" textLength="175.0132" x="1018.5" y="302.5118">&#12497;&#12473; / &#12501;&#12449;&#12452;&#12523;&#21517; / ID / &#29702;&#30001;</text></g><g class="entity" data-qualified-name="GMN26" data-source-line="43" id="ent0027"><path d="M1930,392.2719 L1930,431.9199 A4,4 0 0 0 1934,435.9199 L2246.0003,435.9199 A4,4 0 0 0 2250.0003,431.9199 L2250.0003,398.2719 L2240.0003,388.2719 L1934,388.2719 A4,4 0 0 0 1930,392.2719" fill="#FEFFDD" style="stroke:#181818;stroke-width:0.5;"/><path d="M2240.0003,388.2719 L2240.0003,396.2719 A2,2 0 0 0 2242.0003,398.2719 L2250.0003,398.2719 L2240.0003,388.2719" fill="#FEFFDD" style="stroke:#181818;stroke-width:1;"/><text fill="#000000" font-family="'Noto Sans CJK JP'" font-size="13" lengthAdjust="spacing" textLength="221.0003" x="1936" y="408.3519">&#40644;&#33394;&#12356;&#12300;&#20837;&#21147;&#20516;&#12301;&#21015;&#12384;&#12369;&#12364;&#32232;&#38598;&#21487;&#33021;&#12290;</text><text fill="#000000" font-family="'Noto Sans CJK JP'" font-size="13" lengthAdjust="spacing" textLength="299.0003" x="1936" y="427.1759">&#38917;&#30446;&#21517;&#12392;&#35500;&#26126;&#12398;&#21015;&#12399;&#35492;&#32232;&#38598;&#38450;&#27490;&#12391;&#20445;&#35703;&#12373;&#12428;&#12390;&#12356;&#12427;&#12290;</text></g><!--link m1 to settings--><g class="link" data-entity-1="ent0003" data-entity-2="ent0008" data-link-type="dependency" data-source-line="36" id="lnk21"><path d="M788.25,160.3119 C752.37,171.3719 713.3,189.4819 735,212.2719 C747.5,225.4019 883.97,208.7919 898,220.2719 C901.2225,222.9094 903.9431,226.0078 906.2362,229.4169 C907.3827,231.1215 908.4223,232.9037 909.3643,234.7448 C909.5999,235.205 907.6724,231.1581 907.8959,231.6254" fill="none" id="m1-to-settings" style="stroke:#181818;stroke-width:1;stroke-dasharray:7,7;"/><polygon fill="#181818" points="910.0527,236.1363,909.7791,226.2912,907.8959,231.6254,902.5617,229.7422,910.0527,236.1363" style="stroke:#181818;stroke-width:1;stroke-linejoin:miter;stroke-miterlimit:10;"/><text fill="#000000" font-family="'Noto Sans CJK JP'" font-size="13" lengthAdjust="spacing" textLength="137.2152" x="736" y="208.3519">3&#26522;&#12398;&#12471;&#12540;&#12488;&#12434;&#33258;&#21205;&#29983;&#25104;</text></g><!--link m2 to settings--><g class="link" data-entity-1="ent0004" data-entity-2="ent0008" data-link-type="dependency" data-source-line="37" id="lnk22"><path d="M1040.07,160.2719 C1016.39,167.8819 984.58,177.5219 956,184.2719 C945.9,186.6519 916.68,184.3319 910,192.2719 C902.7325,200.9144 899.4656,211.5413 898.6705,222.6524 C898.4717,225.4302 898.4274,228.2382 898.5137,231.0531 C898.5568,232.4605 898.6326,233.8696 898.738,235.2775 C898.7512,235.4535 898.3654,230.6455 898.3795,230.8214" fill="none" id="m2-to-settings" style="stroke:#181818;stroke-width:1;stroke-dasharray:7,7;"/><polygon fill="#181818" points="898.779,235.8054,902.0471,226.5146,898.3795,230.8214,894.0727,227.1538,898.779,235.8054" style="stroke:#181818;stroke-width:1;stroke-linejoin:miter;stroke-miterlimit:10;"/><text fill="#000000" font-family="'Noto Sans CJK JP'" font-size="13" lengthAdjust="spacing" textLength="117.0001" x="911" y="208.3519">&#20837;&#21147;&#20516;&#12434;&#35501;&#12435;&#12391;&#23455;&#34892;</text></g><!--link m2 to prog--><g class="link" data-entity-1="ent0004" data-entity-2="ent0016" data-link-type="dependency" data-source-line="38" id="lnk23"><path d="M1099.12,160.2819 C1124.31,173.3019 1165.85,194.5919 1202,212.2719 C1209.5,215.9419 1212.53,214.9919 1219,220.2719 C1234.61,233.0169 1248.2375,251.0119 1258.14,266.1807 C1260.6156,269.9728 1262.8584,273.5884 1264.8412,276.9011 C1265.3369,277.7293 1265.8163,278.5385 1266.2791,279.3269 C1266.5105,279.7211 1264.2243,275.7877 1264.4473,276.1711" fill="none" id="m2-to-prog" style="stroke:#181818;stroke-width:1;stroke-dasharray:7,7;"/><polygon fill="#181818" points="1266.9607,280.4935,1265.8945,270.7025,1264.4473,276.1711,1258.9787,274.724,1266.9607,280.4935" style="stroke:#181818;stroke-width:1;stroke-linejoin:miter;stroke-miterlimit:10;"/><text fill="#000000" font-family="'Noto Sans CJK JP'" font-size="13" lengthAdjust="spacing" textLength="117.0001" x="1203" y="208.3519">&#23455;&#34892;&#29366;&#27841;&#12434;&#26360;&#12365;&#36796;&#12416;</text></g><!--link m3 to prog--><g class="link" data-entity-1="ent0005" data-entity-2="ent0016" data-link-type="dependency" data-source-line="39" id="lnk24"><path d="M1309.48,160.3819 C1323.86,173.8819 1342.02,195.9419 1329,212.2719 C1319.05,224.7519 1305.41,209.1219 1294,220.2719 C1291.0213,223.1819 1288.4853,226.4869 1286.3286,230.0486 C1285.2503,231.8294 1284.2667,233.6744 1283.37,235.5663 C1283.314,235.6845 1285.3733,231.2723 1285.3179,231.3909" fill="none" id="m3-to-prog" style="stroke:#181818;stroke-width:1;stroke-dasharray:7,7;"/><polygon fill="#181818" points="1283.2029,235.9215,1290.6344,229.4583,1285.3179,231.3909,1283.3853,226.0744,1283.2029,235.9215" style="stroke:#181818;stroke-width:1;stroke-linejoin:miter;stroke-miterlimit:10;"/><text fill="#000000" font-family="'Noto Sans CJK JP'" font-size="13" lengthAdjust="spacing" textLength="104.0001" x="1334" y="208.3519">&#26368;&#26032;&#12398;&#36914;&#25431;&#12434;&#21453;&#26144;</text></g><!--link m2 to fail--><g class="link" data-entity-1="ent0004" data-entity-2="ent0019" data-link-type="dependency" data-source-line="40" id="lnk25"><path d="M1072.12,160.3319 C1066.71,175.0719 1055.45,199.6019 1037,212.2719 C1020.61,223.5219 1007.61,206.7919 993,220.2719 C989.9288,223.1044 987.3081,226.3507 985.074,229.8689 C983.957,231.6281 982.9366,233.4552 982.0048,235.3326 C981.8883,235.5673 983.9421,231.2977 983.8284,231.5339" fill="none" id="m2-to-fail" style="stroke:#181818;stroke-width:1;stroke-dasharray:7,7;"/><polygon fill="#181818" points="981.6595,236.039,989.1676,229.6649,983.8284,231.5339,981.9594,226.1947,981.6595,236.039" style="stroke:#181818;stroke-width:1;stroke-linejoin:miter;stroke-miterlimit:10;"/><text fill="#000000" font-family="'Noto Sans CJK JP'" font-size="13" lengthAdjust="spacing" textLength="91.0001" x="1056" y="208.3519">&#22833;&#25943;&#12434;&#26360;&#12365;&#36796;&#12416;</text></g><!--link settings to GMN26--><g class="link" data-entity-1="ent0008" data-entity-2="ent0027" data-link-type="association" data-source-line="43" id="lnk28"><path d="M925.0251,314.1904 C925.2067,314.5167 925.3912,314.8454 925.5787,315.1764 C926.3287,316.5001 927.1264,317.8591 927.9713,319.2394 C934.73,330.2819 944.505,342.6869 957,349.2719 C1040.77,393.4019 1637.69,406.2219 1929.8,409.8619" fill="none" id="settings-GMN26" style="stroke:#181818;stroke-width:1;stroke-dasharray:7,7;"/></g><?plantuml-src VLLRRnfN47xdLnoHb_Ob5DjnhJnKgXoed4fHfQfFKLHj0tQj6ZQ2jVfGLThT4_1oYo4su0ifniBS771ifpOrjljVCfpTvIdz2PtTGyX2QOvu62tpVJFppPmvqLzMmy-4Y10YWU2oiBuc-SMmz4W81OdxaIY9v7iX72MB3xyb3xzpkw8Zv-ZFGa3yTJMyGfQ5jMZGyKz4N0y75iL8E1WX2ovfLLeB4b3_0be4-Xee1Pe0zHBeDL2D_B14GEcmMAD_iyNevljhZMbDOxjXoZ5GqcQz1ceA7K0v0MNB_Xs0adj_dN2v8i6daX1UGNRtDwAuyeaeRY94IJHAxlZjGtvpkGXnm85MWAQ07bdkSlgVyfP2B3njWbe5MZ3gFREI1ZbZ4uM2uNLonxVW_yBlGog2vwaG2H3tkzm1CHjjrjaRHGRrfNvLOEekyH2clT9BPPOkS1Rl6B92Xa7KbuD2YjLJgCIGIpbcjrXt78lco9anv24Po6TwfcY5sd-h5zw0KWIbPbOQHlMA0sOTW7wthHVQeAH0JLZAnpCO3xEplhSFqG3Q0hLdAyY52yqvu21dsMtQI6pqUplO291pHlCAQ1xK9j1Ze3AcmHB9mMwLO-yXzlT9kUNqi3GvCz6Ze2JXIF5EBVYyO_9oWLYCEiCjFI0Vp-CVyR3O4KlkMzOJpkcTmg4jFVYCnKxrKiBPPu-J-VF_eNEgxm0ZwXnx1ahIRDQm1TWjHsBlIbj3-EmONBDrBau8sByfuTXFXS-D5yDIULOzrVD5VLV5GG7r7EWs2ghdStfNcuA_vy2pJhf_5H_8UqRvoBu2s8TZCdwcQp3lO7biDi-Djs-U4DOfMzfg5uFTh8VTnlHc6GNTisZLhiSQAwjSIorEykNqqHXEy-HeF8k8AtZhvlrplg_7no9veSTIzk0Uslu9jFaTGaCloSQVAhyOdCSv3coZPcJZG7kekAvbqU2QeZ6I4cqkCHfw1wzDalHx5tf-I3SplGeEwNTbirR_JotBmkeQZlYYRy4tFrOBq1pkCBiM78YAFLZ7B9l1BpZe7eB96jkddCDh1yRG8I-vU_UhZtVdFfdL_zYpbgPZ2vaRBQpBs2vZcQxGp2I2TvZ9LSkrrGOL5qwTD_I3jzs0-yCkMwAVA_RAwOAICM-nnx8hDElqHEdjRTGPxIUscT5t3ZuGsYeW8HTtWieL5gKW-KcK9354nELHhbZqeFVSJ9o1yjoIUPItd65QaRyE-70Obut1VfnjdfZq1cJLGXt4ZFqEQWbAmsozrdTUMDlFWfoOhIht7-oSuGx4olj_lpBRbw1W4zAuIwrO-0mXJp0S85Pc_m80?></g></svg>