<svg xmlns="http://www.w3.org/2000/svg" xmlns:xlink="http://www.w3.org/1999/xlink" contentStyleType="text/css" data-diagram-type="DESCRIPTION" height="1239px" preserveAspectRatio="none" style="width:1332px;height:1239px;background:#FFFFFF;" version="1.1" viewBox="0 0 1332 1239" width="1332px" zoomAndPan="magnify"><?plantuml 1.2026.6?><defs/><g><g class="title" data-source-line="1"><text fill="#000000" font-family="'Noto Sans CJK JP'" font-size="14" font-weight="700" lengthAdjust="spacing" textLength="125.9995" x="599.5898" y="26.2399">&#20840;&#20307;&#12450;&#12540;&#12461;&#12486;&#12463;&#12481;&#12515;</text></g><!--cluster ????????--><g class="cluster" data-qualified-name="........" data-source-line="8" id="ent0002"><path d="M8.5,213.7719 L121.4995,213.7719 A3.75,3.75 0 0 1 123.9995,216.2719 L130.9995,240.0438 L375.5,240.0438 A2.5,2.5 0 0 1 378,242.5438 L378,793.7719 A2.5,2.5 0 0 1 375.5,796.2719 L8.5,796.2719 A2.5,2.5 0 0 1 6,793.7719 L6,216.2719 A2.5,2.5 0 0 1 8.5,213.7719" fill="none" style="stroke:#000000;stroke-width:1.5;"/><line style="stroke:#000000;stroke-width:1.5;" x1="6" x2="130.9995" y1="240.0438" y2="240.0438"/><text fill="#000000" font-family="'Noto Sans CJK JP'" font-size="14" font-weight="700" lengthAdjust="spacing" textLength="111.9995" x="10" y="232.0118">&#12525;&#12540;&#12459;&#12523;&#38283;&#30330;&#29872;&#22659;</text></g><!--cluster Google--><g class="cluster" data-qualified-name="Google" data-source-line="22" id="ent0013"><path d="M431.5419,641.3492 C448.3017,611.2397 478.5072,604.4327 497.9336,638.5946 C511.32,611.4812 538.786,608.1708 557.4404,632.501 C578.0137,610.3723 599.8062,613.0704 615.3077,638.6524 C631.9246,611.2542 662.2251,607.0688 677.9483,639.5868 C695.1427,612.4497 716.8322,609.2904 737.8824,635.2331 C757.0679,602.4028 779.8018,604.3351 799.5646,634.6694 C814.3524,609.264 841.8855,608.7128 858.3638,632.655 C877.8204,607.696 895.7606,601.5658 915.3039,632.5668 C931.9331,605.8055 959.4682,603.9046 975.4013,633.3116 C992.6021,602.9848 1018.7434,604.5913 1036.0209,633.2327 C1053.5653,610.746 1073.8628,603.6838 1091.0846,633.5719 C1110.3169,608.9568 1129.4023,603.7612 1147.8298,634.3984 C1169.1763,603.7353 1192.9254,613.1904 1207.8387,641.0006 C1223.8669,606.1976 1254.6361,605.287 1273,638.7719 C1278.1819,639.4788 1279.1238,643.9705 1276.1516,647.5912 C1307.0107,666.8681 1307.6714,693.8843 1274.6782,711.6935 C1305.7247,728.5809 1316.4479,750.0354 1284.5954,776.5419 C1315.2941,796.4424 1315.3103,826.361 1278.8155,840.1566 C1312.1399,856.7417 1308.7936,887.0013 1281.7145,906.2364 C1317.1791,929.4986 1312.988,953.8104 1279.8642,975.2332 C1313.926,996.9824 1308.8826,1024.5747 1277.7113,1044.2902 C1307.8732,1064.8187 1316.6121,1088.5283 1282.9332,1113.8494 C1312.4746,1142.0105 1300.5307,1166.2175 1266,1177.2719 C1271.0622,1173.5297 1274.288,1175.5021 1275.19,1181.2855 C1258.1982,1206.8783 1232.3016,1208.0517 1214.3145,1182.4693 C1195.6331,1211.5642 1173.9808,1211.5048 1154.3432,1183.4731 C1138.9283,1216.1634 1112.8349,1214.5192 1095.2583,1185.5443 C1075.1069,1213.429 1056.6712,1216.9522 1034.7809,1187.3744 C1017.5923,1217.834 988.9038,1224.9089 967.9821,1191.2644 C953.1947,1218.4788 927.8249,1214.9962 916.4691,1188.0033 C900.5476,1218.0276 870.0242,1215.5293 853.2546,1188.9505 C835.353,1218.5795 807.4071,1216.388 791.6692,1186.7039 C775.2586,1210.8142 750.1401,1211.8515 732.748,1187.9074 C712.3173,1216.2228 690.91,1211.1303 673.4346,1184.7052 C659.3399,1215.2376 630.3331,1213.4731 613.0993,1188.0927 C594.3588,1214.7159 572.0309,1209.5605 559.7316,1181.7748 C539.7932,1211.4152 517.3701,1215.0943 491.9116,1188.423 C461.726,1214.5575 438.0635,1204.4579 424,1170.2719 C428.2778,1172.2126 428.5079,1176.3854 424.8547,1179.0944 C393.092,1160.626 389.7582,1132.394 421.4119,1110.7319 C381.5078,1086.3352 390.8724,1063.9499 419.6506,1037.8925 C392.5131,1022.052 396.302,992.2311 421.294,977.8166 C391.5471,956.0788 391.5165,932.8542 423.3828,913.1051 C384.222,895.0623 382.7004,863.1808 418.2589,839.9076 C386.5194,817.0066 392.7225,789.1664 425.9457,773.8215 C396.5085,756.375 393.5355,733.2368 423.3443,713.246 C385.762,686.0122 391.3833,651.7517 431,631.7719 C435.0167,634.3199 436.077,638.3173 431.5419,641.3492" fill="none" style="stroke:#181818;stroke-width:1;"/><text fill="#000000" font-family="'Noto Sans CJK JP'" font-size="14" font-weight="700" lengthAdjust="spacing" textLength="48.4678" x="824.2661" y="653.0118">Google</text></g><!--cluster Apps Script ??????\n(????????)--><g class="cluster" data-qualified-name="Google.Apps Script .......n.........." data-source-line="24" id="ent0015"><path d="M706.5,670.7719 L873.1753,670.7719 A3.75,3.75 0 0 1 875.6753,673.2719 L882.6753,717.3157 L929.5,717.3157 A2.5,2.5 0 0 1 932,719.8157 L932,1158.7719 A2.5,2.5 0 0 1 929.5,1161.2719 L706.5,1161.2719 A2.5,2.5 0 0 1 704,1158.7719 L704,673.2719 A2.5,2.5 0 0 1 706.5,670.7719" fill="none" style="stroke:#000000;stroke-width:1.5;"/><line style="stroke:#000000;stroke-width:1.5;" x1="704" x2="882.6753" y1="717.3157" y2="717.3157"/><text fill="#000000" font-family="'Noto Sans CJK JP'" font-size="14" font-weight="700" lengthAdjust="spacing" textLength="165.6753" x="708" y="689.0118">Apps Script &#12503;&#12525;&#12472;&#12455;&#12463;&#12488;</text><text fill="#000000" font-family="'Noto Sans CJK JP'" font-size="14" font-weight="700" lengthAdjust="spacing" textLength="122.5835" x="729.5459" y="709.2838">(&#12471;&#12540;&#12488;&#12395;&#12496;&#12452;&#12531;&#12489;)</text></g><!--cluster Google Drive--><g class="cluster" data-qualified-name="Google.Google Drive" data-source-line="30" id="ent0020"><path d="M1083.5,1035.2719 L1172.6997,1035.2719 A3.75,3.75 0 0 1 1175.1997,1037.7719 L1182.1997,1061.5438 L1254.5,1061.5438 A2.5,2.5 0 0 1 1257,1064.0438 L1257,1148.7719 A2.5,2.5 0 0 1 1254.5,1151.2719 L1083.5,1151.2719 A2.5,2.5 0 0 1 1081,1148.7719 L1081,1037.7719 A2.5,2.5 0 0 1 1083.5,1035.2719" fill="none" style="stroke:#000000;stroke-width:1.5;"/><line style="stroke:#000000;stroke-width:1.5;" x1="1081" x2="1182.1997" y1="1061.5438" y2="1061.5438"/><text fill="#000000" font-family="'Noto Sans CJK JP'" font-size="14" font-weight="700" lengthAdjust="spacing" textLength="88.1997" x="1085" y="1053.5118">Google Drive</text></g><!--entity mise--><g class="entity" data-qualified-name=".........mise" data-source-line="9" id="ent0003"><rect fill="#F1F1F1" height="60.5438" rx="2.5" ry="2.5" style="stroke:#181818;stroke-width:0.5;" width="169.4633" x="193.5" y="252.7719"/><text fill="#000000" font-family="'Noto Sans CJK JP'" font-size="14" lengthAdjust="spacing" textLength="31.1219" x="203.5" y="279.0118">mise</text><text fill="#000000" font-family="'Noto Sans CJK JP'" font-size="14" lengthAdjust="spacing" textLength="149.4633" x="203.5" y="299.2838">(&#12484;&#12540;&#12523;&#12496;&#12540;&#12472;&#12519;&#12531;&#31649;&#29702;)</text></g><!--entity node--><g class="entity" data-qualified-name=".........node" data-source-line="10" id="ent0004"><rect fill="#F1F1F1" height="40.2719" rx="2.5" ry="2.5" style="stroke:#181818;stroke-width:0.5;" width="119.9596" x="218" y="404.2719"/><text fill="#000000" font-family="'Noto Sans CJK JP'" font-size="14" lengthAdjust="spacing" textLength="99.9596" x="228" y="430.5118">Node.js / pnpm</text></g><!--entity src--><g class="entity" data-qualified-name=".........src" data-source-line="11" id="ent0005"><rect fill="#F1F1F1" height="60.5438" rx="2.5" ry="2.5" style="stroke:#181818;stroke-width:0.5;" width="135.9755" x="22" y="252.7719"/><text fill="#000000" font-family="'Noto Sans CJK JP'" font-size="14" lengthAdjust="spacing" textLength="115.9755" x="32" y="279.0118">TypeScript &#12477;&#12540;&#12473;</text><text fill="#000000" font-family="'Noto Sans CJK JP'" font-size="14" lengthAdjust="spacing" textLength="46.8718" x="32" y="299.2838">src/*.ts</text></g><!--entity tsc--><g class="entity" data-qualified-name=".........tsc" data-source-line="12" id="ent0006"><rect fill="#F1F1F1" height="60.5438" rx="2.5" ry="2.5" style="stroke:#181818;stroke-width:0.5;" width="99.4637" x="62.5" y="393.7719"/><text fill="#000000" font-family="'Noto Sans CJK JP'" font-size="14" lengthAdjust="spacing" textLength="18.9699" x="72.5" y="420.0118">tsc</text><text fill="#000000" font-family="'Noto Sans CJK JP'" font-size="14" lengthAdjust="spacing" textLength="79.4637" x="72.5" y="440.2838">(&#12467;&#12531;&#12497;&#12452;&#12521;)</text></g><!--entity dist--><g class="entity" data-qualified-name=".........dist" data-source-line="13" id="ent0007"><rect fill="#F1F1F1" height="60.5438" rx="2.5" ry="2.5" style="stroke:#181818;stroke-width:0.5;" width="190.1133" x="97" y="515.7719"/><text fill="#000000" font-family="'Noto Sans CJK JP'" font-size="14" lengthAdjust="spacing" textLength="29.8479" x="107" y="542.0118">dist/</text><text fill="#000000" font-family="'Noto Sans CJK JP'" font-size="14" lengthAdjust="spacing" textLength="170.1133" x="107" y="562.2838">(GAS &#29992; JS + &#12510;&#12491;&#12501;&#12455;&#12473;&#12488;)</text></g><!--entity clasp--><g class="entity" data-qualified-name=".........clasp" data-source-line="14" id="ent0008"><rect fill="#F1F1F1" height="60.5438" rx="2.5" ry="2.5" style="stroke:#181818;stroke-width:0.5;" width="123.2356" x="238.5" y="719.2719"/><text fill="#000000" font-family="'Noto Sans CJK JP'" font-size="14" lengthAdjust="spacing" textLength="34.2299" x="248.5" y="745.5118">clasp</text><text fill="#000000" font-family="'Noto Sans CJK JP'" font-size="14" lengthAdjust="spacing" textLength="103.2356" x="248.5" y="765.7838">(&#12487;&#12503;&#12525;&#12452;&#29992; CLI)</text></g><!--entity sheet--><g class="entity" data-qualified-name="Google.sheet" data-source-line="23" id="ent0014"><rect fill="#F1F1F1" height="80.8157" rx="2.5" ry="2.5" style="stroke:#181818;stroke-width:0.5;" width="255.759" x="432" y="709.2719"/><text fill="#000000" font-family="'Noto Sans CJK JP'" font-size="14" lengthAdjust="spacing" textLength="181.9992" x="442" y="735.5118">&#12496;&#12452;&#12531;&#12489;&#20808;&#12473;&#12503;&#12524;&#12483;&#12489;&#12471;&#12540;&#12488;</text><text fill="#000000" font-family="'Noto Sans CJK JP'" font-size="14" lengthAdjust="spacing" textLength="235.759" x="442" y="755.7838">&#12300;&#35373;&#23450;&#12301;&#12471;&#12540;&#12488; / &#12300;&#35698;&#28193;&#12525;&#12464;&#12301;&#12471;&#12540;&#12488;</text><text fill="#000000" font-family="'Noto Sans CJK JP'" font-size="14" lengthAdjust="spacing" textLength="220.905" x="442" y="776.0557">+ &#12459;&#12473;&#12479;&#12512;&#12513;&#12491;&#12517;&#12540;&#12300;&#25152;&#26377;&#27177;&#35698;&#28193;&#12301;</text></g><!--entity logging--><g class="entity" data-qualified-name="Google.logging" data-source-line="29" id="ent0019"><rect fill="#F1F1F1" height="60.5438" rx="2.5" ry="2.5" style="stroke:#181818;stroke-width:0.5;" width="113.8696" x="948" y="1074.2719"/><text fill="#000000" font-family="'Noto Sans CJK JP'" font-size="14" lengthAdjust="spacing" textLength="93.8696" x="958" y="1100.5118">Cloud Logging</text><text fill="#000000" font-family="'Noto Sans CJK JP'" font-size="14" lengthAdjust="spacing" textLength="65.4637" x="958" y="1120.7838">(&#23455;&#34892;&#12525;&#12464;)</text></g><!--entity gas--><g class="entity" data-qualified-name="Google.Apps Script .......n...........gas" data-source-line="25" id="ent0016"><rect fill="#F1F1F1" height="60.5438" rx="2.5" ry="2.5" style="stroke:#181818;stroke-width:0.5;" width="196.4273" x="720" y="889.2719"/><text fill="#000000" font-family="'Noto Sans CJK JP'" font-size="14" lengthAdjust="spacing" textLength="97.9996" x="730" y="915.5118">&#12473;&#12463;&#12522;&#12503;&#12488;&#26412;&#20307;</text><text fill="#000000" font-family="'Noto Sans CJK JP'" font-size="14" lengthAdjust="spacing" textLength="176.4273" x="730" y="935.7838">(sheet / transfer / state / ...)</text></g><!--entity trigger--><g class="entity" data-qualified-name="Google.Apps Script .......n...........trigger" data-source-line="26" id="ent0017"><rect fill="#F1F1F1" height="40.2719" rx="2.5" ry="2.5" style="stroke:#181818;stroke-width:0.5;" width="131.9995" x="728" y="729.7719"/><text fill="#000000" font-family="'Noto Sans CJK JP'" font-size="14" lengthAdjust="spacing" textLength="111.9995" x="738" y="756.0118">&#26178;&#38291;&#20027;&#23566;&#12488;&#12522;&#12460;&#12540;</text></g><!--entity props--><g class="entity" data-qualified-name="Google.Apps Script .......n...........props" data-source-line="27" id="ent0018"><rect fill="#F1F1F1" height="80.8157" rx="2.5" ry="2.5" style="stroke:#181818;stroke-width:0.5;" width="164.7314" x="730.5" y="1064.2719"/><text fill="#000000" font-family="'Noto Sans CJK JP'" font-size="14" lengthAdjust="spacing" textLength="125.9995" x="740.5" y="1090.5118">&#12518;&#12540;&#12470;&#12540;&#12503;&#12525;&#12497;&#12486;&#12451;</text><text fill="#000000" font-family="'Noto Sans CJK JP'" font-size="14" lengthAdjust="spacing" textLength="144.7314" x="740.5" y="1110.7838">(&#36914;&#25431;&#12481;&#12455;&#12483;&#12463;&#12509;&#12452;&#12531;&#12488;</text><text fill="#000000" font-family="'Noto Sans CJK JP'" font-size="14" lengthAdjust="spacing" textLength="116.7315" x="740.5" y="1131.0557">&#21033;&#29992;&#32773;&#12372;&#12392;&#12395;&#29420;&#31435;)</text></g><!--entity drive--><g class="entity" data-qualified-name="Google.Google Drive.drive" data-source-line="31" id="ent0021"><rect fill="#F1F1F1" height="60.5438" rx="2.5" ry="2.5" style="stroke:#181818;stroke-width:0.5;" width="143.7595" x="1097" y="1074.2719"/><text fill="#000000" font-family="'Noto Sans CJK JP'" font-size="14" lengthAdjust="spacing" textLength="97.9996" x="1107" y="1100.5118">&#12510;&#12452;&#12489;&#12521;&#12452;&#12502;&#12398;</text><text fill="#000000" font-family="'Noto Sans CJK JP'" font-size="14" lengthAdjust="spacing" textLength="123.7595" x="1107" y="1120.7838">&#12501;&#12449;&#12452;&#12523; / &#12501;&#12457;&#12523;&#12480;</text></g><!--entity dev--><g class="entity" data-qualified-name="dev" data-source-line="6" id="ent0001"><ellipse cx="416.2319" cy="55.2719" fill="#F1F1F1" rx="8" ry="8" style="stroke:#181818;stroke-width:0.5;"/><path d="M416.2319,63.2719 L416.2319,90.2719 M403.2319,71.2719 L429.2319,71.2719 M416.2319,90.2719 L403.2319,105.2719 M416.2319,90.2719 L429.2319,105.2719" fill="none" style="stroke:#181818;stroke-width:0.5;"/><text fill="#000000" font-family="'Noto Sans CJK JP'" font-size="14" lengthAdjust="spacing" textLength="41.9998" x="390.5" y="123.0118">&#38283;&#30330;&#32773;</text><text fill="#000000" font-family="'Noto Sans CJK JP'" font-size="14" lengthAdjust="spacing" textLength="51.4638" x="390.5" y="143.2838">(&#12354;&#12394;&#12383;)</text></g><!--link mise to node--><g class="link" data-entity-1="ent0003" data-entity-2="ent0004" data-link-type="dependency" data-source-line="16" id="lnk9"><path d="M278,314.0919 C278,341.3719 278,375.9219 278,399.1819" fill="none" id="mise-to-node" style="stroke:#181818;stroke-width:1;stroke-dasharray:7,7;"/><polygon fill="#181818" points="278,404.1819,282,395.1819,278,399.1819,274,395.1819,278,404.1819" style="stroke:#181818;stroke-width:1;stroke-linejoin:miter;stroke-miterlimit:10;"/><text fill="#000000" font-family="'Noto Sans CJK JP'" font-size="13" lengthAdjust="spacing" textLength="78.0001" x="279" y="359.8519">&#12452;&#12531;&#12473;&#12488;&#12540;&#12523;</text></g><!--link src to tsc--><g class="link" data-entity-1="ent0005" data-entity-2="ent0006" data-link-type="dependency" data-source-line="17" id="lnk10"><path d="M94.72,314.0919 C98.43,337.5419 102.7983,365.1234 106.5083,388.5634" fill="none" id="src-to-tsc" style="stroke:#181818;stroke-width:1;"/><polygon fill="#181818" points="107.29,393.5019,109.8338,383.9872,106.5083,388.5634,101.9322,385.2379,107.29,393.5019" style="stroke:#181818;stroke-width:1;stroke-linejoin:miter;stroke-miterlimit:10;"/></g><!--link tsc to dist--><g class="link" data-entity-1="ent0006" data-entity-2="ent0007" data-link-type="dependency" data-source-line="18" id="lnk11"><path d="M131.78,454.9319 C144.08,473.3919 157.087,492.9013 169.397,511.3713" fill="none" id="tsc-to-dist" style="stroke:#181818;stroke-width:1;"/><polygon fill="#181818" points="172.17,515.5319,170.5071,505.8245,169.397,511.3713,163.8502,510.2612,172.17,515.5319" style="stroke:#181818;stroke-width:1;stroke-linejoin:miter;stroke-miterlimit:10;"/></g><!--link dist to clasp--><g class="link" data-entity-1="ent0007" data-entity-2="ent0008" data-link-type="dependency" data-source-line="19" id="lnk12"><path d="M207.94,577.0019 C228.41,615.2119 261.3881,676.735 281.8081,714.835" fill="none" id="dist-to-clasp" style="stroke:#181818;stroke-width:1;"/><polygon fill="#181818" points="284.17,719.2419,283.4441,709.4198,281.8081,714.835,276.3929,713.199,284.17,719.2419" style="stroke:#181818;stroke-width:1;stroke-linejoin:miter;stroke-miterlimit:10;"/></g><!--link dev to src--><g class="link" data-entity-1="ent0001" data-entity-2="ent0005" data-link-type="dependency" data-source-line="35" id="lnk22"><path d="M390.18,106.8819 C344.74,122.6519 248.46,158.9119 176,205.7719 C155.36,219.1219 138.3029,233.8351 122.4129,249.1251" fill="none" id="dev-to-src" style="stroke:#181818;stroke-width:1;"/><polygon fill="#181818" points="118.81,252.5919,128.0687,249.2339,122.4129,249.1251,122.5217,243.4692,118.81,252.5919" style="stroke:#181818;stroke-width:1;stroke-linejoin:miter;stroke-miterlimit:10;"/><text fill="#000000" font-family="'Noto Sans CJK JP'" font-size="13" lengthAdjust="spacing" textLength="26" x="220" y="193.8519">&#32232;&#38598;</text></g><!--link dev to clasp--><g class="link" data-entity-1="ent0001" data-entity-2="ent0008" data-link-type="dependency" data-source-line="36" id="lnk23"><path d="M416,147.8619 C416,184.8919 416,236.7519 416,282.2719 C416,282.2719 416,282.2719 416,547.2719 C416,615.8919 368.2613,678.5764 333.8913,715.4064" fill="none" id="dev-to-clasp" style="stroke:#181818;stroke-width:1;"/><polygon fill="#181818" points="330.48,719.0619,339.5448,715.2111,333.8913,715.4064,333.696,709.7529,330.48,719.0619" style="stroke:#181818;stroke-width:1;stroke-linejoin:miter;stroke-miterlimit:10;"/><text fill="#000000" font-family="'Noto Sans CJK JP'" font-size="13" lengthAdjust="spacing" textLength="85.5141" x="417" y="430.3519">mise run push</text></g><!--link dev to sheet--><g class="link" data-entity-1="ent0001" data-entity-2="ent0014" data-link-type="dependency" data-source-line="37" id="lnk24"><path d="M441.57,112.5319 C486.06,139.4519 573,202.2719 573,282.2719 C573,282.2719 573,282.2719 573,547.2719 C573,603.5319 568.357,663.4738 564.547,704.0838" fill="none" id="dev-to-sheet" style="stroke:#181818;stroke-width:1;"/><polygon fill="#181818" points="564.08,709.0619,568.9032,700.4749,564.547,704.0838,560.9382,699.7276,564.08,709.0619" style="stroke:#181818;stroke-width:1;stroke-linejoin:miter;stroke-miterlimit:10;"/><text fill="#000000" font-family="'Noto Sans CJK JP'" font-size="13" lengthAdjust="spacing" textLength="78.0001" x="587" y="420.8519">&#35373;&#23450;&#12434;&#20837;&#21147;&#12375;</text><text fill="#000000" font-family="'Noto Sans CJK JP'" font-size="13" lengthAdjust="spacing" textLength="104.0001" x="574" y="439.6759">&#12513;&#12491;&#12517;&#12540;&#12363;&#12425;&#23455;&#34892;</text></g><!--link clasp to gas--><g class="link" data-entity-1="ent0008" data-entity-2="ent0016" data-link-type="dependency" data-source-line="38" id="lnk25"><path d="M305.46,780.7119 C311.72,805.8719 324.58,840.6319 350,859.2719 C407.05,901.1019 595.2124,913.4177 714.8124,917.1077" fill="none" id="clasp-to-gas" style="stroke:#181818;stroke-width:1;"/><polygon fill="#181818" points="719.81,917.2619,710.9376,912.9863,714.8124,917.1077,710.6909,920.9825,719.81,917.2619" style="stroke:#181818;stroke-width:1;stroke-linejoin:miter;stroke-miterlimit:10;"/><text fill="#000000" font-family="'Noto Sans CJK JP'" font-size="13" lengthAdjust="spacing" textLength="64.623" x="351" y="836.3519">clasp push</text><text fill="#000000" font-family="'Noto Sans CJK JP'" font-size="13" lengthAdjust="spacing" textLength="49.803" x="358.41" y="855.1759">(HTTPS)</text></g><!--link sheet to gas--><g class="link" data-entity-1="ent0014" data-entity-2="ent0016" data-link-type="dependency" data-source-line="39" id="lnk26"><path d="M611.7226,793.445 C638.8326,815.015 669.93,838.3919 703,859.2719 C719.73,869.8319 734.0962,877.8701 751.5862,886.8901" fill="none" id="sheet-gas" style="stroke:#181818;stroke-width:1;"/><polygon fill="#181818" points="607.81,790.3319,612.3623,799.0656,611.7226,793.445,617.3432,792.8053,607.81,790.3319" style="stroke:#181818;stroke-width:1;stroke-linejoin:miter;stroke-miterlimit:10;"/><polygon fill="#181818" points="756.03,889.1819,749.8645,881.5016,751.5862,886.8901,746.1977,888.6118,756.03,889.1819" style="stroke:#181818;stroke-width:1;stroke-linejoin:miter;stroke-miterlimit:10;"/><text fill="#000000" font-family="'Noto Sans CJK JP'" font-size="13" lengthAdjust="spacing" textLength="91.0001" x="704" y="836.3519">&#35373;&#23450;&#12398;&#35501;&#12415;&#21462;&#12426;</text><text fill="#000000" font-family="'Noto Sans CJK JP'" font-size="13" lengthAdjust="spacing" textLength="78.0001" x="710.5" y="855.1759">&#21488;&#24115;&#12408;&#12398;&#35352;&#37682;</text></g><!--link gas to drive--><g class="link" data-entity-1="ent0016" data-entity-2="ent0021" data-link-type="dependency" data-source-line="40" id="lnk27"><path d="M916.09,925.6619 C969.24,932.3219 1033.88,947.2619 1083,980.2719 C1117.59,1003.5119 1140.2777,1041.2333 1154.1177,1069.7633" fill="none" id="gas-to-drive" style="stroke:#181818;stroke-width:1;"/><polygon fill="#181818" points="1156.3,1074.2619,1155.9708,1064.4186,1154.1177,1069.7633,1148.773,1067.9102,1156.3,1074.2619" style="stroke:#181818;stroke-width:1;stroke-linejoin:miter;stroke-miterlimit:10;"/><text fill="#000000" font-family="'Noto Sans CJK JP'" font-size="13" lengthAdjust="spacing" textLength="110.4741" x="1122" y="996.3519">DriveApp &#12391;&#36208;&#26619;&#12375;</text><text fill="#000000" font-family="'Noto Sans CJK JP'" font-size="13" lengthAdjust="spacing" textLength="78.0001" x="1138.237" y="1015.1759">&#25152;&#26377;&#27177;&#12434;&#35698;&#28193;</text></g><!--link gas to props--><g class="link" data-entity-1="ent0016" data-entity-2="ent0018" data-link-type="dependency" data-source-line="41" id="lnk28"><path d="M744.2127,953.3518 C732.8727,961.3418 726.74,968.3019 720,980.2719 C703.22,1010.0919 722.4198,1037.5925 749.7398,1060.9525" fill="none" id="gas-props" style="stroke:#181818;stroke-width:1;"/><polygon fill="#181818" points="748.3,950.4719,738.6389,952.3858,744.2127,953.3518,743.2467,958.9256,748.3,950.4719" style="stroke:#181818;stroke-width:1;stroke-linejoin:miter;stroke-miterlimit:10;"/><polygon fill="#181818" points="753.54,1064.2019,749.2991,1055.3129,749.7398,1060.9525,744.1001,1061.3932,753.54,1064.2019" style="stroke:#181818;stroke-width:1;stroke-linejoin:miter;stroke-miterlimit:10;"/><text fill="#000000" font-family="'Noto Sans CJK JP'" font-size="13" lengthAdjust="spacing" textLength="101.9201" x="721" y="1005.8519">&#36914;&#25431;&#12398;&#20445;&#23384; / &#24489;&#20803;</text></g><!--link trigger to gas--><g class="link" data-entity-1="ent0017" data-entity-2="ent0016" data-link-type="dependency" data-source-line="42" id="lnk29"><path d="M796.75,770.0419 C800.91,799.1719 808.1325,849.7122 813.0425,884.0622" fill="none" id="trigger-to-gas" style="stroke:#181818;stroke-width:1;"/><polygon fill="#181818" points="813.75,889.0119,816.4362,879.5365,813.0425,884.0622,808.5167,880.6685,813.75,889.0119" style="stroke:#181818;stroke-width:1;stroke-linejoin:miter;stroke-miterlimit:10;"/><text fill="#000000" font-family="'Noto Sans CJK JP'" font-size="13" lengthAdjust="spacing" textLength="120.7961" x="809" y="836.3519">resumeTransfer() &#12434;</text><text fill="#000000" font-family="'Noto Sans CJK JP'" font-size="13" lengthAdjust="spacing" textLength="52.0001" x="843.398" y="855.1759">&#33258;&#21205;&#36215;&#21205;</text></g><!--link gas to logging--><g class="link" data-entity-1="ent0016" data-entity-2="ent0019" data-link-type="dependency" data-source-line="43" id="lnk30"><path d="M850.9,950.5819 C873.93,971.6719 905.24,1000.7919 932,1027.2719 C947.27,1042.3819 960.4016,1056.0124 973.8816,1070.3224" fill="none" id="gas-to-logging" style="stroke:#181818;stroke-width:1;"/><polygon fill="#181818" points="977.31,1073.9619,974.0505,1064.6681,973.8816,1070.3224,968.2273,1070.1535,977.31,1073.9619" style="stroke:#181818;stroke-width:1;stroke-linejoin:miter;stroke-miterlimit:10;"/><text fill="#000000" font-family="'Noto Sans CJK JP'" font-size="13" lengthAdjust="spacing" textLength="69.81" x="923" y="1005.8519">console.log</text></g><?plantuml-src RLJRRXD947sVhsZvAM65ynwja51Mm6PHXEGy-cKqxZW6UsOqFMQ5LaYUQHnid2niW8JhPirbuqjih4HilDpoCPNnvI-skdfmRDWNszrTf-gSgbFsStwUiwZSEFty4C9N83z1s06v0U4xa078ruQuaRDTqpCBBCFNp6BUl-JO_efPu2onulWEIvcsO4lBlx3bQucfOB5kPfnVStQMhPbvmQTUBAVWEZQt_PH_2sjxtF9DEvldXc5QlkEnn7YdDdpwOLGgf-qv2488MX3ipIUOAP32JSDmJUk6cSNw83j4k0sohK73xLxqIYRORmOxgyCIXPpWAfcye-8bnZyWO1_aFiYZORS-VB2XAwZGMV2Aa-79wu8jCDTs2nHauzLiqEejbwSiB-Vw3CBFbFpVj2qyQ-5SqXS4miCinXUM8XKU8GMGVq3u1cHJiy2dsTXCJlWB67tvOeeD7pNOSehzm43-2R86yZ64-rWFP2Nk4WRFmgsyALpgm5sGkwfluHkLPkdgpnf20GQ2b7wMJ5uWZMoH4QiZdLqt3uDG2Zj__a9C4p_f59TLNtJMEMyRXfLtYXcMkEmuEERlXgE6eOl8QbIkK2caU01IuWs4nrIsahQXj3bgTABkCoXjJQvnBEg-SpZerqbNR_erRMENq1-OCpm1-HV8EdNihNekRGwgfS6Bwg3HZF6bBJsfTSwLaedHBhgkO5_76_UlJqr_HqNc9WKXQ4_hcTTgP_KgCeXhKQRAuCK1xXxceAeen_TmezQuXp-5R_eSlvF9f1vJrXJVfXiy3SSx3q_x7wFUxpIZ5eJOkq_QHrukc-NUTnJatsJHVuWqwK7_gQr_ZKJ6fSF1rgvQVrI8Gr1aNtwLX6gZIXEzW_i9mIC86YXvM3iOjckQekivhY9vUtRAI-I1gqusY_y9M2JgxetgctfY6fZNRzDzruvXFtcvc_p_Eed-LxIgk3VqOmU2Blf4BKITBjhA7khOfAqlwVLGwOWXUXF_KSYiojABR7ZS63_Vc5oIW_6Qbi8hsimjYlKp20riaSMc3BUZyjletdC8TXM7AQC5DGYhMh2XKoeupXB1-gpoObEkhAvUIyqREl6FPq5nXQ0xQdKWE8dkxq1u3mTnlnVrZo3egvV6a_7ceQ7YQHULHaHIwz2-38BzqVlUOEyZqPiO7rbhxnEIIj804HhR8EYUdhoCEa-maz6NPbIMHcogAH4U5yK2NusDEpUFExUTjaTtMr7jyUZzCNvEYCLJLieTMpXvdiIR_m00?></g></svg>