<svg xmlns="http://www.w3.org/2000/svg" xmlns:xlink="http://www.w3.org/1999/xlink" contentStyleType="text/css" data-diagram-type="CLASS" height="1200px" preserveAspectRatio="none" style="width:693px;height:1200px;background:#FFFFFF;" version="1.1" viewBox="0 0 693 1200" width="693px" zoomAndPan="magnify"><?plantuml 1.2026.6?><defs/><g><g class="title" data-source-line="1"><text fill="#000000" font-family="'Noto Sans CJK JP'" font-size="14" font-weight="700" lengthAdjust="spacing" textLength="195.9991" x="245.0004" y="26.2399">&#12477;&#12540;&#12473;&#12467;&#12540;&#12489;&#12398;&#27083;&#25104;&#12392;&#20381;&#23384;&#38306;&#20418;</text></g><!--cluster src/--><g class="cluster" data-qualified-name="src." data-source-line="5" id="ent0001"><path d="M8.5,47.8039 L35.3299,47.8039 A3.75,3.75 0 0 1 37.8299,50.3039 L44.8299,74.0758 L675.5,74.0758 A2.5,2.5 0 0 1 678,76.5758 L678,1183.3039 A2.5,2.5 0 0 1 675.5,1185.8039 L8.5,1185.8039 A2.5,2.5 0 0 1 6,1183.3039 L6,50.3039 A2.5,2.5 0 0 1 8.5,47.8039" fill="none" style="stroke:#000000;stroke-width:1.5;"/><line style="stroke:#000000;stroke-width:1.5;" x1="6" x2="44.8299" y1="74.0758" y2="74.0758"/><text fill="#000000" font-family="'Noto Sans CJK JP'" font-size="14" font-weight="700" lengthAdjust="spacing" textLength="25.8299" x="10" y="66.0438">src/</text></g><!--class sheet--><g class="entity" data-qualified-name="src..sheet" data-source-line="6" id="ent0002"><rect fill="#F1F1F1" height="205.5514" rx="2.5" ry="2.5" style="stroke:#181818;stroke-width:0.5;" width="274.0229" x="202" y="270.8039"/><ellipse cx="247.5288" cy="294.6279" fill="#ADD1B2" rx="11" ry="11" style="stroke:#181818;stroke-width:1;"/><path d="M250.4976,300.2685 Q249.9194,300.5654 249.2788,300.706 Q248.6382,300.8623 247.9351,300.8623 Q245.4351,300.8623 244.1069,299.2217 Q242.7944,297.5654 242.7944,294.4404 Q242.7944,291.3154 244.1069,289.6592 Q245.4351,288.0029 247.9351,288.0029 Q248.6382,288.0029 249.2788,288.1592 Q249.9351,288.3154 250.4976,288.6123 L250.4976,291.331 Q249.8726,290.7529 249.2788,290.4873 Q248.6851,290.206 248.0601,290.206 Q246.7163,290.206 246.0288,291.2842 Q245.3413,292.3467 245.3413,294.4404 Q245.3413,296.5342 246.0288,297.6123 Q246.7163,298.6748 248.0601,298.6748 Q248.6851,298.6748 249.2788,298.4092 Q249.8726,298.1279 250.4976,297.5498 L250.4976,300.2685 Z " fill="#000000"/><text fill="#000000" font-family="Noto Sans CJK JP" font-size="12" font-style="italic" lengthAdjust="spacing" textLength="178.4653" x="266.0288" y="289.724">&#171;&#12456;&#12531;&#12488;&#12522;&#12540;&#12509;&#12452;&#12531;&#12488;(&#12471;&#12540;&#12488; UI)&#187;</text><text fill="#000000" font-family="'Noto Sans CJK JP'" font-size="14" lengthAdjust="spacing" textLength="51.5618" x="329.4806" y="309.4199">sheet.ts</text><line style="stroke:#181818;stroke-width:0.5;" x1="203" x2="475.0229" y1="318.4519" y2="318.4519"/><line style="stroke:#181818;stroke-width:0.5;" x1="203" x2="475.0229" y1="326.4519" y2="326.4519"/><g data-visibility-modifier="PUBLIC_METHOD"><ellipse cx="213" cy="342.0879" fill="#84BE84" rx="3" ry="3" style="stroke:#038048;stroke-width:1;"/></g><text fill="#000000" font-family="'Noto Sans CJK JP'" font-size="14" lengthAdjust="spacing" textLength="212.0151" x="222" y="346.6919">onOpen() : &#12459;&#12473;&#12479;&#12512;&#12513;&#12491;&#12517;&#12540;&#36861;&#21152;</text><g data-visibility-modifier="PUBLIC_METHOD"><ellipse cx="213" cy="362.3598" fill="#84BE84" rx="3" ry="3" style="stroke:#038048;stroke-width:1;"/></g><text fill="#000000" font-family="'Noto Sans CJK JP'" font-size="14" lengthAdjust="spacing" textLength="248.0229" x="222" y="366.9638">sheetSetup() : &#35373;&#23450;&#12539;&#21488;&#24115;&#12471;&#12540;&#12488;&#12398;&#28310;&#20633;</text><g data-visibility-modifier="PUBLIC_METHOD"><ellipse cx="213" cy="382.6317" fill="#84BE84" rx="3" ry="3" style="stroke:#038048;stroke-width:1;"/></g><text fill="#000000" font-family="'Noto Sans CJK JP'" font-size="14" lengthAdjust="spacing" textLength="241.177" x="222" y="387.2357">sheetStartTree() / sheetStartSearch()</text><g data-visibility-modifier="PUBLIC_METHOD"><ellipse cx="213" cy="402.9036" fill="#84BE84" rx="3" ry="3" style="stroke:#038048;stroke-width:1;"/></g><text fill="#000000" font-family="'Noto Sans CJK JP'" font-size="14" lengthAdjust="spacing" textLength="211.5392" x="222" y="407.5076">sheetShowStatus() / sheetStop()</text><g data-visibility-modifier="PUBLIC_METHOD"><ellipse cx="213" cy="423.1755" fill="#84BE84" rx="3" ry="3" style="stroke:#038048;stroke-width:1;"/></g><text fill="#000000" font-family="'Noto Sans CJK JP'" font-size="14" lengthAdjust="spacing" textLength="131.6275" x="222" y="427.7795">sheetCountOwned()</text><text fill="#000000" font-family="'Noto Sans CJK JP'" font-size="14" lengthAdjust="spacing" textLength="130.3395" x="222" y="448.0514">readSheetSettings()</text><text fill="#000000" font-family="'Noto Sans CJK JP'" font-size="14" lengthAdjust="spacing" textLength="228.9131" x="222" y="468.3233">recordSheetLog() / flushSheetLog()</text></g><!--class transfer--><g class="entity" data-qualified-name="src..transfer" data-source-line="15" id="ent0003"><rect fill="#F1F1F1" height="205.5514" rx="2.5" ry="2.5" style="stroke:#181818;stroke-width:0.5;" width="333.6909" x="194" y="575.8039"/><ellipse cx="316.8471" cy="599.6279" fill="#ADD1B2" rx="11" ry="11" style="stroke:#181818;stroke-width:1;"/><path d="M319.8159,605.2685 Q319.2377,605.5654 318.5971,605.706 Q317.9565,605.8623 317.2534,605.8623 Q314.7534,605.8623 313.4252,604.2217 Q312.1127,602.5654 312.1127,599.4404 Q312.1127,596.3154 313.4252,594.6592 Q314.7534,593.0029 317.2534,593.0029 Q317.9565,593.0029 318.5971,593.1592 Q319.2534,593.3154 319.8159,593.6123 L319.8159,596.331 Q319.1909,595.7529 318.5971,595.4873 Q318.0034,595.206 317.3784,595.206 Q316.0346,595.206 315.3471,596.2842 Q314.6596,597.3467 314.6596,599.4404 Q314.6596,601.5342 315.3471,602.6123 Q316.0346,603.6748 317.3784,603.6748 Q318.0034,603.6748 318.5971,603.4092 Q319.1909,603.1279 319.8159,602.5498 L319.8159,605.2685 Z " fill="#000000"/><text fill="#000000" font-family="Noto Sans CJK JP" font-size="12" font-style="italic" lengthAdjust="spacing" textLength="83.4966" x="335.3471" y="594.724">&#171;&#20013;&#26680;&#12525;&#12472;&#12483;&#12463;&#187;</text><text fill="#000000" font-family="'Noto Sans CJK JP'" font-size="14" lengthAdjust="spacing" textLength="67.1437" x="343.5236" y="614.4199">transfer.ts</text><line style="stroke:#181818;stroke-width:0.5;" x1="195" x2="526.6909" y1="623.4519" y2="623.4519"/><line style="stroke:#181818;stroke-width:0.5;" x1="195" x2="526.6909" y1="631.4519" y2="631.4519"/><text fill="#000000" font-family="'Noto Sans CJK JP'" font-size="14" lengthAdjust="spacing" textLength="179.4933" x="214" y="651.6919">startTransferWithStrategy()</text><g data-visibility-modifier="PUBLIC_METHOD"><ellipse cx="205" cy="667.3598" fill="#84BE84" rx="3" ry="3" style="stroke:#038048;stroke-width:1;"/></g><text fill="#000000" font-family="'Noto Sans CJK JP'" font-size="14" lengthAdjust="spacing" textLength="221.1151" x="214" y="671.9638">resumeTransfer() : &#12488;&#12522;&#12460;&#12540;&#12364;&#21628;&#12406;</text><text fill="#000000" font-family="'Noto Sans CJK JP'" font-size="14" lengthAdjust="spacing" textLength="92.9876" x="214" y="692.2357">stopTransfer()</text><text fill="#000000" font-family="'Noto Sans CJK JP'" font-size="14" lengthAdjust="spacing" textLength="307.6909" x="214" y="712.5076">runBatch() / runTreeBatch() / runSearchBatch()</text><text fill="#000000" font-family="'Noto Sans CJK JP'" font-size="14" lengthAdjust="spacing" textLength="187.0532" x="214" y="732.7795">transferOwnershipIfOwned()</text><text fill="#000000" font-family="'Noto Sans CJK JP'" font-size="14" lengthAdjust="spacing" textLength="222.6131" x="214" y="753.0514">finishTransfer() / formatProgress()</text><text fill="#000000" font-family="'Noto Sans CJK JP'" font-size="14" lengthAdjust="spacing" textLength="148.5254" x="214" y="773.3233">describeOwnedItems()</text></g><!--class state--><g class="entity" data-qualified-name="src..state" data-source-line="24" id="ent0004"><rect fill="#F1F1F1" height="124.4638" rx="2.5" ry="2.5" style="stroke:#181818;stroke-width:0.5;" width="111.4966" x="21.5" y="861.8039"/><ellipse cx="36.5" cy="885.6279" fill="#ADD1B2" rx="11" ry="11" style="stroke:#181818;stroke-width:1;"/><path d="M39.4688,891.2685 Q38.8906,891.5654 38.25,891.706 Q37.6094,891.8623 36.9063,891.8623 Q34.4063,891.8623 33.0781,890.2217 Q31.7656,888.5654 31.7656,885.4404 Q31.7656,882.3154 33.0781,880.6592 Q34.4063,879.0029 36.9063,879.0029 Q37.6094,879.0029 38.25,879.1592 Q38.9063,879.3154 39.4688,879.6123 L39.4688,882.331 Q38.8438,881.7529 38.25,881.4873 Q37.6563,881.206 37.0313,881.206 Q35.6875,881.206 35,882.2842 Q34.3125,883.3467 34.3125,885.4404 Q34.3125,887.5342 35,888.6123 Q35.6875,889.6748 37.0313,889.6748 Q37.6563,889.6748 38.25,889.4092 Q38.8438,889.1279 39.4688,888.5498 L39.4688,891.2685 Z " fill="#000000"/><text fill="#000000" font-family="Noto Sans CJK JP" font-size="12" font-style="italic" lengthAdjust="spacing" textLength="83.4966" x="48.5" y="880.724">&#171;&#29366;&#24907;&#12398;&#27704;&#32154;&#21270;&#187;</text><text fill="#000000" font-family="'Noto Sans CJK JP'" font-size="14" lengthAdjust="spacing" textLength="48.4678" x="66.0144" y="900.4199">state.ts</text><line style="stroke:#181818;stroke-width:0.5;" x1="22.5" x2="131.9966" y1="909.4519" y2="909.4519"/><line style="stroke:#181818;stroke-width:0.5;" x1="22.5" x2="131.9966" y1="917.4519" y2="917.4519"/><text fill="#000000" font-family="'Noto Sans CJK JP'" font-size="14" lengthAdjust="spacing" textLength="73.4857" x="27.5" y="937.6919">saveState()</text><text fill="#000000" font-family="'Noto Sans CJK JP'" font-size="14" lengthAdjust="spacing" textLength="73.0237" x="27.5" y="957.9638">loadState()</text><text fill="#000000" font-family="'Noto Sans CJK JP'" font-size="14" lengthAdjust="spacing" textLength="76.1877" x="27.5" y="978.2357">clearState()</text></g><!--class triggers--><g class="entity" data-qualified-name="src..triggers" data-source-line="29" id="ent0005"><rect fill="#F1F1F1" height="104.1919" rx="2.5" ry="2.5" style="stroke:#181818;stroke-width:0.5;" width="168.2814" x="168" y="871.8039"/><ellipse cx="208.5531" cy="895.6279" fill="#ADD1B2" rx="11" ry="11" style="stroke:#181818;stroke-width:1;"/><path d="M211.5219,901.2685 Q210.9437,901.5654 210.3031,901.706 Q209.6625,901.8623 208.9594,901.8623 Q206.4594,901.8623 205.1312,900.2217 Q203.8187,898.5654 203.8187,895.4404 Q203.8187,892.3154 205.1312,890.6592 Q206.4594,889.0029 208.9594,889.0029 Q209.6625,889.0029 210.3031,889.1592 Q210.9594,889.3154 211.5219,889.6123 L211.5219,892.331 Q210.8969,891.7529 210.3031,891.4873 Q209.7094,891.206 209.0844,891.206 Q207.7406,891.206 207.0531,892.2842 Q206.3656,893.3467 206.3656,895.4404 Q206.3656,897.5342 207.0531,898.6123 Q207.7406,899.6748 209.0844,899.6748 Q209.7094,899.6748 210.3031,899.4092 Q210.8969,899.1279 211.5219,898.5498 L211.5219,901.2685 Z " fill="#000000"/><text fill="#000000" font-family="Noto Sans CJK JP" font-size="12" font-style="italic" lengthAdjust="spacing" textLength="83.4966" x="226.2316" y="890.724">&#171;&#12488;&#12522;&#12460;&#12540;&#31649;&#29702;&#187;</text><text fill="#000000" font-family="'Noto Sans CJK JP'" font-size="14" lengthAdjust="spacing" textLength="65.8137" x="235.073" y="910.4199">triggers.ts</text><line style="stroke:#181818;stroke-width:0.5;" x1="169" x2="335.2814" y1="919.4519" y2="919.4519"/><line style="stroke:#181818;stroke-width:0.5;" x1="169" x2="335.2814" y1="927.4519" y2="927.4519"/><text fill="#000000" font-family="'Noto Sans CJK JP'" font-size="14" lengthAdjust="spacing" textLength="120.7355" x="174" y="947.6919">scheduleResume()</text><text fill="#000000" font-family="'Noto Sans CJK JP'" font-size="14" lengthAdjust="spacing" textLength="156.2814" x="174" y="967.9638">deleteResumeTriggers()</text></g><!--class config--><g class="entity" data-qualified-name="src..config" data-source-line="33" id="ent0006"><rect fill="#F1F1F1" height="104.1919" rx="2.5" ry="2.5" style="stroke:#181818;stroke-width:0.5;" width="166.7274" x="495.5" y="871.8039"/><ellipse cx="524.5538" cy="895.6279" fill="#ADD1B2" rx="11" ry="11" style="stroke:#181818;stroke-width:1;"/><path d="M527.5225,901.2685 Q526.9444,901.5654 526.3038,901.706 Q525.6631,901.8623 524.96,901.8623 Q522.46,901.8623 521.1319,900.2217 Q519.8194,898.5654 519.8194,895.4404 Q519.8194,892.3154 521.1319,890.6592 Q522.46,889.0029 524.96,889.0029 Q525.6631,889.0029 526.3038,889.1592 Q526.96,889.3154 527.5225,889.6123 L527.5225,892.331 Q526.8975,891.7529 526.3038,891.4873 Q525.71,891.206 525.085,891.206 Q523.7413,891.206 523.0538,892.2842 Q522.3663,893.3467 522.3663,895.4404 Q522.3663,897.5342 523.0538,898.6123 Q523.7413,899.6748 525.085,899.6748 Q525.71,899.6748 526.3038,899.4092 Q526.8975,899.1279 527.5225,898.5498 L527.5225,901.2685 Z " fill="#000000"/><text fill="#000000" font-family="Noto Sans CJK JP" font-size="12" font-style="italic" lengthAdjust="spacing" textLength="107.4968" x="539.6768" y="890.724">&#171;&#12481;&#12517;&#12540;&#12491;&#12531;&#12464;&#23450;&#25968;&#187;</text><text fill="#000000" font-family="'Noto Sans CJK JP'" font-size="14" lengthAdjust="spacing" textLength="56.1818" x="565.3343" y="910.4199">config.ts</text><line style="stroke:#181818;stroke-width:0.5;" x1="496.5" x2="661.2274" y1="919.4519" y2="919.4519"/><text fill="#000000" font-family="'Noto Sans CJK JP'" font-size="14" lengthAdjust="spacing" textLength="154.7274" x="501.5" y="939.6919">CONFIG: TransferConfig</text><text fill="#000000" font-family="'Noto Sans CJK JP'" font-size="14" lengthAdjust="spacing" textLength="151.8294" x="501.5" y="959.9638">OWNED_ITEMS_QUERY</text><line style="stroke:#181818;stroke-width:0.5;" x1="496.5" x2="661.2274" y1="967.9958" y2="967.9958"/></g><!--class types--><g class="entity" data-qualified-name="src..types" data-source-line="37" id="ent0007"><rect fill="#F1F1F1" height="104.1919" rx="2.5" ry="2.5" style="stroke:#181818;stroke-width:0.5;" width="250.1391" x="152" y="1065.8039"/><ellipse cx="199.015" cy="1089.6279" fill="#ADD1B2" rx="11" ry="11" style="stroke:#181818;stroke-width:1;"/><path d="M201.9837,1095.2685 Q201.4056,1095.5654 200.765,1095.706 Q200.1243,1095.8623 199.4212,1095.8623 Q196.9212,1095.8623 195.5931,1094.2217 Q194.2806,1092.5654 194.2806,1089.4404 Q194.2806,1086.3154 195.5931,1084.6592 Q196.9212,1083.0029 199.4212,1083.0029 Q200.1243,1083.0029 200.765,1083.1592 Q201.4212,1083.3154 201.9837,1083.6123 L201.9837,1086.331 Q201.3587,1085.7529 200.765,1085.4873 Q200.1712,1085.206 199.5462,1085.206 Q198.2025,1085.206 197.515,1086.2842 Q196.8275,1087.3467 196.8275,1089.4404 Q196.8275,1091.5342 197.515,1092.6123 Q198.2025,1093.6748 199.5462,1093.6748 Q200.1712,1093.6748 200.765,1093.4092 Q201.3587,1093.1279 201.9837,1092.5498 L201.9837,1095.2685 Z " fill="#000000"/><text fill="#000000" font-family="Noto Sans CJK JP" font-size="12" font-style="italic" lengthAdjust="spacing" textLength="151.6092" x="217.515" y="1084.724">&#171;&#22411;&#23450;&#32681;(&#12467;&#12531;&#12497;&#12452;&#12523;&#26178;&#12398;&#12415;)&#187;</text><text fill="#000000" font-family="'Noto Sans CJK JP'" font-size="14" lengthAdjust="spacing" textLength="63.8537" x="261.3927" y="1104.4199">types.d.ts</text><line style="stroke:#181818;stroke-width:0.5;" x1="153" x2="401.1391" y1="1113.4519" y2="1113.4519"/><text fill="#000000" font-family="'Noto Sans CJK JP'" font-size="14" lengthAdjust="spacing" textLength="197.6092" x="158" y="1133.6919">TransferConfig / TransferState</text><text fill="#000000" font-family="'Noto Sans CJK JP'" font-size="14" lengthAdjust="spacing" textLength="238.1391" x="158" y="1153.9638">TransferStartOptions / TransferStats</text><line style="stroke:#181818;stroke-width:0.5;" x1="153" x2="401.1391" y1="1161.9958" y2="1161.9958"/></g><!--class manifest--><g class="entity" data-qualified-name="src..manifest" data-source-line="41" id="ent0008"><rect fill="#F1F1F1" height="104.1919" rx="2.5" ry="2.5" style="stroke:#181818;stroke-width:0.5;" width="187.8113" x="245" y="86.8039"/><ellipse cx="285.0955" cy="110.6279" fill="#ADD1B2" rx="11" ry="11" style="stroke:#181818;stroke-width:1;"/><path d="M288.0642,116.2685 Q287.4861,116.5654 286.8455,116.706 Q286.2048,116.8623 285.5017,116.8623 Q283.0017,116.8623 281.6736,115.2217 Q280.3611,113.5654 280.3611,110.4404 Q280.3611,107.3154 281.6736,105.6592 Q283.0017,104.0029 285.5017,104.0029 Q286.2048,104.0029 286.8455,104.1592 Q287.5017,104.3154 288.0642,104.6123 L288.0642,107.331 Q287.4392,106.7529 286.8455,106.4873 Q286.2517,106.206 285.6267,106.206 Q284.283,106.206 283.5955,107.2842 Q282.908,108.3467 282.908,110.4404 Q282.908,112.5342 283.5955,113.6123 Q284.283,114.6748 285.6267,114.6748 Q286.2517,114.6748 286.8455,114.4092 Q287.4392,114.1279 288.0642,113.5498 L288.0642,116.2685 Z " fill="#000000"/><text fill="#000000" font-family="Noto Sans CJK JP" font-size="12" font-style="italic" lengthAdjust="spacing" textLength="83.4966" x="312.9457" y="105.724">&#171;&#12510;&#12491;&#12501;&#12455;&#12473;&#12488;&#187;</text><text fill="#000000" font-family="'Noto Sans CJK JP'" font-size="14" lengthAdjust="spacing" textLength="100.0436" x="304.6722" y="125.4199">appsscript.json</text><line style="stroke:#181818;stroke-width:0.5;" x1="246" x2="431.8113" y1="134.4519" y2="134.4519"/><text fill="#000000" font-family="'Noto Sans CJK JP'" font-size="14" lengthAdjust="spacing" textLength="175.8113" x="251" y="154.6919">timeZone / runtimeVersion</text><text fill="#000000" font-family="'Noto Sans CJK JP'" font-size="14" lengthAdjust="spacing" textLength="85.5957" x="251" y="174.9638">oauthScopes</text><line style="stroke:#181818;stroke-width:0.5;" x1="246" x2="431.8113" y1="182.9958" y2="182.9958"/></g><!--link sheet to transfer--><g class="link" data-entity-1="ent0002" data-entity-2="ent0003" data-link-type="dependency" data-source-line="47" id="lnk9"><path codeLine="47" d="M368.86,476.9739 C370.95,486.9839 372.73,497.0439 374,506.8039 C376.89,528.9439 377.2531,547.8025 375.9231,570.4525" fill="none" id="sheet-to-transfer" style="stroke:#181818;stroke-width:1;"/><polygon fill="#181818" points="375.63,575.4439,380.1507,566.6938,375.9231,570.4525,372.1644,566.2249,375.63,575.4439" style="stroke:#181818;stroke-width:1;stroke-linejoin:miter;stroke-miterlimit:10;"/><text fill="#000000" font-family="'Noto Sans CJK JP'" font-size="13" lengthAdjust="spacing" textLength="125.8401" x="377" y="532.3839">&#38283;&#22987; / &#20572;&#27490; / &#20214;&#25968;&#30906;&#35469;</text></g><!--link transfer to sheet--><g class="link" data-entity-1="ent0003" data-entity-2="ent0002" data-link-type="dependency" data-source-line="49" id="lnk11"><path codeLine="49" d="M272.38,575.5439 C267.05,565.9139 262.46,555.9439 259,545.8039 C251.22,523.0039 252.699,503.8683 261.329,481.5183" fill="none" id="transfer-to-sheet" style="stroke:#181818;stroke-width:1;stroke-dasharray:7,7;"/><polygon fill="#181818" points="263.13,476.8539,256.1566,483.8089,261.329,481.5183,263.6196,486.6906,263.13,476.8539" style="stroke:#181818;stroke-width:1;stroke-linejoin:miter;stroke-miterlimit:10;"/><text fill="#000000" font-family="'Noto Sans CJK JP'" font-size="13" lengthAdjust="spacing" textLength="65.0001" x="280.4295" y="522.8839">&#21488;&#24115;&#12408;&#35352;&#37682;</text><text fill="#000000" font-family="'Noto Sans CJK JP'" font-size="13" lengthAdjust="spacing" textLength="105.8591" x="260" y="541.7079">(recordSheetLog)</text></g><!--link sheet to state--><g class="link" data-entity-1="ent0002" data-entity-2="ent0004" data-link-type="dependency" data-source-line="48" id="lnk10"><path codeLine="48" d="M201.67,449.1439 C155.75,481.5439 109.74,524.0739 84,575.8039 C38.57,667.1039 49.2614,784.4335 62.3314,856.8035" fill="none" id="sheet-to-state" style="stroke:#181818;stroke-width:1;"/><polygon fill="#181818" points="63.22,861.7239,65.5568,852.1563,62.3314,856.8035,57.6842,853.5781,63.22,861.7239" style="stroke:#181818;stroke-width:1;stroke-linejoin:miter;stroke-miterlimit:10;"/><text fill="#000000" font-family="'Noto Sans CJK JP'" font-size="13" lengthAdjust="spacing" textLength="91.0001" x="85" y="684.8839">&#36914;&#25431;&#12398;&#35501;&#12415;&#21462;&#12426;</text></g><!--link transfer to state--><g class="link" data-entity-1="ent0003" data-entity-2="ent0004" data-link-type="dependency" data-source-line="50" id="lnk12"><path codeLine="50" d="M241.38,782.1539 C203.64,814.4539 167.519,845.3532 136.479,871.9132" fill="none" id="transfer-to-state" style="stroke:#181818;stroke-width:1;"/><polygon fill="#181818" points="132.68,875.1639,142.1189,872.3518,136.479,871.9132,136.9177,866.2733,132.68,875.1639" style="stroke:#181818;stroke-width:1;stroke-linejoin:miter;stroke-miterlimit:10;"/><text fill="#000000" font-family="'Noto Sans CJK JP'" font-size="13" lengthAdjust="spacing" textLength="62.9201" x="202" y="827.8839">&#20445;&#23384; / &#24489;&#20803;</text></g><!--link transfer to triggers--><g class="link" data-entity-1="ent0003" data-entity-2="ent0005" data-link-type="dependency" data-source-line="51" id="lnk13"><path codeLine="51" d="M315.09,782.1539 C301.24,813.0239 288.6868,841.022 277.0168,867.032" fill="none" id="transfer-to-triggers" style="stroke:#181818;stroke-width:1;"/><polygon fill="#181818" points="274.97,871.5939,282.3037,865.02,277.0168,867.032,275.0047,861.7451,274.97,871.5939" style="stroke:#181818;stroke-width:1;stroke-linejoin:miter;stroke-miterlimit:10;"/><text fill="#000000" font-family="'Noto Sans CJK JP'" font-size="13" lengthAdjust="spacing" textLength="62.9201" x="300" y="827.8839">&#20104;&#32004; / &#21066;&#38500;</text></g><!--link transfer to config--><g class="link" data-entity-1="ent0003" data-entity-2="ent0006" data-link-type="dependency" data-source-line="52" id="lnk14"><path codeLine="52" d="M452.82,782.1539 C480.51,813.0239 506.3914,841.8618 529.7214,867.8718" fill="none" id="transfer-to-config" style="stroke:#181818;stroke-width:1;"/><polygon fill="#181818" points="533.06,871.5939,530.0282,862.2233,529.7214,867.8718,524.0729,867.565,533.06,871.5939" style="stroke:#181818;stroke-width:1;stroke-linejoin:miter;stroke-miterlimit:10;"/><text fill="#000000" font-family="'Noto Sans CJK JP'" font-size="13" lengthAdjust="spacing" textLength="52.0001" x="496" y="827.8839">&#23450;&#25968;&#21442;&#29031;</text></g><!--link sheet to config--><g class="link" data-entity-1="ent0002" data-entity-2="ent0006" data-link-type="dependency" data-source-line="53" id="lnk15"><path codeLine="53" d="M476.17,470.6239 C488.67,482.0739 500.54,494.2039 511,506.8039 C598.52,612.2439 594.8851,781.0285 586.3551,866.7485" fill="none" id="sheet-to-config" style="stroke:#181818;stroke-width:1;"/><polygon fill="#181818" points="585.86,871.7239,590.7315,863.1642,586.3551,866.7485,582.7708,862.372,585.86,871.7239" style="stroke:#181818;stroke-width:1;stroke-linejoin:miter;stroke-miterlimit:10;"/><text fill="#000000" font-family="'Noto Sans CJK JP'" font-size="13" lengthAdjust="spacing" textLength="52.0001" x="591" y="684.8839">&#23450;&#25968;&#21442;&#29031;</text></g><!--link state to types--><g class="link" data-entity-1="ent0004" data-entity-2="ent0007" data-link-type="dependency" data-source-line="54" id="lnk16"><path codeLine="54" d="M132.71,978.2839 C161.14,1005.5839 191.9533,1035.161 220.0433,1062.131" fill="none" id="state-to-types" style="stroke:#181818;stroke-width:1;stroke-dasharray:7,7;"/><polygon fill="#181818" points="223.65,1065.5939,219.9282,1056.4753,220.0433,1062.131,214.3876,1062.246,223.65,1065.5939" style="stroke:#181818;stroke-width:1;stroke-linejoin:miter;stroke-miterlimit:10;"/><text fill="#000000" font-family="'Noto Sans CJK JP'" font-size="13" lengthAdjust="spacing" textLength="52.0001" x="189" y="1031.8839">&#22411;&#12434;&#21442;&#29031;</text></g><!--link transfer to types--><g class="link" data-entity-1="ent0003" data-entity-2="ent0007" data-link-type="dependency" data-source-line="55" id="lnk17"><path codeLine="55" d="M373.43,781.9239 C377.23,842.6639 375.73,920.3739 354,985.8039 C344.69,1013.8439 331.4805,1038.2159 316.5405,1061.4959" fill="none" id="transfer-to-types" style="stroke:#181818;stroke-width:1;stroke-dasharray:7,7;"/><polygon fill="#181818" points="313.84,1065.7039,322.0673,1060.2899,316.5405,1061.4959,315.3345,1055.9691,313.84,1065.7039" style="stroke:#181818;stroke-width:1;stroke-linejoin:miter;stroke-miterlimit:10;"/><text fill="#000000" font-family="'Noto Sans CJK JP'" font-size="13" lengthAdjust="spacing" textLength="52.0001" x="375" y="929.8839">&#22411;&#12434;&#21442;&#29031;</text></g><!--link manifest to sheet--><g class="link" data-entity-1="ent0008" data-entity-2="ent0002" data-link-type="association" data-source-line="56" id="lnk18"><path codeLine="56" d="M339,190.9339 C339,214.3839 339,243.0439 339,270.6239" fill="none" id="manifest-sheet" style="stroke:#181818;stroke-width:1;stroke-dasharray:7,7;"/><text fill="#000000" font-family="'Noto Sans CJK JP'" font-size="13" lengthAdjust="spacing" textLength="91.0001" x="340" y="236.8839">&#23455;&#34892;&#29872;&#22659;&#12434;&#23450;&#32681;</text></g><?plantuml-src TLHjRnD74FxkNx7A9qSLvdk4yg5fg4pRcE9GH5K9RSzhtvNpxUbshn6gaEgx1fauA824Ir19auWg8TIf1LNgXXB_cFNvd7_HsRttg9MiasVccPsPPrwumKs2XFT1-Fy8xs_XlPD__8UYSpmzw4sxZqNdS7BsCXWyF-_lJyPUYTqrB1ixk8qQf8bTar-b5b_1ROBcLYYdg8ujXfQkVOQkNP_BWPcE6tJDi5geYKr6IYKRQtTn2xoOersUGp-K4D9Cp1WeT49uXRCvX1bI0hfoHNY7meVSki8_KXc-5DwhI5CMtbzArKKtg_EBY-ejX3wYLiqcLdaUBK1zRrHnO-7l2dzF-3tX_mO-i_67O6CtWgj8TS9TMxdC3WV1yGlXlm-sXi7eNHf34dFQ3xpjl1V73bzr207FooXJrGbsDBqyduVgT0rit6LvBBKBe2NgMhosPf56h7O8RjJZ_3YGo5AzHft8yZbjgHURfilqJ0Em-ncrt87kD8cJi9l8GF1aD9ZkZeG_41vyVU7zaJB9el8Yw2s3wtNmuwHrBqdQ8SnjamGHCHvroljTijRP39x0zoH-ZTePD2h3jJx6N3851O0WgIme8Y9ZbN99CfSiEKmtx6epJrZJi0ocvp82OgZJnlowGrkGRa9WWp3DCRubohVAIPjTf0oAvoITHYa0MU76oNIz9qTXE0fFNWIR_Omi_3sH3IPn19D2wtAoPa8jcQBG7AFLWcAovaIodFuSc-7nNlZuGHPFqqd3DSaDrOEqB9FmMBKQFtCnd4Qjfj5AWaMI2jM9TaCj2Spz4DPW-coO1boghLojVhg04dANbASorMwjB7zofxgw_4NzpfStbs_Slb3WFPkmIYEjJueGCTZfGOZmx7LPNH_uFL6x_MQwxG75eZFEbheO5BgQA1IZ1OZQm9hD3Ge7gGXanRomRJCv1ZQlVCUefP9hOyje4gPEZx-Zk7Wcl0DvHVnkcWutskHhQf5eIgNq5J0D4PMLOXTsHQDGfWfulrIApjcbIulPwYsWytulEEZ16q7db-bW7_vCtfy0vU7-wUpeKSud6Zzm-F7jzD7FmCtiQ03q15jzuMsKqXShbSNuRYwW-7frHhF3v-URRx-noiMRCP-vvIDCnlBaovJENWVhVX6K3YRWJhlXdpz9tCEDy-rNHLmyKv24cg1WomlN3tBb_8zTfI1hY0O4p3izuJsDpOKg_nEHjgvIoMWu_dMsjna-7GRxlaIgUViN?></g></svg>